<svg xmlns="http://www.w3.org/2000/svg" height="48" viewBox="0 -960 960 960" width="48"><path d="M634.652-211.565q-27.442-25.67-40.579-59.814-13.138-34.143-13.138-69.382 0-35.478 13.12-69.576 13.119-34.098 40.597-61.098l75-75q14.283-14.522 22.163-33.483 7.881-18.962 7.881-39.902 0-20.941-7.881-40.082-7.88-19.141-22.163-34.663l-47-47q-11.956-10.212-11.456-26.802t12.007-28.068q10.267-10.717 26.934-10.717 16.668 0 28.385 10.717l46 47q26 27 39.859 60.598 13.858 33.598 13.858 67.611 0 35.014-13.858 68.767-13.859 33.754-39.859 59.894l-75 75q-16.696 17.054-23.99 35.884-7.293 18.831-7.293 39.681 0 20.883 7.293 40.184 7.294 19.301 23.99 35.381l47 47q10.717 11.297 10.717 27.464 0 16.167-10.507 26.645-11.506 11.717-28.173 11.717-16.668 0-27.146-11.717l-46.761-46.239Zm-219.087 0q-27.239-25.688-40.478-59.942-13.239-34.254-13.239-69.493t13.239-69.493q13.239-34.254 40.478-60.942l75-75q14.283-14.522 22.283-33.483 8-18.962 8-39.902 0-20.941-8-40.082-8-19.141-22.283-34.663l-47-47q-11.717-10.478-11.717-26.646 0-16.167 11.717-27.434 10.478-10.507 26.935-11.007t27.935 10.217l47 47q26.239 26.705 39.978 60.831 13.739 34.126 13.739 68.365 0 34.478-13.739 68.214t-39.978 59.46l-75 75q-16.697 17.298-23.99 36.798-7.293 19.501-7.293 39.656 0 21.154 7.293 40.079 7.293 18.924 23.99 34.597l47 47q10.717 11.297 10.717 27.464 0 16.167-10.507 26.645-11.267 11.717-28.054 11.717t-27.265-11.717l-46.761-46.239Zm-218.848-1Q169.239-238.51 156-272.135 142.761-305.761 142.761-341T156-410.493q13.239-34.254 40.717-60.942l75-76Q286-561.957 293.88-580.918q7.881-18.962 7.881-39.902 0-20.941-7.881-40.082-7.88-19.141-22.163-34.663l-47-47q-11.956-10.478-11.956-26.568 0-16.09 11.956-27.302 10.478-10.717 26.315-10.717 15.837 0 27.555 10.717l48 47q26.239 26.705 39.978 60.331 13.739 33.626 13.739 67.865 0 34.478-13.859 68.714-13.858 34.236-39.858 59.96l-75 75q-16.697 17.08-23.99 36.381-7.293 19.301-7.293 40.184 0 20.85 7.293 39.681 7.293 18.83 23.99 34.884l47 46.761q10.717 11.296 10.217 27.464-.5 16.167-11.217 26.819-11.718 11.543-27.555 11.663-15.837.119-26.315-11.837l-47-47Z"/></svg>