<svg xmlns="http://www.w3.org/2000/svg" height="40" viewBox="0 -960 960 960" width="40"><path d="M625.334-214.667Q599-241 586-274q-13-33-13-67.333 0-34.334 12.834-67 12.833-32.667 39.5-59l75-75q16.333-16.334 24.166-36.334 7.834-20 7.834-41.333t-7.834-41.333q-7.833-20-24.166-36.334l-47-47q-10-10-9.5-23.833.5-13.833 10.5-23.833 10-10 23.833-10 13.833 0 23.833 10l46 47q26.333 26.333 39.167 59Q800-653.667 800-620t-12.833 65.833Q774.333-522 748-495.667l-75 75Q656.333-404 648.167-384 640-364 640-342t8.167 42.5Q656.333-279 673-262.333l47 47q10 10 10 23.333 0 13.333-10 23.333-10 10-23.833 10-13.833 0-23.833-10l-47-46Zm-206.667 0Q392.333-241 379.5-273.833 366.667-306.667 366.667-341t12.833-67.167q12.833-32.833 39.167-59.166l75-75q16.333-16.334 24.166-36.334 7.834-20 7.834-41.333t-7.834-41.333q-7.833-20-24.166-36.334l-47-47q-9.667-9.666-9.833-23.166-.167-13.5 9.833-23.5 9.666-10 23.666-10.5t24 9.5l47 47q26.334 26.333 39.167 59 12.833 32.666 12.833 66.333T580.5-554.167q-12.833 32.167-39.167 58.5l-75 75q-16.666 16.667-24.833 37-8.167 20.334-8.167 42.334 0 22 8.167 42.166 8.167 20.167 24.833 36.834l47 47q10 10 10 23.333 0 13.333-10 23.333-10 10-23.833 10-13.833 0-23.833-10l-47-46Zm-206.667-1Q185.667-242 172.833-274.333 160-306.667 160-341t12.833-67.167Q185.667-441 212-467.333l75-76q16.333-16.334 24.167-36.334Q319-599.667 319-621t-7.833-41.333q-7.834-20-24.167-36.334l-47-47q-9.667-9.666-9.833-23.166-.167-13.5 9.833-23.5 9.667-9.667 23.333-9.334 13.667.334 23.333 9.334l48 47Q361-719 373.833-686.667q12.833 32.334 12.833 66 0 33.667-12.833 66.167t-39.167 58.833l-75 75Q243-404 234.833-383.5q-8.167 20.5-8.167 42.5t8.167 42q8.167 20 24.833 36.667l47 47q10 10 9.5 23.333-.5 13.333-10.5 23.333-10 9.667-23.333 9.833-13.333.167-23.333-9.833l-47-47Z"/></svg>