<svg xmlns="http://www.w3.org/2000/svg" height="24" viewBox="0 -960 960 960" width="24"><path d="M593-219q-24.545-24.495-37.273-56.247Q543-307 543-341t13-65.5q13-31.5 37-56.5l75-75q18-17.71 26-38.729 8-21.02 8-43.145 0-22.126-8-43.286-8-21.161-26-38.84l-46-47q-8-7.733-8.5-18.367Q613-778 621.789-787q7.79-8 18.5-8Q651-795 660-787l47 46q25 25.236 37.5 55.997t12.5 63.656q0 32.896-12.5 64.418Q732-525.406 707-500l-75 75q-18.065 17.906-26.532 39.169Q597-364.568 597-341q0 23.6 8.532 44.26Q614.065-276.08 632-258l46 47q8 7.818 8.5 18.409T678.211-173q-7.79 8-18.5 8Q649-165 640-173l-47-46Zm-170 0q-25-24.75-37.5-56.375T373-341q0-34 12.5-65.625T423-463l75-75q18-17.71 26-38.729 8-21.02 8-43.145 0-22.126-8-43.286-8-21.161-26-38.84l-47-48q-8-8-8-18.211 0-10.21 8.174-19Q459-796 469.5-795t19.5 8l48 46q25 24.942 37.5 56.35t12.5 64.529q0 33.121-12.5 64.126Q562-524.989 537-500l-75 75q-18.065 17.853-26.532 39.054Q427-364.745 427-340.872q0 23.872 8.532 44.536Q444.065-275.673 462-258l46 47q8 7.818 8.5 18.409T508.211-173q-7.79 8-18.5 8Q479-165 470-173l-47-46Zm-170-1q-25-24.726-37.5-55.863T203-341q0-34 13-65.656 13-31.656 38-56.344l74-76q18-17.71 26-38.729 8-21.02 8-43.145 0-22.126-8-43.286-8-21.161-26-38.84l-47-48q-8-8-7.5-18.633.5-10.634 8.674-18.541Q290-796 300-796t18 8l49 47q25 24.759 37.5 55.937Q417-653.885 417-621q0 33.388-12.5 64.611Q392-525.165 367-500l-75 75q-17.935 18.08-26.468 38.74Q257-365.6 257-342q0 23.568 8.468 44.831Q273.935-275.906 292-258l46 47q8 7.818 8.5 18.409t-8.5 19.765q-8.091 7.493-19.045 7.159Q308-166 301-173l-48-47Z"/></svg>