<svg xmlns="http://www.w3.org/2000/svg" height="24" viewBox="0 -960 960 960" width="24"><path d="M627.61-195.348q-30.659-29.8-45.743-67.878-15.083-38.078-15.083-77.774t15.065-77.609q15.065-37.913 45.761-68.043l75-75q12.304-12.87 17.739-27.495 5.435-14.625 5.435-30.673 0-16.05-5.435-30.854-5.435-14.804-17.739-27.674l-47-47q-18.826-17.994-18.609-43.019.217-25.024 18.833-43.285 18.051-18.827 43.435-18.827 25.385 0 43.646 18.827l46 47q30.13 29.565 45.478 66.761 15.348 37.195 15.348 76.665 0 38.905-15.348 77.039t-45.478 67.839l-75 75q-12.24 12.924-18.207 28.2-5.967 15.276-5.967 31.148 0 15.904 5.967 31.651t18.207 28.697l47 47q18.826 18.079 18.826 42.844t-18.616 43.026q-18.05 18.826-43.435 18.826-25.384 0-43.645-18.826l-46.435-46.566Zm-228.262 0q-30.696-29.818-45.761-67.887-15.066-38.069-15.066-77.765t15.066-77.765q15.065-38.069 45.761-67.887l75-75q12.304-12.87 17.739-27.495 5.434-14.625 5.434-30.673 0-16.05-5.434-30.854-5.435-14.804-17.739-27.674l-47-47q-17.827-17.261-18.044-42.363-.217-25.102 18.044-43.152 17.261-18.616 42.652-18.616 25.391 0 43.652 17.827l47 47q30.131 29.27 45.479 66.613 15.348 37.343 15.348 77.039t-15.348 77.53q-15.348 37.834-45.479 67.122l-75 75q-12.239 13.168-18.206 28.451-5.967 15.283-5.967 31.459 0 16.177 5.967 31.71 5.967 15.533 18.206 28.076l47 47q18.827 18.079 18.827 42.844t-18.616 43.026q-18.05 18.826-43.435 18.826t-43.646-18.826l-46.434-46.566Zm-228.263-1q-30.696-29.835-45.761-67.396-15.065-37.56-15.065-77.256t15.065-77.765q15.065-38.069 45.761-67.887l75-76q11.87-12.87 17.522-27.495 5.652-14.625 5.652-30.673 0-16.05-5.435-30.854-5.435-14.804-17.739-27.674l-47-47q-18.391-17.261-18.609-42.285-.217-25.025 18.609-43.019 17.261-17.827 42.653-17.827 25.391 0 42.652 17.827l48 47q30.696 29.27 45.761 66.613 15.065 37.343 15.065 77.039t-15.348 77.53q-15.347 37.834-45.478 67.122l-75 75q-12.24 12.95-18.207 28.697-5.967 15.747-5.967 31.651 0 15.872 5.967 31.148t18.207 28.2l47 46.434q18.826 18.079 18.326 43.127-.5 25.048-19.326 42.917-18.261 17.653-43.152 17.653-24.892 0-42.153-17.827l-47-47Z"/></svg>