<svg xmlns="http://www.w3.org/2000/svg" height="48" viewBox="0 -960 960 960" width="48"><path d="M607-230q-22.582-22.825-33.791-51.662Q562-310.5 562-341t10.986-59.182Q583.973-428.863 607-452l75-75q18.5-18.21 29-42.512t10.5-50.542q0-26.239-10.5-50.503T682-713l-46-47.398q-2.5-2.735-3-7.419-.5-4.683 3.355-8.183 2.856-2.5 7.5-2.5 4.645 0 8.145 2.5l47 46q23 23.089 34.25 51.423 11.25 28.335 11.25 58.456 0 30.121-11.25 58.057Q722-534.128 699-511l-75 75q-20.097 20.259-29.798 44.638-9.702 24.379-9.702 49.862 0 26.331 9.766 50.206Q604.032-267.418 624-247l46 46.5q2.5 3.535 3 8.164.5 4.63-3.105 7.983-2.606 3.353-7.5 3.353-4.895 0-7.895-3.5L607-230Zm-173 0q-23-23.469-33.75-52.234Q389.5-311 389.5-341t10.75-58.766Q411-428.531 434-452l75-75q18.5-18.21 29-42.512t10.5-50.542q0-26.239-10.5-50.503T509-713l-47-48q-2.5-2.5-2.5-6.983 0-4.484 2.739-8.517 2.261-3 7.087-2.5t8.674 3l48 46q23 23.089 34.25 51.673 11.25 28.585 11.25 58.706 0 30.121-11.25 57.807Q549-534.128 526-511l-75 75q-20.097 19.667-29.798 43.842Q411.5-367.983 411.5-342q0 26.831 9.766 50.706Q431.032-267.418 451-247l46 46.5q2.5 3.535 3 8.164.5 4.63-3.105 7.983-2.606 3.353-7.5 3.353-4.895 0-7.895-3.5L434-230Zm-172.843-1Q238-254.442 227.25-283.221 216.5-312 216.5-341.75q0-29.25 11.25-58.047Q239-428.594 262-452l74-76q18.5-18.21 29-42.512t10.5-50.542q0-26.239-10.5-50.503T336-714l-47-48q-2.5-2.5-2-7.233.5-4.734 3.174-8.441Q292.5-779.5 297-779.5t7.5 2L353-730q23 21.554 34.25 50.565 11.25 29.012 11.25 58.935 0 29.473-11.25 57.847Q376-534.279 353-511l-75 75q-19.968 20.418-29.734 44.339-9.766 23.92-9.766 49.541 0 25.62 9.702 50.24Q257.903-267.259 278-247l46 46.5q2.5 3.591 3 8.295.5 4.705-2.75 7.27-3.341 3.102-7.795 3.268Q312-181.5 309.43-184l-48.273-47Z"/></svg>