<svg xmlns="http://www.w3.org/2000/svg" height="40" viewBox="0 -960 960 960" width="40"><path d="M642.871-208.464q-27.718-27.34-41.283-61.619-13.565-34.279-13.565-70.685 0-36.783 13.681-71.105 13.681-34.323 41.167-61.663l75-75q14.804-14.805 21.862-33.217 7.058-18.413 7.058-38.247t-7.058-38.247q-7.058-18.412-21.862-33.217l-47-46.765q-13.08-12.771-12.924-30.188.155-17.416 13.025-30.119 12.87-12.703 30.381-12.703 17.511 0 30.591 12.703l46 47q26.775 27.152 40.905 61.192 14.131 34.04 14.131 69.779 0 36.116-14.131 70.033-14.13 33.916-40.905 61.068l-75 75q-15.66 15.66-22.812 34.198-7.152 18.538-7.152 38.433 0 20.126 7.152 38.881 7.152 18.756 22.812 34.416l47 46.5q12.703 12.938 12.703 30.201 0 17.263-12.703 30.201-13.08 12.939-30.591 12.939-17.511 0-30.214-13.037l-46.268-46.732Zm-230.407 0q-27.341-27.34-41.022-61.735-13.681-34.395-13.681-70.801t13.681-70.801q13.681-34.395 41.022-61.735l75-75q14.804-14.805 22.05-33.217 7.247-18.413 7.247-38.247t-7.247-38.247q-7.246-18.412-22.05-33.217l-47-47q-12.87-12.369-12.693-29.442.178-17.072 12.526-30.13 12.536-12.703 30.036-12.953t30.203 12.453l47 47q27.153 27.152 41.095 61.192t13.942 69.779q0 36.116-13.942 70.033-13.942 33.916-41.095 61.068l-75 75q-15.659 15.66-22.811 34.531-7.152 18.872-7.152 38.766 0 20.126 7.152 38.549 7.152 18.422 22.811 34.082l47 46.5q12.703 12.938 12.703 30.201 0 17.263-12.703 30.201-12.703 12.939-30.402 12.939t-30.402-13.037l-46.268-46.732Zm-229.926-1q-27.257-27.152-41.221-61.391-13.964-34.239-13.964-70.478 0-36.24 13.964-70.551 13.964-34.312 41.116-61.652l75-76q14.805-14.805 21.863-33.217 7.057-18.413 7.057-38.247t-7.057-38.247q-7.058-18.412-21.863-33.217l-47-47q-13.435-12.369-13.257-29.442.177-17.072 13.257-30.13 12.87-12.537 29.598-12.203 16.729.333 29.975 12.203l47.5 47.5q27.341 27.152 41.189 60.858 13.848 33.707 13.848 69.446 0 36.116-14.131 70.366-14.13 34.25-40.906 61.402l-75 75q-15.659 15.66-22.811 34.529-7.152 18.869-7.152 38.855 0 19.986 7.152 38.435t22.811 34.109l47 45.934q12.703 12.976 12.453 30.383-.25 17.408-13.119 29.922-13.247 12.87-30.341 12.609-17.095-.261-29.279-12.776l-46.682-47Z"/></svg>