<svg xmlns="http://www.w3.org/2000/svg" height="40" viewBox="0 -960 960 960" width="40"><path d="M610.513-226.513q-23.332-23.519-34.89-53.157-11.559-29.638-11.559-61.15 0-31.513 11.48-61.228 11.481-29.715 34.969-53.439l75-75q18.167-17.944 27.897-41.253 9.731-23.309 9.731-48.301 0-24.993-9.731-48.272-9.73-23.28-27.897-41.2l-46.231-47.15q-4.372-4.508-4.699-11.211-.326-6.703 5.035-11.844 4.593-4.372 11.276-4.372t11.824 4.372l46.769 46.231q23.654 23.76 35.372 53.107 11.718 29.347 11.718 60.287 0 30.939-11.718 59.866t-35.372 52.714l-75 75q-19.428 19.441-28.669 42.829t-9.241 48.235q0 25.464 9.291 48.433 9.29 22.968 28.619 42.529l46.231 46.5q4.372 5.085 4.757 11.724.384 6.639-4.811 11.63-4.426 4.992-11.301 4.992-6.876 0-11.632-5.09l-47.218-45.782Zm-180 0q-23.654-23.91-35.013-53.57-11.359-29.661-11.359-60.917t11.359-60.917q11.359-29.66 35.013-53.57l75-75q18.166-17.944 27.897-41.253 9.731-23.309 9.731-48.301 0-24.993-9.731-48.272-9.731-23.28-27.897-41.2l-47-47.769q-4.41-4.295-4.391-10.752.019-6.457 4.52-11.953 4.166-4.757 10.961-4.43 6.796.327 12.115 4.699l47.769 46.231q23.654 23.76 35.372 53.107 11.718 29.347 11.718 60.287 0 30.939-11.718 59.866t-35.372 52.714l-75 75q-19.429 19.061-28.669 42.331-9.241 23.27-9.241 48.374 0 25.721 9.29 48.74 9.291 23.02 28.62 42.581l46.231 46.5q4.372 5.085 4.756 11.724.385 6.639-4.81 11.63-4.426 4.992-11.301 4.992-6.876 0-11.632-5.09l-47.218-45.782Zm-179.896-1q-23.758-23.886-35.117-53.308-11.359-29.423-11.359-60.512 0-30.705 11.743-60.499 11.744-29.793 35.398-53.655l74.231-76q18.166-17.944 27.897-41.253 9.731-23.309 9.731-48.301 0-24.993-9.731-48.272-9.731-23.28-27.897-41.2l-47-47.769q-4.411-4.295-4.007-10.944.404-6.649 4.91-11.895 4.276-3.943 10.641-3.866 6.366.077 11.161 4l48.269 47.5q23.654 22.798 35.372 52.292 11.718 29.495 11.718 60.272 0 30.675-11.718 60.088-11.718 29.412-35.372 53.322l-75 75q-19.33 19.561-28.62 42.643-9.29 23.081-9.29 48.021 0 24.939 9.24 48.43 9.241 23.491 28.67 42.932l46.231 46.5q4.372 5.122 4.698 11.811.327 6.689-4.596 11.222-4.993 4.762-11.471 4.787-6.477.026-10.896-4.346l-47.836-47Z"/></svg>