<svg xmlns="http://www.w3.org/2000/svg" height="24" viewBox="0 -960 960 960" width="24"><path d="M604.769-223.846q-23.601-23.788-35.839-54.625t-12.238-62.76q0-31.923 11.962-62.461 11.961-30.539 36.115-54.462l75-75q18.077-17.854 27.116-40.468 9.038-22.615 9.038-46.419 0-23.805-9.038-46.39-9.039-22.585-27.116-40.415l-46.23-47q-5.847-5.846-6.116-13.885-.269-8.038 6.346-14.654 5.846-5.846 13.885-5.846t14.654 5.846l46.769 46.231q23.923 24.105 35.885 54.459 11.961 30.355 11.961 61.602 0 31.247-11.961 61.183-11.962 29.936-35.885 54.064l-75 75q-19.176 18.963-28.165 41.481-8.989 22.519-8.989 47.134 0 24.616 9.039 46.808 9.038 22.192 28.115 41.269l46.231 47q5.846 5.846 6.231 13.769.384 7.924-6.231 14.539Q674.462-172 666.423-172q-8.038 0-14.654-5.846l-47-46Zm-176.923 0q-23.923-23.971-35.885-54.601Q380-309.077 380-341t11.961-62.553q11.962-30.63 35.885-54.601l75-75q18.077-17.854 27.115-40.468Q539-596.237 539-620.041q0-23.805-9.039-46.39-9.038-22.585-27.115-40.415l-47-47.769q-5.615-5.616-5.731-13.27-.115-7.654 5.865-14.269 5.481-6.615 13.635-6.346 8.154.269 14.77 6.115l47.769 46.231q23.923 24.105 35.885 54.459Q580-651.34 580-620.093q0 31.247-11.961 61.183-11.962 29.936-35.885 54.064l-75 75q-19.176 18.735-28.165 40.983Q420-366.615 420-342t9.039 47.192q9.038 22.577 28.115 41.654l46.231 47q5.846 5.846 6.231 13.769.384 7.924-6.231 14.539Q497.539-172 489.5-172t-14.654-5.846l-47-46Zm-176.923-1Q227-248.785 215.038-278.931 203.077-309.077 203.077-341q0-31.923 12.346-62.577t36.269-54.577l74.231-76q18.077-17.854 27.115-40.468 9.039-22.615 9.039-46.419 0-23.805-9.039-46.39-9.038-22.585-27.115-40.415l-47-47.769q-5.616-5.616-5.346-13.654.269-8.039 6.249-14.019 5.481-5.481 13.251-5.481 7.769 0 13.384 5.615l48.77 47q23.923 23.965 35.884 54.142 11.962 30.178 11.962 61.243 0 31.452-11.962 61.556-11.961 30.104-35.884 54.367l-75 75q-19.077 19.077-28.116 41.269-9.038 22.192-9.038 46.808 0 24.615 8.989 47.134 8.989 22.518 28.165 41.481l46.23 47q5.847 5.846 6.116 13.769.269 7.924-6.346 14.539-5.916 5.359-13.805 5.603-7.888.243-13.734-5.603l-47.769-47Z"/></svg>