<svg xmlns="http://www.w3.org/2000/svg" height="24" viewBox="0 -960 960 960" width="24"><path d="M603-229q-22.582-22.825-34.041-51.912Q557.5-310 557.5-341t11.25-60Q580-430 603-453l75-75q19-18.71 28.75-42.659 9.75-23.949 9.75-49.395t-9.75-49.356Q697-693.321 678-712l-46-47q-3.5-3.5-4-8.5t4-9.5q3.5-3.5 8.5-3.5t9.5 3.5l47 46q23 23.236 34.5 51.997t11.5 58.882q0 30.121-11.5 58.488T697-510l-75 75q-20.129 19.852-29.565 43.926Q583-367 583-341q0 26.5 9.5 49.75T622-248l46 46.5q3.5 4 4 9.25t-4 9.25q-3.5 4-8.75 4t-9.25-4l-47-46Zm-170 0q-23-23.062-34.25-52.031Q387.5-310 387.5-341t11.25-59.969Q410-429.938 433-453l75-75q19-18.71 28.75-42.659 9.75-23.949 9.75-49.395t-9.75-49.356Q527-693.321 508-712l-47-48q-3.5-3.5-3.5-8.25t3.674-9.25q3.326-4 8.326-3.5t9.5 4l48 46q23 23.236 34.5 51.997t11.5 58.882q0 30.121-11.5 58.488T527-510l-75 75q-20.129 19.556-29.565 43.278Q413-368 413-342q0 26.5 9.5 50.25T452-248l46 46.5q3.5 4 4 9.25t-4 9.25q-3.5 4-8.75 4t-9.25-4l-47-46Zm-170-1q-23-23.021-34.25-51.761Q217.5-310.5 217.5-341.5q0-30.5 11.75-59.5T264-453l74-76q19-18.71 28.75-42.659 9.75-23.949 9.75-49.395t-9.75-49.356Q357-694.321 338-713l-47-48q-3.5-3.5-3-8.5t4.174-9.174Q295.5-782 300-782t8.5 3.5L357-731q23 22.554 34.5 51.335Q403-650.885 403-621q0 30.388-11.5 58.973Q380-533.442 357-510l-75 75q-20 20-29.5 43.5T243-342q0 26 9.435 50.074Q261.871-267.852 282-248l46 46.5q3.5 4 4 9.25t-3.5 9.25q-4.091 3.667-9.045 3.583Q314.5-179.5 311-183l-48-47Z"/></svg>