<svg xmlns="http://www.w3.org/2000/svg" height="40" viewBox="0 -960 960 960" width="40"><path d="M604.282-220.282q-24.744-23.971-37.013-55.499Q555-307.308 555-340.487q0-33.18 12.339-64.952 12.34-31.773 36.943-56.946l75-75q16.718-16.494 25.59-37.925 8.872-21.431 8.872-44.552 0-23.12-8.872-44.701t-25.59-38.719l-46.23-47q-7.539-6.674-7.808-17.35-.269-10.676 7.882-18.983 6.715-6.872 17.448-6.872 10.734 0 19.042 6.872l46.769 46.23q24.436 25.209 36.987 55.947 12.551 30.739 12.551 63.119 0 33.047-12.551 64.187t-36.987 55.85l-75 75q-18.583 18.713-27.022 40.227-8.44 21.513-8.44 44.824 0 23.344 8.489 44.499 8.49 21.156 26.973 39.347l46.231 47q6.871 7.45 7.256 17.956.385 10.506-7.1 18.147-7.382 7.538-18.115 7.538-10.734 0-18.375-7.538l-47-46Zm-180 0q-25.102-24.38-37.32-56.087-12.218-31.708-12.218-64.631t12.218-64.631q12.218-31.707 37.32-56.754l75-75q16.718-16.494 25.59-37.925 8.872-21.431 8.872-44.552 0-23.12-8.872-44.701t-25.59-38.719l-47-47.769q-7.461-6.795-7.5-17.121-.038-10.326 7.411-18.423 6.884-7.431 17.41-6.995 10.526.436 19.012 6.975l47.77 46.23q24.435 24.915 36.987 56.133 12.551 31.219 12.551 63.825 0 32.607-12.551 63.729-12.552 31.123-36.987 55.416l-75 75q-18.583 18.577-27.022 40.262-8.44 21.686-8.44 44.891 0 23.873 8.489 44.916 8.489 21.044 26.973 38.828l46.23 47q6.872 7.45 7.257 17.956.384 10.506-7.1 18.147-7.382 7.538-18.115 7.538-10.734 0-18.375-7.538l-47-46Zm-180-1q-25.103-24.373-37.321-55.584-12.218-31.211-12.218-64.134t12.603-64.655q12.603-31.731 37.705-56.73l74.231-76q16.385-16.494 25.423-37.925 9.038-21.431 9.038-44.552 0-23.12-8.871-44.701-8.872-21.581-25.59-38.719l-47-47.769q-7.462-6.795-7.115-17.428.346-10.634 8.018-18.039 6.661-6.661 16.815-6.918 10.154-.256 17.615 7.051l48.769 47q24.436 24.337 36.987 55.511 12.552 31.174 12.552 63.618 0 32.341-12.552 63.95-12.551 31.608-36.987 56.024l-75 75q-18.483 18.858-26.972 40.014-8.489 21.155-8.489 44.499 0 23.311 8.439 44.824 8.44 21.514 27.022 39.56l46.231 47q6.872 7.45 7.141 17.956.269 10.506-7.372 18.098-7.608 7.254-18.201 7.254t-17.132-7.205l-47.769-47Z"/></svg>