<svg xmlns="http://www.w3.org/2000/svg" height="40" viewBox="0 -960 960 960" width="40"><path d="M618.589-221.257q-24.582-24.676-36.861-55.786-12.279-31.111-12.279-64.034t12.156-63.905q12.157-30.983 36.984-55.761l75-75q17.334-17.222 26.199-39.072 8.866-21.85 8.866-45.206 0-23.355-8.866-45.191-8.865-21.835-26.199-39.045l-46.615-46.958q-6.936-7.037-6.974-16.93-.039-9.893 7.475-17.213 7.13-6.936 17.013-6.936 9.883 0 17.203 6.936l46.385 46.615q24.743 24.797 37.102 55.595 12.359 30.798 12.359 63.101t-12.359 62.642q-12.359 30.338-37.102 55.148l-75 75q-18.298 18.304-26.919 40.209-8.62 21.906-8.62 45.407 0 23.926 8.645 45.73t26.894 40.168l46.615 46.5q6.936 7.41 7.128 17.053.192 9.642-7.155 17.005-6.963 7.364-16.942 7.364t-17.107-7.462l-47.026-45.974Zm-193.332 0q-24.744-24.872-36.84-55.91-12.096-31.038-12.096-63.833t12.096-63.833q12.096-31.038 36.84-55.91l75-75q17.333-17.222 26.199-39.072 8.865-21.85 8.865-45.206 0-23.355-8.865-45.191-8.866-21.835-26.199-39.045l-47-47.385q-7.038-6.73-6.987-16.328.051-9.597 6.968-17.273 6.749-7.128 16.73-7.09 9.981.039 17.39 6.975l47.385 46.615q24.744 24.797 37.103 55.595 12.358 30.798 12.358 63.101t-12.358 62.642q-12.359 30.338-37.103 55.148l-75 75q-18.298 18.114-26.918 40.127-8.621 22.013-8.621 45.643 0 24.054 8.646 45.717 8.645 21.663 26.893 40.027l46.615 46.5q6.936 7.41 7.128 17.053.193 9.642-7.155 17.005-6.962 7.364-16.941 7.364t-17.107-7.462l-47.026-45.974Zm-193.228-1q-24.848-24.859-36.944-55.654-12.096-30.794-12.096-63.422 0-32.436 12.288-63.499 12.289-31.063 37.032-55.911l74.615-76q17.334-17.222 26.199-39.072 8.866-21.85 8.866-45.206 0-23.355-8.866-45.191-8.865-21.835-26.199-39.045l-47-47.385q-7.038-6.73-6.794-16.424.243-9.694 7.246-17.244 6.971-6.638 16.445-6.433 9.474.205 16.705 6.5l47.885 47.5q24.743 24.315 37.102 55.021 12.359 30.705 12.359 62.927 0 32.171-12.359 62.919-12.359 30.747-37.102 55.619l-75 75q-18.249 18.364-26.894 40.281-8.645 21.918-8.645 45.511 0 23.593 8.62 45.506 8.621 21.912 26.919 40.216l46.615 46.5q6.936 7.447 6.974 17.14.039 9.692-7.256 16.709-7.33 7.214-16.902 7.143-9.572-.07-16.554-7.006l-47.259-47Z"/></svg>