<svg xmlns="http://www.w3.org/2000/svg" height="24" viewBox="0 -960 960 960" width="24"><path d="M624.131-208.174q-27.457-27.456-41.696-62.424-14.239-34.967-14.239-71.163t13.859-70.402q13.858-34.207 42.076-61.663l75-75q14.782-14.783 21.804-33.207 7.022-18.424 7.022-37.967t-7.022-37.967q-7.022-18.424-21.804-33.207l-47-46.5q-13.174-13.174-13.044-30.576.131-17.402 13.304-30.576Q665.565-812 683.087-812q17.522 0 30.696 13.174l46 47q27.217 27.217 41.196 61.304 13.978 34.087 13.978 70.283t-13.978 70.022Q787-516.391 759.783-489.174l-75 75q-15.543 15.544-22.685 34.337-7.141 18.794-7.141 38.337 0 19.543 7.141 38.337 7.142 18.793 22.685 34.337l47 46.5q13.174 13.174 13.174 30.446 0 17.271-13.174 30.445t-30.696 13.174q-17.522 0-30.696-13.174l-46.26-46.739Zm-211.957 0q-27.457-27.456-41.315-62.043Q357-304.804 357-341t13.859-70.783q13.858-34.587 41.315-62.043l75-75q14.782-14.783 21.804-33.207Q516-600.457 516-620t-7.022-37.967q-7.022-18.424-21.804-33.207l-47-47q-12.674-12.174-12.805-29.576-.13-17.402 12.305-30.576Q452.348-811.5 470-811.75t30.826 12.924l47 47q27.218 27.217 41.196 61.304Q603-656.435 603-620.239t-13.978 70.022q-13.978 33.826-41.196 61.043l-75 75q-15.543 15.544-22.685 34.337Q443-361.043 443-341.5q0 19.543 7.141 38.337 7.142 18.793 22.685 34.337l47 46.5Q533-209.152 533-191.88q0 17.271-13.174 30.445t-30.696 13.174q-17.521 0-30.695-13.174l-46.261-46.739Zm-211.957-1Q173-236.391 159.021-270.848q-13.978-34.456-13.978-70.652t13.978-70.533Q173-446.37 200.217-473.826l75-76q14.783-14.783 21.804-33.207 7.022-18.424 7.022-37.967t-7.022-37.967q-7.021-18.424-21.804-33.207l-47-47q-12.913-12.174-13.043-29.576-.131-17.402 13.043-30.576Q240.891-812 258.293-812t30.076 12.674l47.5 47.5q27.457 27.217 41.316 61.304 13.858 34.087 13.858 70.283t-13.978 70.022q-13.978 33.826-41.196 61.043l-75 75q-15.543 15.544-22.684 34.587-7.142 19.044-7.142 38.587 0 19.543 7.142 38.087 7.141 18.543 22.684 34.087l47 46.261q13.174 13.174 12.924 30.565-.25 17.391-13.424 30.326-13.174 12.674-30.445 12.555-17.272-.12-30.207-13.055l-46.5-47Z"/></svg>