<svg xmlns="http://www.w3.org/2000/svg" height="40" viewBox="0 -960 960 960" width="40"><path d="M605.333-229.333q-22.581-22.825-33.957-51.746Q560-310 560-340.667q0-30.666 11.324-59.787 11.325-29.121 34.009-52.213l75-75q19-18.709 28.834-42.753Q719-594.464 719-620.054t-9.833-49.595q-9.834-24.005-28.834-42.684l-46-47q-3.333-3.423-3.833-8.211-.5-4.789 3.904-9.123Q637.807-780 642.57-780t9.097 3.333l47 46q23 23.138 34.166 51.782Q744-650.242 744-620.121q0 30.121-11.167 58.367-11.166 28.247-34.166 51.421l-75 75q-20.108 20.123-29.887 44.228Q584-367 584-341q0 26 9.844 49.527 9.844 23.528 29.823 43.806l46 47q3.333 3.455 3.833 8.228.5 4.772-3.904 9.106Q666.193-180 661.43-180t-9.097-3.333l-47-46Zm-172 0q-23-23.334-34.166-52.334Q388-310.667 388-341t11.167-59.333q11.166-29 34.166-52.334l75-75q19-18.709 28.834-42.753Q547-594.464 547-620.054t-9.833-49.595q-9.834-24.005-28.834-42.684l-47-48Q458-763.667 458-768t3.217-8.667q3.45-4.333 8.167-3.833t9.283 3.833l48 46q23 23.138 34.166 51.782Q572-650.242 572-620.121q0 30.121-11.167 58.367-11.166 28.247-34.166 51.421l-75 75q-20.108 19.629-29.887 43.481Q412-368 412-341.667q0 26.334 9.844 50.028t29.823 43.972l46 47q3.333 3.455 3.833 8.228.5 4.772-3.904 9.106Q494.193-180 489.43-180t-9.097-3.333l-47-46Zm-172-1q-23-23.302-34.166-51.818Q216-310.667 216-341t11.667-59.365q11.666-29.031 34.666-52.302l74-76q19-18.709 28.834-42.753Q375-595.464 375-621.054t-9.833-49.595q-9.834-24.005-28.834-42.684l-47-48Q286-764.667 286.5-769.5t4.007-8.341Q293.667-781 298-781t7.667 3.333l49 47q23 22.388 34.166 51.072Q400-650.911 400-621q0 29.778-11.167 58.556-11.166 28.777-34.166 52.111l-75 75q-19.979 20.278-29.823 43.806Q240-368 240-342t9.779 50.105q9.78 24.105 29.888 44.228l46 47q3.333 3.455 3.833 8.228.5 4.772-3.833 8.816-3.425 3.29-8.213 3.456-4.787.167-8.121-3.166l-48-47Z"/></svg>