<svg xmlns="http://www.w3.org/2000/svg" height="40" viewBox="0 -960 960 960" width="40"><path d="M611.974-214.642q-26.187-25.32-39.081-58.416Q560-306.154 560-340.744q0-34.589 12.92-67.725 12.919-33.136 39.054-59.556l75-75q15.693-15.581 23.795-35.457 8.103-19.876 8.103-41.359 0-21.484-8.103-41.524-8.102-20.041-23.795-36.277l-46.615-47q-10.102-9.203-9.987-23.357.115-14.154 10.419-24.641 9.252-9.436 23.473-9.436 14.222 0 24.709 9.436l46.385 46.615q25.717 26.438 38.91 58.723 13.192 32.286 13.192 66.03 0 34.41-13.192 67.058-13.193 32.647-38.91 58.572l-75 75q-17.259 17.384-25.079 37.319-7.819 19.935-7.819 41.708 0 21.805 7.844 41.796t25.054 36.794l46.615 47q9.436 9.967 9.628 23.765.192 13.798-9.445 23.618-9.918 10.103-24.14 10.103-14.222 0-24.042-10.103l-47-46Zm-193.332 0q-26.385-25.533-39.244-58.715-12.859-33.182-12.859-67.643t12.859-67.643q12.859-33.182 39.244-59.382l75-75q15.692-15.581 23.795-35.457 8.102-19.876 8.102-41.359 0-21.484-8.102-41.524-8.103-20.041-23.795-36.277l-47-47.384q-9.898-9.231-10-23.082-.103-13.851 9.955-24.128 9.275-9.609 23.371-9.558 14.096.051 24.672 9.154l47.385 46.615q25.718 26.143 38.91 58.909 13.192 32.767 13.192 66.736 0 33.97-13.192 66.6-13.192 32.63-38.91 58.138l-75 75q-17.259 17.438-25.078 37.77-7.82 20.332-7.82 41.871 0 22.206 7.844 41.893 7.845 19.687 25.054 36.083l46.615 47q9.436 9.967 9.628 23.765.193 13.798-9.444 23.618-9.919 10.103-24.14 10.103-14.222 0-24.042-10.103l-47-46Zm-193.333-1q-26.384-25.539-39.243-58.218-12.859-32.679-12.859-67.14t13.051-67.655q13.051-33.194 39.436-59.37l74.615-76q15.359-15.581 23.629-35.457 8.269-19.876 8.269-41.359 0-21.484-8.103-41.524-8.102-20.041-23.795-36.277l-47-47.384q-9.897-9.231-9.807-23.197.089-13.966 10.259-23.869 9.163-9.164 22.906-9.292 13.744-.128 23.641 9.359l48.385 47q25.717 25.854 38.91 58.431 13.192 32.577 13.192 66.466 0 33.837-13.192 66.877-13.193 33.04-38.91 58.609l-75 75q-17.21 17.47-25.054 37.461-7.844 19.991-7.844 41.796 0 21.773 7.819 41.708 7.82 19.935 25.079 36.652l46.615 47q9.435 9.967 9.32 23.765-.115 13.798-9.935 23.681-10.138 9.706-24.017 9.706-13.88 0-22.982-9.769l-47.385-47Z"/></svg>