<svg xmlns="http://www.w3.org/2000/svg" height="24" viewBox="0 -960 960 960" width="24"><path d="M616-212q-26.5-26.5-40.25-60.5t-13.75-69q0-35 13.5-68.5t40.5-60l75-75q15.5-15.5 23-35t7.5-40q0-20.5-7.5-40t-23-35l-47-46.5q-11.5-11.5-11.25-26.75T644.5-795q11.5-11.5 26.75-11.5T698-795l46 47q26.5 26.5 40 59.75T797.5-620q0 35-13.5 67.75T744-493l-75 75q-16.5 16.5-24 36.25t-7.5 40.25q0 20.5 7.5 40.25T669-265l47 46.5q11.5 11.5 11.5 26.5T716-165.5Q704.5-154 689.25-154t-26.75-11.5L616-212Zm-200 0q-26.5-26.5-40-60.25T362.5-341q0-35 13.5-68.75T416-470l75-75q15.5-15.5 23-35t7.5-40q0-20.5-7.5-40t-23-35l-47-47q-11-10.5-11.25-25.75t10.75-26.75q11-11.5 26.5-11.75T497-795l47 47q26.5 26.5 40 59.5t13.5 68q0 35-13.5 68T544-493l-75 75q-16.5 16.5-24 36.25t-7.5 40.25q0 20.5 7.5 40.25T469-265l47 46.5q11.5 11.5 11.5 26.5T516-165.5Q504.5-154 489.25-154t-26.75-11.5L416-212Zm-200-1q-26.5-26.5-40-59.75T162.5-341q0-35 13.5-68.75T216-470l75-76q15.5-15.5 23-35t7.5-40q0-20.5-7.5-40t-23-35l-47-47q-11-10.5-11.25-25.75T244-795.5q11-11 26.25-11t26.25 11L344-748q26.5 26.5 40 59.5t13.5 68q0 35-13.5 68T344-493l-75 75q-16.5 16.5-24 36.5t-7.5 40.5q0 20.5 7.5 40t24 36l47 46.5q11.5 11.5 11.25 26.5t-11.75 26.5q-11.5 11-26.5 11T262.5-166L216-213Z"/></svg>