<svg xmlns="http://www.w3.org/2000/svg" height="40" viewBox="0 -960 960 960" width="40"><path d="M627.957-207.247q-28.188-26.829-41.945-62.092-13.758-35.263-13.758-71.661 0-36.558 13.739-71.576 13.739-35.018 41.964-62.844l75-75q13.949-14.189 21.123-32.031 7.174-17.842 7.174-37.369 0-19.528-7.174-37.55-7.174-18.021-21.123-32.877l-47-47q-13.703-12.37-13.243-31.12.461-18.749 13.793-32.053 12.427-12.877 31.294-12.877 18.866 0 32.33 12.877l46 47q27.159 27.746 41.351 62.217 14.192 34.471 14.192 69.977 0 36.094-14.192 70.927-14.192 34.833-41.351 62.052l-75 75q-15.537 15.895-22.497 33.813-6.96 17.917-6.96 37.434 0 19.549 6.96 37.938 6.96 18.388 22.497 33.642l47 47q12.876 13.122 12.876 31.449 0 18.326-12.666 30.964-13.253 13.543-32.119 13.543t-31.504-13.543l-46.761-46.24Zm-216.71 0q-28.066-26.846-41.805-62.1-13.739-35.255-13.739-71.653t13.739-71.653q13.739-35.254 41.805-62.767l75-75q13.949-14.189 21.203-32.031 7.253-17.842 7.253-37.369 0-19.528-7.253-37.55-7.254-18.021-21.203-32.877l-47-47q-13.21-12.304-13.337-30.797-.127-18.493 13.337-31.587 12.304-12.666 31.086-12.999 18.783-.334 32.087 12.21l47 47q27.319 27.451 41.431 62.403 14.113 34.952 14.113 70.684 0 35.891-14.113 70.587-14.112 34.696-41.431 61.499l-75 75q-15.537 16.139-22.497 34.56-6.96 18.421-6.96 37.576 0 19.821 6.96 37.833 6.96 18.011 22.497 32.858l47 47q12.877 13.122 12.877 31.449 0 18.326-12.666 30.964-13.094 13.543-32.04 13.543-18.946 0-31.584-13.543l-46.76-46.24Zm-216.551-1q-28.225-27.024-41.964-61.689-13.739-34.666-13.739-71.064 0-36.398 13.739-71.653 13.739-35.254 41.964-62.767l75-76q13.855-14.189 21.076-32.031t7.221-37.369q0-19.528-7.174-37.55-7.174-18.021-21.123-32.877l-47-47q-13.45-12.304-13.576-30.72-.127-18.416 13.576-31.453 12.304-12.544 30.673-12.544 18.37 0 31.5 12.544l48 47q27.398 27.451 41.471 62.07 14.072 34.618 14.072 70.35 0 35.891-14.192 70.921-14.192 35.029-41.351 61.832l-75 75q-15.537 15.921-22.497 34.309-6.96 18.389-6.96 37.938 0 19.517 6.96 37.434 6.96 17.918 22.497 33.146l47 46.761q12.877 13.122 12.377 31.488-.5 18.367-13.377 31.098-13.464 13.036-31.666 13.116-18.203.08-30.507-13.29l-47-47Z"/></svg>