<svg xmlns="http://www.w3.org/2000/svg" height="40" viewBox="0 -960 960 960" width="40"><path d="M654-201.334q-29.666-28.999-43.666-64.999-14-36-14-74 0-38.667 14.333-75Q625-451.667 654-480.666l75-75Q742.334-569 748.5-585.5q6.167-16.5 6.167-34.5t-6.167-34.5q-6.166-16.5-19.5-29.834l-47-47Q665.667-747 666-768.5q.334-21.5 16-37.166 15.667-15.667 37.333-15.667 21.667 0 38 15.667l46 47q28 28.666 42.833 64.499Q861-658.333 861-621q0 38-14.834 74-14.833 36-42.833 64.666l-75 75q-14 14.001-20.667 30.667Q701-360 701-342t6.666 35.167q6.667 17.166 20.667 31.167l47 47Q791-213 791-191.5q0 21.5-15.667 37.166-16.333 15.667-38 15.667-21.666 0-37.333-15.667l-46-47Zm-248.666 0q-29-28.999-43.334-65.333Q347.667-303 347.667-341T362-415.333q14.334-36.334 43.334-65.333l75-75Q493.667-569 500.167-585.5q6.5-16.5 6.5-34.5t-6.5-34.5q-6.5-16.5-19.833-29.834l-47-47Q418-746.667 418-767.833q0-21.167 15.334-36.833 15.333-15.667 36.999-16.167 21.667-.5 37.333 15.167l47 47q28.667 28.666 43.167 64.499 14.5 35.834 14.5 73.167 0 38-14.5 74t-43.167 64.666l-75 75q-14 14.001-20.666 31.001-6.667 17-6.667 35T459-306.5q6.666 16.833 20.666 30.834l47 47Q542.333-213 542.333-191.5q0 21.5-15.667 37.166Q511-138.667 489-138.667q-22 0-37.666-15.667l-46-47Zm-248-1Q128.667-231 113.834-267 99-303 99-341t14.834-74.333q14.833-36.334 43.5-65.333l75-76q13.333-13.334 19.5-29.834Q258-603 258-621t-6.166-34.5q-6.167-16.5-19.5-29.834l-47-47Q169-747.667 169-768.833q0-21.167 16.334-36.833 15.333-15.334 36.333-15 21 .333 37 15l48 47Q335.666-730 350-694.5q14.333 35.5 14.333 72.833 0 38-14.833 74.334-14.834 36.333-42.833 64.999l-75 75Q217.666-393.333 211-376.167 204.333-359 204.333-341T211-306.333q6.666 16.666 20.667 30.667l47 46q15.666 15.666 15.166 37.333-.5 21.666-16.166 36.999Q261.333-140 240.167-140q-21.167 0-35.833-15.334l-47-47Z"/></svg>