<svg xmlns="http://www.w3.org/2000/svg" height="48" viewBox="0 -960 960 960" width="48"><path d="M645.088-209.609q-28.094-25.67-41.395-60.465-13.301-34.796-13.301-70.361 0-36.13 13.283-71.043 13.282-34.913 41.413-61.913l75-75q13.304-13.87 21.021-32.343 7.718-18.472 7.718-39.086 0-20.615-7.718-39.267-7.717-18.652-21.021-33.522l-47-47q-13.261-10.863-12.761-28.758.5-17.894 12.985-30.024 10.92-11.696 28.892-11.696 17.971 0 30.667 11.696l46 47q26 27 40.348 61.413 14.348 34.413 14.348 68.752 0 35.34-14.348 69.909-14.348 34.568-40.348 60.708l-75 75q-16.37 17.055-23.337 35.396-6.967 18.341-6.967 38.213 0 19.904 6.967 38.716 6.967 18.813 23.337 34.893l47 47q11.696 11.948 11.696 29.583 0 17.634-11.486 28.765-12.485 12.695-30.456 12.695-17.972 0-29.102-12.695l-46.435-46.566Zm-231.479 0q-27.566-25.687-41.131-60.756-13.565-35.07-13.565-70.635 0-35.565 13.565-70.635 13.565-35.069 41.131-61.756l75-75q13.304-13.87 21.304-32.343 8-18.472 8-39.086 0-20.615-8-39.267-8-18.652-21.304-33.522l-47-47q-12.696-11.13-12.696-28.602 0-17.471 12.696-29.391 11.13-11.485 28.891-11.985 17.761-.5 29.891 11.196l47 47q26.566 26.705 40.631 61.483 14.065 34.778 14.065 69.343 0 35.13-14.065 69.682-14.065 34.551-40.631 60.274l-75 75q-16.37 17.298-23.337 36.147-6.967 18.848-6.967 38.024 0 20.177 6.967 38.775 6.967 18.599 23.337 34.272l47 47q11.696 11.948 11.696 29.583 0 17.634-11.485 28.765-11.92 12.695-30.174 12.695-18.254 0-29.385-12.695l-46.434-46.566Zm-230.915-1q-28.13-26.27-41.695-60.548-13.566-34.278-13.566-69.843 0-35.565 13.566-70.635 13.565-35.069 41.695-61.756l75-76q13.305-13.87 21.022-32.343 7.717-18.472 7.717-39.086 0-20.615-7.717-39.267-7.717-18.652-21.022-33.522l-47-47q-13.261-11.13-13.261-28.524 0-17.395 13.261-29.258 11.131-11.696 28.109-11.696 16.979 0 29.674 11.696l48 47q26.566 26.705 40.631 60.983 14.065 34.278 14.065 68.843 0 35.13-14.348 70.182-14.348 35.051-40.348 60.774l-75 75q-16.37 17.08-23.337 35.893-6.967 18.812-6.967 38.716 0 19.872 6.967 38.213t23.337 34.396l47 46.434q11.696 11.949 11.196 29.583-.5 17.635-12.196 28.939-12.695 12.522-29.674 12.805-16.978.282-28.109-12.979l-47-47Z"/></svg>