<svg xmlns="http://www.w3.org/2000/svg" height="20" viewBox="0 -960 960 960" width="20"><path d="M617-219q-24.5-24.5-38-56.75T565.5-343q0-35 13.5-67.25T617-467l74-74q15.5-15.5 23-36t7.5-42q0-20.5-8-40T691-694l-49-49.5q-10.5-10.5-10.25-23.25T642.5-790q10.5-10.5 23.25-10.5T689-790l49 49q24.5 24.5 38 55.75T789.5-619q0 35-13.5 67.25T738-495l-74 74q-15.5 16.5-24 36.25t-8.5 42.25q0 21.5 9 41.25T664-266l49 48.5q10.5 10.5 10.5 23.5T713-170.5Q702.5-160 689.25-160t-23.75-10.5L617-219Zm-197 0q-24.5-25.5-38.5-57.25t-14-66.75q0-35 14-66.75T420-467l74-74q16.5-15.5 23.5-36t7-42q0-20.5-8-40.5T494-694l-49-49q-11-10.5-10.75-23.25t10.25-23.25q11-10.5 24-10.25T492-789l48 48q24.5 24.5 38.5 55.75t14 66.25q0 35-14 67.25T540-495l-74 74q-15.5 16.5-23.5 36.75t-8 41.75q0 21.5 8.5 41.25T466-266l49 49.5q10.5 10.5 10.5 23.5T515-169.5Q504.5-159 491.75-159t-23.25-10.5L420-219Zm-198 1q-25.5-25.5-38.5-57.5t-13-68q0-35 13.5-67t38-56.5l74-74q16.5-15.5 23.5-36t7-43q0-20.5-8-40T296-694l-49-49q-11-10.5-10.25-23.25T248-789.5q11-11 23.25-11t23.25 11L343-741q24.5 24.5 38 55.75T394.5-619q0 35-13.5 67.25T343-495l-74 74q-15.5 16.5-23.5 36.5t-8 42.5q0 21.5 8.5 41t23 35l49 49.5q10.5 10.5 10.25 23.5t-10.75 23.5Q307-158.5 294-159t-23.5-11L222-218Z"/></svg>