<svg xmlns="http://www.w3.org/2000/svg" height="48" viewBox="0 -960 960 960" width="48"><path d="M612.769-227.231q-23.255-23.442-34.57-52.759-11.314-29.318-11.314-60.625 0-31.308 11.335-60.89 11.336-29.582 34.549-53.264l75-75q18.154-17.931 28.135-41.433 9.981-23.503 9.981-48.839 0-25.337-9.981-48.81-9.981-23.473-28.135-41.38l-46.23-47.283q-3.885-4.088-4.212-10.46-.327-6.372 4.658-11.026 4.216-3.885 10.558-3.885T663.539-779l46.769 46.231q23.577 23.645 35.173 52.768 11.596 29.122 11.596 59.908 0 30.785-11.596 59.486-11.596 28.701-35.173 52.376l-75 75q-19.498 19.623-28.864 43.166-9.367 23.544-9.367 48.45 0 25.638 9.416 48.869 9.417 23.232 28.815 42.977l46.231 46.5q3.884 4.762 4.269 10.97.385 6.209-4.35 10.831-3.966 4.622-10.5 4.622-6.535 0-10.804-4.769l-47.385-45.616Zm-181.538 0q-23.577-23.937-34.731-53.392-11.154-29.454-11.154-60.377 0-30.923 11.154-60.377 11.154-29.455 34.731-53.392l75-75q18.154-17.931 28.134-41.433 9.981-23.503 9.981-48.839 0-25.337-9.981-48.81-9.98-23.473-28.134-41.38l-47-47.769q-4-3.885-3.943-9.983.058-6.099 4.127-11.286 3.7-4.27 10.182-3.943 6.482.327 11.403 4.212l47.769 46.231q23.577 23.645 35.173 52.768 11.597 29.122 11.597 59.908 0 30.785-11.597 59.486-11.596 28.701-35.173 52.376l-75 75q-19.497 19.167-28.864 42.669-9.366 23.502-9.366 48.793 0 26.023 9.416 49.139 9.416 23.116 28.814 42.861l46.231 46.5q3.885 4.762 4.269 10.97.385 6.209-4.35 10.831-3.966 4.622-10.5 4.622t-10.804-4.769l-47.384-45.616Zm-181.382-1q-23.734-23.917-34.888-53.131-11.154-29.215-11.154-59.888 0-30.288 11.539-59.959 11.538-29.671 35.115-53.56l74.231-76q18.154-17.931 28.135-41.433 9.98-23.503 9.98-48.839 0-25.337-9.98-48.81-9.981-23.473-28.135-41.38l-47-47.769q-4-3.885-3.558-10.176.443-6.291 4.461-11.227 3.866-3.366 9.924-3.251 6.058.115 10.442 3.385l48.27 47.5q23.577 22.464 35.173 51.8T394-621q0 30.287-11.596 59.632-11.596 29.346-35.173 53.137l-75 75q-19.399 19.745-28.815 43.022Q234-366.933 234-341.889q0 25.043 9.367 48.77 9.366 23.727 28.864 43.35l46.23 46.5q3.885 4.818 4.212 11.101.327 6.283-4.192 10.218-4.59 4.463-10.67 4.533-6.08.071-10.035-3.814l-47.927-47Z"/></svg>