<svg xmlns="http://www.w3.org/2000/svg" height="40" viewBox="0 -960 960 960" width="40"><path d="M617.641-220.308q-24.891-24.984-37.266-56.415Q568-308.154 568-341.077t12.253-64.226q12.253-31.303 37.388-56.389l75-75q17.359-17.247 25.961-38.803 8.603-21.555 8.603-44.526 0-22.97-8.603-44.511-8.602-21.541-25.961-38.776l-46.616-47q-7.435-7.47-7.32-17.824.115-10.355 7.963-18.175 7.462-7.436 17.807-7.436 10.344 0 18.165 7.436l46.384 46.615q25.052 25.105 37.244 56.223 12.192 31.119 12.192 63.422t-12.192 62.962q-12.192 30.659-37.244 55.777l-75 75q-17.99 17.996-26.777 39.575-8.787 21.579-8.787 45.118 0 23.538 8.812 45.203 8.812 21.664 26.752 39.72l46.616 47q7.435 7.482 7.628 17.523.192 10.04-7.655 17.861-7.463 7.435-17.807 7.435-10.345 0-18.165-7.435l-47-46Zm-193.333 0q-25.051-25.18-37.243-56.538-12.192-31.359-12.192-64.154 0-32.795 12.192-64.154 12.192-31.358 37.243-56.538l75-75q17.359-17.247 25.962-38.803 8.603-21.555 8.603-44.526 0-22.97-8.603-44.511-8.603-21.541-25.962-38.776l-47-47.385q-7.23-7.23-7.333-17.204-.102-9.974 7.289-17.795 7.275-7.82 17.704-7.935 10.43-.116 18.339 7.32l47.385 46.615q25.051 25.105 37.243 56.223 12.192 31.119 12.192 63.422t-12.192 62.962q-12.192 30.659-37.243 55.777l-75 75q-17.99 17.806-26.777 39.493-8.788 21.687-8.788 45.353 0 23.667 8.812 45.191 8.812 21.523 26.753 39.579l46.615 47q7.436 7.482 7.628 17.523.192 10.04-7.655 17.861-7.462 7.435-17.807 7.435-10.344 0-18.165-7.435l-47-46Zm-193.332-1q-25.051-25.167-37.244-56.032Q181.54-308.205 181.54-341t12.385-64.166q12.384-31.37 37.435-56.526l74.616-76q17.359-17.247 25.961-38.803 8.603-21.555 8.603-44.526 0-22.97-8.603-44.511-8.602-21.541-25.961-38.776l-47-47.385q-7.231-7.23-7.141-17.397.09-10.166 7.592-17.669 7.164-7.163 17.24-6.958 10.077.205 17.308 7.025l48.384 47q25.051 24.816 37.244 55.745 12.192 30.93 12.192 63.152 0 32.171-12.192 63.239-12.193 31.068-37.244 56.248l-75 75q-17.94 18.056-26.752 39.72-8.812 21.665-8.812 45.203 0 23.539 8.787 45.118t26.777 39.575l46.616 47q7.435 7.482 7.32 17.523-.115 10.04-7.936 17.749-7.47 7.214-17.517 7.381-10.046.166-17.482-7.269l-47.384-47Z"/></svg>