<svg xmlns="http://www.w3.org/2000/svg" height="20" viewBox="0 -960 960 960" width="20"><path d="M636.218-209.956q-26.761-26.761-40.826-60.707-14.065-33.946-14.065-71.772 0-37.826 14.348-72.337t40.543-61.272l74-74q13.805-13.804 20.174-31.761 6.37-17.956 6.37-37.195 0-18.239-6.87-35.195-6.869-16.957-19.674-30.761l-49-49.5q-14.456-14.457-14.489-32.294-.033-17.837 14.424-32.294 14.457-14.457 32.577-14.457 18.12 0 32.576 14.457l49 49q26.196 26.196 40.827 59.424 14.63 33.229 14.63 71.055 0 37.826-14.63 72.62-14.631 34.793-40.827 60.989l-74 74q-13.239 14.239-20.891 31.728-7.652 17.489-7.652 37.728 0 19.239 8.152 36.728t20.391 30.728l49 48.5q14.457 14.457 14.457 32.827 0 18.369-14.457 32.826-14.456 14.457-33.076 14.457t-33.077-14.457l-47.935-49.065Zm-225.262 0q-26.761-27.761-41.609-61.489-14.848-33.729-14.848-71.555 0-37.826 14.848-71.555 14.848-33.728 41.609-61.489l74-74q14.804-13.804 20.674-31.761 5.869-17.956 5.869-37.195 0-18.239-6.869-35.695-6.87-17.457-19.674-30.261l-49-49q-14.957-14.457-14.424-32.294.533-17.837 13.924-32.294 14.957-14.457 33.044-14.207 18.087.25 32.544 14.707l48 48q26.196 26.196 41.326 59.424 15.131 33.229 15.131 71.055 0 37.826-15.131 72.62-15.13 34.793-41.326 60.989l-74 74q-13.239 14.239-20.391 32.228-7.152 17.989-7.152 37.228t7.652 36.728q7.652 17.489 19.891 30.728l49 49.5q14.457 14.457 14.457 32.827 0 18.369-14.457 32.826t-32.577 14.457q-18.119 0-32.576-14.457l-47.935-50.065Zm-226.262 1q-27.196-27.196-41.327-61.457-14.13-34.261-14.13-73.087 0-37.826 14.63-71.805 14.631-33.978 40.827-60.739l74-74q14.804-13.804 20.673-31.761 5.87-17.956 5.87-38.195 0-18.239-6.87-35.195-6.869-16.957-19.673-29.761l-49-49q-15.522-14.457-14.49-32.294 1.033-17.837 15.49-32.294 14.956-14.957 32.294-14.957 17.337 0 32.294 14.957l48.5 48.5q26.761 26.196 41.108 59.424 14.348 33.229 14.348 71.055 0 37.826-14.63 72.62-14.631 34.793-40.826 60.989l-74 74q-13.239 14.239-20.392 31.978-7.152 17.739-7.152 37.978 0 19.239 7.652 36.478 7.653 17.239 19.892 30.478l49 48.935q14.456 14.457 14.206 33.109t-14.706 32.544q-14.457 14.957-32.827 14.174-18.37-.783-32.261-14.674l-48.5-48Z"/></svg>