<svg xmlns="http://www.w3.org/2000/svg" height="20" viewBox="0 -960 960 960" width="20"><path d="M607-232.077q-21.486-21.673-32.974-49.894-11.488-28.221-11.488-60.144t11.77-60.962q11.769-29.038 32.692-50.846l74-74q18.192-17.969 27.423-41.891 9.231-23.923 9.231-49.227 0-24.305-9.731-47.198-9.731-22.892-26.923-40.838l-48.231-49.884q-4.346-4.347-4.673-9.212-.327-4.866 4.789-9.981 4.346-4.346 9.211-4.346 4.866 0 9.981 4.346l49.769 48.231q21.808 21.989 33.77 49.786 11.961 27.797 11.961 59.044 0 31.247-11.961 60.125-11.962 28.879-33.77 50.891l-74 74q-18.291 19.078-28.28 42.155-9.989 23.076-9.989 49.807 0 26.115 10.539 48.557 10.538 22.443 27.73 40.635l48.231 48.5q4.346 4.731 4.731 10.231.385 5.5-4.731 10.231-4.346 4.73-9.904 4.73t-10.288-4.73L607-232.077Zm-173.923 0Q411.269-254.933 399-283.005 386.731-311.077 386.731-343T399-402.995q12.269-28.072 34.077-50.928l74-74q19.192-17.969 27.923-41.891 8.731-23.923 8.731-49.227 0-24.305-9.731-47.698-9.731-23.392-26.923-40.338l-49-49.769q-5.231-5.115-4.789-9.789.443-4.673 4.807-9.788 5.097-4.731 10.02-3.904 4.924.827 10.039 5.173l48.769 47.231q21.808 21.989 34.269 49.728 12.462 27.739 12.462 58.986 0 31.247-12.462 60.184-12.461 28.936-34.269 50.948l-74 74q-18.291 18.851-27.78 42.156-9.489 23.306-9.489 49.036 0 26.116 10.038 48.943 10.039 22.827 27.231 41.019l48.231 49.5q4.346 4.731 4.731 10.231.384 5.5-4.731 10.231-4.346 4.73-9.404 4.73t-9.789-4.73l-48.884-49.116Zm-174.923 1q-22.808-22.824-34.077-51.104-11.27-28.281-11.27-61.204 0-31.538 12.154-60.134t33.962-50.404l73.231-74q19.192-17.969 27.923-41.891 8.73-23.923 8.73-50.227 0-24.305-9.73-47.198-9.731-22.892-26.923-39.838l-49-49.769q-5.231-5.115-3.904-9.981 1.327-4.865 5.807-9.73 5.097-5.097 9.077-5.097 3.981 0 9.597 5.231l49.269 48.5q21.808 21.464 33.769 49.219 11.962 27.754 11.962 58.819 0 31.452-11.962 60.556-11.961 29.105-33.769 51.252l-74 74q-18.192 19.192-27.731 41.885-9.538 22.692-9.538 49.423 0 25.731 9.989 48.749 9.988 23.019 27.28 41.097l48.231 49.5q4.346 4.731 4.673 10.231.327 5.5-4.404 10.231-4.801 5.359-10.074 4.794-5.272-.564-9.619-4.91l-49.653-48Z"/></svg>