<svg xmlns="http://www.w3.org/2000/svg" height="48" viewBox="0 -960 960 960" width="48"><path d="M608.539-223q-24.335-23.228-36.36-54.268-12.025-31.04-12.025-63.347 0-32.308 12.028-63.448Q584.21-435.202 608.539-460l75-75q16.538-16.315 26.076-38.494 9.539-22.179 9.539-46.368 0-24.188-9.539-46.517-9.538-22.329-26.076-39.621l-46.231-47q-6.385-5.22-6.654-14.649-.269-9.428 6.755-16.582 5.255-5.384 14.731-5.384 9.476 0 16.629 5.384L715.539-738q23.692 24.761 36.038 54.941 12.346 30.18 12.346 61.74 0 32.56-12.346 62.974-12.346 30.414-36.038 54.345l-75 75q-19.318 19.561-27.967 41.728-8.649 22.166-8.649 46.041 0 23.908 8.699 45.715 8.698 21.807 27.917 40.516l46.23 47q5.385 6.343 5.77 15.594.384 9.252-5.64 15.406-6.255 6.385-15.731 6.385-9.476 0-15.629-6.385l-47-46ZM427-223q-24.692-23.74-36.539-54.909-11.846-31.168-11.846-63.091 0-31.923 11.846-63.091Q402.308-435.26 427-460l75-75q16.538-16.315 26.077-38.494 9.538-22.179 9.538-46.368 0-24.188-9.538-46.517Q518.538-688.708 502-706l-47-47.769q-6.385-5.385-6.385-14.442 0-9.056 6.184-16 5.586-5.943 14.798-5.674 9.212.27 16.634 5.654L534-738q23.692 24.466 36.039 55.294 12.346 30.827 12.346 62.613 0 31.785-12.346 62.182Q557.692-527.514 534-504l-75 75q-19.318 19.349-27.966 41.764-8.649 22.414-8.649 45.979 0 24.565 8.698 46.26Q439.782-273.302 459-255l46.231 47q5.384 6.343 5.769 15.594.385 9.252-5.64 15.406-6.255 6.385-15.73 6.385-9.476 0-15.63-6.385l-47-46Zm-181.539-1q-24.692-23.738-36.538-54.407-11.846-30.67-11.846-62.593 0-31.923 12.23-63.115 12.231-31.193 36.924-55.885l74.23-76q16.539-16.315 26.077-38.494 9.539-22.179 9.539-46.368 0-24.188-9.539-46.517Q337-689.708 320.461-707l-47-47.769q-6.384-5.385-6-14.749.385-9.364 6.903-15.616 5.251-5.251 14.097-5.635 8.847-.385 15.231 5.769l48.769 47q23.693 23.67 36.039 54.518 12.346 30.849 12.346 62.482 0 31.287-12.346 62.328Q376.154-527.63 352.461-504l-75 75q-19.218 19.709-27.916 41.516-8.699 21.807-8.699 45.715 0 23.875 8.649 46.041 8.649 22.167 27.966 40.728l46.231 47q5.385 6.343 5.654 15.594.269 9.252-5.885 15.246-6.454 6.288-15.65 6.417-9.196.128-14.58-6.257l-47.77-47Z"/></svg>