<svg xmlns="http://www.w3.org/2000/svg" height="20" viewBox="0 -960 960 960" width="20"><path d="M651-203q-28.5-28.5-43-63.75T593.5-342q0-40 15-76.25T651-483l74-74q12.5-12.5 18-28.5t5.5-33.5q0-16.5-6-31.5T725-678l-49-49.5q-17.5-17.5-17.75-39.25T675.5-806q17.5-17.5 39.75-17.5T755-806l49 49q27.5 27.5 43 62.25T862.5-620q0 40-15.5 76.75T804-479l-74 74q-11.5 12.5-18.5 28.25t-7 34.25q0 17.5 7.5 33.25T730-282l49 48.5q17.5 17.5 17.5 40t-17.5 40Q761.5-136 738.75-136t-40.25-17.5L651-203Zm-247 0q-28.5-29.5-44-64.75T344.5-343q0-40 15.5-75.25T404-483l74-74q13.5-12.5 18.5-28.5t5-33.5q0-16.5-6-32T478-678l-49-49q-18-17.5-17.25-39.25t16.75-39.25q18-17.5 40-17.25T508-805l48 48q27.5 27.5 43.5 62.25t16 74.75q0 40-16 76.75T556-479l-74 74q-11.5 12.5-18 28.75t-6.5 33.75q0 17.5 7 33.25T482-282l49 49.5q17.5 17.5 17.5 40t-17.5 40Q513.5-135 491.25-135t-39.75-17.5L404-203Zm-248 1q-28.5-28.5-43.5-64.5t-15-77q0-40 15.5-75.5t43-64l74-74q13.5-12.5 18.5-28.5t5-34.5q0-16.5-6-31.5T230-678l-49-49q-19-17.5-17.75-39.25T182-805.5q18-18 39.25-18t39.25 18L309-757q28.5 27.5 43.5 62.25t15 74.75q0 40-15.5 76.75T309-479l-74 74q-11.5 12.5-18 28.5t-6.5 34.5q0 17.5 7 33t17.5 27l49 48.5q17.5 17.5 17.25 40.5t-17.75 39.5q-17.5 18-40 17t-39-17.5L156-202Z"/></svg>