<svg xmlns="http://www.w3.org/2000/svg" height="40" viewBox="0 -960 960 960" width="40"><path d="M619.667-209q-27.63-26.67-41.148-61.335Q565.001-305 565.001-341q0-36 13.499-70.5 13.5-34.5 41.167-62.166l75-75q14.667-14.667 22-32.988 7.334-18.32 7.334-38.166 0-19.847-7.334-38.347-7.333-18.5-22-33.833l-47-47q-12.666-11.733-12.166-29.367.5-17.633 12.956-30.299 11.789-12 29.499-12 17.711 0 30.377 12l46 47q27 27.666 40.834 61.499Q809-656.333 809-621.226q0 35.775-13.833 69.93Q781.333-517.14 754.333-490l-75 75q-15.935 16.054-23.134 34.41Q649-362.234 649-342q0 20.267 7.199 39.093 7.199 18.827 23.134 34.241l47 47q12 12.484 12 29.575T726.544-163q-12.456 12.666-30.167 12.666-17.71 0-29.71-12.666l-47-46ZM413-209q-27.666-26.688-41.166-61.344-13.5-34.656-13.5-70.656 0-36 13.5-70.656 13.5-34.656 41.166-62.01l75-75q14.667-14.667 22-32.988 7.334-18.32 7.334-38.166 0-19.847-7.334-38.347-7.333-18.5-22-33.833l-47-47q-12.333-11.667-12.5-29.044-.166-17.377 12.5-29.833 11.667-11.789 29.333-12.123 17.667-.333 30.333 11.334l47 47q27 27.371 40.834 61.685 13.833 34.314 13.833 69.648 0 35.333-13.833 69.471-13.834 34.138-40.834 60.862l-75 75q-15.935 16.298-23.134 35.276-7.199 18.979-7.199 38.852 0 20.539 7.199 38.869t23.134 33.337l47 47q12 12.484 12 29.575T519.877-163q-12.456 12.666-30.166 12.666Q472-150.334 460-163l-47-46Zm-206.667-1q-27.666-26.705-41.166-60.853-13.5-34.147-13.5-70.147 0-36 13.5-70.656 13.5-34.656 41.166-62.01l75-76q14.334-14.667 21.834-32.988 7.5-18.32 7.5-38.166 0-19.847-7.334-38.347-7.333-18.5-22-33.833l-47-47q-12.333-11.667-12.5-28.967-.166-17.3 12.5-29.699 11.667-11.667 29-11.667T293-798.666l48 47q27 27.371 40.833 61.352 13.833 33.981 13.833 69.314 0 35.333-13.833 69.805Q368-516.724 341-490l-75 75q-15.936 16.08-23.135 34.907-7.199 18.826-7.199 39.093 0 20.234 7.199 38.59T266-268.666l47 47q11.999 12.484 11.499 29.575T312-162.826q-12.667 12.159-29.834 12.159-17.166 0-28.833-12.333l-47-47Z"/></svg>