<svg xmlns="http://www.w3.org/2000/svg" height="20" viewBox="0 -960 960 960" width="20"><path d="M615.565-205.609q-27.681-27.148-42.318-62.791-14.638-35.643-14.638-74.361 0-38.717 15.119-74.435 15.12-35.717 41.837-63.195l74-74q13.283-13.522 19.044-30.125 5.761-16.603 5.761-34.304 0-16.702-6.261-32.484-6.261-15.783-18.544-29.305l-49-50q-16.195-15.69-15.815-36.258.381-20.568 16.366-36.524 15.746-16.196 36.511-16.196t36.721 16.196l49 49q27.478 27.239 42.337 61.456 14.859 34.218 14.859 72.709 0 38.253-14.859 74.746-14.859 36.492-42.337 63.871l-74 74q-12.218 13.576-19.511 29.667-7.293 16.092-7.293 34.942 0 17.883 7.793 34.445t19.011 29.164l49 49q16.196 15.774 16.196 36.42 0 20.645-15.985 36.601-15.746 16.196-37.011 16.196t-37.222-16.196l-48.761-48.239Zm-208.956 0q-27.718-28.165-42.957-63.42-15.239-35.254-15.239-73.971 0-38.717 15.239-73.971 15.239-35.255 42.957-63.42l74-74q14.282-13.522 19.543-30.125 5.261-16.603 5.261-34.304 0-16.702-6.261-32.984-6.261-16.283-18.543-28.805l-49-49q-16.196-15.956-16.076-36.602.119-20.645 16.076-36.391 15.956-15.985 36.891-15.485t36.891 15.696l48 48q27.479 26.944 42.837 61.689 15.359 34.745 15.359 73.463 0 38.717-15.359 74.693-15.358 35.975-42.837 62.937l-74 74q-12.218 13.82-19.011 30.581-6.793 16.762-6.793 34.917 0 18.154 7.293 34.34 7.293 16.185 18.511 28.38l49 50q16.196 15.774 16.196 36.42 0 20.645-15.985 36.601-15.746 16.196-36.511 16.196T455.37-156.37l-48.761-49.239Zm-209.957 1q-28.718-28.183-42.957-63.428-14.239-35.246-14.239-74.963 0-38.717 14.739-74.471 14.739-35.755 42.457-62.92l74-74q14.282-13.522 19.543-30.125 5.261-16.603 5.261-35.304 0-16.702-6.261-32.484-6.261-15.783-18.543-28.305l-49-49q-16.435-15.956-15.815-36.524.619-20.568 16.815-36.258 15.956-16.196 36.391-16.196t36.392 16.196l49 48q27.717 26.944 42.456 61.689 14.739 34.745 14.739 73.463 0 38.717-14.858 74.693-14.859 35.975-42.337 62.937l-74 74q-12.219 13.602-19.012 30.164-6.793 16.562-6.793 35.445 0 17.85 7.293 33.942 7.293 16.091 18.512 28.667l49 49.761q16.195 15.774 15.695 36.539t-16.695 36.656q-15.957 16.022-36.892 15.522-20.935-.5-35.891-15.696l-49-48Z"/></svg>