<svg xmlns="http://www.w3.org/2000/svg" height="48" viewBox="0 -960 960 960" width="48"><path d="M658-206q-28.5-27.5-42-62.25T602.5-340q0-38 14-73.25T658-476l75-75q14-14 20.75-31.836T760.5-620q0-19.328-6.75-37.164Q747-675 733-689l-47-46.898Q671.5-749.5 671.75-768.5q.25-19 14-32.5t32.75-13.5q19 0 33.5 13.5l46 47q26.5 27.5 41.25 62.25T854-621q0 37-14.75 71.75T798-487l-75 75q-15.5 15.5-22.25 33.259Q694-360.983 694-342q0 19.331 6.75 37.415Q707.5-286.5 723-271l47 46.5q13.5 13.853 13.5 32.824 0 18.97-13.5 32.823Q755.5-145 736.5-145T704-159l-46-47Zm-248 0q-27.5-27.5-41.5-62.75t-14-72.25q0-37 14-72.25T410-476l75-75q14-14 21.25-31.836T513.5-620q0-19.328-7.25-37.164Q499-675 485-689l-47-47q-14-13.5-13.75-31.983.25-18.484 13.75-32.517 13.5-13.5 32.5-13.75T503-801l47 47q27.5 27.5 41.75 62.25T606-621q0 37-14.25 71.75T550-487l-75 75q-15.5 15.5-22.25 33.759Q446-359.983 446-341q0 19.331 6.75 36.915Q459.5-286.5 475-271l47 46.5q13.5 13.853 13.5 32.824 0 18.97-13.5 32.823Q508.5-145 489-145t-33-14l-46-47Zm-246.843-1Q135.5-234.5 121-269.5q-14.5-35-14.5-71.75t14.5-72q14.5-35.25 42-62.75l75-76q14-14 20.75-31.836T265.5-621q0-19.328-6.75-37.164Q252-676 238-690l-47-47q-15-13.5-14.75-31.983.25-18.484 14.75-32.517 14-13.5 31.75-13t32.75 13L303-754q27.5 27.5 41.75 61.75T359-622q0 37-14.75 72.25T303-487l-75 75q-15.5 15.5-22.25 33.63-6.75 18.129-6.75 37.25 0 19.12 6.75 36.87Q212.5-286.5 228-271l47 45.5q13.5 13.909 13.25 32.955-.25 19.045-14 32.545-14.75 14-33.25 13.75T209.93-160l-46.773-47Z"/></svg>