<svg xmlns="http://www.w3.org/2000/svg" height="40" viewBox="0 -960 960 960" width="40"><path d="M654.334-201.667q-29.964-27.337-44.482-64.502-14.518-37.164-14.518-74.831 0-38.333 14.5-75 14.5-36.666 44.5-65l75-75q11.666-12.666 18.333-28.987 6.667-16.321 6.667-34.833 0-18.513-6.667-35.013-6.667-16.501-18.333-29.834l-47-47q-17-14.4-16.667-36.7.333-22.3 16.456-37.633 14.456-15.666 37-15.666 22.543 0 38.543 15.666l46 47q27.667 28 43 64.5Q862-658 862-621.226q0 37.108-15.334 74.097-15.333 36.988-43 64.462l-75 75q-14.269 15.387-20.468 31.91Q702-359.234 702-342q0 17.267 6.198 34.26 6.199 16.994 20.468 31.74l47 47q15.667 15.152 15.667 37.409 0 22.258-15.456 36.924-15.789 16.333-38.333 16.333-22.544 0-37.21-16.333l-46-47Zm-248.667 0q-29.333-27.354-43.833-64.51-14.5-37.156-14.5-74.823 0-37.667 14.5-74.823 14.5-37.156 43.833-65.177l75-75q11.667-12.666 18.667-28.987 7-16.321 7-34.833 0-18.513-7-35.013-7-16.501-18.667-29.834l-47-47q-16-14.333-16-36.377 0-22.044 16-37.166Q448-820.666 470.333-821q22.334-.333 37.667 15l47 47q28.333 27.706 43.333 64.686 15 36.981 15 73.981 0 37.666-15 74.138-15 36.471-43.333 63.528l-75 75q-14.269 15.631-20.468 32.277-6.199 16.645-6.199 33.518 0 17.539 6.199 34.536T480-276l47 47q15.666 15.152 15.666 37.409 0 22.258-15.456 36.924-15.122 16.333-37.999 16.333-22.878 0-37.544-16.333l-46-47Zm-248-1q-30-28.039-44.5-64.352-14.5-36.314-14.5-73.981 0-37.667 14.5-74.823 14.5-37.156 44.5-65.177l75-76q12.333-12.666 18.667-28.987 6.333-16.321 6.333-34.833 0-18.513-6.667-35.013-6.666-16.501-18.333-29.834l-47-47q-17-14.333-17-36.3 0-21.966 17-37.033 14.333-15.333 36-15.333 21.666 0 37.333 15.333l48 47q28.666 27.706 43.5 64.353Q365.333-658 365.333-621q0 37.667-15.333 74.471-15.334 36.805-43 63.862l-75 75q-14.269 15.413-20.468 32.407-6.199 16.993-6.199 34.26 0 17.234 6.199 33.757Q217.731-290.72 232-276l47 46q15.666 15.152 15.166 37.576T278-155.493q-16 15.826-37.5 16.159-21.5.334-35.833-16.333l-47-47Z"/></svg>