<svg xmlns="http://www.w3.org/2000/svg" height="24" viewBox="0 -960 960 960" width="24"><path d="M645-191q-31.964-30.67-47.482-69.835Q582-300 582-341q0-41 15.5-80t47.5-70l75-75q11-12 16-25.321 5-13.32 5-28.499 0-15.18-5-28.68T720-674l-47-47q-21-19.733-21-47.367Q652-796 672.789-816q19.79-21 48-21Q749-837 769-816l46 47q31 30 47 68.5t16 79.274q0 39.775-16 79.43Q846-502.14 815-472l-75 75q-10.935 12.054-16.468 26.243Q718-356.568 718-342q0 14.6 5.532 29.26Q729.065-298.08 740-286l47 47q21 19.818 21 47.409Q808-164 787.211-144q-19.79 21-48 21Q711-123 691-144l-46-47Zm-250 0q-32-30.688-47.5-69.844Q332-300 332-341q0-41 15.5-80.156Q363-460.312 395-491l75-75q11-12 16-25.321 5-13.32 5-28.499 0-15.18-5-28.68T470-674l-47-47q-20-19-20-46.711 0-27.71 20-47.5Q442-836 470-836t48 20l47 47q31 29.705 47 68.353Q628-662 628-621q0 41-16 80.138-16 39.139-47 68.862l-75 75q-10.935 12.298-16.468 26.277Q468-356.745 468-341.872q0 14.872 5.532 29.536Q479.065-297.673 490-286l47 47q21 19.818 21 47.409Q558-164 537.211-144q-19.79 21-48 21Q461-123 441-144l-46-47Zm-250-1q-32-30.705-47.5-69.353Q82-300 82-341q0-41 15.5-80.156Q113-460.312 145-491l75-76q11-12 16-25.321 5-13.32 5-28.499 0-15.18-5-28.68T220-675l-47-47q-21-19-21-46.633 0-27.634 21-47.367 19-20 47-20t47 20l48 47q32 29.705 47.5 68.353Q378-662 378-621q0 41-16 80.138-16 39.139-47 68.862l-75 75q-10.935 12.08-16.468 26.74Q218-355.6 218-341q0 14.568 5.532 28.757Q229.065-298.054 240-286l47 46q21 19.818 20.5 47.909Q307-164 286-144.826 266-125 238.5-125T192-145l-47-47Z"/></svg>