<svg xmlns="http://www.w3.org/2000/svg" height="48" viewBox="0 -960 960 960" width="48"><path d="M638.218-215.13Q612-241.109 599.261-273.576t-12.739-67.185q0-34.956 12.859-67.543 12.858-32.587 38.837-58.566l75-75q16.282-16.282 24.173-36.401 7.892-20.119 7.892-41.729t-7.892-41.729q-7.891-20.119-24.173-36.401l-47-46.899q-9.935-9.797-9.685-23.471t10.195-23.37q9.946-9.695 23.62-9.695 13.674 0 23.609 9.695l46 47q25.739 25.979 38.967 58.446 13.228 32.467 13.228 66.185 0 33.956-13.228 66.043t-38.967 58.066l-75 75q-17.022 17.021-24.913 37.063-7.892 20.041-7.892 42.067 0 22.374 7.892 42.741 7.891 20.368 24.913 37.389l47 46.5q9.695 10.049 9.695 23.313t-9.695 23.313q-9.935 10.048-23.609 10.048-13.674 0-23.37-10.195l-46.76-46.239Zm-219.088 0q-25.978-25.979-38.837-58.566-12.858-32.587-12.858-67.304t12.858-67.304q12.859-32.587 38.837-58.566l75-75q16.283-16.282 24.294-36.401 8.011-20.119 8.011-41.729t-8.011-41.729q-8.011-20.119-24.294-36.401l-47-47q-10.195-9.696-9.945-22.853.25-13.158 9.945-23.387 9.696-9.695 23.37-9.945 13.674-.25 23.37 9.445l47 47q25.978 25.979 39.087 58.446 13.108 32.467 13.108 66.185 0 33.956-13.108 66.043-13.109 32.087-39.087 58.066l-75 75q-17.022 17.021-24.913 37.563-7.892 20.541-7.892 42.567 0 22.374 7.892 42.241 7.891 19.868 24.913 36.889l47 46.5q9.695 10.049 9.695 23.313t-9.695 23.313q-9.696 10.048-23.49 10.048-13.793 0-23.489-10.195L419.13-215.13Zm-218.691-1q-26.135-25.979-39.113-58.316-12.978-32.337-12.978-66.804t12.978-67.054q12.978-32.587 38.956-58.566l75-76q16.283-16.282 24.174-36.401 7.892-20.119 7.892-41.729t-7.892-41.729q-7.891-20.119-24.174-36.401l-47-47q-10.434-9.696-10.184-22.853.25-13.158 10.184-23.387 10.196-9.695 23-9.195 12.805.5 23.24 9.195l47.5 47.5q25.978 25.979 39.087 57.946 13.108 31.967 13.108 65.685 0 33.956-13.228 66.543t-38.967 58.566l-75 75Q230-404.109 222.109-383.696q-7.892 20.412-7.892 42.576 0 22.163 7.892 42.196 7.891 20.033 24.913 37.054l47 46.261q9.695 10.105 9.445 23.444-.25 13.339-10.195 23.035-10.185 10.195-23.359 9.945-13.174-.25-22.7-9.945l-46.774-47Z"/></svg>