<svg xmlns="http://www.w3.org/2000/svg" height="20" viewBox="0 -960 960 960" width="20"><path d="M605.769-230.846q-21.601-21.788-33.339-50.625t-11.738-60.76q0-31.923 11.962-61.461 11.961-29.539 33.115-51.462l74-74q18.077-17.854 27.116-41.468 9.038-23.615 9.038-48.419 0-23.805-9.538-46.39-9.539-22.585-26.616-40.415l-48.23-50q-4.847-4.846-5.116-10.385-.269-5.538 5.346-11.154 4.846-4.846 10.385-4.846t11.154 4.846l49.769 48.231q21.923 22.105 33.885 50.459 11.961 28.355 11.961 59.602 0 31.247-11.961 60.683-11.962 29.436-33.885 51.564l-74 74q-18.176 18.963-28.165 41.481-9.989 22.519-9.989 49.134 0 25.616 10.539 47.808 10.538 22.192 27.615 40.269l48.231 49q4.846 4.846 5.231 10.769.384 5.924-5.231 11.539Q672.462-178 666.423-178q-6.038 0-11.654-4.846l-49-48Zm-173.923 0q-21.923-22.971-34.385-51.601Q385-311.077 385-343t12.461-60.553q12.462-28.63 34.385-51.601l74-74q19.077-17.854 27.615-41.468Q542-594.237 542-619.041q0-23.805-9.539-46.89-9.538-23.085-26.615-39.915l-49-49.769q-5.615-5.616-5.231-10.77.385-5.154 5.365-10.769 5.481-5.615 11.135-4.846 5.654.769 11.27 5.615l48.769 47.231q21.923 22.105 34.385 50.459Q575-650.34 575-619.093q0 31.247-12.461 60.683-12.462 29.436-34.385 51.564l-74 74q-18.176 18.735-27.665 41.483Q417-368.615 417-343t10.039 48.192q10.038 22.577 27.115 40.654l48.231 50q4.846 4.846 5.231 10.769.384 5.924-5.231 11.539Q497.539-177 492-177t-11.154-4.846l-49-49Zm-174.923 1Q234-252.785 222.538-281.431 211.077-310.077 211.077-343q0-31.923 12.346-61.077t34.269-51.077l73.231-74q19.077-17.854 27.615-41.468 8.539-23.615 8.539-49.419 0-23.805-9.539-46.39-9.538-22.585-26.615-39.415l-49-49.769q-5.616-5.616-4.346-11.154 1.269-5.539 6.249-10.519 5.481-5.481 10.251-5.481 4.769 0 10.384 5.615l49.77 48q21.923 21.965 33.884 50.142 11.962 28.178 11.962 59.243 0 31.452-11.962 61.056-11.961 29.604-33.884 51.867l-74 74q-18.077 19.077-27.616 41.269-9.538 22.192-9.538 48.808 0 25.615 9.989 48.134 9.989 22.518 27.165 40.481l48.23 50q4.847 4.846 5.116 10.769.269 5.924-5.346 11.539-4.916 5.359-10.805 5.103-5.888-.257-10.734-5.103l-49.769-48Z"/></svg>