<svg xmlns="http://www.w3.org/2000/svg" height="40" viewBox="0 -960 960 960" width="40"><path d="M626.667-216q-25.833-25.833-38.833-58.417-13-32.583-13-66.916 0-34.334 12.833-66.584t39-58.083l75-75q16.5-16.5 24.5-36.891t8-42.109q0-21.718-8-42.109-8-20.391-24.5-36.891l-47-46.766q-9.5-9.567-9.25-22.651.25-13.083 9.917-22.583 9.666-9.5 22.749-9.5 13.084 0 22.584 9.5l46 47q25.833 25.833 38.833 58.083t13 65.917q0 33.667-13 65.417T746.667-497l-75 75Q654.5-404.833 646.5-384.411q-8 20.422-8 42.578 0 22.387 8 43.027 8 20.639 25.167 37.806l47 46.5q9.5 9.735 9.5 22.382 0 12.647-9.5 22.383-9.5 9.735-22.584 9.735-13.083 0-22.583-9.833L626.667-216ZM420-216q-25.833-25.833-38.667-58.25Q368.5-306.667 368.5-341t12.833-66.75Q394.167-440.167 420-466l75-75q16.5-16.5 24.5-36.891t8-42.109q0-21.718-8-42.109Q511.5-682.5 495-699l-47-47q-9.667-9.167-9.583-21.906.083-12.738 9.416-22.594 9.334-9.5 22.5-9.75Q483.5-800.5 493-791l47 47q25.833 25.833 38.833 58.083t13 65.917q0 33.667-13 65.417T540-497l-75 75q-17.167 17.167-25.167 37.922-8 20.756-8 42.911 0 22.387 8 42.694 8 20.306 25.167 37.473l47 46.5q9.5 9.735 9.5 22.382 0 12.647-9.5 22.383Q502.5-160 489.417-160q-13.084 0-22.584-9.833L420-216Zm-206.562-1q-25.938-25.833-38.771-58-12.834-32.167-12.834-66.333 0-34.167 12.834-66.5Q187.5-440.167 213.333-466l75-76q16.5-16.5 24.5-36.891t8-42.109q0-21.718-8-42.109-8-20.391-24.5-36.891l-47-47q-9.666-9.167-9.583-21.906.083-12.738 9.583-22.594 9.667-9.333 22.25-9 12.583.333 22.25 9l47.5 47.5q25.833 25.833 38.833 57.75t13 65.583q0 33.667-13 65.75-13 32.084-38.833 57.917l-75 75q-17.167 17.167-25.167 37.92t-8 43q0 22.247 8 42.58t25.167 37.5l47 46.5q9.5 9.773 9.25 22.47t-9.917 22.197q-9.666 9.666-22.333 9.499-12.666-.166-22.213-9.666l-46.682-47Z"/></svg>