<svg xmlns="http://www.w3.org/2000/svg" height="24" viewBox="0 -960 960 960" width="24"><path d="M605-201q-28.964-28.67-43.482-65.335Q547-303 547-341q0-38 14.5-74.5T605-481l75-75q14-14 20-30.321 6-16.32 6-33.499 0-17.18-6-33.68T680-684l-47-47q-16-15.733-15.5-37.367Q618-790 633.789-806q15.79-16 37.5-16Q693-822 709-806l46 47q29 29 43.5 64.5t14.5 73.274q0 37.775-14.5 73.93Q784-511.14 755-482l-75 75q-13.935 14.054-20.468 30.743Q653-359.568 653-342q0 17.6 6.532 34.76Q666.065-290.08 680-276l47 47q16 15.818 16 36.909T727.211-155q-15.79 16-37.5 16Q668-139 652-155l-47-46Zm-200 0q-29-28.688-43.5-65.344Q347-303 347-341q0-38 14.5-74.656Q376-452.312 405-481l75-75q14-14 20-30.321 6-16.32 6-33.499 0-17.18-6-33.68T480-684l-47-47q-15-15-15.5-36.711-.5-21.71 15.5-37.5Q448-821 470-821t38 15l47 47q29 28.705 43.5 64.353Q613-659 613-621q0 38-14.5 74.138Q584-510.723 555-482l-75 75q-13.935 14.298-20.468 31.277Q453-358.745 453-340.872q0 17.872 6.532 34.536Q466.065-289.673 480-276l47 47q16 15.818 16 36.909T527.211-155q-15.79 16-37.5 16Q468-139 452-155l-47-46Zm-200-1q-29-28.705-43.5-64.853Q147-303 147-341q0-38 14.5-74.656Q176-452.312 205-481l75-76q13-14 19.5-30.321 6.5-16.32 6.5-33.499 0-17.18-6-33.68T280-685l-47-47q-15-15-15.5-36.633Q217-790.267 233-806q15-15 37-15t37 15l48 47q29 28.705 43.5 64.353Q413-659 413-621q0 38-14.5 74.138Q384-510.723 355-482l-75 75q-13.935 14.08-20.468 31.24Q253-358.6 253-341q0 17.568 6.532 34.257Q266.065-290.054 280-276l47 47q16 15.818 15.5 36.909T326-154.826Q310-140 288.5-140T252-155l-47-47Z"/></svg>