<svg xmlns="http://www.w3.org/2000/svg" height="48" viewBox="0 -960 960 960" width="48"><path d="M627-213q-26.964-25.67-39.982-59.335T574-341q0-35 13-68.5t40-60.5l75-75q15-15 23-34.321 8-19.32 8-40.499 0-21.18-8-40.68T702-696l-47-47q-11-9.733-10.5-25.367Q645-784 655.789-795q9.79-10 25.5-10Q697-805 708-795l46 47q26 27 39.5 60t13.5 66.774q0 34.775-13.5 67.93Q780-520.14 754-494l-75 75q-16.935 17.054-24.468 36.243Q647-363.568 647-342q0 21.6 7.532 41.26Q662.065-281.08 679-265l47 47q10 10.818 10 25.909T726.211-167q-10.79 11-26.5 11Q684-156 674-167l-47-46Zm-210 0q-27-25.688-40-59.344Q364-306 364-341q0-35 13-68.656 13-33.656 40-60.344l75-75q15-15 23-34.321 8-19.32 8-40.499 0-21.18-8-40.68T492-696l-47-47q-11-10-11-25.211 0-15.21 11-26Q455-804 470.5-804.5T497-795l47 47q26 26.705 39.5 60.353Q597-654 597-620q0 34-13.5 67.138Q570-519.723 544-494l-75 75q-16.935 17.298-24.468 37.277Q437-361.745 437-340.872q0 21.872 7.532 41.036Q452.065-280.673 469-265l47 47q10 10.818 10 25.909T516.211-167q-10.79 11-26.5 11Q474-156 464-167l-47-46Zm-210-1q-27-25.705-40-58.853Q154-306 154-341q0-35 13-68.656 13-33.656 40-60.344l75-76q15-15 23-34.321 8-19.32 8-40.499 0-21.18-8-40.68T282-697l-47-47q-11-10-11-25.133 0-15.134 11-25.867 10-10 25-10t26 10l48 47q26 26.705 39.5 59.853Q387-655 387-621q0 34-13.5 67.638Q360-519.723 334-494l-75 75q-16.935 17.08-24.468 36.74Q227-362.6 227-341q0 21.568 7.532 40.757Q242.065-281.054 259-265l47 47q10 10.818 9.5 25.909T305-166.826Q294-156 279-156t-25-11l-47-47Z"/></svg>