<svg xmlns="http://www.w3.org/2000/svg" height="40" viewBox="0 -960 960 960" width="40"><path d="M655.333-202.667q-29.166-28.5-43.083-64-13.916-35.5-13.916-73.5 0-38.666 14.333-74.666t42.666-64.5l75-75q13.5-13.5 19.834-30.391Q756.5-601.615 756.5-620q0-18.385-6.333-35.276-6.334-16.891-19.834-30.391l-47-46.765q-15.833-15.235-15.749-35.985.083-20.75 15.416-35.916 15.333-15.167 36.25-15.167T756-804.333l46 47q27.5 28.166 42.5 63.583t15 72.75q0 38-15 73.583-15 35.584-42.5 63.75l-75 75q-14.5 14.5-21 31.589t-6.5 35.245q0 18.387 6.5 35.693 6.5 17.307 21 31.807l47 46.5q15.166 15.402 15.166 36.215 0 20.814-15.166 36.216Q758.167-140 737.25-140t-36.083-15.5l-45.834-47.167Zm-248.666 0q-28.5-28.5-42.833-64.416Q349.5-303 349.5-341t14.334-73.917q14.333-35.916 42.833-64.416l75-75q13.5-13.5 20.167-30.391Q508.5-601.615 508.5-620q0-18.385-6.666-35.276-6.667-16.891-20.167-30.391l-47-47q-15.333-14.833-15.083-35.239.25-20.405 14.916-35.927 15-15.167 35.833-15.417 20.834-.25 36 14.917l47 47q28.167 28.166 42.833 63.5 14.667 35.333 14.667 72.666 0 38-14.667 73.667-14.666 35.667-42.833 63.833l-75 75q-14.5 14.5-21 31.923-6.5 17.422-6.5 35.577 0 18.387 6.5 35.361 6.5 16.973 21 31.473l47 46.5q15.167 15.402 15.167 36.215 0 20.814-15.167 36.216Q510.167-140 488.917-140q-21.25 0-36.417-15.5l-45.833-47.167Zm-247.895-1q-28.272-28.166-43.105-63.916-14.833-35.75-14.833-73.584 0-37.833 14.833-73.75 14.833-35.916 43-64.416l75-76q13.5-13.5 19.833-30.391 6.334-16.891 6.334-35.276 0-18.385-6.334-35.276-6.333-16.891-19.833-30.391l-47-47q-16.333-14.833-16.083-35.239.25-20.405 16.083-35.927 15.333-15 35.25-14.667 19.916.334 35.916 14.667l47.5 47.5q28.5 28.166 43 63.166t14.5 72.334q0 38-15 74t-42.5 64.166l-75 75q-14.5 14.5-21 31.92t-6.5 35.667q0 18.247 6.5 35.247t21 31.5l47 45.5q15.167 15.439 14.917 36.469-.25 21.031-15.583 35.864-16 15.333-36.5 15-20.5-.334-34.713-15.167l-46.682-47Z"/></svg>