<svg xmlns="http://www.w3.org/2000/svg" height="48" viewBox="0 -960 960 960" width="48"><path d="M603-226q-23.545-22.495-35.273-52.747Q556-309 556-340.5t11.736-61.932Q579.473-432.863 603-457l75-75q17-16.71 27-39.746 10-23.037 10-48.128 0-25.092-10-48.269-10-23.178-27-40.857l-46-47q-5-3.867-5.5-11.433Q626-775 631.895-781q3.894-4 11.5-4Q651-785 657-781l47 46q23 24.089 35 53.423 12 29.335 12 60.23 0 31.896-12 61.487-12 29.592-35 52.86l-75 75q-20.032 20.313-29.016 43.373Q591-365.568 591-341q0 24.6 9.048 47.051Q609.097-271.498 629-252l46 47q4 5 4.5 12.5t-4.395 12.5q-4.894 5-12.5 5Q655-175 650-180l-47-46Zm-173 0q-24-23.156-35.5-53.578Q383-310 383-341q0-31 11.5-61.422Q406-432.844 430-457l75-75q17-16.71 27-39.746 10-23.037 10-48.128 0-25.092-10-48.269-10-23.178-27-40.857l-47-48q-5-4-5-11.211 0-7.21 4.739-13Q462-786 469.326-785.5T483-781l48 46q23 23.794 35 53.776 12 29.982 12 61.103 0 31.121-12 60.695-12 29.575-35 52.426l-75 75q-20.032 19.965-29.016 43.11Q418-365.745 418-341.372q0 25.372 9.048 47.827Q436.097-271.091 456-252l46 47q4 5 4.5 12.5t-4.395 12.5q-4.894 5-12.5 5Q482-175 477-180l-47-46Zm-173-1q-24-23.147-35.5-53.074Q210-310 210-341q0-31 12-61.453 12-30.453 36-54.547l74-76q17-16.71 27-39.746 10-23.037 10-48.128 0-25.092-10-48.269-10-23.178-27-40.857l-47-48q-5-4-4.5-11.633.5-7.634 5.674-12.541Q290-786 297-786.5q7-.5 12 4.5l49 47q23 22.759 35 52.918T405-621q0 30.473-12 60.735-12 30.263-35 53.265l-75 75q-19.903 20.498-28.952 42.949Q245-366.6 245-342q0 24.568 8.984 47.627Q262.968-271.313 283-252l46 47q4 5 4.5 12.5t-4.5 12.239q-5.091 4.928-12.545 5.094Q309-175 305-180l-48-47Z"/></svg>