<svg xmlns="http://www.w3.org/2000/svg" height="20" viewBox="0 -960 960 960" width="20"><path d="M604-236q-20.582-20.825-31.541-47.912Q561.5-311 561.5-342t11.25-59Q584-429 604-450l74-74q19-18.71 28.75-43.659 9.75-24.949 9.75-51.395 0-25.446-10.25-49.356Q696-692.321 678-711l-48-50q-2.5-2.5-3-5t3-6q2.5-2.5 5-2.5t6 2.5l50 48q21 21.236 32.5 47.997t11.5 56.882q0 30.121-11.5 57.988T691-512l-74 74q-19.129 19.852-29.565 43.926Q577-370 577-342q0 27.5 11 50.75T617-249l48 48.5q2.5 3 3 6.25t-3 6.25q-2.5 3-5.75 3t-6.25-3l-49-48Zm-167 0q-21-22.062-32.75-49.031Q392.5-312 392.5-343t11.75-57.969Q416-427.938 437-450l74-74q20-18.71 29.25-43.659 9.25-24.949 9.25-51.395 0-25.446-10.25-49.856Q529-693.321 511-711l-49-50q-3.5-3.5-3-5.75t3.174-5.75q3.326-3 5.826-2 2.5 1 6 3.5l49 47q21 21.236 33 47.997t12 56.882q0 30.121-12 57.988T523-512l-74 74q-19.129 19.556-29.065 43.778Q410-370 410-343q0 27.5 10.5 51.25T449-249l48 49.5q2.5 3 3 6.25t-3 6.25q-2.5 3-5.25 3t-5.75-3l-49-49Zm-168 1q-22-22.021-32.75-49.261Q225.5-311.5 225.5-343.5q0-30.5 11.75-58T270-450l73-74q20-18.71 29.25-43.659 9.25-24.949 9.25-52.395 0-25.446-10.25-49.356Q361-693.321 343-711l-49-50q-3.5-3.5-2-6t4.174-5.674Q299.5-776 301-776q1.5 0 5.5 3.5L356-724q21 20.554 32.5 47.335Q400-649.885 400-620q0 30.388-11.5 58.473Q377-533.442 356-512l-74 74q-19 20-29 43.5T243-343q0 27 10.435 51.074Q263.871-267.852 282-249l48 49.5q2.5 3 3 6.25t-2.5 6.25q-3.091 3.667-6.045 3.083Q321.5-184.5 319-187l-50-48Z"/></svg>