<svg xmlns="http://www.w3.org/2000/svg" height="40" viewBox="0 -960 960 960" width="40"><path d="M633.522-212.812q-26.63-26.471-39.786-59.688-13.156-33.217-13.156-68.428 0-35.369 13.192-68.579 13.192-33.21 39.75-59.681l75-75q15.783-15.783 23.384-35.337 7.602-19.554 7.602-40.475 0-20.921-7.602-40.475-7.601-19.554-23.384-35.337l-47-46.765q-11.014-10.923-10.804-25.84.21-14.916 11.232-25.771 11.021-10.855 25.978-10.855 14.956 0 25.971 10.855l46 47q26.232 26.391 39.71 59.398 13.478 33.007 13.478 67.551 0 34.703-13.478 67.369-13.478 32.667-39.71 59.058l-75 75q-16.529 16.529-24.17 36.155-7.642 19.625-7.642 40.824 0 21.43 7.642 41.273 7.641 19.843 24.17 36.372l47 46.5q10.855 11.09 10.855 25.69 0 14.6-10.855 25.69-11.015 11.091-25.971 11.091-14.957 0-25.812-11.189l-46.594-46.406Zm-216.71 0q-26.471-26.471-39.663-59.724Q363.957-305.79 363.957-341t13.192-68.464q13.192-33.253 39.663-59.724l75-75q15.782-15.783 23.463-35.337 7.682-19.554 7.682-40.475 0-20.921-7.682-40.475-7.681-19.554-23.463-35.337l-47-47q-11.022-10.521-10.899-25.094.123-14.572 10.732-25.782 10.688-10.855 25.688-11.105 15-.25 25.855 10.605l47 47q26.392 26.391 39.79 59.315 13.399 32.924 13.399 67.467 0 34.703-13.399 67.453-13.398 32.75-39.79 59.141l-75 75q-16.529 16.529-24.17 36.488-7.641 19.959-7.641 41.157 0 21.431 7.641 40.94 7.641 19.51 24.17 36.039l47 46.5q10.855 11.09 10.855 25.69 0 14.6-10.855 25.69-10.855 11.091-25.891 11.091-15.036 0-25.891-11.189l-46.594-46.406Zm-216.447-1q-26.496-26.391-39.807-59.351-13.312-32.96-13.312-68.004 0-35.043 13.312-68.297 13.311-33.253 39.703-59.724l75-76q15.782-15.783 23.384-35.337 7.601-19.554 7.601-40.475 0-20.921-7.601-40.475-7.602-19.554-23.384-35.337l-47-47Q217-754.333 217.123-768.906q.123-14.572 11.138-25.782 11.021-10.689 25.358-10.355 14.337.333 25.518 10.355l47.5 47.5q26.471 26.391 39.83 58.981 13.359 32.591 13.359 67.134 0 34.703-13.479 67.787-13.478 33.083-39.71 59.474l-75 75q-16.529 16.529-24.17 36.485-7.641 19.956-7.641 41.247 0 21.29 7.641 40.826 7.641 19.537 24.17 36.066l47 46.261q10.855 11.127 10.605 25.817t-11.271 25.465q-11.182 11.022-25.721 10.815-14.54-.206-25.203-10.982l-46.682-47Z"/></svg>