<svg xmlns="http://www.w3.org/2000/svg" height="40" viewBox="0 -960 960 960" width="40"><path d="M605.667-229.667q-22.582-22.824-33.708-51.579-11.126-28.754-11.126-59.421 0-30.666 11.075-59.621 11.074-28.954 33.759-52.045l75-75q18.666-18.377 28.916-42.561 10.25-24.185 10.25-50.16 0-25.975-10.25-50.121t-28.916-42.492l-46-47.265q-2.834-2.99-3.334-7.779t3.571-8.622q3.07-2.834 7.833-2.834t8.596 2.834l47 46q23 23.138 34.334 51.614Q744-650.242 744-620.121t-11.333 58.201q-11.334 28.08-34.334 51.253l-75 75q-20.107 20.124-29.72 44.401Q584-366.988 584-341.333q0 26.387 9.677 50.054 9.678 23.667 29.656 43.946l46 46.5q2.834 3.69 3.334 8.526t-3.404 8.405q-2.903 3.569-7.916 3.569-5.014 0-8.347-3.667l-47.333-45.667Zm-172 0q-23-23.333-33.917-52.166-10.917-28.834-10.917-59.167 0-30.333 10.917-59.167 10.917-28.833 33.917-52.166l75-75q18.666-18.377 28.916-42.561 10.25-24.185 10.25-50.16 0-25.975-10.25-50.121t-28.916-42.492l-47-48q-2.834-2.833-2.834-7.405t3.051-8.761q2.616-3.334 7.5-2.834t8.949 3.334l48 46q23 23.138 34.334 51.614Q572-650.242 572-620.121t-11.333 58.201q-11.334 28.08-34.334 51.253l-75 75q-20.107 19.63-29.72 43.654Q412-367.988 412-342q0 26.72 9.677 50.554 9.678 23.834 29.656 44.113l46 46.5q2.834 3.69 3.334 8.526t-3.404 8.405q-2.903 3.569-7.917 3.569-5.013 0-8.346-3.667l-47.333-45.667Zm-171.896-1q-23.104-23.301-34.021-51.901-10.917-28.599-10.917-58.765 0-29.667 11.417-58.698t34.417-52.302l74-76q18.666-18.377 28.916-42.561 10.25-24.185 10.25-50.16 0-25.975-10.25-50.121t-28.916-42.492l-47-48q-2.834-2.833-2.334-7.655t3.508-8.685q2.659-2.326 7.159-2.326t7.833 2.5l48.5 47.5q23 21.887 34.334 50.655Q400-650.911 400-621q0 29.778-11.333 58.389-11.334 28.611-34.334 51.944l-75 75q-19.978 20.279-29.656 44.06Q240-367.827 240-342.08t9.613 50.185q9.613 24.438 29.72 44.562l46 46.5q2.834 3.727 3.334 8.613.5 4.887-3 7.93-3.591 3.29-8.213 3.373-4.621.084-7.501-2.75l-48.182-47Z"/></svg>