<svg xmlns="http://www.w3.org/2000/svg" height="24" viewBox="0 -960 960 960" width="24"><path d="M635.218-202.956q-28.761-28.761-43.076-64.457-14.315-35.696-14.315-73.522 0-37.826 14.348-73.587t43.043-64.522l75-75q13.805-13.804 20.174-30.761 6.37-16.956 6.37-35.195t-6.37-35.195q-6.369-16.957-20.174-30.761l-47-46.5q-15.456-15.457-15.489-35.794-.033-20.337 15.424-35.794 15.457-15.457 36.077-15.457 20.62 0 36.076 15.457l46 47q28.196 28.196 42.827 63.424 14.63 35.229 14.63 73.055 0 37.826-14.63 73.12-14.631 35.293-42.827 63.489l-75 75q-14.239 14.239-20.891 31.728-6.652 17.489-6.652 35.728t6.652 35.728q6.652 17.489 20.891 31.728l47 46.5q15.457 15.457 15.457 35.827 0 20.369-15.457 35.826-15.456 15.457-36.076 15.457t-36.077-15.457l-45.935-47.065Zm-228.262 0q-28.761-28.761-43.109-64.489-14.348-35.729-14.348-73.555 0-37.826 14.348-73.555 14.348-35.728 43.109-64.489l75-75q13.804-13.804 20.174-30.761 6.369-16.956 6.369-35.195t-6.369-35.195q-6.37-16.957-20.174-30.761l-47-47q-14.957-14.457-14.924-34.794.033-20.337 14.424-35.794 14.957-15.457 35.544-15.707 20.587-.25 36.044 15.207l47 47q28.196 28.196 42.826 63.174 14.631 34.979 14.631 72.805 0 37.826-14.631 73.37-14.63 35.543-42.826 63.739l-75 75q-14.239 14.239-20.891 31.728-6.652 17.489-6.652 35.728t6.652 35.728q6.652 17.489 20.891 31.728l47 46.5q15.457 15.457 15.457 35.827 0 20.369-15.457 35.826t-36.077 15.457q-20.619 0-36.076-15.457l-45.935-47.065Zm-228.262-1q-28.196-28.196-42.827-63.707-14.63-35.511-14.63-73.337t14.63-73.555q14.631-35.728 42.827-64.489l75-76q13.804-13.804 20.173-30.761 6.37-16.956 6.37-35.195t-6.37-35.195q-6.369-16.957-20.173-30.761l-47-47q-15.522-14.457-15.49-34.794.033-20.337 15.49-35.794 14.956-14.957 35.294-14.957 20.337 0 35.294 14.957l47.5 47.5q28.761 28.196 43.108 63.174 14.348 34.979 14.348 72.805 0 37.826-14.63 73.37-14.631 35.543-42.826 63.739l-75 75q-14.239 14.239-20.892 31.978-6.652 17.739-6.652 35.978t6.652 35.478q6.653 17.239 20.892 31.478l47 45.935q15.456 15.457 15.206 36.109t-15.706 35.544q-15.457 14.957-35.827 14.674-20.37-.283-35.261-15.174l-46.5-47Z"/></svg>