<svg xmlns="http://www.w3.org/2000/svg" height="20" viewBox="0 -960 960 960" width="20"><path d="M634.218-207.956q-27.261-27.261-41.326-61.957-14.065-34.696-14.065-72.522 0-37.826 14.348-73.087t41.043-62.522l74-74q13.305-13.304 19.674-30.761 6.37-17.456 6.37-36.195 0-17.739-6.87-34.195-6.869-16.457-19.174-29.761l-49-50Q644.262-747.913 644.479-767q.217-19.087 15.174-34.044 14.957-14.957 34.327-14.957 19.37 0 34.326 14.957l49 49q26.696 26.696 41.327 60.674 14.63 33.979 14.63 71.805 0 37.826-14.63 73.37-14.631 35.543-41.327 62.239l-74 74q-12.739 13.739-20.391 30.478-7.652 16.739-7.652 36.478 0 18.739 8.152 35.978t19.891 29.978l49 49q14.957 14.957 14.957 34.327 0 19.369-14.957 34.326-14.956 14.957-34.826 14.957t-34.827-14.957l-48.435-48.565Zm-225.262 0q-27.261-28.261-42.109-62.739-14.848-34.479-14.848-72.305 0-37.826 14.848-72.305 14.848-34.478 42.109-62.739l74-74q14.304-13.304 20.174-30.761 5.869-17.456 5.869-36.195 0-17.739-6.869-34.695-6.87-16.957-19.174-29.261l-49-49Q418.999-746.913 419.282-766q.283-19.087 14.674-34.044 14.957-14.957 34.544-14.957 19.587 0 34.544 14.957l48 48q26.696 26.696 41.826 60.674 15.131 33.979 15.131 71.805 0 37.826-15.131 73.37-15.13 35.543-41.826 62.239l-74 74q-12.739 13.739-19.891 30.978-7.152 17.239-7.152 35.978t7.652 35.978q7.652 17.239 19.391 29.978l49 50q14.957 14.957 14.957 34.327 0 19.369-14.957 34.326t-34.327 14.957q-19.369 0-34.326-14.957l-48.435-49.565Zm-226.262 1q-27.696-27.696-41.827-62.457-14.13-34.761-14.13-73.587 0-37.826 14.63-72.805 14.631-34.978 41.327-62.239l74-74q14.304-13.304 20.173-30.761 5.87-17.456 5.87-37.195 0-17.739-6.87-34.195-6.869-16.457-19.173-28.761l-49-49q-15.522-14.957-14.74-34.044.783-19.087 15.74-34.044 14.956-14.957 34.044-14.957 19.087 0 34.044 14.957l49 48q27.261 26.696 41.608 60.674 14.348 33.979 14.348 71.805 0 37.826-14.63 73.37-14.631 35.543-41.326 62.239l-74 74q-12.739 13.739-19.892 30.978-7.152 17.239-7.152 36.978 0 18.739 7.652 35.478 7.653 16.739 19.392 29.478l49 49.435q14.956 14.957 14.456 34.609t-15.456 34.044q-14.957 14.957-34.327 14.674-19.37-.283-33.761-14.674l-49-48Z"/></svg>