<svg xmlns="http://www.w3.org/2000/svg" height="20" viewBox="0 -960 960 960" width="20"><path d="M628.61-202.348q-28.659-27.8-43.243-63.878-14.583-36.078-14.583-75.774t15.065-76.609q15.065-36.913 42.761-65.043l74-74q12.304-12.87 17.739-28.495 5.435-15.625 5.435-32.673 0-16.05-5.935-30.854-5.935-14.804-17.239-27.674l-49-50q-17.826-16.994-17.609-39.519.217-22.524 17.833-39.785 17.051-17.827 39.935-17.827 22.885 0 40.146 17.827l49 49q28.13 27.565 43.478 62.761 15.348 35.195 15.348 74.665 0 38.905-15.348 76.539t-43.478 65.339l-74 74q-11.24 12.924-18.207 28.2-6.967 15.276-6.967 33.148 0 16.904 7.467 32.651 7.467 15.747 17.707 27.697l49 49q17.826 17.079 17.826 39.844t-17.616 40.026q-17.05 17.826-40.435 17.826-23.384 0-40.645-17.826l-48.435-48.566Zm-225.262 0q-28.696-28.818-44.261-64.887-15.566-36.069-15.566-75.765t15.566-75.765q15.565-36.069 44.261-64.887l74-74q13.304-12.87 18.239-28.495 4.934-15.625 4.934-32.673 0-16.05-5.934-31.354-5.935-15.304-17.239-27.174l-49-49q-17.827-17.261-17.544-39.863.283-22.602 17.544-39.652 17.261-17.616 40.152-17.116 22.891.5 40.152 17.327l48 48q28.131 27.27 43.979 62.613 15.848 35.343 15.848 75.039t-15.848 77.03q-15.848 37.334-43.979 64.622l-74 74q-11.239 13.168-17.706 28.951-6.467 15.783-6.467 32.959 0 17.177 6.967 32.71 6.967 15.533 17.206 27.076l49 50q17.827 17.079 17.827 39.844t-17.616 40.026q-17.05 17.826-39.935 17.826t-40.146-17.826l-48.434-49.566Zm-226.263 1q-29.696-28.835-44.261-64.896-14.565-36.06-14.565-76.756 0-39.696 15.065-76.265t43.761-64.387l74-74q12.87-12.87 18.022-28.495 5.152-15.625 5.152-33.673 0-16.05-5.935-30.854-5.935-14.804-17.239-26.674l-49-49q-18.391-17.261-17.609-39.785.783-22.525 18.609-39.519 17.261-17.827 39.653-17.827 22.391 0 39.652 17.827l49 48q28.696 27.27 43.761 62.613 15.065 35.343 15.065 75.039t-15.348 77.03q-15.347 37.334-43.478 64.622l-74 74q-11.24 12.95-17.707 28.697-6.467 15.747-6.467 33.651 0 16.872 6.967 32.148 6.967 15.276 17.207 27.2l49 49.434q17.826 17.079 17.326 40.127-.5 23.048-18.326 39.917-17.261 17.653-40.152 17.153-22.892-.5-39.153-17.327l-49-48Z"/></svg>