<svg xmlns="http://www.w3.org/2000/svg" height="24" viewBox="0 -960 960 960" width="24"><path d="M611-218.539q-24.993-25.086-37.862-57.197-12.869-32.11-12.869-65.572 0-33.461 12.635-65.23 12.634-31.769 38.096-56.923l75-75q16.846-16.735 25.211-37.946 8.366-21.211 8.366-43.614 0-22.402-8.366-43.599-8.365-21.196-25.211-37.919l-46.616-46.692q-8.423-8.423-8.461-19.731-.039-11.307 8.769-20.114 8.423-8.423 19.73-8.423 11.308 0 20.115 8.423l46.385 46.615q25.154 25.245 37.884 56.768 12.731 31.523 12.731 64.646 0 33.124-12.731 64.188-12.73 31.064-37.884 56.32l-75 75q-17.896 17.789-26.141 39.203-8.244 21.413-8.244 44.028 0 22.808 8.269 43.904 8.27 21.097 26.116 38.943l46.615 46.5q8.423 8.615 8.615 19.865.193 11.25-8.615 19.865-8.423 8.615-19.826 8.615-11.404 0-20.019-8.615L611-218.539Zm-188.461 0q-25.154-25.178-37.788-57.089-12.635-31.911-12.635-65.372t12.635-65.372q12.634-31.911 37.788-57.089l75-75q16.846-16.735 25.212-37.946 8.365-21.211 8.365-43.614 0-22.402-8.365-43.599-8.366-21.196-25.212-37.919l-47-47.385q-8.115-7.807-8.269-19.018-.154-11.212 8.028-20.019 8.048-8.615 19.51-8.577 11.461.039 20.268 8.462l47.385 46.615q25.154 25.245 37.885 56.614 12.73 31.369 12.73 64.493 0 33.123-12.73 64.341-12.731 31.218-37.885 56.474l-75 75q-17.896 17.675-26.14 38.953-8.245 21.278-8.245 43.894 0 22.808 8.27 44.096 8.269 21.289 26.115 39.135l46.615 46.5q8.423 8.615 8.616 19.865.192 11.25-8.616 19.865-8.422 8.615-19.826 8.615t-20.019-8.615l-46.692-46.308Zm-188.461-1q-25.154-25.162-37.788-56.677-12.635-31.515-12.635-64.976 0-33.269 12.827-65.192 12.827-31.923 37.981-57.077l74.615-76q16.846-16.735 25.212-37.946 8.365-21.211 8.365-43.614 0-22.402-8.365-43.599-8.366-21.196-25.212-37.919l-47-47.385q-8.115-7.807-8.076-19.114.038-11.308 8.528-19.99 8.048-8.048 19.163-8.048t19.423 8.115l47.884 47.5q25.154 24.982 37.885 56.359 12.731 31.377 12.731 64.41 0 33.226-12.731 64.527-12.731 31.302-37.885 56.626l-75 75q-17.846 17.846-26.115 39.193-8.269 21.346-8.269 43.961 0 22.616 8.244 43.875 8.244 21.26 26.14 39.049l46.616 46.5q8.423 8.615 8.461 19.865.039 11.25-8.577 19.865-8.65 8.179-19.786 8.147-11.136-.032-19.559-8.455l-47.077-47Z"/></svg>