<svg xmlns="http://www.w3.org/2000/svg" height="24" viewBox="0 -960 960 960" width="24"><path d="M600.384-207.924q-27.264-27.064-40.901-61.647-13.637-34.583-13.637-71.044 0-36.462 13.731-71.231 13.73-34.769 40.807-62.23l75-75q15.539-15.427 22.308-33.555t6.769-37.21q0-19.082-6.769-37.375-6.769-18.292-22.308-33.708l-46.615-47q-12.923-12.656-12.808-30.058.116-17.402 13.213-30.71 12.712-12.923 30.191-12.923 17.48 0 30.787 12.923l46.385 46.616q27.462 27.552 41.192 61.229 13.731 33.677 13.731 69.575t-13.731 70.271q-13.73 34.373-41.192 62.077l-75 75q-15.524 15.536-22.8 33.985-7.277 18.448-7.277 38.324 0 19.908 7.301 38.414 7.302 18.506 22.776 34.125l46.615 47q12.923 12.741 13.116 29.793.192 17.052-12.905 30.359-12.712 12.923-30.192 12.923-17.479 0-30.787-12.923l-47-46Zm-188.46 0q-27.462-27.173-41.193-61.894-13.73-34.721-13.73-71.182 0-36.461 13.73-71.182 13.731-34.721 41.193-61.894l75-75q15.538-15.427 22.307-33.555 6.77-18.128 6.77-37.21t-6.77-37.375q-6.769-18.292-22.307-33.708l-47-47.384q-12.308-12.308-12.616-29.595-.307-17.287 12.682-30.384 12.241-13.097 29.818-12.712 17.576.384 30.884 12.307l47.384 46.616q27.462 27.257 41.193 61.082 13.73 33.824 13.73 69.947 0 36.124-13.73 70.48-13.731 34.356-41.193 61.643l-75 75q-15.523 15.666-22.8 34.269-7.277 18.602-7.277 38.783 0 20.18 7.302 38.382 7.301 18.202 22.775 33.414l46.616 47q12.923 12.741 13.115 29.793.192 17.052-12.905 30.359-12.712 12.923-30.191 12.923-17.48 0-30.787-12.923l-47-46Zm-188.461-1q-27.462-27.174-41.192-61.394Q168.54-304.539 168.54-341q0-36.461 13.923-71.194 13.923-34.733 41.385-61.882l74.615-76q14.538-15.427 21.808-33.555 7.269-18.128 7.269-37.21t-6.769-37.375q-6.77-18.292-22.308-33.708l-47-47.384q-12.308-12.308-12.423-29.71-.115-17.402 12.874-30.125 12.241-12.241 29.625-12.241 17.385 0 29.692 12.308l48.385 47q27.461 27.187 41.192 60.923 13.731 33.736 13.731 69.768 0 36.226-13.731 70.666-13.731 34.441-41.192 61.795l-75 75q-15.474 15.619-22.776 34.125-7.301 18.506-7.301 38.414 0 19.876 7.276 38.324 7.277 18.449 22.801 33.985l46.615 47q12.923 12.741 12.808 29.793-.116 17.052-13.423 30.533-12.958 12.006-30.402 11.877-17.444-.128-29.366-12.051l-47.385-47Z"/></svg>