<svg xmlns="http://www.w3.org/2000/svg" height="24" viewBox="0 -960 960 960" width="24"><path d="M648-194q-31-31-46-69t-15-78q0-40 15-78t46-69l75-75q12-12 17.5-26.5T746-620q0-16-5.5-30.5T723-677l-47-47q-19-19-19-44.5t19-44.5q19-19 45-19t45 19l46 47q30 30 45.5 67.5T873-621q0 40-15.5 78T812-475l-75 75q-12 12-18 27t-6 31q0 16 6 31.5t18 27.5l47 47q19 19 19 44.5T784-147q-19 19-45 19t-45-19l-46-47Zm-250 0q-31-31-46-69t-15-78q0-40 15-78t46-69l75-75q12-12 17.5-26.5T496-620q0-16-5.5-30.5T473-677l-47-47q-18-18-18-43.5t18-44.5q18-19 44-19.5t45 18.5l47 47q30 30 45.5 67.5T623-621q0 40-15.5 78T562-475l-75 75q-12 12-18 27t-6 31q0 16 6 31.5t18 27.5l47 47q19 19 19 44.5T534-147q-19 19-45 19t-45-19l-46-47Zm-250-1q-30-30-45.5-68T87-341q0-40 15.5-78t45.5-69l75-76q12-12 17.5-26.5T246-621q0-16-5.5-30.5T223-678l-47-47q-19-18-19-43.5t19-44.5q18-18 44-18t44 18l48 47q31 30 46 67.5t15 77.5q0 40-15.5 78T312-475l-75 75q-12 12-18 27.5t-6 31.5q0 16 6 31t18 27l47 46q19 19 18.5 45T283-148q-19 18-44.5 18T195-148l-47-47Z"/></svg>