<svg xmlns="http://www.w3.org/2000/svg" height="24" viewBox="0 -960 960 960" width="24"><path d="M650-196q-30.5-30.5-45.5-67.75t-15-77.25q0-40 15-77.25T650-486l75-75q12.5-12.5 18-27.5t5.5-31.5q0-16.5-5.5-31.5T725-679l-47-46.5q-18.5-18.5-18.75-42.75T677.5-811q18.5-18.5 43.25-18.5T764-811l46 47q29.5 29.5 45 66.25T870.5-621q0 40-15.5 77.25T810-477l-75 75q-12.5 12.5-18.5 28.25t-6 32.25q0 16.5 6 32.25T735-281l47 46.5q18.5 18.5 18.5 43t-18.5 43Q763.5-130 738.75-130t-43.25-18.5L650-196Zm-250 0q-30.5-30.5-45.5-67.75t-15-77.25q0-40 15-77.25T400-486l75-75q12.5-12.5 18-27.5t5.5-31.5q0-16.5-5.5-31.5T475-679l-47-47q-18-17.5-17.75-41.75t17.25-42.75q18-18.5 42.5-18.75T513-811l47 47q29.5 29.5 45 66.25T620.5-621q0 40-15.5 77.25T560-477l-75 75q-12.5 12.5-18.5 28.25t-6 32.25q0 16.5 6 32.25T485-281l47 46.5q18.5 18.5 18.5 43t-18.5 43Q513.5-130 488.75-130t-43.25-18.5L400-196Zm-250-1q-29.5-29.5-45-67t-15.5-77.5q0-40 15.5-77t45-67.5l75-76q12.5-12.5 18-27.5t5.5-31.5q0-16.5-5.5-31.5T225-680l-47-47q-19-17.5-18.75-41.75T178-811.5q18-18 42.25-18t42.25 18L310-764q30.5 29.5 45.5 66.25t15 76.75q0 40-15.5 77.25T310-477l-75 75q-12.5 12.5-18.5 28.5t-6 32.5q0 16.5 6 32t18.5 28l47 45.5q18.5 18.5 18.25 43.5t-18.75 42.5q-18.5 18-43 17.5t-42-18L150-197Z"/></svg>