<svg xmlns="http://www.w3.org/2000/svg" height="24" viewBox="0 -960 960 960" width="24"><path d="M614.565-198.609q-29.681-29.148-44.818-66.791-15.138-37.643-15.138-76.361 0-38.717 15.119-75.435 15.12-36.717 44.837-66.195l75-75q13.283-13.522 19.044-29.125 5.761-15.603 5.761-32.304 0-16.702-5.761-32.484-5.761-15.783-19.044-29.305l-47-47q-17.195-16.69-16.815-39.758.381-23.068 17.366-40.024 16.746-17.196 40.011-17.196 23.265 0 40.221 17.196l46 47q29.478 29.239 44.337 65.456 14.859 36.218 14.859 74.709 0 38.253-14.859 75.246-14.859 36.992-44.337 66.371l-75 75q-13.218 13.576-19.511 29.667-6.293 16.092-6.293 32.942 0 16.883 6.293 33.445t19.511 30.164l47 47q17.196 16.774 17.196 39.42 0 22.645-16.985 39.601-16.746 17.196-40.011 17.196-23.265 0-40.222-17.196l-46.761-46.239Zm-211.956 0q-29.718-29.165-44.457-66.42-14.739-37.254-14.739-75.971 0-38.717 14.739-75.971 14.739-37.255 44.457-66.42l75-75q13.282-13.522 19.043-29.125 5.761-15.603 5.761-32.304 0-16.702-5.761-32.484-5.761-15.783-19.043-29.305l-47-47q-16.196-15.956-16.576-39.102-.381-23.145 16.576-39.891 15.956-16.985 39.391-16.985t40.391 16.196l47 47q29.479 28.944 44.337 65.689 14.859 36.745 14.859 75.463 0 38.717-14.859 75.193-14.858 36.475-44.337 65.437l-75 75q-13.218 13.82-19.511 30.081-6.293 16.262-6.293 33.417 0 17.154 6.293 33.34 6.293 16.185 19.511 29.38l47 47q17.196 16.774 17.196 39.42 0 22.645-16.985 39.601-16.746 17.196-40.011 17.196-23.265 0-40.221-17.196l-46.761-46.239Zm-211.957-1q-29.718-29.183-44.457-65.928-14.739-36.746-14.739-75.463 0-38.717 14.739-75.971 14.739-37.255 44.457-66.42l75-76q13.282-13.522 19.043-29.125 5.761-15.603 5.761-32.304 0-16.702-5.761-32.484-5.761-15.783-19.043-29.305l-47-47q-16.435-15.956-16.815-39.024-.381-23.068 16.815-39.758 15.956-16.196 39.391-16.196t39.392 16.196l48 47q29.717 28.944 44.456 65.689 14.739 36.745 14.739 75.463 0 38.717-14.858 75.193-14.859 36.475-44.337 65.437l-75 75q-13.219 13.602-19.512 30.164-6.293 16.562-6.293 33.445 0 16.85 6.293 32.942 6.293 16.091 19.512 29.667l47 46.761q17.195 16.774 16.695 39.539t-17.695 39.656q-16.957 16.022-39.892 16.022-22.935 0-38.891-16.196l-47-47Z"/></svg>