<svg xmlns="http://www.w3.org/2000/svg" height="48" viewBox="0 -960 960 960" width="48"><path d="M632-218q-25.5-25.5-38-57.25T581.5-341q0-34 12.5-65.75T632-464l75-75q17-17 25.25-37.836T740.5-620q0-22.328-8.25-43.164Q724-684 707-701l-47-46.898q-8.5-8.602-8.25-20.602t9-20.5q8.75-8.5 20.75-8.5T702-789l46 47q25.5 25.5 38.25 57.25T799-620q0 33-12.75 64.25T748-499l-75 75q-17.5 17.5-25.75 38.259Q639-364.983 639-342q0 23.331 8.25 44.415Q655.5-276.5 673-259l47 46.5q8.5 8.853 8.5 20.324 0 11.47-8.5 20.323T699.5-163q-12 0-20.5-9l-47-46Zm-210 0q-25.5-25.5-38-57.25T371.5-341q0-34 12.5-65.75T422-464l75-75q17-17 25.25-37.836T530.5-620q0-22.328-8.25-43.164Q514-684 497-701l-47-47q-9-8.5-8.75-19.983.25-11.484 8.75-20.517 8.5-8.5 20.5-8.75T491-789l47 47q25.5 25.5 38.25 57.25T589-620q0 33-12.75 64.25T538-499l-75 75q-17.5 17.5-25.75 38.759Q429-363.983 429-341q0 23.331 8.25 43.915Q445.5-276.5 463-259l47 46.5q8.5 8.853 8.5 20.324 0 11.47-8.5 20.323T489.5-163q-12 0-20.5-9l-47-46Zm-209.843-1Q186.5-244.5 174-276q-12.5-31.5-12.5-65.25t12.5-65.5q12.5-31.75 38-57.25l75-76q17-17 25.25-37.836T320.5-621q0-22.328-8.25-43.164Q304-685 287-702l-47-47q-9-8.5-8.75-19.983.25-11.484 8.75-20.517 9-8.5 20.25-8t20.25 8L328-742q25.5 25.5 38.25 56.75T379-621q0 33-12.75 64.75T328-499l-75 75q-17.5 17.5-25.75 38.63-8.25 21.129-8.25 44.25 0 23.12 8.25 43.87Q235.5-276.5 253-259l47 46.5q8.5 8.909 8.25 20.455-.25 11.545-9 20.045-8.75 9-20.25 8.75T258.93-172l-46.773-47Z"/></svg>