<svg xmlns="http://www.w3.org/2000/svg" height="20" viewBox="0 -960 960 960" width="20"><path d="M612-225.539q-22.993-23.086-35.516-53.351-12.523-30.264-12.523-63.725 0-33.462 12.635-64.077 12.635-30.615 35.404-53.769l74-74q16.846-16.735 25.211-38.946 8.366-22.211 8.366-45.614 0-22.402-8.866-43.599-8.865-21.196-24.711-37.919l-48.616-49.692q-7.423-7.423-7.461-16.231-.039-8.807 7.769-16.614 7.423-7.423 16.23-7.423 8.808 0 16.615 7.423l49.385 48.615q23.154 23.245 35.884 52.768 12.731 29.523 12.731 62.646 0 33.124-12.731 63.688-12.73 30.564-35.884 53.82l-74 74q-16.896 17.789-26.141 39.203-9.244 21.413-9.244 46.028 0 23.808 9.769 44.904 9.77 21.097 25.616 37.943l48.615 48.5q7.423 7.615 7.615 16.865.193 9.25-7.615 16.865-7.423 7.615-16.826 7.615-9.404 0-17.019-7.615L612-225.539Zm-185.461 0q-23.154-24.178-36.288-54.089-13.135-29.911-13.135-63.372t13.135-63.372q13.134-29.911 36.288-54.089l74-74q17.846-16.735 25.712-38.946 7.865-22.211 7.865-45.614 0-22.402-8.865-44.099-8.866-21.696-24.712-37.419l-49-49.385q-8.115-7.807-7.769-16.518.346-8.712 7.528-16.519 8.048-7.615 17.01-7.077 8.961.539 16.768 7.962l48.385 47.615q23.154 23.245 36.385 52.768 13.23 29.523 13.23 62.646 0 33.124-13.23 63.688-13.231 30.564-36.385 53.82l-74 74q-16.896 17.675-25.64 39.453-8.745 21.778-8.745 45.394 0 23.808 9.27 45.096 9.269 21.289 25.115 38.135l48.615 49.5q7.423 7.615 7.616 16.865.192 9.25-7.616 16.865-7.422 7.615-16.326 7.615t-16.519-7.615l-48.692-49.308Zm-186.461 1q-24.154-24.162-36.288-54.331-12.135-30.169-12.135-64.63 0-33.269 12.827-63.538t35.981-53.423l73.615-74q17.846-16.735 25.712-38.946 7.865-22.211 7.865-46.614 0-22.402-8.865-43.599-8.866-21.196-24.712-36.919l-49-49.385q-8.115-7.807-7.076-16.614 1.038-8.808 8.528-16.49 8.048-8.048 16.163-8.048t16.423 8.115l48.884 48.5q23.154 22.982 35.885 52.513 12.731 29.531 12.731 62.563 0 33.226-12.731 63.874-12.731 30.648-35.885 53.972l-74 74q-16.846 17.846-25.615 39.193-8.769 21.346-8.769 45.961 0 23.616 9.244 44.875 9.244 21.26 25.14 38.049l48.616 49.5q7.423 7.615 7.461 16.865.039 9.25-7.577 16.865-7.65 8.179-16.786 7.647-9.136-.532-16.559-7.955l-49.077-48Z"/></svg>