<svg xmlns="http://www.w3.org/2000/svg" height="20" viewBox="0 -960 960 960" width="20"><path d="M606-208q-26.964-26.67-41.482-61.835T550-343q0-38 15-73t41-62l74-74q14-14 20-31.321 6-17.32 6-35.499 0-17.18-6.5-33.68T680-683l-49-50q-15-14.733-14.5-33.867Q617-786 631.789-801q14.79-15 34-15Q685-816 700-801l49 49q27 27 41.5 60.5t14.5 71.274q0 37.775-14.5 73.43Q776-511.14 749-484l-74 74q-12.935 14.054-20.468 30.743Q647-362.568 647-343q0 18.6 8.032 35.76Q663.065-290.08 675-277l49 49q15 14.818 15 33.909T724.211-160q-14.79 15-34.5 15Q670-145 655-160l-49-48Zm-197 0q-27-27.688-42-62.344Q352-305 352-343q0-38 15-72.656 15-34.656 42-62.344l74-74q15-14 20.5-31.321 5.5-17.32 5.5-35.499 0-17.18-6.5-34.18T483-683l-49-49q-15-15-15-34.211 0-19.21 15-34Q449-815 468.5-814.5T503-800l48 48q27 26.705 42 60.853Q608-657 608-619q0 38-15 73.138-15 35.139-42 61.862l-74 74q-12.935 14.298-19.968 31.777Q450-360.745 450-341.872q0 18.872 7.532 35.536Q465.065-289.673 477-277l49 50q15 14.818 15 33.909T526.211-159q-14.79 15-34 15Q473-144 458-159l-49-49Zm-198 1q-28-27.705-42-62.353Q155-304 155-343q0-38 14.5-73.156Q184-451.312 211-478l74-74q15-14 20.5-31.321 5.5-17.32 5.5-36.499 0-17.18-6.5-33.68T285-683l-49-49q-15-15-14.5-34.133Q222-785.267 237-800q15-15 34-15t34 15l49 48q27 26.705 41.5 60.853Q410-657 410-619q0 38-14.5 73.138Q381-510.723 354-484l-74 74q-12.935 14.08-19.968 31.24Q253-361.6 253-342q0 18.568 7.532 35.257Q268.065-290.054 280-277l49 50q15 14.818 14.5 33.909T328-158.826Q313-144 293.5-144.5T260-159l-49-48Z"/></svg>