<svg xmlns="http://www.w3.org/2000/svg" height="48" viewBox="0 -960 960 960" width="48"><path d="M622.384-222.616q-24.378-24.471-36.381-55.1-12.004-30.63-12.004-63.284 0-32.654 11.918-63.224 11.918-30.569 36.467-55.16l75-75q17.577-17.466 26.692-39.635 9.116-22.169 9.116-46.002 0-23.832-9.116-45.987-9.115-22.154-26.692-39.608l-46.615-47.09q-6.193-6.345-6.231-15.531-.039-9.186 6.829-15.763 6.482-6.192 15.653-6.192T682.768-784l46.384 46.616q24.539 24.572 36.712 55.009 12.173 30.436 12.173 62.328 0 31.893-12.173 61.868-12.173 29.976-36.712 54.563l-75 75q-18.498 18.562-27.307 40.713-8.808 22.151-8.808 46.095 0 24.485 8.833 46.643t27.282 40.781l46.616 46.5q6.192 6.807 6.384 15.646.193 8.84-6.425 15.577-6.232 6.737-15.499 6.737t-15.652-6.884l-47.192-45.808Zm-195.768 0q-24.539-24.718-36.366-55.32-11.826-30.603-11.826-63.064t11.826-63.064q11.827-30.602 36.366-55.32l75-75q17.577-17.466 26.692-39.635 9.116-22.169 9.116-46.002 0-23.832-9.116-45.987-9.115-22.154-26.692-39.608l-47-47.384q-6.5-6.193-6.346-14.983.154-8.791 6.438-15.901 6.1-6.385 15.34-6.346 9.241.038 15.952 6.23l47.384 46.616q24.539 24.572 36.712 55.105 12.173 30.532 12.173 62.425 0 31.892-12.173 61.772-12.173 29.879-36.712 54.466l-75 75q-18.499 18.334-27.307 40.714-8.808 22.381-8.808 46.517 0 24.677 8.833 46.528 8.833 21.85 27.282 40.473l46.616 46.5q6.192 6.807 6.384 15.646.192 8.84-6.425 15.577-6.232 6.737-15.499 6.737t-15.652-6.884l-47.192-45.808Zm-195.611-1q-24.696-24.708-36.523-55.162-11.827-30.453-11.827-62.664 0-32.019 12.02-62.634 12.019-30.614 36.557-55.308l74.616-76q17.576-17.466 26.692-39.635 9.115-22.169 9.115-46.002 0-23.832-9.115-45.987-9.116-22.154-26.692-39.608l-47-47.384q-6.5-6.193-6.154-15.079.346-8.887 6.605-15.872 6.433-5.933 15.087-5.625 8.653.307 15.345 5.692l47.885 47.5q24.538 23.982 36.712 54.371 12.173 30.389 12.173 62.205 0 31.644-12.173 62.095-12.174 30.452-36.712 55.097l-75 75q-18.449 18.623-27.282 40.826-8.833 22.203-8.833 46.285 0 24.082 8.808 46.321 8.808 22.238 27.307 40.8l46.615 46.5q6.193 6.863 6.231 15.777.039 8.914-6.596 15.132-6.669 6.731-15.459 6.641-8.79-.09-15.052-6.282l-47.35-47Z"/></svg>