<svg xmlns="http://www.w3.org/2000/svg" height="48" viewBox="0 -960 960 960" width="48"><path d="M617.769-218q-25.649-24.449-38.171-56.802-12.522-32.352-12.522-66.006 0-33.653 12.514-65.973T617.769-465l75-75q15.769-15.657 24.538-36.407 8.769-20.75 8.769-43.434 0-22.684-8.769-43.599-8.769-20.914-24.538-37.56l-46.616-47q-8.692-7.477-8.577-20.008.116-12.53 9.023-21.607 7.522-7.692 20.115-7.692 12.592 0 21.669 7.692L734.768-743q24.846 25.881 37.769 57.471 12.923 31.59 12.923 64.257 0 33.667-12.923 65.452-12.923 31.784-37.769 56.82l-75 75q-18.127 18.307-26.217 38.985-8.091 20.678-8.091 43.4 0 22.754 8.115 43.487 8.116 20.734 26.193 38.128l46.615 47q7.692 8.581 7.885 20.752.192 12.171-7.715 20.248-8.522 8.692-21.115 8.692-12.593 0-20.669-8.692l-47-46ZM422-218q-25.846-24.714-38.269-57.126-12.423-32.413-12.423-65.874t12.423-65.874Q396.154-439.286 422-465l75-75q15.77-15.657 24.539-36.407 8.769-20.75 8.769-43.434 0-22.684-8.769-43.599Q512.77-684.354 497-701l-47-47.385q-8.692-7.692-8.692-19.826 0-12.133 8.592-20.999 7.793-7.866 20.148-7.982 12.356-.115 21.567 7.577L539-743q24.846 25.586 37.769 57.823 12.923 32.238 12.923 65.13 0 32.893-12.923 64.661Q563.846-523.619 539-499l-75 75q-18.127 18.323-26.218 39.52-8.09 21.197-8.09 43.415 0 23.219 8.115 43.648Q445.923-276.987 464-260l46.615 47q7.692 8.581 7.884 20.752.193 12.171-7.714 20.248-8.522 8.692-21.115 8.692-12.593 0-20.67-8.692l-47-46Zm-195.768-1q-25.846-24.722-38.269-56.63Q175.54-307.539 175.54-341q0-33.461 12.615-65.886Q200.771-439.31 226.617-465l74.615-76q15.769-15.657 24.539-36.407 8.769-20.75 8.769-43.434 0-22.684-8.769-43.599-8.77-20.914-24.539-37.56l-47-47.385q-8.692-7.692-8.5-19.941.193-12.248 8.952-20.741 7.625-7.625 19.548-7.817 11.923-.192 20.615 7.884l48.384 47q24.847 25.188 37.77 57.186 12.923 31.997 12.923 64.814 0 32.643-12.923 64.983T343.231-499l-75 75q-18.077 18.394-26.192 39.128-8.115 20.733-8.115 43.487 0 22.722 8.09 43.4 8.091 20.678 26.217 37.985l46.616 47q7.692 8.581 7.577 20.752-.116 12.171-8.193 20.254-8.727 8.558-20.824 8.622-12.098.064-19.79-8.628l-47.385-47Z"/></svg>