<svg xmlns="http://www.w3.org/2000/svg" height="48" viewBox="0 -960 960 960" width="48"><path d="M646.696-211.217q-27.195-26.631-40.261-60.076-13.065-33.446-13.065-69.142 0-36.261 13.348-69.989t39.978-60.359l75-75q15.305-15.304 22.707-34.445 7.402-19.14 7.402-39.772 0-20.632-7.402-39.772-7.402-19.141-22.707-34.445l-47-46.898q-11.891-11.428-11.641-27.385t11.826-27.283q11.576-11.326 27.533-11.326t27.848 11.326l46 47q26.066 26.631 39.946 60.076 13.881 33.446 13.881 68.142 0 35.261-13.881 68.489-13.88 33.228-39.946 59.859l-75 75q-16.369 16.369-23.771 35.432-7.402 19.063-7.402 39.785 0 21.07 7.402 40.459 7.402 19.389 23.771 35.758l47 46.5q11.327 11.679 11.327 27.389 0 15.71-11.327 27.389-11.891 11.679-27.848 11.679-15.957 0-27.283-11.826l-46.435-46.565Zm-231.479 0q-26.63-26.631-39.978-60.359-13.348-33.728-13.348-69.424 0-35.696 13.348-69.424 13.348-33.728 39.978-60.359l75-75q15.304-15.304 22.989-34.445 7.685-19.14 7.685-39.772 0-20.632-7.685-39.772-7.685-19.141-22.989-34.445l-47-47q-11.826-11.326-11.576-26.766.25-15.44 11.576-27.3 11.326-11.326 27.283-11.576t27.283 11.076l47 47q26.63 26.631 40.228 60.076 13.598 33.446 13.598 68.142 0 35.261-13.598 68.489t-40.228 59.859l-75 75q-16.37 16.369-23.772 35.932-7.402 19.563-7.402 40.285 0 21.07 7.402 39.959 7.402 18.889 23.772 35.258l47 46.5q11.326 11.679 11.326 27.389 0 15.71-11.326 27.389-11.326 11.679-27.566 11.679-16.239 0-27.565-11.826l-46.435-46.565Zm-230.757-1q-26.788-26.631-40.418-60.109-13.631-33.478-13.631-68.924 0-35.446 13.631-69.174 13.63-33.728 40.261-60.359l75-76q15.304-15.304 22.706-34.445 7.402-19.14 7.402-39.772 0-20.632-7.402-39.772-7.402-19.141-22.706-34.445l-47-47q-12.392-11.326-12.142-26.766.25-15.44 12.142-27.3 11.826-11.326 26.75-10.826t27.316 10.826l47.5 47.5q26.63 26.631 40.228 59.576 13.598 32.946 13.598 67.642 0 35.261-13.88 68.989-13.881 33.728-39.946 60.359l-75 75q-16.37 16.369-23.772 35.803-7.402 19.434-7.402 40.294 0 20.859 7.402 39.913 7.402 19.055 23.772 35.424l47 45.935q11.326 11.735 11.076 27.52t-11.826 27.111q-12.142 11.826-27.598 11.576-15.457-.25-26.288-11.576l-46.773-47Z"/></svg>