<svg xmlns="http://www.w3.org/2000/svg" height="40" viewBox="0 -960 960 960" width="40"><path d="M641.537-207.13q-28.217-27.841-41.782-62.537-13.566-34.695-13.566-71.101 0-36.783 13.682-71.522 13.681-34.739 41.666-62.58l75-75q14.638-14.637 21.529-32.659 6.892-18.022 6.892-37.471 0-19.449-6.892-37.471-6.891-18.022-21.529-32.659l-47-47q-13.579-13.203-13.174-31.37.406-18.167 13.609-31.37t31.464-13.203q18.261 0 31.841 13.203l46 47q27.275 27.652 41.239 62.109 13.964 34.457 13.964 70.196 0 36.116-13.964 70.449-13.964 34.334-41.239 61.986l-75 75q-15.16 15.159-22.478 33.275-7.319 18.116-7.319 37.855 0 19.739 7.319 38.355 7.318 18.616 22.478 33.775l47 47q13.203 13.203 13.203 31.153 0 17.949-13.203 31.152-13.58 13.203-31.841 13.203-18.261 0-31.464-13.203l-46.435-46.565Zm-230.407 0q-27.84-27.841-41.522-62.653-13.681-34.811-13.681-71.217t13.681-71.217q13.682-34.812 41.522-62.653l75-75q14.638-14.637 21.718-32.659 7.079-18.022 7.079-37.471 0-19.449-7.079-37.471-7.08-18.022-21.718-32.659l-47-47q-12.869-12.87-12.942-30.703-.072-17.834 12.942-31.037 12.87-13.203 31.203-13.703 18.334-.5 31.537 12.703l47 47q27.652 27.652 41.427 62.109 13.776 34.457 13.776 70.196 0 36.116-13.776 70.449-13.775 34.334-41.427 61.986l-75 75q-15.16 15.159-22.478 33.608-7.319 18.45-7.319 38.189t7.319 38.021q7.318 18.283 22.478 33.442l47 47q13.203 13.203 13.203 31.153 0 17.949-13.203 31.152t-31.653 13.203q-18.449 0-31.652-13.203L411.13-207.13Zm-230.03-1q-27.652-27.652-41.616-62.058Q125.52-304.594 125.52-341t13.964-71.217q13.964-34.812 41.616-62.653l75-76q14.638-14.637 21.529-32.659T284.52-621q0-19.449-6.891-37.471-6.891-18.022-21.529-32.659l-47-47q-13.435-12.87-13.507-30.703-.073-17.834 13.507-31.037 12.87-12.869 30.681-12.536 17.812.333 31.059 12.536l48 47q27.84 27.652 41.521 61.776 13.682 34.123 13.682 69.862 0 36.116-13.964 70.783T318.84-488.13l-75 75q-15.16 15.159-22.479 33.775-7.319 18.616-7.319 38.355 0 19.739 7.319 37.855 7.319 18.116 22.479 33.275l47 46.435q13.203 13.203 12.703 31.247-.5 18.043-13.703 31.058-13.58 12.869-31.341 12.942-17.761.072-30.399-12.942l-47-47Z"/></svg>