<svg xmlns="http://www.w3.org/2000/svg" height="24" viewBox="0 -960 960 960" width="24"><path d="M595.769-214.846q-25.565-25.458-38.821-58.46-13.256-33.002-13.256-67.925 0-34.923 13.462-67.461 13.461-32.539 38.615-58.462l75-75q17.077-16.854 24.616-36.789 7.538-19.935 7.538-40.919 0-20.984-7.538-41.069-7.539-20.085-24.616-36.915l-46.23-47q-9.847-9.58-10.116-22.751-.269-13.172 10.136-23.788 9.635-9.846 22.884-9.846 13.25 0 23.865 9.846l46.769 46.231q25.923 26.105 38.885 57.959 12.961 31.855 12.961 65.876 0 34.022-12.961 66.613-12.962 32.592-38.885 58.86l-75 75q-17.111 17.017-25.133 37.225-8.021 20.207-8.021 42.39 0 22.216 8.071 42.068 8.071 19.852 25.083 37.009l46.231 47q9.846 9.664 10.231 22.678.384 13.015-10.021 23.63Q679.883-159 666.634-159t-23.865-9.846l-47-46Zm-176.923 0q-25.923-25.659-38.885-58.445Q367-306.077 367-341t12.961-67.709q12.962-32.786 38.885-58.445l75-75q17.077-16.854 24.615-36.789Q526-598.878 526-619.862q0-20.984-7.539-41.069-7.538-20.085-24.615-36.915l-47-47.769q-9.615-9.616-9.731-22.48-.115-12.865 9.865-23.269 9.481-10.405 22.635-9.636 13.154.769 23.77 9.615l47.769 46.231q25.923 25.81 38.885 58.312Q593-654.34 593-620.093q0 34.247-12.961 66.321-12.962 32.075-38.885 57.926l-75 75q-17.112 17.033-25.133 37.259Q433-363.36 433-340.872q0 22.487 8.071 42.228 8.071 19.74 25.083 36.49l46.231 47q9.846 9.664 10.23 22.678.385 13.015-10.02 23.63Q502.96-159 489.711-159q-13.25 0-23.865-9.846l-47-46Zm-176.923-1Q216-241.491 203.038-273.784 190.077-306.077 190.077-341q0-34.923 13.346-67.733t39.269-58.421l74.231-76q17.077-16.854 24.615-36.789 7.539-19.935 7.539-40.919 0-20.984-7.539-41.069-7.538-20.085-24.615-36.915l-47-47.769q-9.616-9.616-9.346-22.788.269-13.171 10.249-22.885 9.481-9.481 22.251-9.481 12.769 0 22.384 9.615l48.77 47q25.923 25.67 38.884 57.995 12.962 32.325 12.962 66.39 0 34.452-12.962 66.694-12.961 32.243-38.884 58.229l-75 75q-17.013 17.157-25.083 37.009-8.071 19.852-8.071 42.068 0 22.183 8.021 42.39 8.021 20.208 25.133 37.225l46.23 47q9.847 9.664 10.116 22.678.269 13.015-10.346 23.804-9.916 9.185-23.305 8.929-13.388-.257-22.234-9.103l-47.769-47Z"/></svg>