<svg xmlns="http://www.w3.org/2000/svg" height="24" viewBox="0 -960 960 960" width="24"><path d="M606-225.077q-23.486-23.673-35.531-53.952-12.046-30.279-12.046-62.202t11.769-61.904q11.77-29.98 35.808-53.788l75-75q18.192-17.969 27.423-40.891 9.231-22.923 9.231-47.227 0-24.305-9.231-47.198-9.231-22.892-27.423-40.838l-46.231-46.884q-5.346-5.347-5.673-12.712-.327-7.366 5.789-13.481 5.346-5.346 12.711-5.346 7.366 0 13.481 5.346l46.769 46.231q23.808 23.989 35.77 53.786 11.961 29.797 11.961 61.044 0 31.247-11.961 60.625-11.962 29.379-35.77 53.391l-75 75q-19.291 19.078-28.28 42.155-8.989 23.076-8.989 47.807 0 25.115 9.039 47.557 9.038 22.443 28.23 41.635l46.231 46.5q5.346 5.731 5.731 13.231.385 7.5-5.731 13.231-5.346 5.73-12.904 5.73t-13.288-5.73L606-225.077Zm-176.923 0q-23.808-23.856-35.577-53.928-11.769-30.072-11.769-61.995t11.769-61.995q11.769-30.072 35.577-53.928l75-75q18.192-17.969 27.423-40.891 9.231-22.923 9.231-47.227 0-24.305-9.231-47.198-9.231-22.892-27.423-40.838l-47-47.769q-5.231-5.115-5.289-12.289-.057-7.173 5.307-13.288 5.097-5.731 12.52-5.404 7.424.327 13.539 5.673l47.769 46.231q23.808 23.989 35.769 53.786 11.962 29.797 11.962 61.044 0 31.247-11.962 60.625-11.961 29.379-35.769 53.391l-75 75q-19.291 18.851-28.28 41.656-8.989 22.806-8.989 47.536 0 25.116 9.038 47.943 9.039 22.827 28.231 42.019l46.231 46.5q5.346 5.731 5.731 13.231.384 7.5-5.731 13.231-5.346 5.73-12.904 5.73t-13.289-5.73l-46.884-46.116Zm-176.923-1q-23.808-23.824-35.577-53.662-11.77-29.838-11.77-61.761 0-31.538 12.154-61.577 12.154-30.038 35.962-53.846l74.231-76q18.192-17.969 27.423-40.891 9.23-22.923 9.23-47.227 0-24.305-9.23-47.198-9.231-22.892-27.423-40.838l-47-47.769q-5.231-5.115-4.904-12.481.327-7.365 5.807-13.23 5.097-5.097 12.077-5.097 6.981 0 12.597 5.231l48.269 47.5q23.808 23.464 35.769 53.277 11.962 29.812 11.962 60.877 0 31.452-11.962 60.998-11.961 29.547-35.769 53.694l-75 75q-19.192 19.192-28.231 41.885-9.038 22.692-9.038 47.423t8.989 47.749q8.988 23.019 28.28 42.097l46.231 46.5q5.346 5.731 5.673 13.231.327 7.5-5.404 13.231-5.801 5.359-13.074 5.294-7.272-.064-12.619-5.41l-47.653-47Z"/></svg>