<svg xmlns="http://www.w3.org/2000/svg" height="20" viewBox="0 -960 960 960" width="20"><path d="M601.384-214.924q-25.264-25.064-38.901-58.147-13.637-33.083-13.637-69.544 0-36.462 14.231-69.731 14.23-33.269 38.307-58.73l74-74q15.539-15.427 22.308-34.555t6.769-39.21q0-19.082-7.269-37.375-7.269-18.292-21.808-33.708l-48.615-50q-11.923-11.656-11.808-26.558.116-14.902 12.213-27.21 11.712-11.923 26.691-11.923 14.98 0 27.287 11.923l49.385 48.616q25.462 25.552 39.192 57.229 13.731 31.677 13.731 67.575t-13.731 69.771q-13.73 33.873-39.192 59.577l-74 74q-14.524 15.536-22.8 33.985-8.277 18.448-8.277 40.324 0 20.908 8.801 39.414 8.802 18.506 22.276 33.125l48.615 49q11.923 11.741 12.116 26.793.192 15.052-11.905 27.359-11.712 11.923-27.192 11.923-15.479 0-27.787-11.923l-49-48Zm-185.46 0q-25.462-26.173-39.693-58.894-14.23-32.721-14.23-69.182 0-36.461 14.23-69.182 14.231-32.721 39.693-58.894l74-74q16.538-15.427 22.807-34.555 6.27-19.128 6.27-39.21 0-19.082-7.27-37.875-7.269-18.792-21.807-33.208l-49-49.384q-12.308-12.308-12.116-27.095.193-14.787 12.182-26.884 12.241-12.097 27.318-11.212 15.076.884 27.384 11.807l48.384 47.616q25.462 25.257 39.693 57.582 14.23 32.324 14.23 68.447 0 36.124-14.23 69.48-14.231 33.356-39.693 58.643l-74 74q-14.523 15.666-22.3 34.769-7.777 19.102-7.777 40.283 0 21.18 8.302 39.382 8.301 18.202 21.775 32.414l48.616 50q11.923 11.741 12.115 26.793.192 15.052-11.905 27.359-11.712 11.923-26.691 11.923-14.98 0-27.287-11.923l-49-49Zm-186.461 1q-26.462-26.174-39.692-58.894Q176.54-305.539 176.54-343q0-36.461 13.923-69.694 13.923-33.233 39.385-58.382l73.615-74q16.538-15.427 22.808-34.555 6.269-19.128 6.269-40.21 0-19.082-7.269-37.375-7.27-18.292-21.808-32.708l-49-49.384q-12.308-12.308-11.423-27.21.885-14.902 12.874-26.625 12.241-12.241 26.625-12.241 14.385 0 26.692 12.308l49.385 48q25.461 25.187 39.192 57.423 13.731 32.236 13.731 68.268 0 36.226-13.731 69.666-13.731 33.441-39.192 58.795l-74 74q-14.474 15.619-22.276 34.125-7.801 18.506-7.801 40.414 0 20.876 8.276 39.324 8.277 18.449 21.801 32.985l48.615 50q11.923 11.741 11.808 26.793-.116 15.052-12.423 27.533-11.958 12.006-27.402 11.377-15.444-.628-26.366-11.551l-49.385-48Z"/></svg>