<svg xmlns="http://www.w3.org/2000/svg" height="20" viewBox="0 -960 960 960" width="20"><path d="M625.131-215.174q-25.457-25.456-38.946-58.174-13.489-32.717-13.489-68.913t13.859-69.652q13.858-33.457 38.576-58.913l74-74q14.782-14.783 21.804-34.207 7.022-19.424 7.022-39.967 0-19.543-7.522-37.967t-21.304-33.207l-49-49.5q-12.174-12.174-12.044-27.076.131-14.902 12.304-27.076Q662.565-806 677.587-806q15.022 0 27.196 12.174l49 49q25.217 25.217 39.196 57.304 13.978 32.087 13.978 68.283t-13.978 69.522Q779-516.391 753.783-491.174l-74 74q-14.543 15.544-22.685 34.337-8.141 18.794-8.141 40.337 0 20.543 8.641 39.337 8.642 18.793 22.185 33.337l49 48.5q12.174 12.174 12.174 27.446 0 15.271-12.174 27.445t-27.696 12.174q-15.522 0-27.696-12.174l-48.26-48.739Zm-208.957 0q-25.457-26.456-39.815-59.043Q362-306.804 362-343t14.359-68.783q14.358-32.587 39.815-59.043l74-74q15.782-14.783 22.304-34.207Q519-598.457 519-619q0-19.543-7.522-38.467t-21.304-32.707l-49-49q-12.674-12.174-12.305-27.076.37-14.902 11.805-27.076Q453.348-805.5 468.5-805.25q15.152.25 27.326 12.424l48 48q25.218 25.217 39.696 57.054Q598-655.935 598-619.739t-14.478 69.772q-14.478 33.576-39.696 58.793l-74 74q-14.543 15.544-22.185 34.837Q440-363.043 440-342.5q0 20.543 8.141 39.337 8.142 18.793 21.685 33.337l49 49.5Q531-208.152 531-192.88q0 15.271-12.174 27.445t-27.196 12.174q-15.021 0-27.195-12.174l-48.261-49.739Zm-209.957 1Q180-240.391 166.521-273.098 153.043-305.804 153.043-343q0-36.196 13.978-69.283Q181-445.37 206.217-470.826l74-74q15.783-14.783 22.304-34.207 6.522-19.424 6.522-40.967 0-19.543-7.522-37.967-7.521-18.424-21.304-32.207l-49-49q-12.913-12.174-12.043-27.076.869-14.902 13.043-27.076Q244.891-806 259.293-806q14.402 0 27.076 12.674l48.5 48.5q25.457 25.217 39.316 57.054 13.858 31.837 13.858 68.033t-13.978 69.772q-13.978 33.576-39.196 58.793l-74 74q-14.543 15.544-22.184 34.587-7.642 19.044-7.642 40.587 0 20.543 8.142 39.087 8.141 18.543 21.684 33.087l49 49.261q12.174 12.174 11.924 27.565-.25 15.391-12.424 27.326-12.174 12.674-27.445 12.055-15.272-.62-27.207-12.555l-48.5-48Z"/></svg>