<svg xmlns="http://www.w3.org/2000/svg" height="48" viewBox="0 -960 960 960" width="48"><path d="M659-207q-28.964-25.67-42.982-61.835T602-341q0-37 14-72.5t43-62.5l75-75q12-13 19.5-30.821 7.5-17.82 7.5-37.999 0-20.18-7.5-38.18T734-690l-47-47q-15-11.733-14.5-31.367Q673-788 686.789-801q11.79-13 31.5-13Q738-814 752-801l46 47q26 27 41 62.5t15 70.274q0 35.775-15 71.43Q824-514.14 798-488l-75 75q-15.935 17.054-22.468 34.743Q694-360.568 694-342q0 18.6 6.532 36.76Q707.065-287.08 723-271l47 47q13 12.818 13 32.409T770.211-160q-13.79 14-33.5 14Q717-146 705-160l-46-47Zm-248 0q-28-25.688-42-61.844Q355-305 355-341q0-36 14-72.156 14-36.156 42-62.844l75-75q12-13 20-30.821 8-17.82 8-37.999 0-20.18-8-38.18t-20-32l-47-47q-14-12-14-31.211 0-19.21 14-32Q451-813 470.5-813.5T503-801l47 47q27 26.705 41.5 62.853Q606-655 606-620q0 36-14.5 71.138Q577-513.723 550-488l-75 75q-15.935 17.298-22.468 35.277Q446-359.745 446-341.872q0 18.872 6.532 37.036Q459.065-286.673 475-271l47 47q13 12.818 13 32.409T522.211-160q-12.79 14-33 14Q469-146 457-160l-46-47Zm-247-1q-29-26.705-43-61.853Q107-305 107-341q0-36 14-72.156 14-36.156 43-62.844l75-76q13-13 20-30.821 7-17.82 7-37.999 0-20.18-7.5-38.18T239-691l-47-47q-15-12-15-31.133 0-19.134 15-31.867 12-13 30.5-13t32.5 13l48 47q27 26.705 41.5 62.353Q359-656 359-621q0 36-15 71.638-15 35.639-41 61.362l-75 75q-15.935 17.08-22.468 35.24Q199-359.6 199-341q0 18.568 6.532 36.257Q212.065-287.054 228-271l47 46q13 12.818 12.5 32.409T274-160.826Q260-147 241.5-146.5T211-161l-47-47Z"/></svg>