<svg xmlns="http://www.w3.org/2000/svg" height="20" viewBox="0 -960 960 960" width="20"><path d="M616.838-219.029Q592.5-243.5 579.25-275.5q-13.25-32-13.25-67t13.5-67.5q13.5-32.5 37.5-57l74-74q15.5-15.401 23-35.908 7.5-20.508 7.5-42.042 0-20.535-8-40.042Q705.5-678.5 691-694l-72.5-73 47.5-46.5 72.162 72.529Q762.5-716.5 776-685.25 789.5-654 789.5-619T776-551.75Q762.5-519.5 738-495l-74 74q-15.258 16.541-23.879 36.182-8.621 19.642-8.621 42.318 0 21.339 9 41.169Q649.5-281.5 664-266l72.5 72-47.5 47.5-72.162-72.529Zm-197 0Q395.5-244.5 381.5-276.25q-14-31.75-14-66.75t14-66.75q14-31.75 38.5-57.25l74-74q16.5-15.401 23.5-35.908 7-20.508 7-42.042 0-20.535-8-40.542Q508.5-679.5 494-694l-72.5-72 46.5-47.5 72.155 72.529Q564.5-716.5 578.5-685.5q14 31 14 66t-14 67.5q-14 32.5-38.5 57l-74 74q-15.258 16.541-23.379 36.682-8.121 20.142-8.121 41.818 0 21.339 8.5 41.169Q451.5-281.5 466-266l72.5 73-46.5 46.5-72.162-72.529Zm-198 1Q196.5-243.5 183.5-275.25q-13-31.75-13-67.75 0-35 13.5-67.25T222-467l74-74q16.5-15.401 23.5-35.908 7-20.508 7-43.042 0-20.535-8-40.042Q310.5-679.5 296-694l-72.5-72 47.5-46.5 72.155 71.529Q367.5-716.5 381-685.5q13.5 31 13.5 66T381-552q-13.5 32.5-38 57l-74 74q-15.5 16.421-23.5 36.434-8 20.013-8 42.54 0 21.526 8.5 41.026 8.5 19.5 23 35l72.5 73-47.5 46.5-72.162-71.529Z"/></svg>