<svg xmlns="http://www.w3.org/2000/svg" height="40" viewBox="0 -960 960 960" width="40"><path d="M604.282-220.282q-24.744-23.971-37.18-55.665-12.435-31.694-12.435-64.873 0-33.18 12.506-64.786t37.109-56.779l75-75q16.718-16.494 25.59-37.925 8.872-21.431 8.872-44.552 0-23.12-8.872-44.701t-25.59-38.719L614.667-768 651-804.333l65.385 63.948q24.436 25.209 36.987 55.947 12.551 30.739 12.551 63.119 0 33.047-12.551 64.187t-36.987 55.85l-75 75q-18.583 18.713-27.022 40.227-8.44 21.513-8.44 44.824 0 23.344 8.489 44.499 8.49 21.156 26.973 39.347L705.333-192 669-155.667l-64.718-64.615Zm-180 0q-25.102-24.38-37.32-56.087-12.218-31.708-12.218-64.631t12.218-64.631q12.218-31.707 37.32-56.754l75-75q16.718-16.494 25.59-37.925 8.872-21.431 8.872-44.552 0-23.12-8.872-44.701t-25.59-38.719L434.667-768 470-804.333l66.385 63.948q24.435 24.915 36.987 56.3 12.551 31.386 12.551 63.992 0 32.606-12.551 63.562-12.552 30.956-36.987 55.249l-75 75q-18.583 18.577-27.022 40.262-8.44 21.686-8.44 44.891 0 23.873 8.489 44.916 8.489 21.044 26.973 38.828L525.333-192 489-155.667l-64.718-64.615Zm-180-1q-25.103-24.373-37.321-55.584-12.218-31.211-12.218-64.134t12.603-64.655q12.603-31.731 37.705-56.73l74.231-76q16.718-16.494 25.59-37.925 8.871-21.431 8.871-44.552 0-23.12-8.871-44.701-8.872-21.581-25.59-38.719L254.667-769 290-804.333l66.384 63.948q24.436 24.337 36.987 55.677 12.552 31.341 12.552 63.785 0 32.342-12.552 63.783-12.551 31.442-36.987 55.858l-75 75q-18.483 18.858-26.972 40.014-8.489 21.155-8.489 44.499 0 23.311 8.439 44.824 8.44 21.514 27.022 39.56L345.333-192 309-156.667l-64.718-64.615Z"/></svg>