<svg xmlns="http://www.w3.org/2000/svg" height="24" viewBox="0 -960 960 960" width="24"><path d="M600.384-207.924q-27.264-27.064-40.901-61.647-13.637-34.583-13.637-71.044 0-36.462 13.731-71.231 13.73-34.769 40.807-62.23l75-75q15.539-15.427 22.308-33.555t6.769-37.21q0-19.082-6.769-37.375-6.769-18.292-22.308-33.708L598.693-768l60.768-60.768 77.076 76.692q27.462 27.552 41.192 61.229 13.731 33.677 13.731 69.575t-13.731 70.271q-13.73 34.373-41.192 62.077l-75 75q-15.524 15.536-22.8 33.985-7.277 18.448-7.277 38.324 0 19.908 7.301 38.414 7.302 18.506 22.776 34.125L738.229-192l-60.768 60.768-77.077-76.692Zm-188.46 0q-27.462-27.173-41.193-61.894-13.73-34.721-13.73-71.182 0-36.461 13.73-71.182 13.731-34.721 41.193-61.894l75-75q15.538-15.427 22.307-33.555 6.77-18.128 6.77-37.21t-6.77-37.375q-6.769-18.292-22.307-33.708L410.232-768 470-828.768l78.076 76.692q27.462 27.257 41.193 61.082 13.73 33.824 13.73 69.947 0 36.124-13.73 70.48-13.731 34.356-41.193 61.643l-75 75q-15.523 15.666-22.8 34.269-7.277 18.602-7.277 38.783 0 20.18 7.302 38.382 7.301 18.202 22.775 33.414L549.768-192 489-131.232l-77.076-76.692Zm-188.461-1q-27.462-27.174-41.192-61.394Q168.54-304.539 168.54-341q0-36.461 13.923-71.194 13.923-34.733 41.385-61.882l74.615-76q14.538-15.427 21.808-33.555 7.269-18.128 7.269-37.21t-6.769-37.375q-6.77-18.292-22.308-33.708L221.771-769l59.768-59.768 78.077 76.692q27.461 27.187 41.192 60.923 13.731 33.736 13.731 69.768 0 36.226-13.731 70.666-13.731 34.441-41.192 61.795l-75 75q-15.474 15.619-22.776 34.125-7.301 18.506-7.301 38.414 0 19.876 7.276 38.324 7.277 18.449 22.801 33.985L361.307-192l-60.768 59.768-77.076-76.692Z"/></svg>