<svg xmlns="http://www.w3.org/2000/svg" height="24" viewBox="0 -960 960 960" width="24"><path d="M593-219q-24.545-24.495-36.773-55.747Q544-306 544-340t12.5-66q12.5-32 36.5-57l75-75q18-17.71 26-38.729 8-21.02 8-43.145 0-22.126-8-43.286-8-21.161-26-38.84l-65-66 38-38 66 65q25 25.236 37.5 55.997t12.5 63.656q0 32.896-12.5 64.418Q732-525.406 707-500l-75 75q-18.065 17.906-26.532 39.169Q597-364.568 597-341q0 23.6 8.532 44.26Q614.065-276.08 632-258l65 66-38 38-66-65Zm-170 0q-25-24.75-37.5-56.375T373-341q0-34 12.5-65.625T423-463l75-75q18-17.71 26-38.729 8-21.02 8-43.145 0-22.126-8-43.286-8-21.161-26-38.84l-65-66 37-38 67 65q25 24.942 37.5 55.85t12.5 64.029q0 33.121-12.5 64.626Q562-524.989 537-500l-75 75q-18.065 17.853-26.532 39.054Q427-364.745 427-340.872q0 23.872 8.532 44.536Q444.065-275.673 462-258l65 66-38 38-66-65Zm-170-1q-25-24.726-37.5-55.863T203-341q0-34 13-65.656 13-31.656 38-56.344l74-76q17-17.71 25.5-38.729 8.5-21.02 8.5-43.145 0-22.126-8-43.286-8-21.161-26-38.84l-65-66 37-37 67 65q25 24.759 37.5 55.437Q417-654.885 417-622q0 33.388-12.5 65.111Q392-525.165 367-500l-75 75q-17.935 18.08-26.468 38.74Q257-365.6 257-342q0 23.568 8.468 44.831Q273.935-275.906 292-258l65 66-38 37-66-65Z"/></svg>