<svg xmlns="http://www.w3.org/2000/svg" height="20" viewBox="0 -960 960 960" width="20"><path d="M623.131-213.174q-25.957-25.956-39.696-59.674-13.739-33.717-13.739-69.913t13.859-70.152q13.858-33.957 39.576-59.913l74-74q14.282-14.283 21.304-33.207 7.022-18.924 7.022-38.967 0-19.043-7.522-36.967t-20.804-32.207L619.065-767l58.892-57.891 77.826 78.065q25.717 25.717 39.696 58.554 13.978 32.837 13.978 69.033t-13.978 70.272q-13.979 34.076-39.696 59.793l-74 74q-14.043 15.044-22.185 33.087-8.141 18.044-8.141 39.087 0 20.043 8.641 38.587 8.642 18.543 21.685 32.587L759.848-194l-58.891 58.891-77.826-78.065Zm-208.957 0q-25.957-26.956-40.315-60.293Q359.5-306.804 359.5-343t14.359-69.533q14.358-33.337 40.315-60.293l74-74q15.282-14.283 21.804-33.207Q516.5-598.957 516.5-619q0-19.043-7.522-37.467t-20.804-31.707L410.348-766 468-824.891l77.826 78.065q25.718 25.717 40.196 58.554 14.478 32.837 14.478 69.033t-14.478 70.272q-14.478 34.076-40.196 59.793l-74 74q-14.043 15.044-21.685 33.587Q442.5-363.043 442.5-343q0 20.043 8.141 38.587 8.142 18.543 21.185 32.587L549.891-193 492-135.109l-77.826-78.065Zm-209.957 1q-26.717-26.717-40.196-60.174-13.478-33.456-13.478-70.652 0-36.196 13.978-70.033 13.979-33.837 39.696-59.793l74-74q15.283-14.283 21.804-33.207 6.522-18.924 6.522-39.967 0-19.043-7.522-36.967-7.521-17.924-20.804-31.207L200.152-766l58.891-57.652 77.826 76.826q25.957 25.717 39.816 58.554 13.858 32.837 13.858 69.033t-13.978 70.272q-13.978 34.076-39.696 59.793l-74 74q-14.043 15.044-21.684 33.587-7.642 18.544-7.642 39.587 0 20.043 8.142 38.087 8.141 18.043 21.184 32.087L340.935-193l-58.892 57.652-77.826-76.826Z"/></svg>