<svg xmlns="http://www.w3.org/2000/svg" height="40" viewBox="0 -960 960 960" width="40"><path d="M618.428-221.286q-24.421-24.647-36.7-55.757-12.279-31.111-12.279-64.034t12.156-63.905q12.157-30.983 36.984-55.761l75-75q17.334-17.123 26.199-38.923 8.866-21.8 8.866-45.305t-8.866-45.29q-8.865-21.786-26.199-38.996L630.257-768l34.076-34.602 63.904 63.888q24.582 24.768 36.941 55.566 12.359 30.798 12.359 63.101t-12.359 62.642q-12.359 30.338-37.102 55.148l-75 75q-18.056 18.345-26.798 40.136-8.741 21.791-8.741 45.48 0 23.878 8.645 45.706 8.645 21.828 26.894 40.192L716.934-192l-34.601 34.076-63.905-63.362Zm-193.333 0q-24.582-24.843-36.678-55.881-12.096-31.038-12.096-63.833t12.096-63.833q12.096-31.038 36.84-55.91l75-75q17.333-17.123 26.199-38.923 8.865-21.8 8.865-45.305t-8.865-45.29q-8.866-21.786-26.199-38.996L436.924-768 470-802.602l64.898 63.888q24.589 24.768 36.948 55.566 12.358 30.798 12.358 63.101t-12.358 62.642q-12.359 30.338-37.103 55.148l-75 75q-18.056 18.155-26.797 40.054-8.742 21.899-8.742 45.716 0 24.006 8.646 45.693 8.645 21.687 26.893 40.051L523.602-192 489-157.924l-63.905-63.362Zm-193.332-1q-24.582-24.83-36.678-55.625-12.096-30.794-12.096-63.589 0-32.269 12.288-63.332 12.289-31.063 37.032-55.911l74.615-76q17.334-17.123 26.199-38.923 8.866-21.8 8.866-45.305t-8.866-45.29q-8.865-21.786-26.199-38.996L243.592-769l33.075-33.602 64.899 63.888q24.588 24.286 36.947 54.992 12.359 30.705 12.359 62.927 0 32.171-12.359 62.919-12.359 30.747-37.102 55.619l-75 75q-18.249 18.285-26.894 40.296t-8.645 45.55q0 23.539 8.62 45.452 8.621 21.912 26.919 40.216L330.269-192l-34.602 33.076-63.904-63.362Z"/></svg>