<svg xmlns="http://www.w3.org/2000/svg" height="40" viewBox="0 -960 960 960" width="40"><path d="M617.641-220.308q-24.891-24.984-37.266-56.415Q568-308.154 568-341.077t12.253-64.226q12.253-31.303 37.388-56.389l75-75q17.359-17.247 25.961-38.803 8.603-21.555 8.603-44.526 0-22.97-8.603-44.511-8.602-21.541-25.961-38.776L628.334-768l35.999-35.999 64.691 64.307q25.052 25.105 37.244 56.223 12.192 31.119 12.192 63.422t-12.192 62.962q-12.192 30.659-37.244 55.777l-75 75q-17.99 17.996-26.777 39.575-8.787 21.579-8.787 45.118 0 23.538 8.812 45.203 8.812 21.664 26.752 39.72L718.331-192l-35.998 35.999-64.692-64.307Zm-193.333 0q-25.051-25.18-37.243-56.538-12.192-31.359-12.192-64.154 0-32.795 12.192-64.154 12.192-31.358 37.243-56.538l75-75q17.359-17.247 25.962-38.803 8.603-21.555 8.603-44.526 0-22.97-8.603-44.511-8.603-21.541-25.962-38.776L435.001-768 470-803.999l65.692 64.307q25.051 25.105 37.243 56.223 12.192 31.119 12.192 63.422t-12.192 62.962q-12.192 30.659-37.243 55.777l-75 75q-17.99 17.806-26.777 39.493-8.788 21.687-8.788 45.353 0 23.667 8.812 45.191 8.812 21.523 26.753 39.579L524.999-192 489-156.001l-64.692-64.307Zm-193.332-1q-25.051-25.167-37.244-56.032Q181.54-308.205 181.54-341t12.385-64.166q12.384-31.37 37.435-56.526l74.616-76q17.359-17.247 25.961-38.803 8.603-21.555 8.603-44.526 0-22.97-8.603-44.511-8.602-21.541-25.961-38.776L241.669-769l34.998-34.999 65.692 64.307q25.051 24.816 37.244 55.745 12.192 30.93 12.192 63.152 0 32.171-12.192 63.239-12.193 31.068-37.244 56.248l-75 75q-17.94 18.056-26.752 39.72-8.812 21.665-8.812 45.203 0 23.539 8.787 45.118t26.777 39.575L331.666-192l-35.999 34.999-64.691-64.307Z"/></svg>