<svg xmlns="http://www.w3.org/2000/svg" height="48" viewBox="0 -960 960 960" width="48"><path d="M645.088-209.609q-28.094-25.67-41.678-60.748-13.583-35.078-13.583-70.643 0-36.13 13.565-70.761 13.565-34.63 41.696-61.63l75-75q13.304-13.87 21.021-32.343 7.718-18.472 7.718-39.086 0-20.615-7.718-39.267-7.717-18.652-21.021-33.522L642.566-768l59.913-59.913 76.392 76.522q26 27 40.348 61.413 14.348 34.413 14.348 68.752 0 35.34-14.348 69.909-14.348 34.568-40.348 60.708l-75 75q-16.37 17.055-23.337 35.396-6.967 18.341-6.967 38.213 0 19.904 6.967 38.716 6.967 18.813 23.337 34.893L779.828-192l-59.349 59.913-75.391-77.522Zm-231.479 0q-27.566-25.687-41.131-60.756-13.565-35.07-13.565-70.635 0-35.565 13.565-70.635 13.565-35.069 41.131-61.756l75-75q13.304-13.87 21.304-32.343 8-18.472 8-39.086 0-20.615-8-39.267-8-18.652-21.304-33.522L411.652-768 470-827.913l77.391 76.522q26.566 26.705 40.631 61.765 14.065 35.061 14.065 69.626 0 35.13-14.065 69.399t-40.631 59.992l-75 75q-16.37 17.298-23.337 36.147-6.967 18.848-6.967 38.024 0 20.177 6.967 38.775 6.967 18.599 23.337 34.272L548.913-192 489-132.087l-75.391-77.522Zm-230.915-1q-28.13-26.27-41.695-60.548-13.566-34.278-13.566-69.843 0-35.565 13.566-70.635 13.565-35.069 41.695-61.756l75-76q13.87-13.87 21.305-32.343 7.434-18.472 7.434-39.086 0-20.615-7.717-39.267-7.717-18.652-21.022-33.522L180.172-769l58.914-58.348 77.391 75.957q26.566 26.705 40.631 61.265 14.065 34.561 14.065 69.126 0 35.13-14.348 69.899t-40.348 60.492l-75 75q-16.37 17.08-23.337 35.893-6.967 18.812-6.967 38.716 0 19.872 6.967 38.213t23.337 34.396L317.434-192l-59.348 58.348-75.392-76.957Z"/></svg>