<svg xmlns="http://www.w3.org/2000/svg" height="20" viewBox="0 -960 960 960" width="20"><path d="M603.838-236.029q-20.42-20.796-31.379-47.883Q561.5-311 561.5-342t11.25-59Q584-429 604-450l74-74q19-18.61 28.75-43.567t9.75-51.437q0-25.481-10.25-49.399T678-711l-54-56 12-11.5 55.162 54.529Q712-702.764 723.5-676.003q11.5 26.761 11.5 56.882t-11.5 57.988Q712-533.266 691-512l-74 74q-18.887 19.892-29.444 43.858Q577-370.176 577-342q0 27.339 11 50.669Q599-268 617-249l54.5 55-12.5 12-55.162-54.029Zm-167 0Q416-258.062 404.25-285.031T392.5-343q0-31 11.75-57.969T437-450l74-74q20-18.61 29.25-43.567t9.25-51.437q0-25.481-10.25-49.899T511-711l-54-55 11-12.5 55.155 54.529Q544-702.764 556-676.003q12 26.761 12 56.882t-12 57.988Q544-533.266 523-512l-74 74q-18.887 19.596-28.944 43.71Q410-370.176 410-343q0 27.339 10.5 51.169Q431-268 449-249l54.5 56-11.5 11-55.162-54.029Zm-168 1Q247-257.021 236.25-284.261 225.5-311.5 225.5-343.5q0-30.5 11.75-58T270-450l73-74q20-18.61 29.25-43.567t9.25-52.437q0-25.481-10.25-49.399T343-711l-54-55 12-11.5 55.155 53.529Q377-703.446 388.5-676.665 400-649.885 400-620q0 30.388-11.5 58.473Q377-533.442 356-512l-74 74q-19 19.921-29 43.434-10 23.513-10 51.54 0 27.026 10.435 51.1Q263.871-267.852 282-249l54.5 56-12.5 11-55.162-53.029Z"/></svg>