<svg xmlns="http://www.w3.org/2000/svg" height="48" viewBox="0 -960 960 960" width="48"><path d="M646.535-211.246q-27.034-26.602-40.1-60.047-13.065-33.446-13.065-69.142 0-36.261 13.348-69.989t39.978-60.359l75-75q15.305-15.205 22.707-34.267 7.402-19.062 7.402-39.9 0-20.839-7.402-39.901-7.402-19.062-22.707-34.366L647.348-768l55.131-55.631 73.945 74.877q25.904 26.602 39.784 60.047 13.881 33.446 13.881 68.142 0 35.261-13.881 68.489-13.88 33.228-39.946 59.859l-75 75q-16.127 16.41-23.65 35.356T670.089-342q0 21.078 7.402 40.463t23.771 35.754L775.545-192l-55.066 55.131-73.944-74.377Zm-231.48 0q-26.468-26.602-39.816-60.33-13.348-33.728-13.348-69.424 0-35.696 13.348-69.424 13.348-33.728 39.978-60.359l75-75q15.304-15.205 22.989-34.267 7.685-19.062 7.685-39.9 0-20.839-7.685-39.901-7.685-19.062-22.989-34.366L416.434-768 470-823.631l74.938 74.877q26.475 26.602 40.073 60.047 13.598 33.446 13.598 68.142 0 35.261-13.598 68.489t-40.228 59.859l-75 75q-16.128 16.41-23.651 35.856T438.609-341q0 21.078 7.402 39.963t23.772 35.254L544.631-192 489-136.869l-73.945-74.377Zm-230.914-1q-26.469-26.602-40.099-60.08-13.631-33.478-13.631-69.174 0-35.196 13.631-68.924 13.63-33.728 40.261-60.359l75-76q15.304-15.205 22.706-34.267 7.402-19.062 7.402-39.9 0-20.839-7.402-39.901-7.402-19.062-22.706-34.366L184.955-769l54.131-54.066 74.938 74.312q26.475 26.602 40.073 59.547 13.598 32.946 13.598 67.642 0 35.261-13.88 68.989-13.881 33.728-39.946 60.359l-75 75q-16.37 16.291-23.772 35.858-7.402 19.567-7.402 40.333 0 20.765 7.402 39.819 7.402 19.055 23.772 35.424L313.152-192l-55.066 53.566-73.945-73.812Z"/></svg>