<svg xmlns="http://www.w3.org/2000/svg" height="48" viewBox="0 -960 960 960" width="48"><path d="M631.838-218.029Q606.5-243.5 594-275.25 581.5-307 581.5-341t12.5-65.75q12.5-31.75 38-57.25l75-75q17-16.901 25.25-37.658 8.25-20.758 8.25-43.292 0-22.535-8.25-43.292Q724-684 707-701l-67-67 41-41.5 67.162 67.529Q773.5-716.5 786.25-684.75 799-653 799-620t-12.75 64.25Q773.5-524.5 748-499l-75 75q-17.258 17.541-25.629 38.182Q639-365.176 639-342q0 23.339 8.25 44.419Q655.5-276.5 673-259l67.5 67-41.5 41-67.162-67.029Zm-210 0Q396.5-243.5 384-275.25 371.5-307 371.5-341t12.5-65.75q12.5-31.75 38-57.25l75-75q17-16.901 25.25-37.658 8.25-20.758 8.25-43.292 0-22.535-8.25-43.292Q514-684 497-701l-67-67 40-41.5 68.155 67.529Q563.5-716.5 576.25-684.75 589-653 589-620t-12.75 64.25Q563.5-524.5 538-499l-75 75q-17.258 17.541-25.629 38.682Q429-364.176 429-341q0 23.339 8.25 43.919Q445.5-276.5 463-259l67.5 67-41.5 41-67.162-67.029Zm-210-1Q186.5-244.5 174-276q-12.5-31.5-12.5-65.5 0-33.5 12.5-65.25T212-464l75-76q17-16.901 25.25-37.658 8.25-20.758 8.25-43.292 0-22.535-8.25-43.292Q304-685 287-702l-67-67 40-40.5 68.155 67.529Q353.5-716.5 366.25-685.25 379-654 379-621t-12.75 64.75Q353.5-524.5 328-499l-75 75q-17.5 17.421-25.75 38.684-8.25 21.263-8.25 44.29 0 23.026 8.25 43.776Q235.5-276.5 253-259l67.5 67-41.5 40-67.162-67.029Z"/></svg>