<svg xmlns="http://www.w3.org/2000/svg" height="24" viewBox="0 -960 960 960" width="24"><path d="M614-210q-27-27-41-62t-14-70q0-35 13.5-69t41.5-61l75-75q15-15 22.5-34t7.5-39q0-20-7.5-39T689-693l-75-75 57-57 75 75q27 27 40.5 61t13.5 69q0 35-13.5 68.5T746-491l-75 75q-16 16-23.5 35t-7.5 39q0 20 7.5 39.5T671-267l75 75-57 57-75-75Zm-200 0q-27-27-40.5-61.5T360-341q0-35 13.5-69.5T414-472l75-75q15-15 22.5-34t7.5-39q0-20-7.5-39T489-693l-75-75 56-57 76 75q27 27 40.5 61t13.5 69q0 35-13.5 68.5T546-491l-75 75q-16 16-23.5 35t-7.5 39q0 20 7.5 39.5T471-267l75 75-57 57-75-75Zm-200-1q-27-27-40.5-61T160-341q0-35 13.5-69.5T214-472l75-76q15-15 22.5-34t7.5-39q0-20-7.5-39T289-694l-75-75 56-56 76 75q27 27 40.5 61t13.5 69q0 35-13.5 68.5T346-491l-75 75q-16 16-23.5 35.5T240-341q0 20 7.5 39t23.5 35l75 75-57 56-75-75Z"/></svg>