<svg xmlns="http://www.w3.org/2000/svg" height="24" viewBox="0 -960 960 960" width="24"><path d="M635.057-202.985q-28.6-28.732-42.915-64.428-14.315-35.696-14.315-73.522 0-37.826 14.348-73.587t43.043-64.522l75-75q13.805-13.705 20.174-30.669 6.37-16.964 6.37-35.237 0-18.274-6.37-35.238-6.369-16.964-20.174-30.768L627.109-768l72.153-72.153 82.206 83.138q28.034 28.167 42.665 63.395 14.63 35.229 14.63 73.055 0 37.826-14.63 73.12-14.631 35.293-42.827 63.489l-75 75q-13.997 14.279-20.77 31.66t-6.773 35.796q0 18.078 6.652 35.648 6.652 17.569 20.891 31.808L789.415-192l-72.153 72.153-82.205-83.138Zm-228.263 0q-28.599-28.732-42.947-64.46-14.348-35.729-14.348-73.555 0-37.826 14.348-73.555 14.348-35.728 43.109-64.489l75-75q13.804-13.705 20.174-30.669 6.369-16.964 6.369-35.237 0-18.274-6.369-35.238-6.37-16.964-20.174-30.768L399.412-768 470-840.153l83.199 83.138q28.041 28.167 42.671 63.145 14.631 34.979 14.631 72.805 0 37.826-14.631 73.37-14.63 35.543-42.826 63.739l-75 75q-13.997 14.279-20.77 31.66t-6.773 35.796q0 18.078 6.652 35.648 6.652 17.569 20.891 31.808L561.153-192 489-119.847l-82.206-83.138Zm-228.262-1q-28.034-28.167-42.665-63.678-14.63-35.511-14.63-73.337t14.63-73.555q14.631-35.728 42.827-64.489l75-76q13.804-13.705 20.173-30.669 6.37-16.964 6.37-35.237 0-18.274-6.37-35.238-6.369-16.964-20.173-30.768L170.585-769l71.153-70.588 83.199 82.573q28.606 28.167 42.953 63.145 14.348 34.979 14.348 72.805 0 37.826-14.63 73.37-14.631 35.543-42.826 63.739l-75 75q-14.239 14.16-20.892 31.912-6.652 17.752-6.652 36.018 0 18.265 6.652 35.504 6.653 17.239 20.892 31.478L332.891-192l-72.153 70.588-82.206-82.573Z"/></svg>