<svg xmlns="http://www.w3.org/2000/svg" height="40" viewBox="0 -960 960 960" width="40"><path d="M642.709-208.493Q615.153-235.804 601.671-270q-13.482-34.196-13.482-70.601 0-36.783 13.682-71.189 13.681-34.406 41-61.746l75-75q14.804-14.706 21.862-33.068 7.058-18.363 7.058-38.346 0-19.984-7.058-38.347-7.058-18.362-21.862-33.167L640.602-768l60.805-61.138 76.698 77.631q26.614 27.123 40.744 61.163 14.131 34.04 14.131 69.779 0 36.116-14.131 70.033-14.13 33.916-40.905 61.068l-75 75q-15.418 15.7-22.691 34.125-7.273 18.424-7.273 38.506 0 20.078 7.152 38.857 7.152 18.78 22.812 34.44L780.168-192l-60.761 60.805-76.698-77.298Zm-230.407 0q-27.179-27.311-40.86-61.706-13.681-34.395-13.681-70.801t13.681-70.801q13.681-34.395 41.022-61.735l75-75q14.804-14.706 22.05-33.068 7.247-18.363 7.247-38.346 0-19.984-7.247-38.347-7.246-18.362-22.05-33.167L410.76-768 470-829.138l77.692 77.631q26.997 27.123 40.939 61.079 13.942 33.957 13.942 69.696 0 36.116-13.942 70.116t-41.095 61.152l-75 75q-15.417 15.7-22.69 34.458-7.273 18.758-7.273 38.839 0 20.078 7.152 38.525 7.152 18.446 22.811 34.106L550.138-192 489-131.195l-76.698-77.298Zm-230.03-1q-26.991-27.123-40.955-61.279-13.964-34.155-13.964-70.561 0-36.073 13.964-70.468t41.116-61.735l75-76q14.805-14.706 21.863-33.068 7.057-18.363 7.057-38.346 0-19.984-7.057-38.347-7.058-18.362-21.863-33.167L180.165-769l59.805-59.573 77.692 77.066q27.185 27.123 41.033 60.746 13.848 33.623 13.848 69.362 0 36.116-14.131 70.45-14.13 34.333-40.906 61.485l-75 75q-15.659 15.581-22.811 34.543-7.152 18.963-7.152 38.895 0 19.932 7.152 38.381t22.811 34.109L319.731-192l-60.761 59.24-76.698-76.733Z"/></svg>