<svg xmlns="http://www.w3.org/2000/svg" height="48" viewBox="0 -960 960 960" width="48"><path d="M638.056-215.16Q612-241.109 599.261-273.576t-12.739-67.185q0-34.956 12.859-67.543 12.858-32.587 38.837-58.566l75-75q16.282-16.183 24.173-36.223 7.892-20.04 7.892-41.857t-7.892-41.858q-7.891-20.04-24.173-36.322L643.109-768l46.978-47.478 70.032 70.638q25.577 25.949 38.805 58.416 13.228 32.467 13.228 66.185 0 33.956-13.228 66.043t-38.967 58.066l-75 75q-16.78 17.062-24.792 36.986-8.013 19.925-8.013 42.144 0 22.382 7.892 42.746 7.891 20.363 24.913 37.384L755.326-192l-47.239 46.978-70.031-70.138Zm-219.087 0q-25.817-25.949-38.676-58.536-12.858-32.587-12.858-67.304t12.858-67.304q12.859-32.587 38.837-58.566l75-75q16.283-16.183 24.294-36.223t8.011-41.857q0-21.817-8.011-41.858-8.011-20.04-24.294-36.322L424.261-768 470-815.478l71.025 70.638q25.823 25.949 38.932 58.416 13.108 32.467 13.108 66.185 0 33.956-13.108 66.043-13.109 32.087-39.087 58.066l-75 75q-16.78 17.062-24.792 37.486-8.013 20.425-8.013 42.644 0 22.382 7.892 42.246 7.891 19.863 24.913 36.884L536.478-192 489-145.022l-70.031-70.138Zm-218.848-1q-25.817-25.949-38.795-58.286-12.978-32.337-12.978-67.054 0-34.217 12.978-66.804t38.956-58.566l75-76q16.283-16.183 24.174-36.223 7.892-20.04 7.892-41.857t-7.892-41.858q-7.891-20.04-24.174-36.322L205.174-769l45.978-46.239 71.025 70.399q25.823 25.949 38.932 57.916 13.108 31.967 13.108 65.685 0 33.956-13.228 66.543t-38.967 58.566l-75 75Q230-404.188 222.109-383.642q-7.892 20.546-7.892 42.616 0 22.069 7.892 42.102 7.891 20.033 24.913 37.054L317.391-192l-47.239 45.739-70.031-69.899Z"/></svg>