<svg xmlns="http://www.w3.org/2000/svg" height="40" viewBox="0 -960 960 960" width="40"><path d="M632.189-211.478q-27.131-26.971-40.37-60.689-13.239-33.717-13.239-68.927 0-35.37 13.192-68.913 13.192-33.544 40.417-60.515l75-75q15.616-15.616 23.051-34.779 7.434-19.163 7.434-39.699 0-20.536-7.434-39.699-7.435-19.163-23.051-34.779L633.428-768l54.283-54.282 73.521 73.76q26.732 26.892 40.044 60.316 13.311 33.423 13.311 67.967 0 34.703-13.311 67.786-13.312 33.083-40.044 59.975l-75 75q-16.029 16.029-23.837 35.232-7.808 19.202-7.808 40.246t7.808 40.746q7.808 19.703 23.837 35.732L759.833-192l-54.122 54.282-73.522-73.76Zm-216.711 0q-26.971-26.971-40.163-60.642-13.192-33.67-13.192-68.88 0-35.21 13.192-68.88 13.192-33.671 40.163-60.642l75-75q15.616-15.616 23.131-34.779 7.514-19.163 7.514-39.699 0-20.536-7.514-39.699-7.515-19.163-23.131-34.779L416.957-768 470-822.282l74.522 73.76q26.891 26.892 40.123 60.316 13.232 33.423 13.232 67.967 0 34.703-13.232 67.786t-40.123 59.975l-75 75q-16.029 16.029-23.837 35.565-7.808 19.536-7.808 40.58 0 21.043 7.808 40.413 7.808 19.369 23.837 35.398L543.282-192 489-137.718l-73.522-73.76Zm-216.551-1q-26.891-26.892-40.203-60.102-13.311-33.21-13.311-68.42t13.311-68.88q13.312-33.671 40.203-60.642l75-76q15.616-15.616 23.051-34.779 7.435-19.163 7.435-39.699 0-20.536-7.435-39.699-7.435-19.163-23.051-34.779L200.166-769l53.283-53.043 74.522 73.521q26.971 26.892 40.163 59.982 13.192 33.091 13.192 67.634 0 34.703-13.312 68.12-13.312 33.416-40.043 60.308l-75 75q-16.029 16.029-23.837 35.732-7.808 19.702-7.808 40.746t7.808 40.246q7.808 19.203 23.837 35.232L326.572-192l-54.123 53.043-73.522-73.521Z"/></svg>