<svg xmlns="http://www.w3.org/2000/svg" height="24" viewBox="0 -960 960 960" width="24"><path d="M622.131-206.174q-27.957-27.956-42.196-63.674-14.239-35.717-14.239-71.913t13.859-71.152q13.858-34.957 42.576-62.913l75-75q14.282-14.283 21.304-32.207 7.022-17.924 7.022-36.967t-7.022-36.967q-7.022-17.924-21.304-32.207L618.065-768l64.892-64.891 78.826 79.065q27.717 27.717 41.696 62.554 13.978 34.837 13.978 71.033t-13.978 70.772q-13.979 34.576-41.696 62.293l-75 75q-15.043 15.044-22.185 33.087-7.141 18.044-7.141 37.087 0 19.043 7.141 37.587 7.142 18.543 22.185 33.587L765.848-192l-64.891 64.891-78.826-79.065Zm-211.957 0q-27.957-27.956-41.815-63.293Q354.5-304.804 354.5-341t13.859-71.533q13.858-35.337 41.815-63.293l75-75q14.282-14.283 21.304-32.207Q513.5-600.957 513.5-620t-7.022-36.967q-7.022-17.924-21.304-32.207L406.348-768 470-832.891l79.826 79.065q27.718 27.717 41.696 62.554 13.978 34.837 13.978 71.033t-13.978 70.772q-13.978 34.576-41.696 62.293l-75 75q-15.043 15.044-22.185 33.087Q445.5-361.043 445.5-342q0 19.043 7.141 37.587 7.142 18.543 22.185 33.587L553.891-192 489-127.109l-78.826-79.065Zm-211.957-1q-27.717-27.717-41.696-62.674-13.978-34.956-13.978-71.152t13.978-71.533q13.979-35.337 41.696-63.293l75-76q14.283-14.283 21.304-32.207 7.022-17.924 7.022-36.967t-7.022-36.967q-7.021-17.924-21.304-32.207L194.152-769l63.891-63.652 79.826 78.826q27.957 27.717 41.816 62.554 13.858 34.837 13.858 71.033t-13.978 70.772q-13.978 34.576-41.696 62.293l-75 75q-15.043 15.044-22.184 33.587-7.142 18.544-7.142 37.587 0 19.043 7.142 37.087 7.141 18.043 22.184 33.087L341.935-192l-64.892 63.652-78.826-78.826Z"/></svg>