<svg xmlns="http://www.w3.org/2000/svg" height="20" viewBox="0 -960 960 960" width="20"><path d="M594-226q-22.545-22.495-34.273-51.747Q548-307 548-341t12.5-65q12.5-31 33.5-54l74-74q18-17.71 26-39.729 8-22.02 8-45.145 0-22.126-8.5-43.286Q685-683.321 668-701l-64-66 32-31 65 64q23 23.236 35.5 51.997t12.5 61.656q0 32.896-12.5 63.918Q724-525.406 701-502l-74 74q-17.065 17.906-26.532 39.169Q591-367.568 591-342q0 24.6 10.032 45.26Q611.065-276.08 627-259l64 65-32 32-65-64Zm-167 0q-23-23.75-36-53.375T378-343q0-34 13-63.625T427-460l74-74q19-17.71 26.5-39.729 7.5-22.02 7.5-45.145 0-22.126-8.5-43.786Q518-684.321 501-701l-64-65 31-32 65 64q23 22.942 36 51.85t13 62.029q0 33.121-13 64.126-13 31.006-36 53.995l-74 74q-17.065 17.853-26.032 39.554Q424-366.745 424-341.872q0 24.872 9.532 45.536Q443.065-275.673 459-259l64 66-31 31-65-64Zm-168 1q-24-23.726-36-53.363T211-343q0-34 13-64.156 13-30.156 36-52.844l73-74q18-17.71 26-39.729 8-22.02 8-46.145 0-22.126-8.5-43.286Q350-684.321 333-701l-64-65 32-31 65 63q23 22.759 35.5 51.437Q414-653.885 414-621q0 33.388-12.5 64.611Q389-525.165 366-502l-74 74q-16.935 18.08-25.968 38.74Q257-368.6 257-343q0 24.568 9.468 45.831Q275.935-275.906 292-259l64 66-32 31-65-63Z"/></svg>