<svg xmlns="http://www.w3.org/2000/svg" height="20" viewBox="0 -960 960 960" width="20"><path d="M615.565-205.609q-27.681-27.148-42.318-62.791-14.638-35.643-14.638-74.361 0-38.717 15.119-74.435 15.12-35.717 41.837-63.195l74-74q13.283-13.522 19.044-30.125 5.761-16.603 5.761-34.304 0-16.702-6.261-32.484-6.261-15.783-18.544-29.305L603.696-767l74.261-73.261 85.391 85.87q27.478 27.239 42.337 61.456 14.859 34.218 14.859 72.709 0 38.253-14.859 74.746-14.859 36.492-42.337 63.871l-74 74q-12.218 13.576-19.511 29.667-7.293 16.092-7.293 34.942 0 17.883 7.793 34.445t19.011 29.164L775.218-194l-74.261 74.261-85.392-85.87Zm-208.956 0q-27.718-28.165-42.957-63.42-15.239-35.254-15.239-73.971 0-38.717 15.239-73.971 15.239-35.255 42.957-63.42l74-74q14.282-13.522 19.543-30.125 5.261-16.603 5.261-34.304 0-16.702-6.261-32.984-6.261-16.283-18.543-28.805L394.978-766 468-840.261l85.391 85.87q27.479 26.944 42.837 61.689 15.359 34.745 15.359 73.463 0 38.717-15.359 74.693-15.358 35.975-42.837 62.937l-74 74q-12.218 13.82-19.011 30.581-6.793 16.762-6.793 34.917 0 18.154 7.293 34.34 7.293 16.185 18.511 28.38L565.261-193 492-119.739l-85.391-85.87Zm-209.957 1q-28.718-28.183-42.957-63.428-14.239-35.246-14.239-74.963 0-38.717 14.739-74.471 14.739-35.755 42.457-62.92l74-74q14.282-13.522 19.543-30.125 5.261-16.603 5.261-35.304 0-16.702-6.261-32.484-6.261-15.783-18.543-28.305L184.782-766l74.261-73.022 85.392 84.631q27.717 26.944 42.456 61.689 14.739 34.745 14.739 73.463 0 38.717-14.858 74.693-14.859 35.975-42.337 62.937l-74 74q-12.219 13.602-19.012 30.164-6.793 16.562-6.793 35.445 0 17.85 7.293 33.942 7.293 16.091 18.512 28.667L356.304-193l-74.261 73.022-85.391-84.631Z"/></svg>