<svg xmlns="http://www.w3.org/2000/svg" height="24" viewBox="0 -960 960 960" width="24"><path d="M605-201q-28.964-28.67-43.482-65.335Q547-303 547-341q0-38 14.5-74.5T605-481l75-75q14-14 20-30.321 6-16.32 6-33.499 0-17.18-6-33.68T680-684l-84-84 75-75 84 84q29 29 43.5 64.5t14.5 73.274q0 37.775-14.5 73.93Q784-511.14 755-482l-75 75q-13.935 14.054-20.468 30.743Q653-359.568 653-342q0 17.6 6.532 34.76Q666.065-290.08 680-276l84 84-75 75-84-84Zm-200 0q-29-28.688-43.5-65.344Q347-303 347-341q0-38 14.5-74.656Q376-452.312 405-481l75-75q14-14 20-30.321 6-16.32 6-33.499 0-17.18-6-33.68T480-684l-84-84 74-75 85 84q29 28.705 43.5 64.353Q613-659 613-621q0 38-14.5 74.138Q584-510.723 555-482l-75 75q-13.935 14.298-20.468 31.277Q453-358.745 453-340.872q0 17.872 6.532 34.536Q466.065-289.673 480-276l84 84-75 75-84-84Zm-200-1q-29-28.705-43.5-64.853Q147-303 147-341q0-38 14.5-74.656Q176-452.312 205-481l75-76q13-14 19.5-30.321 6.5-16.32 6.5-33.499 0-17.18-6-33.68T280-685l-84-84 74-74 85 84q29 28.705 43.5 64.353Q413-659 413-621q0 38-14.5 74.138Q384-510.723 355-482l-75 75q-13.935 14.08-20.468 31.24Q253-358.6 253-341q0 17.568 6.532 34.257Q266.065-290.054 280-276l84 84-75 74-84-84Z"/></svg>