<svg xmlns="http://www.w3.org/2000/svg" height="20" viewBox="0 -960 960 960" width="20"><path d="M596.769-221.846q-23.565-23.458-36.321-54.46-12.756-31.002-12.756-65.925t13.462-66.461q13.461-31.539 35.615-55.462l74-74q17.077-16.854 24.616-37.789 7.538-20.935 7.538-42.919 0-20.984-8.038-41.069-8.039-20.085-24.116-36.915L602.385-767l40.538-39.539 69.154 68.385q23.923 24.105 36.885 53.959 12.961 29.855 12.961 63.876 0 34.022-12.961 66.113-12.962 32.092-36.885 56.36l-74 74q-16.111 17.017-25.133 37.225-9.021 20.207-9.021 44.39 0 23.216 9.571 43.068 9.571 19.852 24.583 36.009L706.462-194l-40.539 40.539-69.154-68.385Zm-173.923 0q-23.923-24.659-37.385-55.445Q372-308.077 372-343t13.461-65.709q13.462-30.786 37.385-55.445l74-74q18.077-16.854 25.115-37.789Q529-596.878 529-618.862q0-20.984-8.039-41.569-8.038-20.585-24.115-36.415L428.461-766 468-806.539l69.154 68.385q23.923 23.81 37.385 54.312Q588-653.34 588-619.093t-13.461 65.821q-13.462 31.575-37.385 55.426l-74 74q-16.112 17.033-24.633 37.759Q430-365.36 430-341.872q0 23.487 9.071 43.228 9.071 19.74 24.083 35.49L531.539-193 492-153.461l-69.154-68.385Zm-174.923 1Q223-245.491 210.538-276.284 198.077-307.077 198.077-343q0-34.923 13.346-66.233 13.346-31.31 37.269-54.921l73.231-74q18.077-16.854 25.115-37.789 7.039-20.935 7.039-43.919 0-20.984-8.039-41.069-8.038-20.085-24.115-35.915L253.538-766l40.539-39.539 69.154 67.385q23.923 23.67 36.884 53.995 12.962 30.325 12.962 64.39 0 34.452-12.962 66.194-12.961 31.743-36.884 55.729l-74 74q-16.013 17.157-24.583 37.009-8.571 19.852-8.571 44.068 0 23.183 9.021 43.39 9.021 20.208 24.133 36.225L357.615-193l-40.538 39.539-69.154-67.385Z"/></svg>