<svg xmlns="http://www.w3.org/2000/svg" height="24" viewBox="0 -960 960 960" width="24"><path d="M610.838-218.568q-24.831-25.057-37.854-57.322-13.023-32.264-13.023-65.725 0-33.462 12.635-65.077 12.635-31.615 38.404-56.769l75-75q16.846-16.635 25.211-37.854 8.366-21.219 8.366-43.656 0-22.437-8.366-43.641-8.365-21.204-25.211-37.927L619.616-768l39.845-40.037 66.622 66.605q24.993 25.216 37.723 56.739 12.731 31.523 12.731 64.646 0 33.124-12.731 64.188-12.73 31.064-37.884 56.32l-75 75q-17.654 17.83-26.02 39.135-8.365 21.305-8.365 44.096 0 22.647 8.269 43.824 8.27 21.177 26.116 39.023L717.498-192l-40.037 39.845-66.623-66.413Zm-188.461 0q-24.992-25.149-37.626-57.06-12.635-31.911-12.635-65.372t12.635-65.372q12.634-31.911 37.788-57.089l75-75q16.846-16.635 25.212-37.854 8.365-21.219 8.365-43.656 0-22.437-8.365-43.641-8.366-21.204-25.212-37.927L431.155-768 470-808.037l67.616 66.605q24.999 25.216 37.73 56.739 12.73 31.523 12.73 64.646 0 33.124-12.73 64.188-12.731 31.064-37.885 56.32l-75 75q-17.654 17.716-26.019 38.886-8.366 21.169-8.366 43.961 0 22.647 8.27 44.016 8.269 21.369 26.115 39.215L529.037-192 489-152.155l-66.623-66.413Zm-188.461-1q-24.992-25.133-37.626-56.802-12.635-31.669-12.635-65.13 0-33.269 12.827-65.038t37.981-56.923l74.615-76q16.846-16.635 25.212-37.854 8.365-21.219 8.365-43.656 0-22.437-8.365-43.641-8.366-21.204-25.212-37.927L242.694-769l38.845-39.037 67.617 66.605q24.998 24.953 37.729 56.484 12.731 31.531 12.731 64.563 0 33.226-12.731 64.374-12.731 31.148-37.885 56.472l-75 75q-17.846 17.767-26.115 39.127-8.269 21.359-8.269 44.001 0 22.642 8.244 43.901 8.244 21.26 26.14 39.049L340.577-192l-40.038 38.845-66.623-66.413Z"/></svg>