<svg xmlns="http://www.w3.org/2000/svg" height="20" viewBox="0 -960 960 960" width="20"><path d="M628.61-202.348q-28.659-27.8-43.46-64.096-14.801-36.295-14.801-75.991 0-39.695 15.282-76.391 15.283-36.696 42.979-64.826l74-74q12.304-12.87 17.739-28.495 5.435-15.625 5.435-32.673 0-16.05-5.935-30.854-5.935-14.804-17.239-27.674L612.827-767l81.435-80.435 88.653 89.783q28.13 27.565 43.478 62.761 15.348 35.195 15.348 74.665 0 38.905-15.348 76.539t-43.478 65.339l-74 74q-11.24 12.924-18.207 28.2-6.967 15.276-6.967 33.148 0 16.904 7.467 32.651 7.467 15.747 17.707 27.697L798.698-194l-81.436 81.435-88.652-89.783Zm-225.262 0q-28.696-28.818-44.261-64.887-15.566-36.069-15.566-75.765t15.566-75.765q15.565-36.069 44.261-64.887l74-74q13.304-12.87 18.239-28.495 4.934-15.625 4.934-32.673 0-16.05-5.934-31.354-5.935-15.304-17.239-27.174L388.13-766 468-847.435l88.652 89.783q28.131 27.27 43.979 62.831 15.848 35.56 15.848 75.256 0 39.695-15.848 76.812t-43.979 64.405l-74 74q-11.239 13.168-17.706 28.951-6.467 15.783-6.467 32.959 0 17.177 6.967 32.71 6.967 15.533 17.206 27.076L572.435-193 492-112.565l-88.652-89.783Zm-226.263 1q-29.696-28.835-44.261-64.896-14.565-36.06-14.565-76.756 0-39.696 15.065-76.265t43.761-64.387l74-74q13.304-12.87 18.239-28.495 4.935-15.625 4.935-33.673 0-16.05-5.935-30.854-5.935-14.804-17.239-26.674L161.302-766l81.436-79.87 88.652 88.218q28.696 27.27 43.761 62.831 15.065 35.56 15.065 75.256 0 39.695-15.348 76.812-15.347 37.117-43.478 64.405l-74 74q-11.24 12.95-17.707 28.697-6.467 15.747-6.467 33.651 0 16.872 6.967 32.148 6.967 15.276 17.207 27.2L347.173-193l-81.435 79.87-88.653-88.218Z"/></svg>