<svg xmlns="http://www.w3.org/2000/svg" height="20" viewBox="0 -960 960 960" width="20"><path d="M611.838-225.568q-22.831-23.057-35.2-53.168-12.369-30.11-12.369-63.572 0-33.461 12.635-64.23 12.634-30.769 35.096-53.923l74-74q16.846-16.635 25.211-38.854 8.366-22.219 8.366-45.656 0-22.437-8.866-43.641-8.865-21.204-24.711-37.927L620.616-767l33.845-33.037 65.622 65.605q22.993 23.216 35.723 52.739 12.731 29.523 12.731 62.646 0 33.124-12.731 63.688-12.73 30.564-35.884 53.82l-74 74q-16.654 17.83-26.02 39.135-9.365 21.305-9.365 46.096 0 23.647 9.769 44.824 9.77 21.177 25.616 38.023L711.498-194l-34.037 33.845-65.623-65.413Zm-185.461 0q-22.992-24.149-36.126-54.06-13.135-29.911-13.135-63.372t13.135-63.372q13.134-29.911 36.288-54.089l74-74q17.846-16.635 25.712-38.854 7.865-22.219 7.865-45.656 0-22.437-8.865-44.141-8.866-21.704-24.712-37.427L435.155-766 468-800.037l65.616 65.605q22.999 23.216 36.23 52.585 13.23 29.369 13.23 62.493 0 33.123-13.23 63.841-13.231 30.718-36.385 53.974l-74 74q-16.654 17.716-25.519 39.386-8.866 21.669-8.866 45.461 0 23.647 9.27 45.016 9.269 21.369 25.115 38.215L525.037-193 492-160.155l-65.623-65.413Zm-186.461 1q-23.992-24.133-36.126-54.148-12.135-30.015-12.135-64.476 0-33.269 12.827-63.692 12.827-30.423 35.981-53.577l73.615-74q17.846-16.635 25.712-38.854 7.865-22.219 7.865-46.656 0-22.437-8.865-43.641-8.866-21.204-24.712-36.927L248.694-766l33.845-33.037 65.617 64.605q22.998 22.953 35.729 52.33 12.731 29.377 12.731 62.41 0 33.226-12.731 64.027-12.731 30.802-35.885 54.126l-74 74q-16.846 17.767-25.615 39.127-8.769 21.359-8.769 46.001 0 23.642 9.244 44.901 9.244 21.26 25.14 38.049L339.577-193l-34.038 32.845-65.623-64.413Z"/></svg>