<svg xmlns="http://www.w3.org/2000/svg" height="40" viewBox="0 -960 960 960" width="40"><path d="M610.351-226.542q-23.17-23.49-34.837-53.237-11.668-29.747-11.668-61.259 0-31.513 11.48-61.119 11.481-29.606 35.187-53.33l75-75q18.167-17.844 27.897-41.104 9.731-23.259 9.731-48.401 0-25.142-9.731-48.371-9.73-23.23-27.897-41.15L628.013-768 651-791.705l58.649 58.247q23.492 23.731 35.21 53.078t11.718 60.287q0 30.939-11.718 59.866t-35.372 52.714l-75 75q-19.186 19.482-28.548 42.756-9.362 23.274-9.362 48.308 0 25.416 9.291 48.409 9.29 22.992 28.619 42.553L692.705-192 669-169.013l-58.649-57.529Zm-180 0q-23.492-23.881-34.851-53.541-11.359-29.661-11.359-60.917t11.359-60.917q11.359-29.66 35.013-53.57l75-75q18.166-17.844 27.897-41.104 9.731-23.259 9.731-48.401 0-25.142-9.731-48.371-9.731-23.23-27.897-41.15L448.013-768 470-791.705l59.643 58.247q23.498 23.731 35.216 53.187 11.718 29.456 11.718 60.396 0 30.939-11.718 59.757-11.718 28.818-35.372 52.605l-75 75q-19.187 19.102-28.548 42.258-9.362 23.156-9.362 48.447 0 25.673 9.29 48.716 9.291 23.044 28.62 42.605L512.705-192 489-169.013l-58.649-57.529Zm-180-1q-23.492-23.857-34.851-53.388-11.359-29.532-11.359-60.788 0-30.538 11.743-60.223 11.744-29.684 35.398-53.546l74.231-76q18.166-17.844 27.897-41.104 9.731-23.259 9.731-48.401 0-25.142-9.731-48.371-9.731-23.23-27.897-41.15L268.013-769 290-791.705l59.642 58.247q23.499 22.769 35.217 52.372 11.718 29.604 11.718 60.381 0 30.675-11.718 59.979-11.718 29.303-35.372 53.213l-75 75q-19.33 19.482-28.62 42.657-9.29 23.175-9.29 48.06 0 24.886 9.24 48.377 9.241 23.491 28.67 42.932L332.705-192 309-170.013l-58.649-57.529Z"/></svg>