<svg xmlns="http://www.w3.org/2000/svg" height="48" viewBox="0 -960 960 960" width="48"><path d="M612.608-227.26q-23.094-23.413-34.409-52.73-11.314-29.318-11.314-60.625 0-31.308 11.335-60.89 11.336-29.582 34.549-53.264l75-75q18.154-17.832 28.135-41.255 9.981-23.424 9.981-48.968 0-25.543-9.981-48.937-9.981-23.395-28.135-41.302L631.154-768l21.385-22.269 57.931 57.529q23.415 23.616 35.011 52.739 11.596 29.122 11.596 59.908 0 30.785-11.596 59.486-11.596 28.701-35.173 52.376l-75 75q-19.256 19.663-28.743 43.09-9.488 23.427-9.488 48.526 0 25.646 9.416 48.874 9.417 23.227 28.815 42.972l57.5 57.769-22.269 21.385-57.931-56.645Zm-181.539 0q-23.415-23.908-34.569-53.363-11.154-29.454-11.154-60.377 0-30.923 11.154-60.377 11.154-29.455 34.731-53.392l75-75q18.154-17.832 28.134-41.255 9.981-23.424 9.981-48.968 0-25.543-9.981-48.937-9.98-23.395-28.134-41.302L449.615-768 470-790.269l58.925 57.529q23.421 23.616 35.017 52.739 11.597 29.122 11.597 59.908 0 30.785-11.597 59.486-11.596 28.701-35.173 52.376l-75 75q-19.255 19.207-28.743 42.593-9.487 23.385-9.487 48.869 0 26.031 9.416 49.143 9.416 23.112 28.814 42.857l57.5 57.769L489-170.615l-57.931-56.645Zm-181.539-1q-23.415-23.888-34.569-53.102-11.154-29.215-11.154-60.138 0-30.038 11.539-59.709 11.538-29.671 35.115-53.56l74.231-76q18.154-17.832 28.135-41.255 9.98-23.424 9.98-48.968 0-25.543-9.98-48.937-9.981-23.395-28.135-41.302L268.077-769l20.384-21.269 58.925 57.529q23.422 22.435 35.018 51.771Q394-651.633 394-621q0 30.287-11.596 59.632-11.596 29.346-35.173 53.137l-75 75q-19.399 19.666-28.815 43.076T234-341.796q0 24.95 9.367 48.677 9.366 23.727 28.864 43.35l57.5 57.769-22.27 20.385-57.931-56.645Z"/></svg>