<svg xmlns="http://www.w3.org/2000/svg" height="24" viewBox="0 -960 960 960" width="24"><path d="M615.838-212.029Q589.5-238.5 575.5-272.75t-14-69.25q0-35 13.5-68.25T616-470l75-75q15.5-15.401 23-34.908 7.5-19.508 7.5-40.042 0-20.535-7.5-40.042Q706.5-679.5 691-695l-73.5-73 53.5-53.5 73.162 73.529Q770.5-721.5 784-688.25T797.5-620q0 35-13.5 67.75T744-493l-75 75q-16.258 16.541-23.879 36.182-7.621 19.642-7.621 40.318 0 20.339 7.5 40.169Q652.5-281.5 669-265l73.5 73-53.5 53.5-73.162-73.529Zm-200 0Q389.5-238.5 376-272.25T362.5-341q0-35 13.5-68.75T416-470l75-75q15.5-15.401 23-34.908 7.5-19.508 7.5-40.042 0-20.535-7.5-40.042Q506.5-679.5 491-695l-73.5-73 52.5-53.5 74.155 73.529Q570.5-721.5 584-688.25T597.5-620q0 35-13.5 67.75T544-493l-75 75q-16.258 16.541-23.879 36.182-7.621 19.642-7.621 40.318 0 20.339 7.5 40.169Q452.5-281.5 469-265l73.5 73-53.5 53.5-73.162-73.529Zm-200-1Q189.5-239.5 176-273t-13.5-68.5q0-35 13.5-68.5t40-60l75-76q15.5-15.401 23-34.908 7.5-19.508 7.5-40.042 0-20.535-7.5-40.042Q306.5-680.5 291-696l-73.5-73 52.5-52.5 74.155 73.529Q370.5-721.5 384-688.25T397.5-620q0 35-13.5 67.75T344-493l-75 75q-16.5 16.421-24 36.434-7.5 20.013-7.5 40.54 0 20.526 7.5 40.026 7.5 19.5 24 36l73.5 73-53.5 52.5-73.162-73.529Z"/></svg>