<svg xmlns="http://www.w3.org/2000/svg" height="24" viewBox="0 -960 960 960" width="24"><path d="M633.218-200.956q-29.261-29.261-43.826-65.957-14.565-36.696-14.565-74.522 0-37.826 14.348-74.087t44.043-65.522l75-75q13.305-13.304 19.674-29.761 6.37-16.456 6.37-34.195t-6.37-34.195q-6.369-16.457-19.674-29.761L623.609-768l75.653-75.653 84.044 84.609q28.696 28.696 43.327 64.674 14.63 35.979 14.63 73.805 0 37.826-14.63 73.87-14.631 36.043-43.327 64.739l-75 75q-13.739 13.739-20.391 30.478-6.652 16.739-6.652 34.478t6.652 34.978q6.652 17.239 20.391 30.978L792.915-192l-75.653 75.653-84.044-84.609Zm-228.262 0q-29.261-29.261-43.609-65.739-14.348-36.479-14.348-74.305 0-37.826 14.348-74.305 14.348-36.478 43.609-65.739l75-75q13.304-13.304 19.674-29.761 6.369-16.456 6.369-34.195t-6.369-34.195q-6.37-16.457-19.674-29.761L395.912-768 470-843.653l85.044 84.609q28.696 28.696 43.326 64.674 14.631 35.979 14.631 73.805 0 37.826-14.631 73.87-14.63 36.043-43.326 64.739l-75 75q-13.739 13.739-20.391 30.478-6.652 16.739-6.652 34.478t6.652 34.978q6.652 17.239 20.391 30.978L564.653-192 489-116.347l-84.044-84.609Zm-228.262-1q-28.696-28.696-43.327-64.957-14.63-36.261-14.63-74.087t14.63-74.305q14.631-36.478 43.327-65.739l75-76q13.304-13.304 19.673-29.761 6.37-16.456 6.37-34.195t-6.37-34.195q-6.369-16.457-19.673-29.761L167.085-769l74.653-74.088 85.044 84.044q29.261 28.696 43.608 64.674 14.348 35.979 14.348 73.805 0 37.826-14.63 73.87-14.631 36.043-43.326 64.739l-75 75q-13.739 13.739-20.392 30.978-6.652 17.239-6.652 34.978t6.652 34.478q6.653 16.739 20.392 30.478L336.391-192l-75.653 74.088-84.044-84.044Z"/></svg>