<svg xmlns="http://www.w3.org/2000/svg" height="24" viewBox="0 -960 960 960" width="24"><path d="M609.384-216.924q-25.3-25.394-38.419-58.312-13.119-32.918-13.119-66.379 0-33.462 12.731-65.731 12.73-32.269 38.807-57.73l75-75q16.539-16.427 24.808-37.235 8.269-20.807 8.269-42.71 0-21.902-8.269-42.695-8.269-20.792-24.808-37.208L616.693-768l42.768-42.768 68.076 67.692q25.462 25.552 38.192 57.729 12.731 32.177 12.731 65.3 0 33.124-12.731 64.842-12.73 31.718-38.192 57.281l-75 75q-17.588 17.482-25.833 38.241-8.244 20.76-8.244 43.068 0 22.308 8.269 43.154 8.27 20.846 25.808 38.385L720.229-192l-42.768 42.768-68.077-67.692Zm-188.46 0q-25.462-25.485-38.193-58.05-12.73-32.565-12.73-66.026t12.73-66.026q12.731-32.565 38.193-58.05l75-75q16.538-16.427 24.807-37.235 8.27-20.807 8.27-42.71 0-21.902-8.27-42.695-8.269-20.792-24.807-37.208L428.232-768 470-810.768l69.076 67.692q25.462 25.552 38.193 57.729 12.73 32.177 12.73 65.3 0 33.124-12.73 64.842-12.731 31.718-38.193 57.281l-75 75q-17.588 17.368-25.832 37.992-8.245 20.624-8.245 42.932 0 22.308 8.27 43.346 8.269 21.039 25.807 38.578L531.768-192 489-149.232l-68.076-67.692Zm-188.461-1q-25.462-25.469-38.192-57.542Q181.54-307.539 181.54-341q0-33.461 12.923-66.038t38.385-58.038l74.615-76q16.538-16.427 24.808-37.235 8.269-20.807 8.269-42.71 0-21.902-8.269-42.695-8.27-20.792-24.808-37.208L239.771-769l41.768-41.768 69.077 67.692q25.461 25.482 38.192 57.57 12.731 32.089 12.731 65.121 0 33.226-12.731 65.028-12.731 31.802-38.192 57.433l-75 75q-17.539 17.539-25.808 38.385-8.269 20.846-8.269 43.154 0 22.308 8.244 43.068 8.245 20.759 25.833 38.241L343.307-192l-42.768 41.768-68.076-67.692Z"/></svg>