<svg xmlns="http://www.w3.org/2000/svg" height="20" viewBox="0 -960 960 960" width="20"><path d="M649-201q-29-29-43.5-65T591-342q0-40 15-77t43-66l74-74q12-12 17.5-27.5T746-619q0-16-6-30.5T723-676l-91-91 84-83 90 91q28 28 43.5 63.5T865-620q0 40-15.5 77.5T806-477l-74 74q-11 12-18 27t-7 33q0 17 7.5 32.5T732-284l91 90-84 84-90-91Zm-247 0q-29-30-44.5-66T342-343q0-40 15.5-76t44.5-66l74-74q13-12 18-27.5t5-32.5q0-16-6-31t-17-26l-90-90 82-84 90 91q28 28 44 63.5t16 75.5q0 40-16 77.5T558-477l-74 74q-11 12-17.5 27.5T460-343q0 17 7 32.5t17 26.5l91 91-83 83-90-91Zm-248 1q-29-29-44-65.5T95-343q0-40 15.5-76.5T154-485l74-74q13-12 18-27.5t5-33.5q0-16-6-30.5T228-676l-91-90 84-82 90 89q29 28 44 63.5t15 75.5q0 40-15.5 77.5T311-477l-74 74q-11 12-17.5 27.5T213-342q0 17 7 32t17 26l91 91-84 82-90-89Z"/></svg>