<svg xmlns="http://www.w3.org/2000/svg" height="48" viewBox="0 -960 960 960" width="48"><path d="M603-226q-23.545-22.495-35.273-52.747Q556-309 556-340.5t11.736-61.932Q579.473-432.863 603-457l75-75q17-16.71 27-39.746 10-23.037 10-48.128 0-25.092-10-48.269-10-23.178-27-40.857l-59-59 25-25 60 58q23 24.089 35 53.423 12 29.335 12 60.23 0 31.896-12 61.487-12 29.592-35 52.86l-75 75q-20.032 20.313-29.016 43.373Q591-365.568 591-341q0 24.6 9.048 47.051Q609.097-271.498 629-252l58 60-25 25-59-59Zm-173 0q-24-23.156-35.5-53.578Q383-310 383-341q0-31 11.5-61.422Q406-432.844 430-457l75-75q17-16.71 27-39.746 10-23.037 10-48.128 0-25.092-10-48.269-10-23.178-27-40.857l-59-59 24-25 61 58q23 23.794 35 53.776 12 29.982 12 61.103 0 31.121-12 60.695-12 29.575-35 52.426l-75 75q-20.032 19.965-29.016 43.11Q418-365.745 418-341.372q0 25.372 9.048 47.827Q436.097-271.091 456-252l58 60-25 25-59-59Zm-173-1q-24-23.147-35.5-53.074Q210-310 210-341q0-31 12-61.453 12-30.453 36-54.547l74-76q17-16.71 27-39.746 10-23.037 10-48.128 0-25.092-10-48.269-10-23.178-27-40.857l-59-59 24-24 61 58q23 22.759 35 52.918T405-621q0 30.473-12 60.735-12 30.263-35 53.265l-75 75q-19.903 20.498-28.952 42.949Q245-366.6 245-342q0 24.568 8.984 47.627Q262.968-271.313 283-252l58 60-25 24-59-59Z"/></svg>