<svg xmlns="http://www.w3.org/2000/svg" height="40" viewBox="0 -960 960 960" width="40"><path d="M654-201.334q-29.666-28.999-43.666-64.999-14-36-14-74 0-38.667 14.333-75Q625-451.667 654-480.666l75-75Q742.334-569 748.5-585.5q6.167-16.5 6.167-34.5t-6.167-34.5q-6.166-16.5-19.5-29.834L644.334-768l75.333-75.333 83.666 84.667q28 28.666 42.833 64.499Q861-658.333 861-621q0 38-14.834 74-14.833 36-42.833 64.666l-75 75q-14 14.001-20.667 30.667Q701-360 701-342t6.666 35.167q6.667 17.166 20.667 31.167l84 83.666-74.666 75.333L654-201.334Zm-248.666 0q-29-28.999-43.334-65.333Q347.667-303 347.667-341T362-415.333q14.334-36.334 43.334-65.333l75-75Q493.667-569 500.167-585.5q6.5-16.5 6.5-34.5t-6.5-34.5q-6.5-16.5-19.833-29.834L396.667-768 470-843.333l84.666 84.667q28.667 28.666 43.167 64.499 14.5 35.834 14.5 73.167 0 38-14.5 74t-43.167 64.666l-75 75q-14 14.001-20.666 31.001-6.667 17-6.667 35T459-306.5q6.666 16.833 20.666 30.834L564.333-192 489-116.667l-83.666-84.667Zm-248-1Q128.667-231 113.834-267 99-303 99-341t14.834-74.333q14.833-36.334 43.5-65.333l75-76q13.333-13.334 19.5-29.834Q258-603 258-621t-6.166-34.5q-6.167-16.5-19.5-29.834L147.667-769 222-842.333l84.667 83.667Q335.666-730 350-694.5q14.333 35.5 14.333 72.833 0 38-14.833 74.334-14.834 36.333-42.833 64.999l-75 75Q217.666-393.333 211-376.167 204.333-359 204.333-341T211-306.333q6.666 16.666 20.667 30.667L315.666-192 241-118.667l-83.666-83.667Z"/></svg>