<svg xmlns="http://www.w3.org/2000/svg" height="40" viewBox="0 -960 960 960" width="40"><path d="M609.949-225.949q-23.448-23.634-35.198-53.496Q563-309.308 563-340.82q0-31.513 11.673-61.453 11.672-29.939 35.276-53.778l75-75q18.385-18.162 27.756-41.272 9.372-23.111 9.372-47.718 0-24.608-9.372-47.689-9.371-23.081-27.756-41.219L626.667-768 651-792.333l59.052 58.282q23.769 23.875 35.32 53.447 11.551 29.571 11.551 60.511 0 30.939-11.551 60.09-11.551 29.151-35.32 53.054l-75 75q-19.314 19.326-28.721 42.484-9.408 23.157-9.408 48.234t9.457 47.906q9.457 22.829 28.672 42.274L693.334-192 669-167.667l-59.051-58.282Zm-180 0q-23.77-24.025-35.321-53.91-11.551-29.885-11.551-61.141 0-31.256 11.551-61.141 11.551-29.885 35.321-53.91l75-75q18.384-18.162 27.756-41.272 9.372-23.111 9.372-47.718 0-24.608-9.372-47.689t-27.756-41.219L446.667-768 470-792.333l60.051 58.282q23.77 23.875 35.321 53.447 11.551 29.571 11.551 60.511 0 30.939-11.551 60.09-11.551 29.151-35.321 53.054l-75 75q-19.313 18.946-28.721 41.986-9.407 23.04-9.407 48.373 0 25.334 9.457 48.214t28.671 42.325L513.333-192 489-167.667l-59.051-58.282Zm-180.001-1q-23.769-24.001-35.32-53.398-11.551-29.397-11.551-60.653t11.936-61.165q11.935-29.909 35.705-53.886l74.23-76q18.385-18.162 27.757-41.272 9.372-23.111 9.372-47.718 0-24.608-9.372-47.689t-27.757-41.219L266.666-769 290-792.333l60.051 58.282q23.769 23.298 35.321 52.824 11.551 29.527 11.551 60.304 0 30.675-11.551 60.312-11.552 29.637-35.321 53.662l-75 75q-19.214 19.445-28.671 42.274t-9.457 47.906q0 25.077 9.407 48.234 9.408 23.158 28.721 42.484L333.333-192 309-168.667l-59.052-58.282Z"/></svg>