<svg xmlns="http://www.w3.org/2000/svg" height="20" viewBox="0 -960 960 960" width="20"><path d="M634.218-207.956q-27.261-27.261-41.326-61.957-14.065-34.696-14.065-72.522 0-37.826 14.348-73.087t41.043-62.522l74-74q13.305-13.304 19.674-30.761 6.37-17.456 6.37-36.195 0-17.739-6.87-34.195-6.869-16.457-19.174-29.761L624.609-767l69.653-68.653 83.044 83.609q26.696 26.696 41.327 60.674 14.63 33.979 14.63 71.805 0 37.826-14.63 73.37-14.631 35.543-41.327 62.239l-74 74q-12.739 13.739-20.391 30.478-7.652 16.739-7.652 36.478 0 18.739 8.152 35.978t19.891 29.978L786.915-194l-69.653 69.653-83.044-83.609Zm-225.262 0q-27.261-28.261-42.109-62.739-14.848-34.479-14.848-72.305 0-37.826 14.848-72.305 14.848-34.478 42.109-62.739l74-74q14.304-13.304 20.174-30.761 5.869-17.456 5.869-36.195 0-17.739-6.869-34.695-6.87-16.957-19.174-29.261L399.912-766 468-835.653l83.044 83.609q26.696 26.696 41.826 60.674 15.131 33.979 15.131 71.805 0 37.826-15.131 73.37-15.13 35.543-41.826 62.239l-74 74q-12.739 13.739-19.891 30.978-7.152 17.239-7.152 35.978t7.652 35.978q7.652 17.239 19.391 29.978L560.653-193 492-124.347l-83.044-83.609Zm-226.262 1q-27.696-27.696-41.827-62.457-14.13-34.761-14.13-73.587 0-37.826 14.63-72.805 14.631-34.978 41.327-62.239l74-74q14.304-13.304 20.173-30.761 5.87-17.456 5.87-37.195 0-17.739-6.87-34.195-6.869-16.457-19.173-28.761L173.085-766l69.653-68.088 83.044 82.044q27.261 26.696 41.608 60.674 14.348 33.979 14.348 71.805 0 37.826-14.63 73.37-14.631 35.543-41.326 62.239l-74 74q-12.739 13.739-19.892 30.978-7.152 17.239-7.152 36.978 0 18.739 7.652 35.478 7.653 16.739 19.392 29.478L335.391-193l-69.653 68.088-83.044-82.044Z"/></svg>