<svg xmlns="http://www.w3.org/2000/svg" height="40" viewBox="0 -960 960 960" width="40"><path d="M639.262-204.855q-28.949-27.047-43.032-63.125-14.084-36.078-14.084-73.02 0-37.319 14.066-73.043 14.065-35.725 43.05-63.769l75-75q12.971-13.536 19.928-30.726 6.956-17.19 6.956-36.282 0-19.093-6.956-36.463-6.957-17.369-19.928-31.572L632.32-768l69.087-69.087 80.812 81.275q27.376 27.856 42.058 63.196 14.681 35.341 14.681 71.39 0 36.528-14.681 72.285-14.682 35.757-42.058 63.086l-75 75q-14.994 15.677-21.628 32.997-6.633 17.319-6.633 35.858 0 18.571 6.633 36.361 6.634 17.791 21.628 32.827L788.117-192l-68.71 69.087-80.145-81.942Zm-230.407 0q-28.609-27.064-42.674-63.134-14.065-36.069-14.065-73.011 0-36.942 14.065-73.011 14.065-36.07 42.674-63.801l75-75q12.971-13.536 20.116-30.726 7.145-17.19 7.145-36.282 0-19.093-7.145-36.463-7.145-17.369-20.116-31.572L402.478-768 470-837.087l81.812 81.275q27.753 27.561 42.246 63.382 14.493 35.821 14.493 72.097 0 36.652-14.493 72.109-14.493 35.457-42.246 62.369l-75 75q-14.994 15.921-21.628 33.581-6.633 17.66-6.633 35.836 0 18.844 6.633 36.42 6.634 17.577 21.628 32.206L558.087-192 489-122.913l-80.145-81.942Zm-230.03-1q-28.986-27.459-43.051-62.831-14.065-35.372-14.065-72.314 0-36.942 14.065-73.011 14.065-36.07 43.051-63.801l75-76q13.203-13.536 20.043-30.726 6.841-17.19 6.841-36.282 0-19.093-6.957-36.463-6.956-17.369-19.927-31.572L171.883-769l68.087-67.522 81.811 80.71q27.942 27.561 42.341 63.049Q378.52-657.275 378.52-621q0 36.652-14.681 72.443-14.681 35.79-42.058 62.702l-75 75q-14.993 15.703-21.627 33.494-6.634 17.79-6.634 36.361 0 18.539 6.634 35.858 6.634 17.32 21.627 32.33L327.68-192l-68.71 67.522-80.145-81.377Z"/></svg>