<svg xmlns="http://www.w3.org/2000/svg" height="24" viewBox="0 -960 960 960" width="24"><path d="M605.838-225.106q-23.324-23.644-35.369-53.923-12.046-30.279-12.046-62.202t11.769-61.904q11.77-29.98 35.808-53.788l75-75q18.192-17.87 27.423-40.8 9.231-22.93 9.231-47.269t-9.231-47.239q-9.231-22.9-27.423-40.846L621.731-768l26.192-26.577 60.085 59.683q23.646 23.96 35.608 53.757 11.961 29.797 11.961 61.044 0 31.247-11.961 60.625-11.962 29.379-35.77 53.391l-75 75q-19.049 19.119-28.159 42.087-9.11 22.968-9.11 47.875 0 24.954 9.039 47.477 9.038 22.523 28.23 41.715L692.5-192l-26.577 26.192-60.085-59.298Zm-176.923 0q-23.646-23.827-35.415-53.899-11.769-30.072-11.769-61.995t11.769-61.995q11.769-30.072 35.577-53.928l75-75q18.192-17.87 27.423-40.8 9.231-22.93 9.231-47.269t-9.231-47.239q-9.231-22.9-27.423-40.846L444.808-768 470-794.577l61.078 59.683q23.653 23.96 35.614 53.757 11.962 29.797 11.962 61.044 0 31.247-11.962 60.625-11.961 29.379-35.769 53.391l-75 75q-19.049 18.891-28.159 41.589-9.11 22.697-9.11 47.603 0 24.955 9.038 47.862 9.039 22.908 28.231 42.1L515.577-192 489-165.808l-60.085-59.298Zm-176.923-1q-23.646-23.795-35.415-53.633-11.77-29.838-11.77-61.761 0-31.538 12.154-61.577 12.154-30.038 35.962-53.846l74.231-76q18.192-17.87 27.423-40.8 9.23-22.93 9.23-47.269t-9.23-47.239q-9.231-22.9-27.423-40.846L267.884-769l25.193-25.577 61.078 59.683q23.653 23.435 35.614 53.248 11.962 29.812 11.962 60.877 0 31.452-11.962 60.998-11.961 29.547-35.769 53.694l-75 75q-19.192 19.113-28.231 41.819-9.038 22.705-9.038 47.462 0 24.758 8.989 47.776 8.988 23.019 28.28 42.097L338.654-192l-26.577 25.192-60.085-59.298Z"/></svg>