<svg xmlns="http://www.w3.org/2000/svg" height="20" viewBox="0 -960 960 960" width="20"><path d="M606.838-232.106q-21.324-21.644-32.812-49.865-11.488-28.221-11.488-60.144t11.77-60.962q11.769-29.038 32.692-50.846l74-74q18.192-17.87 27.423-41.8 9.231-23.93 9.231-49.269 0-24.339-9.731-47.239T681-707.077L622.731-767l20.192-19.577 59.085 58.683q21.646 21.96 33.608 49.757 11.961 27.797 11.961 59.044 0 31.247-11.961 60.125-11.962 28.879-33.77 50.891l-74 74q-18.049 19.119-28.159 42.087-10.11 22.968-10.11 49.875 0 25.954 10.539 48.477 10.538 22.523 27.73 40.715L686.5-194l-20.577 20.192-59.085-58.298Zm-173.923 0Q411.269-254.933 399-283.005 386.731-311.077 386.731-343T399-402.995q12.269-28.072 34.077-50.928l74-74q19.192-17.87 27.923-41.8 8.731-23.93 8.731-49.269 0-24.339-9.731-47.739t-26.923-40.346L448.808-766 468-786.577l59.078 58.683q21.653 21.96 34.114 49.699 12.462 27.739 12.462 58.986 0 31.247-12.462 60.184-12.461 28.936-34.269 50.948l-74 74q-18.049 18.891-27.659 42.089-9.61 23.197-9.61 49.103 0 25.955 10.038 48.862 10.039 22.908 27.231 41.1L511.577-193 492-173.808l-59.085-58.298Zm-174.923 1q-22.646-22.795-33.915-51.075-11.27-28.281-11.27-61.204 0-31.538 12.154-60.134t33.962-50.404l73.231-74q19.192-17.87 27.923-41.8 8.73-23.93 8.73-50.269 0-24.339-9.73-47.239-9.731-22.9-26.923-39.846L273.884-766l20.193-19.577 59.078 57.683q21.653 21.435 33.614 49.19 11.962 27.754 11.962 58.819 0 31.452-11.962 60.556-11.961 29.105-33.769 51.252l-74 74q-18.192 19.113-27.731 41.819-9.538 22.705-9.538 49.462 0 25.758 9.989 48.776 9.988 23.019 27.28 41.097L337.654-193l-20.577 19.192-59.085-57.298Z"/></svg>