<svg xmlns="http://www.w3.org/2000/svg" height="40" viewBox="0 -960 960 960" width="40"><path d="M654.334-201.667q-29.964-27.337-44.482-64.502-14.518-37.164-14.518-74.831 0-38.333 14.5-75 14.5-36.666 44.5-65l75-75q11.666-12.666 18.333-28.987 6.667-16.321 6.667-34.833 0-18.513-6.667-35.013-6.667-16.501-18.333-29.834l-86-83.333 76.333-76.333L803.666-759q27.667 28 43 64.5Q862-658 862-621.226q0 37.108-15.334 74.097-15.333 36.988-43 64.462l-75 75q-14.269 15.387-20.468 31.91Q702-359.234 702-342q0 17.267 6.198 34.26 6.199 16.994 20.468 31.74l84.667 84-75.666 76.333-83.333-86Zm-248.667 0q-29.333-27.354-43.833-64.51-14.5-37.156-14.5-74.823 0-37.667 14.5-74.823 14.5-37.156 43.833-65.177l75-75q11.667-12.666 18.667-28.987 7-16.321 7-34.833 0-18.513-7-35.013-7-16.501-18.667-29.834l-85-83.333L470-844.333 555-759q28.333 27.706 43.333 64.686 15 36.981 15 73.981 0 37.666-15 74.138-15 36.471-43.333 63.528l-75 75q-14.269 15.631-20.468 32.277-6.199 16.645-6.199 33.518 0 17.539 6.199 34.536T480-276l85.333 84L489-115.667l-83.333-86Zm-248-1q-30-28.039-44.5-64.352-14.5-36.314-14.5-73.981 0-37.667 14.5-74.823 14.5-37.156 44.5-65.177l75-76q12.333-12.666 18.667-28.987 6.333-16.321 6.333-34.833 0-18.513-6.667-35.013-6.666-16.501-18.333-29.834l-86-83.333L222-843.333 307-759q28.666 27.706 43.5 64.353Q365.333-658 365.333-621q0 37.667-15.333 74.471-15.334 36.805-43 63.862l-75 75q-14.269 15.413-20.468 32.407-6.199 16.993-6.199 34.26 0 17.234 6.199 33.757Q217.731-290.72 232-276l84.666 84L241-117.667l-83.333-85Z"/></svg>