<svg xmlns="http://www.w3.org/2000/svg" height="48" viewBox="0 -960 960 960" width="48"><path d="M657.838-206.029Q629.5-233.5 616-268.25T602.5-340q0-38 14-73.25T658-476l75-75q14-13.901 20.75-31.658 6.75-17.758 6.75-37.292 0-19.535-6.75-37.292Q747-675 733-689l-80-79 66-66.5 79.162 80.529Q824.5-726.5 839.25-691.75T854-621q0 37-14.75 71.75T798-487l-75 75q-15.258 15.541-22.129 33.182Q694-361.176 694-342q0 19.339 6.75 37.419Q707.5-286.5 723-271l79.5 79-65.5 66-79.162-80.029Zm-248 0Q382.5-233.5 368.5-268.75t-14-72.25q0-37 14-72.25T410-476l75-75q14-13.901 21.25-31.658 7.25-17.758 7.25-37.292 0-19.535-7.25-37.292Q499-675 485-689l-79-79 64-66.5 80.155 80.529Q577.5-726.5 591.75-691.75T606-621q0 37-14.25 71.75T550-487l-75 75q-15.258 15.541-22.129 33.682Q446-360.176 446-341q0 19.339 6.75 36.919Q459.5-286.5 475-271l80.5 79-66.5 66-79.162-80.029Zm-247-1Q135.5-234.5 121-269.5t-14.5-72q0-36.5 14.5-71.75T163-476l75-76q14-13.901 20.75-31.658 6.75-17.758 6.75-37.292 0-19.535-6.75-37.292Q252-676 238-690l-80-79 65-64.5 80.155 79.529Q330.5-726.5 344.75-692.25T359-622q0 37-14.75 72.25T303-487l-75 75q-15.5 15.421-22.25 33.684-6.75 18.263-6.75 37.29 0 19.026 6.75 36.776Q212.5-286.5 228-271l79.5 79-65.5 64-79.162-79.029Z"/></svg>