<svg xmlns="http://www.w3.org/2000/svg" height="40" viewBox="0 -960 960 960" width="40"><path d="M633.36-212.841q-26.468-26.442-39.624-59.659-13.156-33.217-13.156-68.428 0-35.369 13.192-68.579 13.192-33.21 39.75-59.681l75-75q15.783-15.684 23.384-35.188 7.602-19.504 7.602-40.574 0-21.071-7.602-40.575-7.601-19.504-23.384-35.287L635.928-768l51.783-52.116 72.35 72.957q26.07 26.362 39.548 59.369 13.478 33.007 13.478 67.551 0 34.703-13.478 67.369-13.478 32.667-39.71 59.058l-75 75q-16.287 16.57-24.05 36.081-7.762 19.512-7.762 40.898 0 21.382 7.642 41.249 7.641 19.867 24.17 36.396L757.667-192l-51.956 51.782-72.351-72.623Zm-216.71 0q-26.309-26.442-39.501-59.695Q363.957-305.79 363.957-341t13.192-68.464q13.192-33.253 39.663-59.724l75-75q15.782-15.684 23.463-35.188 7.682-19.504 7.682-40.574 0-21.071-7.682-40.575-7.681-19.504-23.463-35.287L419.457-768 470-820.116l73.344 72.957q26.236 26.362 39.634 59.286 13.399 32.924 13.399 67.467 0 34.703-13.399 67.453-13.398 32.75-39.79 59.141l-75 75q-16.287 16.57-24.049 36.415-7.762 19.844-7.762 41.23 0 21.383 7.641 40.916 7.641 19.534 24.17 36.063L541.116-192 489-140.218l-72.35-72.623Zm-216.551-1q-26.23-26.362-39.541-59.322-13.312-32.96-13.312-68.17 0-34.877 13.312-68.131 13.311-33.253 39.703-59.724l75-76q15.782-15.684 23.384-35.188 7.601-19.504 7.601-40.574 0-21.071-7.601-40.575-7.602-19.504-23.384-35.287L202.666-769l50.783-50.877 73.344 72.718q26.315 26.362 39.674 58.952 13.359 32.591 13.359 67.134 0 34.703-13.479 67.787-13.478 33.083-39.71 59.474l-75 75q-16.529 16.45-24.17 36.5-7.641 20.049-7.641 41.286 0 21.236 7.641 40.772 7.641 19.537 24.17 36.066L324.405-192l-51.956 50.543-72.35-72.384Z"/></svg>