<svg xmlns="http://www.w3.org/2000/svg" height="24" viewBox="0 -960 960 960" width="24"><path d="M623.969-208.203q-27.295-27.427-41.534-62.395-14.239-34.967-14.239-71.163t13.859-70.402q13.858-34.207 42.076-61.663l75-75q14.782-14.684 21.804-33.115 7.022-18.432 7.022-38.009 0-19.578-7.022-38.01-7.022-18.431-21.804-33.214L621.565-768l61.392-61.391 76.988 77.594q27.055 27.188 41.034 61.275 13.978 34.087 13.978 70.283t-13.978 70.022Q787-516.391 759.783-489.174l-75 75q-15.302 15.584-22.564 34.27-7.262 18.685-7.262 38.404 0 19.382 7.141 38.256 7.142 18.874 22.685 34.418L762.348-192l-61.391 61.391-76.988-77.594Zm-211.957 0q-27.295-27.427-41.153-62.014Q357-304.804 357-341t13.859-70.783q13.858-34.587 41.315-62.043l75-75q14.782-14.684 21.804-33.115Q516-600.373 516-619.95q0-19.578-7.022-38.01-7.022-18.431-21.804-33.214L409.848-768 470-829.391l77.982 77.594q27.062 27.188 41.04 61.275Q603-656.435 603-620.239t-13.978 70.022q-13.978 33.826-41.196 61.043l-75 75q-15.301 15.584-22.564 34.27Q443-361.219 443-341.5q0 19.382 7.141 38.256 7.142 18.874 22.685 34.418L550.391-192 489-130.609l-76.988-77.594Zm-211.957-1Q173-236.391 159.021-270.848q-13.978-34.456-13.978-70.652t13.978-70.533Q173-446.37 200.217-473.826l75-76Q290-564.51 297.021-582.941q7.022-18.432 7.022-38.009 0-19.578-7.022-38.01-7.021-18.431-21.804-33.214L197.652-769l60.391-60.152 77.982 77.355q27.301 27.188 41.16 61.275 13.858 34.087 13.858 70.283t-13.978 70.022q-13.978 33.826-41.196 61.043l-75 75q-15.543 15.465-22.684 34.521-7.142 19.057-7.142 38.627 0 19.569 7.142 38.113 7.141 18.543 22.684 34.087L338.435-192l-61.392 60.152-76.988-77.355Z"/></svg>