<svg xmlns="http://www.w3.org/2000/svg" height="48" viewBox="0 -960 960 960" width="48"><path d="M617.769-218q-25.649-24.449-38.171-56.802-12.522-32.352-12.522-66.006 0-33.653 12.514-65.973T617.769-465l75-75q15.769-15.657 24.538-36.407 8.769-20.75 8.769-43.434 0-22.684-8.769-43.599-8.769-20.914-24.538-37.56l-67.615-67 41.614-41.615 68 66.615q24.846 25.881 37.769 57.471 12.923 31.59 12.923 64.257 0 33.667-12.923 65.452-12.923 31.784-37.769 56.82l-75 75q-18.127 18.307-26.217 38.985-8.091 20.678-8.091 43.4 0 22.754 8.115 43.487 8.116 20.734 26.193 38.128l66.615 68-41.615 41.615L617.769-218ZM422-218q-25.846-24.714-38.269-57.126-12.423-32.413-12.423-65.874t12.423-65.874Q396.154-439.286 422-465l75-75q15.77-15.657 24.539-36.407 8.769-20.75 8.769-43.434 0-22.684-8.769-43.599Q512.77-684.354 497-701l-67.615-67L470-809.615 539-743q24.846 25.586 37.769 57.823 12.923 32.238 12.923 65.13 0 32.893-12.923 64.661Q563.846-523.619 539-499l-75 75q-18.127 18.323-26.218 39.52-8.09 21.197-8.09 43.415 0 23.219 8.115 43.648Q445.923-276.987 464-260l66.615 68L489-150.385 422-218Zm-195.768-1q-25.846-24.722-38.269-56.63Q175.54-307.539 175.54-341q0-33.461 12.615-65.886Q200.771-439.31 226.617-465l74.615-76q15.769-15.657 24.539-36.407 8.769-20.75 8.769-43.434 0-22.684-8.769-43.599-8.77-20.914-24.539-37.56l-67.615-67 40.615-40.615L343.231-743q24.847 25.188 37.77 57.186 12.923 31.997 12.923 64.814 0 32.643-12.923 64.983T343.231-499l-75 75q-18.077 18.394-26.192 39.128-8.115 20.733-8.115 43.487 0 22.722 8.09 43.4 8.091 20.678 26.217 37.985l66.615 68-41.614 40.615-67-67.615Z"/></svg>