<svg xmlns="http://www.w3.org/2000/svg" height="20" viewBox="0 -960 960 960" width="20"><path d="M611.838-225.568q-22.831-23.057-35.354-53.322-12.523-30.264-12.523-63.725 0-33.462 12.635-64.077 12.635-30.615 35.404-53.769l74-74q16.846-16.635 25.211-38.854 8.366-22.219 8.366-45.656 0-22.437-8.866-43.641-8.865-21.204-24.711-37.927L620.616-767l33.845-33.037 65.622 65.605q22.993 23.216 35.723 52.739 12.731 29.523 12.731 62.646 0 33.124-12.731 63.688-12.73 30.564-35.884 53.82l-74 74q-16.654 17.83-26.02 39.135-9.365 21.305-9.365 46.096 0 23.647 9.769 44.824 9.77 21.177 25.616 38.023L711.498-194l-34.037 33.845-65.623-65.413Zm-185.461 0q-22.992-24.149-36.126-54.06-13.135-29.911-13.135-63.372t13.135-63.372q13.134-29.911 36.288-54.089l74-74q17.846-16.635 25.712-38.854 7.865-22.219 7.865-45.656 0-22.437-8.865-44.141-8.866-21.704-24.712-37.427L435.155-766 468-800.037l65.616 65.605q22.999 23.216 36.23 52.739 13.23 29.523 13.23 62.646 0 33.124-13.23 63.688-13.231 30.564-36.385 53.82l-74 74q-16.654 17.716-25.519 39.386-8.866 21.669-8.866 45.461 0 23.647 9.27 45.016 9.269 21.369 25.115 38.215L525.037-193 492-160.155l-65.623-65.413Zm-186.461 1q-23.992-24.133-36.126-54.302-12.135-30.169-12.135-64.63 0-33.269 12.827-63.538t35.981-53.423l73.615-74q17.846-16.635 25.712-38.854 7.865-22.219 7.865-46.656 0-22.437-8.865-43.641-8.866-21.204-24.712-36.927L248.694-766l33.845-33.037 65.617 64.605q22.998 22.953 35.729 52.484 12.731 29.531 12.731 62.563 0 33.226-12.731 63.874-12.731 30.648-35.885 53.972l-74 74q-16.846 17.767-25.615 39.127-8.769 21.359-8.769 46.001 0 23.642 9.244 44.901 9.244 21.26 25.14 38.049L339.577-193l-34.038 32.845-65.623-64.413Z"/></svg>