<svg xmlns="http://www.w3.org/2000/svg" height="20" viewBox="0 -960 960 960" width="20"><path d="M646-198q-29.964-28.67-44.982-65.835Q586-301 586-342q0-41 15.5-79t44.5-67l74-74q11-12 16-26.321 5-14.32 5-30.499 0-15.18-5.5-28.68T720-673l-95-94 91-90 93 95q29 28 45 64.5t16 77.274q0 39.775-16 78.93Q838-502.14 809-474l-74 74q-9.935 12.054-16.468 26.243Q712-359.568 712-343q0 15.6 7.032 30.26Q726.065-298.08 735-287l95 93-91 91-93-95Zm-247 0q-30-29.688-46-66.844Q337-302 337-343q0-41 16-78.156 16-37.156 46-66.844l74-74q12-12 16.5-26.321 4.5-14.32 4.5-30.499 0-15.18-5.5-29.18T473-673l-94-93 89-91 93 95q29 27.705 45.5 64.353Q623-661 623-620q0 41-16.5 79.638Q590-501.723 561-474l-74 74q-9.935 12.298-15.968 26.777Q465-358.745 465-342.872q0 15.872 6.532 30.536Q478.065-297.673 487-287l95 94-90 90-93-95Zm-248 1q-31-29.705-46-66.853Q90-301 90-343q0-41 15.5-78.656Q121-459.312 151-488l74-74q12-12 16.5-26.321 4.5-14.32 4.5-31.499 0-15.18-5.5-28.68T225-673l-95-93 91-89 93 93q30 27.705 45.5 64.353Q375-661 375-620q0 41-16 79.638-16 38.639-45 66.362l-74 74q-9.935 12.08-15.968 26.74Q218-358.6 218-342q0 15.568 6.532 29.757Q231.065-298.054 240-287l95 94-91 89-93-93Z"/></svg>