<svg xmlns="http://www.w3.org/2000/svg" height="24" viewBox="0 -960 960 960" width="24"><path d="M595.769-214.846q-25.565-25.458-38.321-57.96-12.756-32.502-12.756-67.425 0-34.923 12.962-67.961 12.961-33.039 38.115-58.962l75-75q17.077-16.854 24.616-36.789 7.538-19.935 7.538-40.919 0-20.984-7.538-41.069-7.539-20.085-24.616-36.915L601.385-768l46.538-46.539 70.154 69.385q25.923 26.105 38.885 57.959 12.961 31.855 12.961 65.876 0 34.022-12.961 66.613-12.962 32.592-38.885 58.86l-75 75q-17.111 17.017-25.133 37.225-8.021 20.207-8.021 42.39 0 22.216 8.071 42.068 8.071 19.852 25.083 37.009L712.462-192l-46.539 46.539-70.154-69.385Zm-176.923 0q-25.923-25.659-38.885-58.445Q367-306.077 367-341t12.961-67.709q12.962-32.786 38.885-58.445l75-75q17.077-16.854 24.615-36.789Q526-598.878 526-619.862q0-20.984-7.539-41.069-7.538-20.085-24.615-36.915L424.461-768 470-814.539l71.154 69.385q25.923 25.81 38.885 57.812Q593-655.34 593-621.093q0 34.247-12.961 66.821-12.962 32.575-38.885 58.426l-75 75q-17.112 17.033-25.133 37.259Q433-363.36 433-340.872q0 22.487 8.071 42.228 8.071 19.74 25.083 36.49L535.539-192 489-145.461l-70.154-69.385Zm-176.923-1Q216-241.491 203.038-273.784 190.077-306.077 190.077-341q0-34.923 13.346-67.733t39.269-58.421l74.231-76q16.077-16.854 24.115-36.789 8.039-19.935 8.039-40.919 0-20.984-7.539-41.069-7.538-20.085-24.615-36.915L247.538-769l45.539-45.539 71.154 69.385q25.923 25.67 38.884 57.495 12.962 31.825 12.962 65.89 0 34.452-12.962 67.194-12.961 32.743-38.884 58.729l-75 75q-17.013 17.157-25.083 37.009-8.071 19.852-8.071 42.068 0 22.183 8.021 42.39 8.021 20.208 25.133 37.225L358.615-192l-46.538 45.539-70.154-69.385Z"/></svg>