<svg xmlns="http://www.w3.org/2000/svg" height="20" viewBox="0 -960 960 960" width="20"><path d="M605.769-230.846q-21.601-21.788-33.339-50.625t-11.738-60.76q0-31.923 11.962-61.461 11.961-29.539 33.115-51.462l74-74q18.077-17.854 27.116-41.468 9.038-23.615 9.038-48.419 0-23.805-9.538-46.39-9.539-22.585-26.616-40.415L620.385-767l22.538-21.539 60.154 59.385q21.923 22.105 33.885 50.459 11.961 28.355 11.961 59.602 0 31.247-11.961 60.683-11.962 29.436-33.885 51.564l-74 74q-18.176 18.963-28.165 41.481-9.989 22.519-9.989 49.134 0 25.616 10.539 47.808 10.538 22.192 27.615 40.269L688.462-194l-22.539 22.539-60.154-59.385Zm-173.923 0q-21.923-22.971-34.385-51.601Q385-311.077 385-343t12.461-60.553q12.462-28.63 34.385-51.601l74-74q19.077-17.854 27.615-41.468Q542-594.237 542-619.041q0-23.805-9.539-46.89-9.538-23.085-26.615-39.915L446.461-766 468-788.539l60.154 59.385q21.923 22.105 34.385 50.459Q575-650.34 575-619.093q0 31.247-12.461 60.683-12.462 29.436-34.385 51.564l-74 74q-18.176 18.735-27.665 41.483Q417-368.615 417-343t10.039 48.192q10.038 22.577 27.115 40.654L513.539-193 492-171.461l-60.154-59.385Zm-174.923 1Q234-252.785 222.538-281.431 211.077-310.077 211.077-343q0-31.923 12.346-61.077t34.269-51.077l73.231-74q19.077-17.854 27.615-41.468 8.539-23.615 8.539-49.419 0-23.805-9.539-46.39-9.538-22.585-26.615-39.415L271.538-766l22.539-21.539 60.154 58.385q21.923 21.965 33.884 50.142 11.962 28.178 11.962 59.243 0 31.452-11.962 61.056-11.961 29.604-33.884 51.867l-74 74q-18.077 19.077-27.616 41.269-9.538 22.192-9.538 48.808 0 25.615 9.989 48.134 9.989 22.518 27.165 40.481L339.615-193l-22.538 21.539-60.154-58.385Z"/></svg>