<svg xmlns="http://www.w3.org/2000/svg" height="20" viewBox="0 -960 960 960" width="20"><path d="M624.969-215.203q-25.295-25.427-38.784-58.145-13.489-32.717-13.489-68.913t13.859-69.652q13.858-33.457 38.576-58.913l74-74q14.782-14.684 21.804-34.115 7.022-19.432 7.022-40.009 0-19.578-7.522-38.01-7.522-18.431-21.304-33.214L622.565-767l55.392-54.391 75.988 76.594q25.055 25.188 39.034 57.275 13.978 32.087 13.978 68.283t-13.978 69.522Q779-516.391 753.783-491.174l-74 74q-14.302 15.584-22.564 34.27-8.262 18.685-8.262 40.404 0 20.382 8.641 39.256 8.642 18.874 22.185 33.418L756.348-194l-55.391 55.391-75.988-76.594Zm-208.957 0q-25.295-26.427-39.653-59.014Q362-306.804 362-343t14.359-68.783q14.358-32.587 39.815-59.043l74-74q15.782-14.684 22.304-34.115Q519-598.373 519-618.95q0-19.578-7.522-38.51-7.522-18.931-21.304-32.714L413.848-766 468-821.391l75.982 76.594q25.062 25.188 39.54 57.025Q598-655.935 598-619.739t-14.478 69.772q-14.478 33.576-39.696 58.793l-74 74q-14.301 15.584-22.064 34.77Q440-363.219 440-342.5q0 20.382 8.141 39.256 8.142 18.874 21.685 33.418L546.391-193 492-138.609l-75.988-76.594Zm-209.957 1Q180-240.391 166.521-273.098 153.043-305.804 153.043-343q0-36.196 13.978-69.283Q181-445.37 206.217-470.826l74-74Q296-559.51 302.521-578.941q6.522-19.432 6.522-41.009 0-19.578-7.522-38.01-7.521-18.431-21.304-32.214L203.652-766l55.391-54.152 75.982 75.355q25.301 25.188 39.16 57.025 13.858 31.837 13.858 68.033t-13.978 69.772q-13.978 33.576-39.196 58.793l-74 74q-14.543 15.465-22.184 34.521-7.642 19.057-7.642 40.627 0 20.569 8.142 39.113 8.141 18.543 21.684 33.087L337.435-193l-55.392 54.152-75.988-75.355Z"/></svg>