<svg xmlns="http://www.w3.org/2000/svg" height="20" viewBox="0 -960 960 960" width="20"><path d="M610.384-223.924q-23.3-23.394-35.919-54.312-12.619-30.918-12.619-64.379 0-33.462 12.731-64.731 12.73-31.269 35.807-54.73l74-74q16.539-16.427 24.808-38.235 8.269-21.807 8.269-44.71 0-21.902-8.769-42.695-8.769-20.792-24.308-37.208L617.693-767l36.768-35.768 67.076 66.692q23.462 23.552 36.192 53.729 12.731 30.177 12.731 63.3 0 33.124-12.731 64.342-12.73 31.218-36.192 54.781l-74 74q-16.588 17.482-25.833 38.241-9.244 20.76-9.244 45.068 0 23.308 9.769 44.154 9.77 20.846 25.308 37.385L714.229-194l-36.768 36.768-67.077-66.692Zm-185.46 0q-23.462-24.485-36.693-55.05-13.23-30.565-13.23-64.026t13.23-64.026q13.231-30.565 36.693-55.05l74-74q17.538-16.427 25.307-38.235 7.77-21.807 7.77-44.71 0-21.902-8.77-43.195-8.769-21.292-24.307-36.708L432.232-766 468-802.768l67.076 66.692q23.462 23.552 36.693 53.729 13.23 30.177 13.23 63.3 0 33.124-13.23 64.342-13.231 31.218-36.693 54.781l-74 74q-16.588 17.368-25.332 38.492-8.745 21.124-8.745 44.432 0 23.308 9.27 44.346 9.269 21.039 24.807 37.578L527.768-193 492-157.232l-67.076-66.692Zm-186.461 1q-24.462-24.469-36.692-55.042Q189.54-308.539 189.54-343q0-33.461 12.923-64.538 12.923-31.077 36.385-54.538l73.615-74q17.538-16.427 25.308-38.235 7.769-21.807 7.769-45.71 0-21.902-8.769-42.695-8.77-20.792-24.308-36.208L245.771-766l36.768-35.768 67.077 65.692q23.461 23.482 36.192 53.57 12.731 30.089 12.731 63.121 0 33.226-12.731 64.528-12.731 31.302-36.192 54.933l-74 74q-16.539 17.539-25.308 38.385-8.769 20.846-8.769 45.154 0 23.308 9.244 44.068 9.245 20.759 24.833 37.241L342.307-193l-36.768 35.768-67.076-65.692Z"/></svg>