<svg xmlns="http://www.w3.org/2000/svg" height="24" viewBox="0 -960 960 960" width="24"><path d="M614.565-198.609q-29.681-29.148-44.818-66.791-15.138-37.643-15.138-76.361 0-38.717 15.119-75.435 15.12-36.717 44.837-66.195l75-75q13.283-13.522 19.044-29.125 5.761-15.603 5.761-32.304 0-16.702-5.761-32.484-5.761-15.783-19.044-29.305L602.696-768l80.261-80.261 86.391 86.87q29.478 29.239 44.337 65.456 14.859 36.218 14.859 74.709 0 38.253-14.859 75.246-14.859 36.992-44.337 66.371l-75 75q-13.218 13.576-19.511 29.667-6.293 16.092-6.293 32.942 0 16.883 6.293 33.445t19.511 30.164L781.218-192l-80.261 80.261-86.392-86.87Zm-211.956 0q-29.718-29.165-44.457-66.42-14.739-37.254-14.739-75.971 0-38.717 14.739-75.971 14.739-37.255 44.457-66.42l75-75q13.282-13.522 19.043-29.125 5.761-15.603 5.761-32.304 0-16.702-5.761-32.484-5.761-15.783-19.043-29.305L390.978-768 470-848.261l87.391 86.87q29.479 28.944 44.337 65.689 14.859 36.745 14.859 75.463 0 38.717-14.859 75.193-14.858 36.475-44.337 65.437l-75 75q-13.218 13.82-19.511 30.081-6.293 16.262-6.293 33.417 0 17.154 6.293 33.34 6.293 16.185 19.511 29.38L569.261-192 489-111.739l-86.391-86.87Zm-211.957-1q-29.718-29.183-44.457-65.928-14.739-36.746-14.739-75.463 0-38.717 14.739-75.971 14.739-37.255 44.457-66.42l75-76q13.282-13.522 19.043-29.125 5.761-15.603 5.761-32.304 0-16.702-5.761-32.484-5.761-15.783-19.043-29.305L178.782-769l79.261-79.022 87.392 86.631q29.717 28.944 44.456 65.689 14.739 36.745 14.739 75.463 0 38.717-14.858 75.193-14.859 36.475-44.337 65.437l-75 75q-13.219 13.602-19.512 30.164-6.293 16.562-6.293 33.445 0 16.85 6.293 32.942 6.293 16.091 19.512 29.667L357.304-192l-80.261 79.022-86.391-86.631Z"/></svg>