<svg xmlns="http://www.w3.org/2000/svg" height="40" viewBox="0 -960 960 960" width="40"><path d="M611.974-214.642q-26.187-25.32-39.247-58.583-13.06-33.262-13.06-67.852 0-34.589 13.086-67.559 13.086-32.969 39.221-59.389l75-75q15.693-15.581 23.795-35.457 8.103-19.876 8.103-41.359 0-21.484-8.103-41.524-8.102-20.041-23.795-36.277L616.334-768l47.999-47.999 71.025 69.974q25.717 26.438 38.91 58.723 13.192 32.286 13.192 66.03 0 34.41-13.192 67.058-13.193 32.647-38.91 58.572l-75 75q-17.259 17.384-25.079 37.319-7.819 19.935-7.819 41.708 0 21.805 7.844 41.796t25.054 36.794L730.331-192l-47.998 47.999-70.359-70.641Zm-193.332 0q-26.385-25.533-39.244-58.715-12.859-33.182-12.859-67.643t12.859-67.643q12.859-33.182 39.244-59.382l75-75q15.692-15.581 23.795-35.457 8.102-19.876 8.102-41.359 0-21.484-8.102-41.524-8.103-20.041-23.795-36.277L423.001-768 470-815.999l72.025 69.974q25.718 26.143 38.91 59.076 13.192 32.933 13.192 66.902 0 33.97-13.192 66.434-13.192 32.463-38.91 57.971l-75 75q-17.259 17.438-25.078 37.77-7.82 20.332-7.82 41.871 0 22.206 7.844 41.893 7.845 19.687 25.054 36.083L536.999-192 489-144.001l-70.358-70.641Zm-193.333-1q-26.384-25.539-39.243-58.218-12.859-32.679-12.859-67.14t13.051-67.655q13.051-33.194 39.436-59.37l74.615-76q15.693-15.581 23.795-35.457 8.103-19.876 8.103-41.359 0-21.484-8.103-41.524-8.102-20.041-23.795-36.277L229.669-769l46.998-46.999 72.026 69.974q25.717 25.854 38.91 58.598 13.192 32.744 13.192 66.632 0 33.838-13.192 66.711-13.193 32.873-38.91 58.442l-75 75q-17.21 17.47-25.054 37.461-7.844 19.991-7.844 41.796 0 21.773 7.819 41.708 7.82 19.935 25.079 36.652L343.666-192l-47.999 46.999-70.358-70.641Z"/></svg>