<svg xmlns="http://www.w3.org/2000/svg" height="24" viewBox="0 -960 960 960" width="24"><path d="M602-228q-22.582-22.825-34.291-52.412Q556-310 556-341t11.5-60.5Q579-431 602-454l75-75q19-18.71 28.5-42.409 9.5-23.699 9.5-48.645t-9.5-48.606Q696-692.321 677-711l-56-57 20-20 57 56q23 23.236 34.5 52.497t11.5 59.382q0 30.121-11.5 58.988T698-509l-75 75q-20.129 19.852-29.565 43.426Q584-367 584-341q0 26 9.5 49t29.5 43l56 57-20 20-57-56Zm-170 0q-23-23.062-34.5-52.531Q386-310 386-341t11.5-60.469Q409-430.938 432-454l75-75q19-18.71 28.5-42.409 9.5-23.699 9.5-48.645t-9.5-48.606Q526-692.321 507-711l-56-57 19-20 58 56q23 23.236 34.5 52.497t11.5 59.382q0 30.121-11.5 58.988T528-509l-75 75q-20.129 19.556-29.565 42.778Q414-368 414-342t9.5 49.5Q433-269 453-249l56 57-20 20-57-56Zm-170-1q-23-23.021-34.5-52.011Q216-310 216-341q0-31 12-60.5t35-52.5l74-76q19-18.71 28.5-42.409 9.5-23.699 9.5-48.645t-9.5-48.606Q356-693.321 337-712l-56-57 19-19 58 56q23 23.054 34.5 52.085Q404-650.885 404-621q0 30.388-11.5 59.473Q381-532.442 358-509l-75 75q-20 20-29.5 43t-9.5 49q0 26 9.435 49.574Q262.871-268.852 283-249l56 57-20 19-57-56Z"/></svg>