<svg xmlns="http://www.w3.org/2000/svg" height="40" viewBox="0 -960 960 960" width="40"><path d="M655.172-202.696q-29.005-28.471-43.005-64.054-14-35.583-14-73.583 0-38.667 14.333-74.584 14.334-35.916 42.833-64.416l75-75q13.5-13.401 19.834-30.242 6.333-16.841 6.333-35.375 0-18.535-6.333-35.376-6.334-16.841-19.834-30.341L646.834-768l72.833-73.166 82.494 83.862Q829.5-729.167 844.5-693.75t15 72.75q0 38-15 73.583-15 35.584-42.5 63.75l-75 75q-14.258 14.541-20.879 31.516-6.621 16.975-6.621 35.318 0 18.339 6.5 35.669 6.5 17.331 21 31.831L810.166-192l-72.499 72.833-82.495-83.529Zm-248.667 0q-28.338-28.471-42.671-64.387Q349.5-303 349.5-341t14.334-73.917q14.333-35.916 42.833-64.416l75-75q13.5-13.401 20.167-30.242 6.666-16.841 6.666-35.375 0-18.535-6.666-35.376-6.667-16.841-20.167-30.341L399.167-768 470-841.166l83.488 83.862q28.012 28.137 42.678 63.554 14.667 35.417 14.667 72.75 0 38-14.667 73.583-14.666 35.584-42.833 63.75l-75 75q-14.258 14.541-20.879 31.849-6.621 17.309-6.621 35.651 0 18.339 6.5 35.337 6.5 16.997 21 31.497L562.166-192 489-119.167l-82.495-83.529Zm-248-1q-28.005-28.137-42.838-63.971-14.833-35.833-14.833-73.833 0-37.667 14.833-73.5t43-64.333l75-76q13.5-13.401 19.833-30.242 6.334-16.841 6.334-35.375 0-18.535-6.334-35.376-6.333-16.841-19.833-30.341L150.167-769 222-840.166l83.489 82.862q28.344 28.137 42.844 63.221 14.5 35.083 14.5 72.416 0 38-15 73.917t-42.5 64.083l-75 75q-14.5 14.421-21 31.934-6.5 17.514-6.5 35.707t6.5 35.193q6.5 17 21 31.5L313.5-192 241-121.167l-82.495-82.529Z"/></svg>