<svg xmlns="http://www.w3.org/2000/svg" height="24" viewBox="0 -960 960 960" width="24"><path d="M604.769-223.846q-23.601-23.788-35.839-54.625t-12.238-62.76q0-31.923 11.962-62.461 11.961-30.539 36.115-54.462l75-75q18.077-17.854 27.116-40.468 9.038-22.615 9.038-46.419 0-23.805-9.038-46.39-9.039-22.585-27.116-40.415L619.385-768l28.538-28.539 61.154 60.385q23.923 24.105 35.885 54.459 11.961 30.355 11.961 61.602 0 31.247-11.961 61.183-11.962 29.936-35.885 54.064l-75 75q-19.176 18.963-28.165 41.481-8.989 22.519-8.989 47.134 0 24.616 9.039 46.808 9.038 22.192 28.115 41.269L694.462-192l-28.539 28.539-61.154-60.385Zm-176.923 0q-23.923-23.971-35.885-54.601Q380-309.077 380-341t11.961-62.553q11.962-30.63 35.885-54.601l75-75q18.077-17.854 27.115-40.468Q539-596.237 539-620.041q0-23.805-9.039-46.39-9.038-22.585-27.115-40.415L442.461-768 470-796.539l62.154 60.385q23.923 24.105 35.885 54.459Q580-651.34 580-620.093q0 31.247-11.961 61.183-11.962 29.936-35.885 54.064l-75 75q-19.176 18.735-28.165 40.983Q420-366.615 420-342t9.039 47.192q9.038 22.577 28.115 41.654L517.539-192 489-163.461l-61.154-60.385Zm-176.923-1Q227-248.785 215.038-278.931 203.077-309.077 203.077-341q0-31.923 12.346-62.577t36.269-54.577l74.231-76q18.077-17.854 27.115-40.468 9.039-22.615 9.039-46.419 0-23.805-9.039-46.39-9.038-22.585-27.115-40.415L265.538-769l27.539-27.539 62.154 60.385q23.923 23.965 35.884 54.142 11.962 30.178 11.962 61.243 0 31.452-11.962 61.556-11.961 30.104-35.884 54.367l-75 75q-19.077 19.077-28.116 41.269-9.038 22.192-9.038 46.808 0 24.615 8.989 47.134 8.989 22.518 28.165 41.481L340.615-192l-28.538 27.539-61.154-60.385Z"/></svg>