<svg xmlns="http://www.w3.org/2000/svg" height="40" viewBox="0 -960 960 960" width="40"><path d="M626.505-216.03q-25.671-25.803-38.588-58.303Q575-306.833 575-341.167q0-34.333 12.834-66.666 12.833-32.334 38.833-58.167l75-75q16.5-16.401 24.5-36.742 8-20.341 8-42.208 0-21.868-8-42.209-8-20.341-24.5-36.841L632.5-768l45.167-45.5 69.161 69.53q25.672 25.803 38.672 58.053 13 32.25 13 65.917t-13 65.417q-13 31.75-38.833 57.583l-75 75q-16.925 17.207-25.046 37.516-8.121 20.308-8.121 42.651 0 22.339 8 43.003 8 20.663 25.167 37.83l69.5 69-45.5 45.166-69.162-69.196Zm-206.667 0q-25.671-25.803-38.505-58.22Q368.5-306.667 368.5-341t12.833-66.75Q394.167-440.167 420-466l75-75q16.5-16.401 24.5-36.742 8-20.341 8-42.208 0-21.868-8-42.209Q511.5-682.5 495-699l-69.166-69L470-813.5l70.155 69.53q25.678 25.803 38.678 57.97 13 32.167 13 65.833 0 33.667-13 65.5-13 31.834-38.833 57.667l-75 75q-16.925 17.207-25.046 37.849-8.121 20.642-8.121 42.984 0 22.339 8 42.67 8 20.33 25.167 37.497l69.5 69-45.5 45.166-69.162-69.196Zm-206.667-1q-25.671-25.803-38.504-57.887-12.834-32.083-12.834-66.416 0-34 12.834-66.417Q187.5-440.167 213.333-466l75-76q16.5-16.401 24.5-36.742 8-20.341 8-42.208 0-21.868-8-42.209-8-20.341-24.5-36.841l-69.166-69 44.166-44.5 70.155 69.53q25.678 25.803 38.678 57.637 13 31.833 13 65.5 0 33.666-13 65.833t-38.833 58l-75 75q-17.167 17.088-25.167 37.934-8 20.847-8 43.04 0 22.193 8 42.526 8 20.333 25.167 37.5l69.5 69-45.5 44.166-69.162-69.196Z"/></svg>