<svg xmlns="http://www.w3.org/2000/svg" height="40" viewBox="0 -960 960 960" width="40"><path d="M599.667-223.667q-23.879-23.161-35.773-53.747Q552-308 552-340.333q0-32.334 11.991-63.288 11.991-30.954 35.676-55.379l75-75q17.333-17.043 26.667-39.407 9.333-22.365 9.333-46.467 0-24.103-9.333-46.608-9.334-22.506-26.667-40.185l-61-61.333L643-797.333 705-737q23.667 24.472 35.833 54.281Q753-652.909 753-621.347q0 32.229-12.167 62.464-12.166 30.236-35.833 54.216l-75 75q-19.376 19.511-28.188 41.972Q593-365.234 593-341q0 24.267 8.876 46.121Q610.753-273.025 630-254l60.333 62L661-162.667l-61.333-61Zm-172 0q-24.334-23.687-36.167-54.51Q379.667-309 379.667-341t11.833-62.823q11.833-30.823 36.167-55.177l75-75q17.333-17.043 26.666-39.407 9.334-22.365 9.334-46.467 0-24.103-9.334-46.608-9.333-22.506-26.666-40.185l-61-61.333L470-797.333 533-737q23.667 24.177 35.833 54.467Q581-652.242 581-620.455q0 31.788-12.167 62.006-12.166 30.218-35.833 53.782l-75 75q-19.376 19.261-28.188 41.758Q421-365.411 421-341.206q0 24.873 8.876 46.73Q438.753-272.618 458-254l60.333 62L489-162.667l-61.333-61Zm-172-1Q231.333-248.34 219.5-278.67 207.667-309 207.667-341T220-403.854q12.333-30.854 36.667-55.146l74-76q17-17.043 26.5-39.407 9.5-22.365 9.5-46.467 0-24.103-9.334-46.608-9.333-22.506-26.666-40.185l-61-61.333L298-797.333 361-737q23.666 23.426 35.833 53.758Q409-652.91 409-621.333q0 31.444-12.167 62.193-12.167 30.75-35.833 54.473l-75 75q-19.248 19.692-28.124 41.546Q249-366.267 249-342q0 24.234 8.812 46.695Q266.623-272.844 286-254l60.333 62L317-163.667l-61.333-61Z"/></svg>