<svg xmlns="http://www.w3.org/2000/svg" height="20" viewBox="0 -960 960 960" width="20"><path d="M601.384-214.924q-25.264-25.064-38.401-57.647-13.137-32.583-13.137-69.044 0-36.462 13.731-70.231 13.73-33.769 37.807-59.23l74-74q15.539-15.427 22.308-34.555t6.769-39.21q0-19.082-7.269-37.375-7.269-18.292-21.808-33.708L599.693-767l54.768-53.768 76.076 75.692q25.462 25.552 39.192 57.229 13.731 31.677 13.731 67.575t-13.731 69.771q-13.73 33.873-39.192 59.577l-74 74q-14.524 15.536-22.8 33.985-8.277 18.448-8.277 40.324 0 20.908 8.801 39.414 8.802 18.506 22.276 33.125L732.229-194l-54.768 54.768-76.077-75.692Zm-185.46 0q-25.462-26.173-39.693-58.894-14.23-32.721-14.23-69.182 0-36.461 14.23-69.182 14.231-32.721 39.693-58.894l74-74q16.538-15.427 22.807-34.555 6.27-19.128 6.27-39.21 0-19.082-7.27-37.875-7.269-18.792-21.807-33.208L414.232-766 468-820.768l76.076 75.692q25.462 25.257 39.693 57.082 14.23 31.824 14.23 67.947 0 36.124-14.23 69.98-14.231 33.856-39.693 59.143l-74 74q-14.523 15.666-22.3 34.769-7.777 19.102-7.777 40.283 0 21.18 8.302 39.382 8.301 18.202 21.775 32.414L545.768-193 492-139.232l-76.076-75.692Zm-186.461 1q-26.462-26.174-39.692-58.894Q176.54-305.539 176.54-343q0-36.461 13.923-69.694 13.923-33.233 39.385-58.382l73.615-74q15.538-15.427 22.308-34.555 6.769-19.128 6.769-40.21 0-19.082-7.269-37.375-7.27-18.292-21.808-32.708L227.771-766l54.768-53.768 76.077 74.692q25.461 25.187 39.192 56.923 13.731 31.736 13.731 67.768 0 36.226-13.731 70.166-13.731 33.941-39.192 59.295l-74 74q-14.474 15.619-22.276 34.125-7.801 18.506-7.801 40.414 0 20.876 8.276 39.324 8.277 18.449 21.801 32.985L360.307-193l-54.768 53.768-76.076-74.692Z"/></svg>