<svg xmlns="http://www.w3.org/2000/svg" height="40" viewBox="0 -960 960 960" width="40"><path d="M625.334-214.667Q599-241 586-274q-13-33-13-67.333 0-34.334 12.834-67 12.833-32.667 39.5-59l75-75q16.333-16.334 24.166-36.334 7.834-20 7.834-41.333t-7.834-41.333q-7.833-20-24.166-36.334L630-768l47.667-47.666L748-745.333q26.333 26.333 39.167 59Q800-653.667 800-620t-12.833 65.833Q774.333-522 748-495.667l-75 75Q656.333-404 648.167-384 640-364 640-342t8.167 42.5Q656.333-279 673-262.333L743.333-192l-47.666 47.666-70.333-70.333Zm-206.667 0Q392.333-241 379.5-273.833 366.667-306.667 366.667-341t12.833-67.167q12.833-32.833 39.167-59.166l75-75q16.333-16.334 24.166-36.334 7.834-20 7.834-41.333t-7.834-41.333q-7.833-20-24.166-36.334L423.334-768 470-815.666l71.333 70.333q26.334 26.333 39.167 59 12.833 32.666 12.833 66.333T580.5-554.167q-12.833 32.167-39.167 58.5l-75 75q-16.666 16.667-24.833 37-8.167 20.334-8.167 42.334 0 22 8.167 42.166 8.167 20.167 24.833 36.834L536.666-192 489-144.334l-70.333-70.333Zm-206.667-1Q185.667-242 172.833-274.333 160-306.667 160-341t12.833-67.167Q185.667-441 212-467.333l75-76q16.333-16.334 24.167-36.334Q319-599.667 319-621t-7.833-41.333q-7.834-20-24.167-36.334L216.667-769l46.666-46.666 71.333 70.333Q361-719 373.833-686.667q12.833 32.334 12.833 66 0 33.667-12.833 66.167t-39.167 58.833l-75 75Q243-404 234.833-383.5q-8.167 20.5-8.167 42.5t8.167 42q8.167 20 24.833 36.667L330-192l-47.667 46.666L212-215.667Z"/></svg>