<svg xmlns="http://www.w3.org/2000/svg" height="40" viewBox="0 -960 960 960" width="40"><path d="M605.505-229.696q-22.42-22.795-33.546-51.55-11.126-28.754-11.126-59.421 0-30.666 11.075-59.621 11.074-28.954 33.759-52.045l75-75q18.666-18.277 28.916-42.412 10.25-24.135 10.25-50.259t-10.25-50.221q-10.25-24.096-28.916-42.442l-54-55.333L643-785.167l55.495 54.863q22.838 23.109 34.172 51.585Q744-650.242 744-620.121t-11.333 58.201q-11.334 28.08-34.334 51.253l-75 75q-19.865 20.164-29.599 44.328Q584-367.176 584-341.333q0 26.339 9.677 50.03 9.678 23.691 29.656 43.97L678.167-192 661-175.667l-55.495-54.029Zm-172 0Q410.667-253 399.75-281.833 388.833-310.667 388.833-341q0-30.333 10.917-59.167 10.917-28.833 33.917-52.166l75-75q18.666-18.277 28.916-42.412 10.25-24.135 10.25-50.259t-10.25-50.221q-10.25-24.096-28.916-42.442l-54-55.333L470-785.167l56.489 54.863q22.844 23.109 34.178 51.585Q572-650.242 572-620.121t-11.333 58.201q-11.334 28.08-34.334 51.253l-75 75q-19.865 19.67-29.599 43.581Q412-368.176 412-342q0 26.672 9.677 50.53 9.678 23.858 29.656 44.137L506.167-192 489-175.667l-55.495-54.029Zm-172-1q-22.838-23.272-33.755-51.872-10.917-28.599-10.917-58.932 0-29.5 11.417-58.531t34.417-52.302l74-76q18.666-18.277 28.916-42.412 10.25-24.135 10.25-50.259t-10.25-50.221q-10.25-24.096-28.916-42.442l-54-55.333L298-785.167l56.489 54.863q22.844 21.858 34.178 50.626Q400-650.911 400-621q0 29.778-11.333 58.389-11.334 28.611-34.334 51.944l-75 75q-19.978 20.2-29.656 44.074Q240-367.719 240-342.026t9.613 50.131q9.613 24.438 29.72 44.562L334.167-192 317-176.667l-55.495-54.029Z"/></svg>