<svg xmlns="http://www.w3.org/2000/svg" height="20" viewBox="0 -960 960 960" width="20"><path d="M603-235q-20.582-20.825-31.791-48.412Q560-311 560-342t11.5-59.5Q583-430 603-451l74-74q19-18.71 28.5-43.409 9.5-24.699 9.5-50.645 0-24.946-10-48.606-10-23.661-28-42.34l-55-57 14-13 56 55q21 21.236 32.5 48.497t11.5 57.382q0 30.121-11.5 58.488T692-511l-74 74q-19.129 19.852-29.565 43.426Q578-370 578-342q0 27 11 50t29 42l55 56-14 14-56-55Zm-167 0q-21-22.062-33-49.531Q391-312 391-343t12-58.469q12-27.469 33-49.531l74-74q20-18.71 29-43.409 9-24.699 9-50.645 0-24.946-10-49.106-10-24.161-28-41.84l-55-56 13-14 56 55q21 21.236 33 48.497t12 57.382q0 30.121-12 58.488T524-511l-74 74q-19.129 19.556-29.065 43.278Q411-370 411-343t10.5 50.5Q432-269 450-250l55 57-13 13-56-55Zm-168 1q-22-22.021-33-49.511Q224-311 224-343q0-31 12-59t33-49l73-74q20-18.71 29-43.409 9-24.699 9-51.645 0-24.946-10-48.606-10-23.661-28-41.34l-55-56 14-13 56 54q21 21.054 32.5 48.085Q401-649.885 401-620q0 30.388-11.5 58.973Q378-532.442 357-511l-74 74q-19 20-29 43t-10 51q0 27 10.435 50.574Q264.871-268.852 283-250l55 57-14 13-56-54Z"/></svg>