<svg xmlns="http://www.w3.org/2000/svg" height="20" viewBox="0 -960 960 960" width="20"><path d="M636.057-209.985q-26.6-26.732-40.665-60.678-14.065-33.946-14.065-71.772 0-37.826 14.348-72.337t40.543-61.272l74-74q13.805-13.705 20.174-31.669 6.37-17.964 6.37-37.237 0-18.274-6.87-35.238-6.869-16.964-19.674-30.768L628.109-767l66.153-65.153 81.206 82.138q26.034 26.167 40.665 59.395 14.63 33.229 14.63 71.055 0 37.826-14.63 72.62-14.631 34.793-40.827 60.989l-74 74q-12.997 14.279-20.77 31.66t-7.773 37.796q0 19.078 8.152 36.648 8.152 17.569 20.391 30.808L783.415-194l-66.153 66.153-81.205-82.138Zm-225.263 0q-26.599-27.732-41.447-61.46-14.848-33.729-14.848-71.555 0-37.826 14.848-71.555 14.848-33.728 41.609-61.489l74-74q14.804-13.705 20.674-31.669 5.869-17.964 5.869-37.237 0-18.274-6.869-35.738-6.87-17.464-19.674-30.268L403.412-766 468-832.153l81.199 82.138q26.041 26.167 41.171 59.395 15.131 33.229 15.131 71.055 0 37.826-15.131 72.62-15.13 34.793-41.326 60.989l-74 74q-12.997 14.279-20.27 32.16-7.273 17.881-7.273 37.296 0 19.078 7.652 36.648 7.652 17.569 19.891 30.808L557.153-193 492-127.847l-81.206-82.138Zm-226.262 1q-27.034-27.167-41.165-61.428-14.13-34.261-14.13-73.087 0-37.826 14.63-71.805 14.631-33.978 40.827-60.739l74-74q14.804-13.705 20.673-31.669 5.87-17.964 5.87-38.237 0-18.274-6.87-35.238-6.869-16.964-19.673-29.768L176.585-766l66.153-64.588 81.199 80.573q26.606 26.167 40.953 59.395 14.348 33.229 14.348 71.055 0 37.826-14.63 72.62-14.631 34.793-40.826 60.989l-74 74q-13.239 14.16-20.392 31.912-7.152 17.752-7.152 38.018 0 19.265 7.652 36.504 7.653 17.239 19.892 30.478L331.891-193l-66.153 64.588-81.206-80.573Z"/></svg>