<svg xmlns="http://www.w3.org/2000/svg" height="48" viewBox="0 -960 960 960" width="48"><path d="M606.838-230.029q-22.42-22.796-33.629-51.633Q562-310.5 562-341t10.986-59.182Q583.973-428.863 607-452l75-75q18.5-18.11 29-42.334 10.5-24.224 10.5-50.67T711-670.635Q700.5-694.821 682-713l-53.5-55 15.5-16.5 55.162 54.529q22.838 23.06 34.088 51.394 11.25 28.335 11.25 58.456 0 30.121-11.25 58.057Q722-534.128 699-511l-75 75q-19.855 20.3-29.677 44.562-9.823 24.262-9.823 49.938 0 26.339 9.766 50.21Q604.032-267.418 624-247l54.5 55-16.5 15.5-55.162-53.529Zm-173 0Q411-253.469 400.25-282.234 389.5-311 389.5-341t10.75-58.766Q411-428.531 434-452l75-75q18.5-18.11 29-42.334 10.5-24.224 10.5-50.67T538-670.635Q527.5-694.821 509-713l-53.5-55 14.5-16.5 56.155 54.529q22.845 23.06 34.095 51.644 11.25 28.585 11.25 58.706 0 30.121-11.25 57.807Q549-534.128 526-511l-75 75q-19.855 19.707-29.677 43.766Q411.5-368.176 411.5-342q0 26.839 9.766 50.71Q431.032-267.418 451-247l54.5 55-16.5 15.5-55.162-53.529Zm-173-1Q238-254.442 227.25-283.221T216.5-342q0-29 11.25-57.797Q239-428.594 262-452l74-76q18.5-18.11 29-42.334 10.5-24.224 10.5-50.67T365-671.635Q354.5-695.821 336-714l-53.5-55 14.5-15.5 56.155 54.529Q376-708.446 387.25-679.435q11.25 29.012 11.25 58.935 0 29.473-11.25 57.847Q376-534.279 353-511l-75 75q-19.968 20.339-29.734 44.393-9.766 24.054-9.766 49.581 0 25.526 9.702 50.146Q257.903-267.259 278-247l54.5 55-16.5 14.5-55.162-53.529Z"/></svg>