<svg xmlns="http://www.w3.org/2000/svg" height="24" viewBox="0 -960 960 960" width="24"><path d="M627.61-195.348q-30.659-29.8-45.96-68.096-15.301-38.295-15.301-77.991 0-39.695 15.282-77.391 15.283-37.696 45.979-67.826l75-75q12.304-12.87 17.739-27.495 5.435-14.625 5.435-30.673 0-16.05-5.435-30.854-5.435-14.804-17.739-27.674L611.827-768l87.435-87.435 89.653 90.783q30.13 29.565 45.478 66.761 15.348 37.195 15.348 76.665 0 38.905-15.348 77.039t-45.478 67.839l-75 75q-12.24 12.924-18.207 28.2-5.967 15.276-5.967 31.148 0 15.904 5.967 31.651t18.207 28.697L804.698-192l-87.436 87.435-89.652-90.783Zm-228.262 0q-30.696-29.818-45.761-67.887-15.066-38.069-15.066-77.765t15.066-77.765q15.065-38.069 45.761-67.887l75-75q12.304-12.87 17.739-27.495 5.434-14.625 5.434-30.673 0-16.05-5.434-30.854-5.435-14.804-17.739-27.674L384.13-768 470-855.435l90.652 90.783q30.131 29.27 45.479 66.831 15.348 37.56 15.348 77.256 0 39.695-15.348 77.312t-45.479 66.905l-75 75q-12.239 13.168-18.206 28.451-5.967 15.283-5.967 31.459 0 16.177 5.967 31.71 5.967 15.533 18.206 28.076L576.435-192 489-104.565l-89.652-90.783Zm-228.263-1q-30.696-29.835-45.761-67.396-15.065-37.56-15.065-77.256t15.065-77.765q15.065-38.069 45.761-67.887l75-76q12.304-12.87 17.739-27.495 5.435-14.625 5.435-30.673 0-16.05-5.435-30.854-5.435-14.804-17.739-27.674L155.302-769l86.436-85.87 90.652 90.218q30.696 29.27 45.761 66.831 15.065 37.56 15.065 77.256 0 39.695-15.348 77.312-15.347 37.617-45.478 66.905l-75 75q-12.24 12.95-18.207 28.697-5.967 15.747-5.967 31.651 0 15.872 5.967 31.148t18.207 28.2L348.173-192l-87.435 85.87-89.653-90.218Z"/></svg>