<svg xmlns="http://www.w3.org/2000/svg" height="24" viewBox="0 -960 960 960" width="24"><path d="M602.838-229.029q-22.42-22.796-33.879-51.883Q557.5-310 557.5-341t11.25-60Q580-430 603-453l75-75q19-18.61 28.75-42.567t9.75-49.437q0-25.481-9.75-49.399T678-712l-55-56 18-18.5 56.162 55.529Q720-707.764 731.5-679.003q11.5 28.761 11.5 58.882t-11.5 58.488Q720-533.266 697-510l-75 75q-19.887 19.892-29.444 43.858Q583-367.176 583-341q0 26.339 9.5 49.669Q602-268 622-248l55.5 56-18.5 18-56.162-55.029Zm-170 0Q410-252.062 398.75-281.031T387.5-341q0-31 11.25-59.969T433-453l75-75q19-18.61 28.75-42.567t9.75-49.437q0-25.481-9.75-49.399T508-712l-55-56 17-18.5 57.155 55.529Q550-707.764 561.5-679.003q11.5 28.761 11.5 58.882t-11.5 58.488Q550-533.266 527-510l-75 75q-19.887 19.596-29.444 43.21Q413-368.176 413-342q0 26.339 9.5 50.169Q432-268 452-248l55.5 56-18.5 18-56.162-55.029Zm-170-1Q240-253.021 228.75-281.761 217.5-310.5 217.5-341.5q0-30.5 11.75-59.5T264-453l74-76q19-18.61 28.75-42.567t9.75-49.437q0-25.481-9.75-49.399T338-713l-55-56 17-17.5 57.155 55.529Q380-708.446 391.5-679.665 403-650.885 403-621q0 30.388-11.5 58.973Q380-533.442 357-510l-75 75q-20 19.921-29.5 43.434-9.5 23.513-9.5 49.54 0 26.026 9.435 50.1Q261.871-267.852 282-248l55.5 56-18.5 17-56.162-55.029Z"/></svg>