<svg xmlns="http://www.w3.org/2000/svg" height="24" viewBox="0 -960 960 960" width="24"><path d="M649.838-196.029Q619.5-226.5 604.75-263.5t-14.75-77q0-40 15-77.5t45-68l75-75q12.5-12.401 18-27.408 5.5-15.008 5.5-31.542 0-16.535-5.5-31.542Q737.5-666.5 725-679l-90.5-89 86.5-86.5 89.162 90.529Q839.5-734.5 855-697.75T870.5-621q0 40-15.5 77.25T810-477l-75 75q-12.258 12.541-18.379 28.182-6.121 15.642-6.121 32.318 0 16.339 6 32.169Q722.5-293.5 735-281l90.5 89-86.5 86.5-89.162-90.529Zm-250 0Q369.5-226.5 354.5-263.75t-15-77.25q0-40 15-77.25T400-486l75-75q12.5-12.401 18-27.408 5.5-15.008 5.5-31.542 0-16.535-5.5-31.542Q487.5-666.5 475-679l-89.5-89 84.5-86.5 90.155 90.529Q589.5-734.5 605-698t15.5 76.5q0 40-15.5 77.5t-45 67l-75 75q-12.258 12.541-18.379 28.182-6.121 15.642-6.121 32.318 0 16.339 6 32.169Q472.5-293.5 485-281l90.5 89-86.5 86.5-89.162-90.529Zm-250-1Q120.5-226.5 105-263.75T89.5-341q0-40 15.5-77.25T150-486l75-76q12.5-12.401 18-27.408 5.5-15.008 5.5-31.542 0-16.535-5.5-31.542Q237.5-667.5 225-680l-90.5-89 85.5-84.5 90.155 89.529Q340.5-734.5 355.5-698t15 76.5q0 40-15.5 77.5t-45 67l-75 75q-12.5 12.421-18.5 28.434t-6 32.54q0 16.526 6 32.026 6 15.5 18.5 28l90.5 89-86.5 84.5-89.162-89.529Z"/></svg>