<svg xmlns="http://www.w3.org/2000/svg" version="1.1" width="3300" height="2000"><g id="Notes"><style>
    text {
      font-family: monospace;
      text-anchor: middle;
    }
    text.emphasis {
      font-weight:bold;
    }
    text.lanchor {
      text-anchor: start;
    }
  </style><rect height="2200" id="artboard" fill="white" width="3300" x="0" y="0"/><line id="" style="fill:none;stroke:black;stroke-width:0.5;" x1="263" x2="3036" y1="292" y2="292"/><text class="lanchor emphasis" transform="matrix(1 0 0 1 263 322)">Weight/Scale Variations</text><text transform="matrix(1 0 0 1 559.711 322)">Ultralight</text><text transform="matrix(1 0 0 1 856.422 322)">Thin</text><text transform="matrix(1 0 0 1 1153.13 322)">Light</text><text transform="matrix(1 0 0 1 1449.84 322)">Regular</text><text transform="matrix(1 0 0 1 1746.56 322)">Medium</text><text transform="matrix(1 0 0 1 2043.27 322)">Semibold</text><text transform="matrix(1 0 0 1 2339.98 322)">Bold</text><text transform="matrix(1 0 0 1 2636.69 322)">Heavy</text><text transform="matrix(1 0 0 1 2933.4 322)">Black</text><text id="template-version" style="text-anchor: end;" transform="matrix(1 0 0 1 3036 1933)">Template v.1.0</text><text class="lanchor" transform="matrix(1 0 0 1 263 726)">Small</text><text class="lanchor" transform="matrix(1 0 0 1 263 1156)">Medium</text><text class="lanchor" transform="matrix(1 0 0 1 263 1586)">Large</text></g><g id="Guides"><g id="H-reference" style="fill:#27AAE1;stroke:none;" transform="matrix(1 0 0 1 339 696)"><path d="M 54.9316 0 L 57.666 0 L 30.5664 -70.459 L 28.0762 -70.459 L 0.976562 0 L 3.66211 0 L 12.9395 -24.4629 L 45.7031 -24.4629 Z M 29.1992 -67.0898 L 29.4434 -67.0898 L 44.8242 -26.709 L 13.8184 -26.709 Z"/></g><line id="Baseline-S" style="fill:none;stroke:#27AAE1;opacity:1;stroke-width:0.577;" x1="263" x2="3036" y1="696" y2="696"/><line id="Capline-S" style="fill:none;stroke:#27AAE1;opacity:1;stroke-width:0.577;" x1="263" x2="3036" y1="625.541" y2="625.541"/><g id="H-reference" style="fill:#27AAE1;stroke:none;" transform="matrix(1 0 0 1 339 1126)"><path d="M 54.9316 0 L 57.666 0 L 30.5664 -70.459 L 28.0762 -70.459 L 0.976562 0 L 3.66211 0 L 12.9395 -24.4629 L 45.7031 -24.4629 Z M 29.1992 -67.0898 L 29.4434 -67.0898 L 44.8242 -26.709 L 13.8184 -26.709 Z"/></g><line id="Baseline-M" style="fill:none;stroke:#27AAE1;opacity:1;stroke-width:0.577;" x1="263" x2="3036" y1="1126" y2="1126"/><line id="Capline-M" style="fill:none;stroke:#27AAE1;opacity:1;stroke-width:0.577;" x1="263" x2="3036" y1="1055.54" y2="1055.54"/><g id="H-reference" style="fill:#27AAE1;stroke:none;" transform="matrix(1 0 0 1 339 1556)"><path d="M 54.9316 0 L 57.666 0 L 30.5664 -70.459 L 28.0762 -70.459 L 0.976562 0 L 3.66211 0 L 12.9395 -24.4629 L 45.7031 -24.4629 Z M 29.1992 -67.0898 L 29.4434 -67.0898 L 44.8242 -26.709 L 13.8184 -26.709 Z"/></g><line id="Baseline-L" style="fill:none;stroke:#27AAE1;opacity:1;stroke-width:0.577;" x1="263" x2="3036" y1="1556" y2="1556"/><line id="Capline-L" style="fill:none;stroke:#27AAE1;opacity:1;stroke-width:0.577;" x1="263" x2="3036" y1="1485.54" y2="1485.54"/><rect height="119.336" id="left-margin" style="fill:darkred;stroke:none;opacity:0.4;" width="12.4512" x="1394.06" y="1030.79"/><rect height="119.336" id="right-margin" style="fill:darkgreen;stroke:none;opacity:0.4;" width="12.4512" x="1502.5112" y="1030.79"/><rect x="1406.5112" y="1045" width="96" height="96" fill="none" stroke="blue" stroke-dasharray="5"/><rect x="1394.06" y="1030.79" width="120.9024" height="119.336" fill="none" stroke="blue"/></g><g id="Symbols"><g id="Bold-L" transform="matrix(1 0 0 1 2266 1556)"><path d="M106.103 8.953 Q101.507 4.518 99.33 -1.085 Q97.153 -6.689 97.153 -12.655 Q97.153 -18.782 99.411 -24.467 Q101.668 -30.151 106.103 -34.585 L118.196 -46.679 Q120.454 -48.936 121.542 -51.812 Q122.631 -54.688 122.631 -57.805 Q122.631 -60.922 121.542 -63.798 Q120.454 -66.674 118.196 -68.931 L110.618 -76.494 Q108.279 -78.687 108.32 -81.751 Q108.36 -84.814 110.577 -86.991 Q112.794 -89.168 115.858 -89.168 Q118.922 -89.168 121.26 -86.991 L128.678 -79.412 Q132.951 -74.978 135.329 -69.375 Q137.708 -63.771 137.708 -57.966 Q137.708 -52 135.329 -46.397 Q132.951 -40.793 128.678 -36.359 L116.584 -24.265 Q114.084 -21.766 112.996 -18.902 Q111.907 -16.039 111.907 -12.977 Q111.907 -9.86 112.996 -6.944 Q114.084 -4.028 116.584 -1.529 L124.163 5.969 Q126.339 8.203 126.339 11.262 Q126.339 14.321 124.163 16.555 Q121.824 18.789 118.761 18.789 Q115.697 18.789 113.52 16.531 L106.103 8.953 Z M66.112 8.953 Q61.678 4.518 59.421 -1.166 Q57.163 -6.85 57.163 -12.816 Q57.163 -18.782 59.421 -24.467 Q61.678 -30.151 66.112 -34.585 L78.206 -46.679 Q80.464 -48.936 81.633 -51.812 Q82.802 -54.688 82.802 -57.805 Q82.802 -60.922 81.633 -63.798 Q80.464 -66.674 78.206 -68.931 L70.627 -76.51 Q68.37 -78.687 68.41 -81.667 Q68.451 -84.648 70.627 -86.911 Q72.804 -89.087 75.868 -89.128 Q78.932 -89.168 81.109 -86.991 L88.688 -79.412 Q93.122 -74.978 95.42 -69.375 Q97.718 -63.771 97.718 -57.966 Q97.718 -52 95.42 -46.397 Q93.122 -40.793 88.688 -36.359 L76.594 -24.265 Q74.094 -21.766 73.006 -18.821 Q71.918 -15.877 71.918 -12.816 Q71.918 -9.699 73.006 -6.864 Q74.094 -4.028 76.594 -1.529 L84.172 5.969 Q86.349 8.203 86.349 11.262 Q86.349 14.321 84.172 16.555 Q81.996 18.789 78.851 18.789 Q75.707 18.789 73.53 16.531 L66.112 8.953 Z M26.309 8.791 Q21.849 4.357 19.511 -1.287 Q17.173 -6.931 17.173 -12.857 Q17.173 -18.782 19.511 -24.467 Q21.849 -30.151 26.284 -34.585 L38.377 -46.84 Q40.635 -49.097 41.723 -51.974 Q42.812 -54.85 42.812 -57.966 Q42.812 -61.083 41.723 -63.959 Q40.635 -66.835 38.377 -69.092 L30.799 -76.671 Q28.38 -78.848 28.42 -81.829 Q28.461 -84.809 30.799 -87.072 Q33.056 -89.249 35.918 -89.168 Q38.781 -89.087 41.199 -87.072 L48.859 -79.412 Q53.293 -74.978 55.591 -69.455 Q57.889 -63.932 57.889 -58.127 Q57.889 -52.161 55.51 -46.477 Q53.132 -40.793 48.859 -36.359 L36.765 -24.265 Q34.266 -21.766 33.177 -18.842 Q32.089 -15.919 32.089 -12.836 Q32.089 -9.752 33.177 -6.89 Q34.266 -4.028 36.765 -1.529 L44.344 5.808 Q46.521 8.051 46.48 11.122 Q46.44 14.193 44.223 16.37 Q41.844 18.628 38.861 18.587 Q35.878 18.547 33.851 16.37 L26.309 8.791 Z"/></g><g id="Semibold-L" transform="matrix(1 0 0 1 1970.27 1556)"><path d="M104.28 8.111 Q99.895 3.817 97.788 -1.576 Q95.681 -6.969 95.681 -12.725 Q95.681 -18.572 97.833 -24.011 Q99.986 -29.45 104.28 -33.744 L116.373 -45.838 Q118.841 -48.305 120.035 -51.392 Q121.229 -54.478 121.229 -57.805 Q121.229 -61.132 120.035 -64.218 Q118.841 -67.305 116.373 -69.772 L108.795 -77.335 Q106.877 -79.178 106.918 -81.751 Q106.958 -84.324 108.825 -86.15 Q110.691 -87.976 113.264 -87.976 Q115.837 -87.976 117.755 -86.15 L125.172 -78.571 Q129.375 -74.277 131.614 -68.884 Q133.852 -63.491 133.852 -57.896 Q133.852 -52.21 131.614 -46.852 Q129.375 -41.494 125.172 -37.2 L113.078 -25.106 Q110.439 -22.467 109.245 -19.393 Q108.052 -16.319 108.052 -12.977 Q108.052 -9.58 109.245 -6.453 Q110.439 -3.327 113.078 -0.688 L120.657 6.811 Q122.484 8.694 122.484 11.227 Q122.484 13.76 120.657 15.644 Q118.74 17.527 116.167 17.527 Q113.594 17.527 111.767 15.62 L104.28 8.111 Z M66.954 8.111 Q62.66 3.817 60.507 -1.622 Q58.355 -7.06 58.355 -12.816 Q58.355 -18.572 60.507 -24.011 Q62.66 -29.45 66.954 -33.744 L79.047 -45.838 Q81.515 -48.305 82.754 -51.392 Q83.994 -54.478 83.994 -57.805 Q83.994 -61.132 82.754 -64.218 Q81.515 -67.305 79.047 -69.772 L71.469 -77.351 Q69.562 -79.178 69.602 -81.667 Q69.642 -84.157 71.469 -86.069 Q73.295 -87.896 75.868 -87.936 Q78.441 -87.976 80.268 -86.15 L87.846 -78.571 Q92.14 -74.277 94.333 -68.884 Q96.526 -63.491 96.526 -57.896 Q96.526 -52.21 94.333 -46.852 Q92.14 -41.494 87.846 -37.2 L75.753 -25.106 Q73.113 -22.467 71.919 -19.312 Q70.726 -16.158 70.726 -12.816 Q70.726 -9.419 71.919 -6.373 Q73.113 -3.327 75.753 -0.688 L83.331 6.811 Q85.158 8.694 85.158 11.227 Q85.158 13.76 83.331 15.644 Q81.505 17.527 78.886 17.527 Q76.268 17.527 74.441 15.62 L66.954 8.111 Z M29.744 7.95 Q25.425 3.656 23.227 -1.743 Q21.029 -7.141 21.029 -12.857 Q21.029 -18.572 23.227 -24.011 Q25.425 -29.45 29.719 -33.744 L41.813 -45.999 Q44.28 -48.467 45.474 -51.553 Q46.668 -54.639 46.668 -57.966 Q46.668 -61.293 45.474 -64.379 Q44.28 -67.466 41.813 -69.934 L34.234 -77.512 Q32.236 -79.339 32.276 -81.829 Q32.316 -84.318 34.234 -86.231 Q36.141 -88.057 38.547 -87.976 Q40.954 -87.896 42.952 -86.231 L50.611 -78.571 Q54.905 -74.277 57.098 -68.965 Q59.291 -63.652 59.291 -58.057 Q59.291 -52.372 57.053 -46.933 Q54.814 -41.494 50.611 -37.2 L38.518 -25.106 Q35.878 -22.467 34.684 -19.333 Q33.491 -16.199 33.491 -12.836 Q33.491 -9.472 34.684 -6.4 Q35.878 -3.327 38.518 -0.688 L46.096 6.72 Q47.923 8.612 47.882 11.157 Q47.842 13.702 45.975 15.529 Q44.018 17.436 41.525 17.395 Q39.033 17.355 37.286 15.529 L29.744 7.95 Z"/></g><g id="Medium-L" transform="matrix(1 0 0 1 1674.31 1556)"><path d="M102.913 7.48 Q98.685 3.291 96.631 -1.944 Q94.577 -7.179 94.577 -12.778 Q94.577 -18.414 96.65 -23.669 Q98.724 -28.924 102.913 -33.113 L115.006 -45.207 Q117.632 -47.832 118.904 -51.076 Q120.177 -54.32 120.177 -57.805 Q120.177 -61.29 118.904 -64.534 Q117.632 -67.778 115.006 -70.403 L107.428 -77.966 Q105.826 -79.546 105.866 -81.751 Q105.906 -83.956 107.51 -85.519 Q109.114 -87.082 111.319 -87.082 Q113.524 -87.082 115.126 -85.519 L122.543 -77.94 Q126.693 -73.751 128.826 -68.516 Q130.96 -63.281 130.96 -57.844 Q130.96 -52.368 128.826 -47.194 Q126.693 -42.02 122.543 -37.831 L110.449 -25.737 Q107.705 -22.993 106.432 -19.761 Q105.16 -16.529 105.16 -12.977 Q105.16 -9.37 106.432 -6.086 Q107.705 -2.801 110.449 -0.057 L118.028 7.442 Q119.591 9.062 119.591 11.201 Q119.591 13.34 118.028 14.96 Q116.426 16.58 114.221 16.58 Q112.016 16.58 110.453 14.936 L102.913 7.48 Z M67.585 7.48 Q63.396 3.291 61.322 -1.963 Q59.249 -7.218 59.249 -12.816 Q59.249 -18.414 61.322 -23.669 Q63.396 -28.924 67.585 -33.113 L79.678 -45.207 Q82.304 -47.832 83.596 -51.076 Q84.888 -54.32 84.888 -57.805 Q84.888 -61.29 83.596 -64.534 Q82.304 -67.778 79.678 -70.403 L72.1 -77.982 Q70.456 -79.546 70.496 -81.667 Q70.536 -83.789 72.1 -85.438 Q73.663 -87.002 75.868 -87.042 Q78.073 -87.082 79.637 -85.519 L87.215 -77.94 Q91.404 -73.751 93.518 -68.516 Q95.632 -63.281 95.632 -57.844 Q95.632 -52.368 93.518 -47.194 Q91.404 -42.02 87.215 -37.831 L75.122 -25.737 Q72.377 -22.993 71.104 -19.68 Q69.832 -16.368 69.832 -12.816 Q69.832 -9.208 71.104 -6.005 Q72.377 -2.801 75.122 -0.057 L82.7 7.442 Q84.264 9.062 84.264 11.201 Q84.264 13.34 82.7 14.96 Q81.137 16.58 78.913 16.58 Q76.688 16.58 75.125 14.936 L67.585 7.48 Z M32.321 7.319 Q28.107 3.13 26.014 -2.084 Q23.921 -7.299 23.921 -12.857 Q23.921 -18.414 26.014 -23.669 Q28.107 -28.924 32.295 -33.113 L44.389 -45.368 Q47.015 -47.993 48.287 -51.237 Q49.56 -54.482 49.56 -57.966 Q49.56 -61.451 48.287 -64.695 Q47.015 -67.939 44.389 -70.565 L36.81 -78.143 Q35.128 -79.707 35.168 -81.829 Q35.209 -83.95 36.81 -85.6 Q38.455 -87.163 40.519 -87.082 Q42.584 -87.002 44.267 -85.6 L51.926 -77.94 Q56.115 -73.751 58.229 -68.596 Q60.342 -63.442 60.342 -58.005 Q60.342 -52.529 58.209 -47.275 Q56.076 -42.02 51.926 -37.831 L39.832 -25.737 Q37.087 -22.993 35.815 -19.701 Q34.542 -16.41 34.542 -12.836 Q34.542 -9.262 35.815 -6.031 Q37.087 -2.801 39.832 -0.057 L47.411 7.403 Q48.974 9.032 48.934 11.183 Q48.894 13.334 47.29 14.898 Q45.648 16.542 43.523 16.501 Q41.399 16.461 39.863 14.898 L32.321 7.319 Z"/></g><g id="Regular-L" transform="matrix(1 0 0 1 1378.56 1556)"><path d="M101.91 7.018 Q97.798 2.906 95.782 -2.214 Q93.767 -7.334 93.767 -12.816 Q93.767 -18.299 95.782 -23.418 Q97.798 -28.538 101.91 -32.65 L114.004 -44.744 Q116.745 -47.485 118.075 -50.845 Q119.406 -54.205 119.406 -57.805 Q119.406 -61.405 118.075 -64.765 Q116.745 -68.125 114.004 -70.866 L106.425 -78.429 Q105.054 -79.816 105.095 -81.751 Q105.135 -83.686 106.546 -85.056 Q107.957 -86.427 109.892 -86.427 Q111.827 -86.427 113.198 -85.056 L120.615 -77.477 Q124.727 -73.366 126.783 -68.246 Q128.839 -63.126 128.839 -57.805 Q128.839 -52.484 126.783 -47.445 Q124.727 -42.406 120.615 -38.294 L108.521 -26.2 Q105.699 -23.378 104.369 -20.031 Q103.039 -16.684 103.039 -12.977 Q103.039 -9.215 104.369 -5.816 Q105.699 -2.416 108.521 0.406 L116.1 7.904 Q117.471 9.332 117.471 11.182 Q117.471 13.031 116.1 14.459 Q114.729 15.886 112.794 15.886 Q110.859 15.886 109.489 14.435 L101.91 7.018 Z M68.047 7.018 Q63.936 2.906 61.92 -2.214 Q59.904 -7.334 59.904 -12.816 Q59.904 -18.299 61.92 -23.418 Q63.936 -28.538 68.047 -32.65 L80.141 -44.744 Q82.883 -47.485 84.213 -50.845 Q85.543 -54.205 85.543 -57.805 Q85.543 -61.405 84.213 -64.765 Q82.883 -68.125 80.141 -70.866 L72.562 -78.445 Q71.111 -79.816 71.152 -81.667 Q71.192 -83.519 72.562 -84.976 Q73.933 -86.346 75.868 -86.387 Q77.803 -86.427 79.174 -85.056 L86.752 -77.477 Q90.864 -73.366 92.92 -68.246 Q94.976 -63.126 94.976 -57.805 Q94.976 -52.484 92.92 -47.445 Q90.864 -42.406 86.752 -38.294 L74.659 -26.2 Q71.837 -23.378 70.507 -19.95 Q69.176 -16.522 69.176 -12.816 Q69.176 -9.054 70.507 -5.735 Q71.837 -2.416 74.659 0.406 L82.237 7.904 Q83.608 9.332 83.608 11.182 Q83.608 13.031 82.237 14.459 Q80.867 15.886 78.932 15.886 Q76.997 15.886 75.626 14.435 L68.047 7.018 Z M34.21 6.856 Q30.073 2.744 28.058 -2.335 Q26.042 -7.414 26.042 -12.857 Q26.042 -18.299 28.058 -23.418 Q30.073 -28.538 34.185 -32.65 L46.279 -44.905 Q49.02 -47.646 50.35 -51.006 Q51.681 -54.366 51.681 -57.966 Q51.681 -61.567 50.35 -64.926 Q49.02 -68.286 46.279 -71.027 L38.7 -78.606 Q37.249 -79.977 37.289 -81.829 Q37.329 -83.68 38.7 -85.137 Q40.151 -86.507 41.965 -86.427 Q43.779 -86.346 45.231 -85.137 L52.89 -77.477 Q57.002 -73.366 59.058 -68.327 Q61.114 -63.287 61.114 -57.966 Q61.114 -52.645 59.058 -47.525 Q57.002 -42.406 52.89 -38.294 L40.796 -26.2 Q37.974 -23.378 36.644 -19.971 Q35.314 -16.564 35.314 -12.836 Q35.314 -9.107 36.644 -5.762 Q37.974 -2.416 40.796 0.406 L48.375 7.904 Q49.746 9.341 49.705 11.203 Q49.665 13.064 48.254 14.435 Q46.843 15.886 44.989 15.846 Q43.134 15.806 41.752 14.435 L34.21 6.856 Z"/></g><g id="Light-L" transform="matrix(1 0 0 1 1082.77 1556)"><path d="M100.359 6.273 Q96.428 2.327 94.508 -2.596 Q92.588 -7.52 92.588 -12.785 Q92.588 -18.051 94.51 -22.995 Q96.432 -27.94 100.359 -31.906 L112.453 -43.999 Q115.287 -46.816 116.757 -50.391 Q118.227 -53.965 118.227 -57.808 Q118.227 -61.651 116.757 -65.224 Q115.287 -68.796 112.453 -71.611 L104.937 -79.204 Q103.938 -80.227 103.932 -81.708 Q103.925 -83.189 105.033 -84.25 Q106.078 -85.248 107.557 -85.248 Q109.036 -85.248 110.096 -84.25 L117.576 -76.733 Q121.533 -72.771 123.496 -67.863 Q125.458 -62.955 125.458 -57.813 Q125.458 -52.67 123.496 -47.836 Q121.533 -43.003 117.576 -39.038 L105.482 -26.944 Q102.499 -23.951 101.079 -20.379 Q99.658 -16.808 99.658 -12.947 Q99.658 -8.998 101.083 -5.425 Q102.507 -1.852 105.482 1.151 L112.999 8.649 Q113.997 9.746 114.028 11.172 Q114.059 12.597 112.992 13.683 Q111.987 14.77 110.493 14.77 Q108.999 14.77 107.969 13.66 L100.359 6.273 Z M68.792 6.273 Q64.835 2.287 62.928 -2.647 Q61.021 -7.582 61.021 -12.816 Q61.021 -18.051 62.928 -22.985 Q64.835 -27.92 68.792 -31.906 L80.886 -43.999 Q83.72 -46.816 85.19 -50.391 Q86.66 -53.965 86.66 -57.808 Q86.66 -61.651 85.19 -65.224 Q83.72 -68.796 80.886 -71.611 L73.307 -79.251 Q72.259 -80.25 72.284 -81.667 Q72.308 -83.085 73.322 -84.231 Q74.305 -85.261 75.795 -85.255 Q77.285 -85.248 78.368 -84.25 L86.008 -76.733 Q89.965 -72.771 91.928 -67.863 Q93.891 -62.955 93.891 -57.813 Q93.891 -52.67 91.928 -47.836 Q89.965 -43.003 86.008 -39.038 L73.914 -26.944 Q70.931 -23.988 69.511 -20.379 Q68.091 -16.77 68.091 -12.878 Q68.091 -8.899 69.515 -5.376 Q70.94 -1.852 73.914 1.151 L81.431 8.649 Q82.43 9.746 82.461 11.172 Q82.492 12.597 81.425 13.683 Q80.42 14.77 78.925 14.77 Q77.431 14.77 76.402 13.66 L68.792 6.273 Z M37.25 6.112 Q33.267 2.128 31.36 -2.767 Q29.453 -7.663 29.453 -12.857 Q29.453 -18.02 31.391 -22.972 Q33.329 -27.924 37.286 -31.906 L49.318 -44.161 Q52.152 -46.977 53.622 -50.552 Q55.092 -54.127 55.092 -57.97 Q55.092 -61.813 53.622 -65.385 Q52.152 -68.957 49.318 -71.772 L41.739 -79.412 Q40.691 -80.411 40.747 -81.844 Q40.803 -83.277 41.812 -84.403 Q42.849 -85.36 44.245 -85.31 Q45.64 -85.261 46.719 -84.393 L54.441 -76.733 Q58.397 -72.866 60.36 -67.981 Q62.323 -63.097 62.323 -57.966 Q62.323 -52.864 60.36 -47.938 Q58.397 -43.012 54.441 -39.038 L42.347 -26.944 Q39.372 -23.941 37.948 -20.361 Q36.523 -16.781 36.523 -12.898 Q36.523 -9.014 37.944 -5.428 Q39.364 -1.843 42.347 1.151 L49.863 8.649 Q50.862 9.755 50.868 11.193 Q50.875 12.63 49.805 13.633 Q48.729 14.718 47.312 14.704 Q45.894 14.689 44.885 13.691 L37.25 6.112 Z"/></g><g id="Thin-L" transform="matrix(1 0 0 1 787.282 1556)"><path d="M98.809 5.529 Q95.059 1.749 93.235 -2.978 Q91.41 -7.706 91.41 -12.754 Q91.41 -17.803 93.238 -22.573 Q95.066 -27.343 98.809 -31.162 L110.903 -43.255 Q113.83 -46.147 115.44 -49.936 Q117.049 -53.726 117.049 -57.812 Q117.049 -61.897 115.44 -65.682 Q113.83 -69.467 110.903 -72.355 L103.448 -79.979 Q102.822 -80.638 102.769 -81.666 Q102.716 -82.693 103.52 -83.444 Q104.2 -84.07 105.223 -84.07 Q106.245 -84.07 106.996 -83.444 L114.537 -75.989 Q118.339 -72.176 120.209 -67.48 Q122.079 -62.784 122.079 -57.82 Q122.079 -52.856 120.209 -48.228 Q118.339 -43.6 114.537 -39.782 L102.443 -27.688 Q99.299 -24.524 97.789 -20.728 Q96.279 -16.932 96.279 -12.915 Q96.279 -8.781 97.797 -5.035 Q99.315 -1.289 102.443 1.895 L109.898 9.393 Q110.524 10.161 110.587 11.162 Q110.649 12.163 109.885 12.908 Q109.246 13.654 108.192 13.654 Q107.138 13.654 106.45 12.885 L98.809 5.529 Z M69.536 5.529 Q65.734 1.669 63.936 -3.08 Q62.137 -7.83 62.137 -12.816 Q62.137 -17.803 63.936 -22.552 Q65.734 -27.302 69.536 -31.162 L81.63 -43.255 Q84.557 -46.147 86.166 -49.936 Q87.776 -53.726 87.776 -57.812 Q87.776 -61.897 86.166 -65.682 Q84.557 -69.467 81.63 -72.355 L74.051 -80.057 Q73.406 -80.684 73.415 -81.667 Q73.425 -82.651 74.081 -83.487 Q74.677 -84.176 75.723 -84.123 Q76.768 -84.07 77.561 -83.444 L85.264 -75.989 Q89.066 -72.176 90.936 -67.48 Q92.806 -62.784 92.806 -57.82 Q92.806 -52.856 90.936 -48.228 Q89.066 -43.6 85.264 -39.782 L73.17 -27.688 Q70.026 -24.598 68.516 -20.808 Q67.006 -17.018 67.006 -12.94 Q67.006 -8.744 68.524 -5.017 Q70.042 -1.289 73.17 1.895 L80.625 9.393 Q81.251 10.161 81.313 11.162 Q81.375 12.163 80.612 12.908 Q79.972 13.654 78.919 13.654 Q77.865 13.654 77.177 12.885 L69.536 5.529 Z M40.288 5.368 Q36.461 1.511 34.662 -3.2 Q32.864 -7.911 32.864 -12.857 Q32.864 -17.741 34.725 -22.525 Q36.585 -27.309 40.387 -31.162 L52.357 -43.417 Q55.284 -46.308 56.893 -50.098 Q58.503 -53.887 58.503 -57.973 Q58.503 -62.058 56.893 -65.843 Q55.284 -69.628 52.357 -72.516 L44.778 -80.219 Q44.133 -80.845 44.204 -81.86 Q44.276 -82.874 44.923 -83.67 Q45.547 -84.213 46.524 -84.194 Q47.501 -84.176 48.207 -83.648 L55.991 -75.989 Q59.793 -72.367 61.663 -67.636 Q63.532 -62.906 63.532 -57.966 Q63.532 -53.082 61.663 -48.351 Q59.793 -43.619 55.991 -39.782 L43.897 -27.688 Q40.769 -24.505 39.251 -20.751 Q37.733 -16.998 37.733 -12.96 Q37.733 -8.921 39.243 -5.095 Q40.753 -1.269 43.897 1.895 L51.352 9.393 Q51.978 10.17 52.031 11.183 Q52.084 12.196 51.355 12.831 Q50.615 13.55 49.635 13.562 Q48.654 13.573 48.016 12.947 L40.288 5.368 Z"/></g><g id="Ultralight-L" transform="matrix(1 0 0 1 491.205 1556)"><path d="M97.879 5.083 Q94.237 1.402 92.47 -3.208 Q90.703 -7.817 90.703 -12.736 Q90.703 -17.654 92.475 -22.319 Q94.246 -26.984 97.879 -30.715 L109.972 -42.809 Q112.956 -45.745 114.649 -49.664 Q116.342 -53.583 116.342 -57.814 Q116.342 -62.045 114.649 -65.957 Q112.956 -69.87 109.972 -72.801 L102.555 -80.444 Q102.152 -80.885 102.071 -81.64 Q101.991 -82.396 102.612 -82.96 Q103.073 -83.363 103.822 -83.363 Q104.571 -83.363 105.135 -82.96 L112.714 -75.542 Q116.422 -71.819 118.237 -67.251 Q120.051 -62.682 120.051 -57.825 Q120.051 -52.967 118.237 -48.463 Q116.422 -43.958 112.714 -40.229 L100.62 -28.135 Q97.379 -24.868 95.815 -20.937 Q94.251 -17.006 94.251 -12.897 Q94.251 -8.651 95.825 -4.801 Q97.4 -0.951 100.62 2.341 L108.038 9.839 Q108.441 10.409 108.521 11.156 Q108.602 11.902 108.021 12.443 Q107.6 12.984 106.811 12.984 Q106.022 12.984 105.538 12.419 L97.879 5.083 Z M69.983 5.083 Q66.274 1.298 64.54 -3.34 Q62.807 -7.979 62.807 -12.816 Q62.807 -17.654 64.54 -22.292 Q66.274 -26.931 69.983 -30.715 L82.076 -42.809 Q85.059 -45.745 86.752 -49.664 Q88.446 -53.583 88.446 -57.814 Q88.446 -62.045 86.752 -65.957 Q85.059 -69.87 82.076 -72.801 L74.498 -80.541 Q74.094 -80.944 74.094 -81.667 Q74.094 -82.39 74.536 -83.041 Q74.901 -83.524 75.679 -83.444 Q76.457 -83.363 77.078 -82.96 L84.817 -75.542 Q88.526 -71.819 90.34 -67.251 Q92.154 -62.682 92.154 -57.825 Q92.154 -52.967 90.34 -48.463 Q88.526 -43.958 84.817 -40.229 L72.724 -28.135 Q69.483 -24.964 67.919 -21.065 Q66.354 -17.167 66.354 -12.977 Q66.354 -8.651 67.929 -4.801 Q69.504 -0.951 72.724 2.341 L80.141 9.839 Q80.544 10.409 80.625 11.156 Q80.706 11.902 80.124 12.443 Q79.704 12.984 78.915 12.984 Q78.126 12.984 77.642 12.419 L69.983 5.083 Z M42.112 4.921 Q38.377 1.141 36.644 -3.459 Q34.911 -8.059 34.911 -12.857 Q34.911 -17.573 36.725 -22.257 Q38.539 -26.941 42.248 -30.715 L54.18 -42.97 Q57.163 -45.906 58.856 -49.825 Q60.549 -53.744 60.549 -57.975 Q60.549 -62.206 58.856 -66.119 Q57.163 -70.031 54.18 -72.962 L46.601 -80.702 Q46.198 -81.106 46.279 -81.869 Q46.359 -82.632 46.791 -83.23 Q47.166 -83.524 47.891 -83.524 Q48.617 -83.524 49.101 -83.202 L56.921 -75.542 Q60.63 -72.067 62.444 -67.429 Q64.258 -62.791 64.258 -57.966 Q64.258 -53.214 62.444 -48.598 Q60.63 -43.982 56.921 -40.229 L44.828 -28.135 Q41.608 -24.843 40.033 -20.985 Q38.458 -17.128 38.458 -12.997 Q38.458 -8.866 40.023 -4.896 Q41.587 -0.926 44.828 2.341 L52.245 9.839 Q52.648 10.418 52.729 11.177 Q52.809 11.936 52.285 12.349 Q51.747 12.849 51.028 12.876 Q50.31 12.903 49.896 12.5 L42.112 4.921 Z"/></g><g id="Bold-M" transform="matrix(1 0 0 1 2281.8 1126)"><path d="M81.25 0.27 Q77.438 -3.542 75.562 -8.199 Q73.688 -12.855 73.688 -17.855 Q73.688 -22.855 75.562 -27.511 Q77.438 -32.167 81.25 -35.98 L90.625 -45.355 Q92.188 -46.917 92.875 -48.792 Q93.562 -50.667 93.562 -52.73 Q93.562 -54.792 92.875 -56.667 Q92.188 -58.542 90.625 -60.105 L84.75 -65.917 Q82.438 -68.23 82.406 -71.261 Q82.375 -74.292 84.688 -76.605 Q87 -78.917 90.094 -78.917 Q93.188 -78.917 95.5 -76.605 L101.25 -70.73 Q104.938 -67.042 106.875 -62.449 Q108.812 -57.855 108.812 -52.855 Q108.812 -47.855 106.875 -43.199 Q104.938 -38.542 101.25 -34.855 L91.875 -25.48 Q90.312 -23.917 89.562 -21.949 Q88.812 -19.98 88.812 -17.917 Q88.812 -15.855 89.562 -13.886 Q90.312 -11.917 91.875 -10.355 L97.75 -4.542 Q100.062 -2.23 100.062 0.833 Q100.062 3.895 97.75 6.208 Q95.438 8.52 92.344 8.52 Q89.25 8.52 86.938 6.208 L81.25 0.27 Z M50 0.27 Q46.188 -3.542 44.312 -8.199 Q42.438 -12.855 42.438 -17.855 Q42.438 -22.855 44.312 -27.511 Q46.188 -32.167 50 -35.98 L59.375 -45.355 Q60.938 -46.917 61.625 -48.792 Q62.312 -50.667 62.312 -52.73 Q62.312 -54.792 61.625 -56.667 Q60.938 -58.542 59.375 -60.105 L53.5 -65.98 Q51.25 -68.167 51.281 -71.199 Q51.312 -74.23 53.438 -76.542 Q55.688 -78.855 58.75 -78.886 Q61.812 -78.917 64.125 -76.605 L70 -70.73 Q73.688 -67.042 75.625 -62.449 Q77.562 -57.855 77.562 -52.855 Q77.562 -47.855 75.625 -43.199 Q73.688 -38.542 70 -34.855 L60.625 -25.48 Q59.062 -23.917 58.312 -21.949 Q57.562 -19.98 57.562 -17.917 Q57.562 -15.855 58.312 -13.886 Q59.062 -11.917 60.625 -10.355 L66.5 -4.542 Q68.812 -2.23 68.812 0.833 Q68.812 3.895 66.5 6.208 Q64.188 8.52 61.094 8.52 Q58 8.52 55.688 6.208 L50 0.27 Z M18.75 0.145 Q15.062 -3.542 13.125 -8.23 Q11.188 -12.917 11.188 -17.917 Q11.188 -22.917 13.125 -27.542 Q15.062 -32.167 18.75 -35.98 L28.125 -45.48 Q29.688 -47.042 30.375 -48.917 Q31.062 -50.792 31.062 -52.855 Q31.062 -54.917 30.375 -56.792 Q29.688 -58.667 28.125 -60.23 L22.25 -66.105 Q19.875 -68.292 19.906 -71.324 Q19.938 -74.355 22.25 -76.667 Q24.5 -78.917 27.531 -78.917 Q30.562 -78.917 32.812 -76.667 L38.75 -70.73 Q42.562 -67.042 44.438 -62.449 Q46.312 -57.855 46.312 -52.855 Q46.312 -47.855 44.375 -43.199 Q42.438 -38.542 38.75 -34.855 L29.375 -25.48 Q27.812 -23.917 27.062 -21.917 Q26.312 -19.917 26.312 -17.855 Q26.312 -15.792 27.062 -13.855 Q27.812 -11.917 29.375 -10.355 L35.25 -4.667 Q37.562 -2.355 37.531 0.77 Q37.5 3.895 35.188 6.083 Q32.875 8.333 29.812 8.27 Q26.75 8.208 24.562 6.02 L18.75 0.145 Z"/></g><g id="Semibold-M" transform="matrix(1 0 0 1 1985.97 1126)"><path d="M79.402 -0.599 Q75.807 -4.195 73.987 -8.688 Q72.166 -13.181 72.166 -17.909 Q72.166 -22.638 73.959 -27.076 Q75.753 -31.515 79.402 -35.11 L88.777 -44.485 Q90.503 -46.211 91.299 -48.331 Q92.095 -50.45 92.095 -52.73 Q92.095 -55.01 91.299 -57.129 Q90.503 -59.249 88.777 -60.974 L82.902 -66.787 Q80.97 -68.719 80.966 -71.261 Q80.962 -73.803 82.894 -75.735 Q84.826 -77.668 87.404 -77.668 Q89.981 -77.668 91.913 -75.735 L97.663 -69.86 Q101.188 -66.336 103.017 -61.932 Q104.845 -57.529 104.845 -52.801 Q104.845 -48.072 103.017 -43.661 Q101.188 -39.249 97.663 -35.724 L88.288 -26.349 Q86.508 -24.57 85.677 -22.383 Q84.845 -20.197 84.845 -17.917 Q84.845 -15.638 85.677 -13.451 Q86.508 -11.265 88.288 -9.485 L94.163 -3.673 Q96.095 -1.741 96.095 0.805 Q96.095 3.352 94.163 5.284 Q92.231 7.216 89.654 7.216 Q87.076 7.216 85.144 5.284 L79.402 -0.599 Z M50.87 -0.599 Q47.274 -4.195 45.481 -8.661 Q43.687 -13.127 43.687 -17.855 Q43.687 -22.583 45.481 -27.049 Q47.274 -31.515 50.87 -35.11 L60.245 -44.485 Q61.97 -46.211 62.766 -48.331 Q63.562 -50.45 63.562 -52.73 Q63.562 -55.01 62.766 -57.129 Q61.97 -59.249 60.245 -60.974 L54.37 -66.849 Q52.5 -68.657 52.504 -71.199 Q52.508 -73.741 54.307 -75.673 Q56.177 -77.605 58.75 -77.636 Q61.323 -77.668 63.255 -75.735 L69.13 -69.86 Q72.655 -66.336 74.484 -61.932 Q76.313 -57.529 76.313 -52.801 Q76.313 -48.072 74.484 -43.661 Q72.655 -39.249 69.13 -35.724 L59.755 -26.349 Q57.976 -24.57 57.144 -22.383 Q56.313 -20.197 56.313 -17.917 Q56.313 -15.638 57.144 -13.451 Q57.976 -11.265 59.755 -9.485 L65.63 -3.673 Q67.563 -1.741 67.563 0.805 Q67.563 3.352 65.63 5.284 Q63.698 7.216 61.121 7.216 Q58.544 7.216 56.611 5.284 L50.87 -0.599 Z M22.337 -0.724 Q18.812 -4.249 16.983 -8.719 Q15.155 -13.189 15.155 -17.917 Q15.155 -22.646 16.983 -27.081 Q18.812 -31.515 22.337 -35.11 L31.712 -44.61 Q33.437 -46.336 34.233 -48.456 Q35.03 -50.575 35.03 -52.855 Q35.03 -55.135 34.233 -57.254 Q33.437 -59.374 31.712 -61.099 L25.837 -66.974 Q23.896 -68.782 23.901 -71.324 Q23.905 -73.866 25.837 -75.798 Q27.706 -77.668 30.248 -77.668 Q32.791 -77.668 34.66 -75.798 L40.598 -69.86 Q44.193 -66.336 45.986 -61.932 Q47.78 -57.529 47.78 -52.801 Q47.78 -48.072 45.951 -43.661 Q44.122 -39.249 40.598 -35.724 L31.223 -26.349 Q29.443 -24.57 28.611 -22.352 Q27.78 -20.135 27.78 -17.855 Q27.78 -15.575 28.611 -13.42 Q29.443 -11.265 31.223 -9.485 L37.098 -3.744 Q39.03 -1.811 38.998 0.77 Q38.967 3.352 37.035 5.213 Q35.103 7.083 32.557 7.047 Q30.011 7.012 28.149 5.151 L22.337 -0.724 Z"/></g><g id="Medium-M" transform="matrix(1 0 0 1 1689.91 1126)"><path d="M78.016 -1.252 Q74.584 -4.684 72.804 -9.055 Q71.025 -13.426 71.025 -17.95 Q71.025 -22.475 72.757 -26.75 Q74.489 -31.026 78.016 -34.458 L87.391 -43.833 Q89.239 -45.681 90.117 -47.984 Q90.995 -50.287 90.995 -52.73 Q90.995 -55.173 90.117 -57.476 Q89.239 -59.779 87.391 -61.627 L81.516 -67.439 Q79.87 -69.086 79.886 -71.261 Q79.902 -73.436 81.549 -75.083 Q83.196 -76.73 85.386 -76.73 Q87.576 -76.73 89.223 -75.083 L94.973 -69.208 Q98.375 -65.806 100.122 -61.545 Q101.87 -57.284 101.87 -52.76 Q101.87 -48.235 100.122 -44.007 Q98.375 -39.779 94.973 -36.377 L85.598 -27.002 Q83.655 -25.059 82.762 -22.71 Q81.87 -20.36 81.87 -17.917 Q81.87 -15.475 82.762 -13.125 Q83.655 -10.776 85.598 -8.833 L91.473 -3.021 Q93.12 -1.374 93.12 0.785 Q93.12 2.944 91.473 4.591 Q89.826 6.237 87.636 6.237 Q85.446 6.237 83.799 4.591 L78.016 -1.252 Z M51.522 -1.252 Q48.09 -4.684 46.357 -9.007 Q44.625 -13.33 44.625 -17.855 Q44.625 -22.379 46.357 -26.703 Q48.09 -31.026 51.522 -34.458 L60.897 -43.833 Q62.745 -45.681 63.622 -47.984 Q64.5 -50.287 64.5 -52.73 Q64.5 -55.173 63.622 -57.476 Q62.745 -59.779 60.897 -61.627 L55.022 -67.502 Q53.438 -69.023 53.421 -71.199 Q53.405 -73.374 54.959 -75.021 Q56.544 -76.667 58.75 -76.699 Q60.956 -76.73 62.603 -75.083 L68.478 -69.208 Q71.88 -65.806 73.628 -61.545 Q75.375 -57.284 75.375 -52.76 Q75.375 -48.235 73.628 -44.007 Q71.88 -39.779 68.478 -36.377 L59.103 -27.002 Q57.16 -25.059 56.268 -22.71 Q55.375 -20.36 55.375 -17.917 Q55.375 -15.475 56.268 -13.125 Q57.16 -10.776 59.103 -8.833 L64.978 -3.021 Q66.625 -1.374 66.625 0.785 Q66.625 2.944 64.978 4.591 Q63.331 6.237 61.141 6.237 Q58.951 6.237 57.304 4.591 L51.522 -1.252 Z M25.027 -1.377 Q21.625 -4.779 19.878 -9.086 Q18.13 -13.393 18.13 -17.917 Q18.13 -22.442 19.878 -26.734 Q21.625 -31.026 25.027 -34.458 L34.402 -43.958 Q36.25 -45.806 37.128 -48.109 Q38.005 -50.412 38.005 -52.855 Q38.005 -55.298 37.128 -57.601 Q36.25 -59.904 34.402 -61.752 L28.527 -67.627 Q26.913 -69.148 26.897 -71.324 Q26.88 -73.499 28.527 -75.146 Q30.111 -76.73 32.287 -76.73 Q34.462 -76.73 36.046 -75.146 L41.984 -69.208 Q45.416 -65.806 47.148 -61.545 Q48.88 -57.284 48.88 -52.76 Q48.88 -48.235 47.133 -44.007 Q45.386 -39.779 41.984 -36.377 L32.609 -27.002 Q30.666 -25.059 29.773 -22.678 Q28.88 -20.298 28.88 -17.855 Q28.88 -15.412 29.773 -13.094 Q30.666 -10.776 32.609 -8.833 L38.484 -3.051 Q40.13 -1.404 40.099 0.77 Q40.068 2.944 38.421 4.561 Q36.774 6.145 34.615 6.13 Q32.456 6.115 30.84 4.498 L25.027 -1.377 Z"/></g><g id="Regular-M" transform="matrix(1 0 0 1 1394.06 1126)"><path d="M77 -1.73 Q73.688 -5.042 71.938 -9.324 Q70.188 -13.605 70.188 -17.98 Q70.188 -22.355 71.875 -26.511 Q73.562 -30.667 77 -33.98 L86.375 -43.355 Q88.312 -45.292 89.25 -47.73 Q90.188 -50.167 90.188 -52.73 Q90.188 -55.292 89.25 -57.73 Q88.312 -60.167 86.375 -62.105 L80.5 -67.917 Q79.062 -69.355 79.094 -71.261 Q79.125 -73.167 80.562 -74.605 Q82 -76.042 83.906 -76.042 Q85.812 -76.042 87.25 -74.605 L93 -68.73 Q96.312 -65.417 98 -61.261 Q99.688 -57.105 99.688 -52.73 Q99.688 -48.355 98 -44.261 Q96.312 -40.167 93 -36.855 L83.625 -27.48 Q81.562 -25.417 80.625 -22.949 Q79.688 -20.48 79.688 -17.917 Q79.688 -15.355 80.625 -12.886 Q81.562 -10.417 83.625 -8.355 L89.5 -2.542 Q90.938 -1.105 90.938 0.77 Q90.938 2.645 89.5 4.083 Q88.062 5.52 86.156 5.52 Q84.25 5.52 82.812 4.083 L77 -1.73 Z M52 -1.73 Q48.688 -5.042 47 -9.261 Q45.312 -13.48 45.312 -17.855 Q45.312 -22.23 47 -26.449 Q48.688 -30.667 52 -33.98 L61.375 -43.355 Q63.312 -45.292 64.25 -47.73 Q65.188 -50.167 65.188 -52.73 Q65.188 -55.292 64.25 -57.73 Q63.312 -60.167 61.375 -62.105 L55.5 -67.98 Q54.125 -69.292 54.094 -71.199 Q54.062 -73.105 55.438 -74.542 Q56.812 -75.98 58.75 -76.011 Q60.688 -76.042 62.125 -74.605 L68 -68.73 Q71.312 -65.417 73 -61.261 Q74.688 -57.105 74.688 -52.73 Q74.688 -48.355 73 -44.261 Q71.312 -40.167 68 -36.855 L58.625 -27.48 Q56.562 -25.417 55.625 -22.949 Q54.688 -20.48 54.688 -17.917 Q54.688 -15.355 55.625 -12.886 Q56.562 -10.417 58.625 -8.355 L64.5 -2.542 Q65.938 -1.105 65.938 0.77 Q65.938 2.645 64.5 4.083 Q63.062 5.52 61.156 5.52 Q59.25 5.52 57.812 4.083 L52 -1.73 Z M27 -1.855 Q23.688 -5.167 22 -9.355 Q20.312 -13.542 20.312 -17.917 Q20.312 -22.292 22 -26.48 Q23.688 -30.667 27 -33.98 L36.375 -43.48 Q38.312 -45.417 39.25 -47.855 Q40.188 -50.292 40.188 -52.855 Q40.188 -55.417 39.25 -57.855 Q38.312 -60.292 36.375 -62.23 L30.5 -68.105 Q29.125 -69.417 29.094 -71.324 Q29.062 -73.23 30.5 -74.667 Q31.875 -76.042 33.781 -76.042 Q35.688 -76.042 37.062 -74.667 L43 -68.73 Q46.312 -65.417 48 -61.261 Q49.688 -57.105 49.688 -52.73 Q49.688 -48.355 48 -44.261 Q46.312 -40.167 43 -36.855 L33.625 -27.48 Q31.562 -25.417 30.625 -22.917 Q29.688 -20.417 29.688 -17.855 Q29.688 -15.292 30.625 -12.855 Q31.562 -10.417 33.625 -8.355 L39.5 -2.542 Q40.938 -1.105 40.906 0.77 Q40.875 2.645 39.438 4.083 Q38 5.458 36.125 5.458 Q34.25 5.458 32.812 4.02 L27 -1.855 Z"/></g><g id="Light-M" transform="matrix(1 0 0 1 1098.18 1126)"><path d="M76.375 -2.547 Q73.251 -5.683 71.623 -9.716 Q69.995 -13.749 69.995 -17.932 Q69.995 -22.115 71.575 -26.066 Q73.154 -30.018 76.375 -33.163 L85.75 -42.538 Q87.856 -44.629 88.901 -47.281 Q89.947 -49.932 89.947 -52.733 Q89.947 -55.533 88.901 -58.182 Q87.856 -60.832 85.75 -62.922 L79.923 -68.759 Q78.87 -69.812 78.865 -71.225 Q78.861 -72.639 79.962 -73.739 Q81.014 -74.792 82.428 -74.792 Q83.841 -74.792 84.942 -73.739 L90.74 -67.913 Q93.885 -64.757 95.476 -60.817 Q97.067 -56.876 97.067 -52.736 Q97.067 -48.595 95.476 -44.712 Q93.885 -40.829 90.74 -37.672 L81.365 -28.297 Q79.128 -26.074 78.098 -23.397 Q77.067 -20.72 77.067 -17.893 Q77.067 -15.042 78.101 -12.405 Q79.135 -9.768 81.365 -7.538 L87.192 -1.725 Q88.245 -0.648 88.269 0.758 Q88.293 2.164 87.192 3.241 Q86.139 4.318 84.714 4.318 Q83.288 4.318 82.212 3.241 L76.375 -2.547 Z M52.817 -2.547 Q49.673 -5.695 48.094 -9.683 Q46.514 -13.672 46.514 -17.855 Q46.514 -22.038 48.094 -26.026 Q49.673 -30.015 52.817 -33.163 L62.192 -42.538 Q64.298 -44.629 65.344 -47.281 Q66.389 -49.932 66.389 -52.733 Q66.389 -55.533 65.344 -58.182 Q64.298 -60.832 62.192 -62.922 L56.317 -68.845 Q55.303 -69.821 55.284 -71.223 Q55.264 -72.624 56.287 -73.725 Q57.293 -74.802 58.726 -74.797 Q60.159 -74.792 61.26 -73.739 L67.183 -67.913 Q70.327 -64.757 71.918 -60.817 Q73.51 -56.876 73.51 -52.736 Q73.51 -48.595 71.918 -44.712 Q70.327 -40.829 67.183 -37.672 L57.808 -28.297 Q55.571 -26.088 54.54 -23.428 Q53.51 -20.768 53.51 -17.941 Q53.51 -15.09 54.543 -12.429 Q55.577 -9.768 57.808 -7.538 L63.635 -1.725 Q64.687 -0.648 64.712 0.758 Q64.736 2.164 63.635 3.241 Q62.582 4.318 61.156 4.318 Q59.731 4.318 58.654 3.241 L52.817 -2.547 Z M29.26 -2.672 Q26.116 -5.818 24.536 -9.776 Q22.957 -13.735 22.957 -17.917 Q22.957 -22.076 24.56 -26.047 Q26.164 -30.018 29.308 -33.163 L38.635 -42.663 Q40.74 -44.754 41.786 -47.406 Q42.832 -50.057 42.832 -52.858 Q42.832 -55.658 41.786 -58.307 Q40.74 -60.957 38.635 -63.047 L32.76 -68.97 Q31.745 -69.946 31.75 -71.36 Q31.755 -72.773 32.816 -73.858 Q33.822 -74.864 35.212 -74.864 Q36.601 -74.864 37.639 -73.85 L43.625 -67.913 Q46.769 -64.79 48.361 -60.848 Q49.952 -56.907 49.952 -52.778 Q49.952 -48.625 48.361 -44.731 Q46.769 -40.838 43.625 -37.672 L34.25 -28.297 Q32.019 -26.067 30.986 -23.398 Q29.952 -20.73 29.952 -17.903 Q29.952 -15.076 30.983 -12.419 Q32.013 -9.761 34.25 -7.538 L40.077 -1.725 Q41.13 -0.648 41.135 0.758 Q41.139 2.164 40.062 3.241 Q38.981 4.264 37.589 4.26 Q36.197 4.256 35.144 3.203 L29.26 -2.672 Z"/></g><g id="Thin-M" transform="matrix(1 0 0 1 802.565 1126)"><path d="M75.75 -3.365 Q72.814 -6.324 71.309 -10.109 Q69.803 -13.893 69.803 -17.884 Q69.803 -21.874 71.274 -25.622 Q72.745 -29.369 75.75 -32.345 L85.125 -41.72 Q87.399 -43.966 88.553 -46.832 Q89.707 -49.697 89.707 -52.735 Q89.707 -55.773 88.553 -58.635 Q87.399 -61.496 85.125 -63.74 L79.346 -69.6 Q78.678 -70.268 78.637 -71.189 Q78.596 -72.11 79.361 -72.874 Q80.029 -73.542 80.95 -73.542 Q81.87 -73.542 82.635 -72.874 L88.481 -67.095 Q91.457 -64.097 92.952 -60.372 Q94.447 -56.647 94.447 -52.742 Q94.447 -48.836 92.952 -45.163 Q91.457 -41.491 88.481 -38.49 L79.106 -29.115 Q76.694 -26.73 75.571 -23.845 Q74.447 -20.961 74.447 -17.869 Q74.447 -14.73 75.577 -11.925 Q76.707 -9.119 79.106 -6.72 L84.885 -0.908 Q85.553 -0.191 85.601 0.746 Q85.649 1.684 84.885 2.4 Q84.216 3.116 83.272 3.116 Q82.327 3.116 81.611 2.4 L75.75 -3.365 Z M53.635 -3.365 Q50.659 -6.347 49.188 -10.106 Q47.716 -13.865 47.716 -17.855 Q47.716 -21.845 49.188 -25.604 Q50.659 -29.363 53.635 -32.345 L63.01 -41.72 Q65.284 -43.966 66.438 -46.832 Q67.591 -49.697 67.591 -52.735 Q67.591 -55.773 66.438 -58.635 Q65.284 -61.496 63.01 -63.74 L57.135 -69.711 Q56.481 -70.35 56.474 -71.247 Q56.466 -72.143 57.137 -72.908 Q57.774 -73.624 58.702 -73.583 Q59.63 -73.542 60.394 -72.874 L66.365 -67.095 Q69.341 -64.097 70.837 -60.372 Q72.332 -56.647 72.332 -52.742 Q72.332 -48.836 70.837 -45.163 Q69.341 -41.491 66.365 -38.49 L56.99 -29.115 Q54.579 -26.758 53.455 -23.908 Q52.332 -21.057 52.332 -17.966 Q52.332 -14.826 53.462 -11.973 Q54.591 -9.119 56.99 -6.72 L62.769 -0.908 Q63.438 -0.191 63.486 0.746 Q63.534 1.684 62.769 2.4 Q62.101 3.116 61.156 3.116 Q60.212 3.116 59.495 2.4 L53.635 -3.365 Z M31.519 -3.49 Q28.543 -6.468 27.072 -10.197 Q25.601 -13.927 25.601 -17.917 Q25.601 -21.86 27.12 -25.615 Q28.639 -29.369 31.615 -32.345 L40.894 -41.845 Q43.168 -44.091 44.322 -46.957 Q45.476 -49.822 45.476 -52.86 Q45.476 -55.898 44.322 -58.76 Q43.168 -61.621 40.894 -63.865 L35.019 -69.836 Q34.365 -70.475 34.406 -71.396 Q34.447 -72.316 35.132 -73.05 Q35.769 -73.687 36.642 -73.687 Q37.514 -73.687 38.216 -73.033 L44.25 -67.095 Q47.226 -64.162 48.721 -60.436 Q50.216 -56.709 50.216 -52.826 Q50.216 -48.895 48.721 -45.201 Q47.226 -41.508 44.25 -38.49 L34.875 -29.115 Q32.476 -26.716 31.346 -23.879 Q30.216 -21.042 30.216 -17.951 Q30.216 -14.86 31.34 -11.982 Q32.464 -9.105 34.875 -6.72 L40.654 -0.908 Q41.322 -0.191 41.363 0.746 Q41.404 1.684 40.688 2.4 Q39.962 3.07 39.053 3.062 Q38.144 3.054 37.476 2.385 L31.519 -3.49 Z"/></g><g id="Ultralight-M" transform="matrix(1 0 0 1 506.415 1126)"><path d="M75.375 -3.855 Q72.552 -6.708 71.12 -10.344 Q69.688 -13.98 69.688 -17.855 Q69.688 -21.73 71.094 -25.355 Q72.5 -28.98 75.375 -31.855 L84.75 -41.23 Q87.125 -43.569 88.344 -46.562 Q89.562 -49.556 89.562 -52.737 Q89.562 -55.917 88.344 -58.906 Q87.125 -61.895 84.75 -64.23 L79 -70.105 Q78.562 -70.542 78.5 -71.167 Q78.438 -71.792 79 -72.355 Q79.438 -72.792 80.062 -72.792 Q80.688 -72.792 81.25 -72.355 L87.125 -66.605 Q90 -63.7 91.438 -60.105 Q92.875 -56.51 92.875 -52.745 Q92.875 -48.98 91.438 -45.434 Q90 -41.888 87.125 -38.98 L77.75 -29.605 Q75.234 -27.123 74.054 -24.114 Q72.875 -21.105 72.875 -17.855 Q72.875 -14.542 74.062 -11.636 Q75.25 -8.73 77.75 -6.23 L83.5 -0.417 Q83.938 0.083 84 0.739 Q84.062 1.395 83.5 1.895 Q83.062 2.395 82.406 2.395 Q81.75 2.395 81.25 1.895 L75.375 -3.855 Z M54.125 -3.855 Q51.25 -6.738 49.844 -10.359 Q48.438 -13.98 48.438 -17.855 Q48.438 -21.73 49.844 -25.351 Q51.25 -28.972 54.125 -31.855 L63.5 -41.23 Q65.875 -43.569 67.094 -46.562 Q68.312 -49.556 68.312 -52.737 Q68.312 -55.917 67.094 -58.906 Q65.875 -61.895 63.5 -64.23 L57.625 -70.23 Q57.188 -70.667 57.188 -71.261 Q57.188 -71.855 57.647 -72.417 Q58.062 -72.917 58.688 -72.855 Q59.312 -72.792 59.875 -72.355 L65.875 -66.605 Q68.75 -63.7 70.188 -60.105 Q71.625 -56.51 71.625 -52.745 Q71.625 -48.98 70.188 -45.434 Q68.75 -41.888 65.875 -38.98 L56.5 -29.605 Q53.984 -27.16 52.804 -24.195 Q51.625 -21.23 51.625 -17.98 Q51.625 -14.667 52.812 -11.699 Q54 -8.73 56.5 -6.23 L62.25 -0.417 Q62.688 0.083 62.75 0.739 Q62.812 1.395 62.25 1.895 Q61.812 2.395 61.156 2.395 Q60.5 2.395 60 1.895 L54.125 -3.855 Z M32.875 -3.98 Q30 -6.858 28.594 -10.45 Q27.188 -14.042 27.188 -17.917 Q27.188 -21.73 28.656 -25.355 Q30.125 -28.98 33 -31.855 L42.25 -41.355 Q44.625 -43.694 45.844 -46.687 Q47.062 -49.681 47.062 -52.862 Q47.062 -56.042 45.844 -59.031 Q44.625 -62.02 42.25 -64.355 L36.375 -70.355 Q35.938 -70.792 36 -71.417 Q36.062 -72.042 36.522 -72.564 Q36.938 -72.98 37.5 -72.98 Q38.062 -72.98 38.562 -72.542 L44.625 -66.605 Q47.5 -63.786 48.938 -60.188 Q50.375 -56.591 50.375 -52.855 Q50.375 -49.056 48.938 -45.483 Q47.5 -41.91 44.625 -38.98 L35.25 -29.605 Q32.75 -27.105 31.562 -24.167 Q30.375 -21.23 30.375 -17.98 Q30.375 -14.73 31.554 -11.721 Q32.734 -8.711 35.25 -6.23 L41 -0.417 Q41.438 0.083 41.5 0.739 Q41.562 1.395 41.062 1.895 Q40.551 2.353 39.932 2.343 Q39.312 2.333 38.875 1.895 L32.875 -3.98 Z"/></g><g id="Bold-S" transform="matrix(1 0 0 1 2294.23 696)"><path d="M64.205 -7.911 Q61.394 -10.722 59.964 -14.198 Q58.534 -17.675 58.534 -21.62 Q58.534 -25.565 60.013 -29.14 Q61.493 -32.715 64.205 -35.526 L71.503 -42.824 Q72.736 -44.057 73.278 -45.635 Q73.821 -47.213 73.821 -48.939 Q73.821 -50.566 73.229 -52.046 Q72.637 -53.525 71.503 -54.758 L66.671 -59.64 Q64.945 -61.366 64.92 -63.511 Q64.895 -65.656 66.621 -67.382 Q68.347 -69.108 70.542 -69.108 Q72.736 -69.108 74.462 -67.382 L79.294 -62.549 Q82.007 -59.837 83.535 -56.41 Q85.064 -52.982 85.064 -49.037 Q85.064 -45.092 83.535 -41.468 Q82.007 -37.844 79.294 -35.131 L71.996 -27.833 Q70.862 -26.6 70.172 -25.047 Q69.481 -23.494 69.481 -21.669 Q69.481 -19.943 70.221 -18.39 Q70.961 -16.836 71.996 -15.702 L76.829 -10.919 Q78.555 -9.193 78.555 -6.974 Q78.555 -4.755 76.829 -3.029 Q75.103 -1.303 72.859 -1.303 Q70.615 -1.303 68.89 -3.029 L64.205 -7.911 Z M39.845 -7.911 Q37.034 -10.82 35.505 -14.297 Q33.976 -17.773 33.976 -21.718 Q33.976 -25.663 35.505 -29.14 Q37.034 -32.616 39.845 -35.526 L47.143 -42.824 Q48.474 -44.057 48.967 -45.635 Q49.46 -47.213 49.46 -48.939 Q49.46 -50.566 48.869 -52.095 Q48.277 -53.624 47.143 -54.758 L42.31 -59.59 Q40.535 -61.316 40.609 -63.461 Q40.683 -65.606 42.261 -67.332 Q44.036 -69.058 46.206 -69.034 Q48.376 -69.009 50.102 -67.283 L54.836 -62.549 Q57.548 -59.837 59.126 -56.41 Q60.704 -52.982 60.704 -49.037 Q60.704 -45.092 59.126 -41.468 Q57.548 -37.844 54.836 -35.131 L47.537 -27.833 Q46.403 -26.6 45.762 -24.998 Q45.121 -23.395 45.121 -21.669 Q45.121 -19.943 45.811 -18.39 Q46.502 -16.836 47.537 -15.702 L52.37 -10.82 Q54.096 -9.094 54.096 -6.875 Q54.096 -4.656 52.37 -2.93 Q50.644 -1.204 48.45 -1.204 Q46.255 -1.204 44.529 -2.93 L39.845 -7.911 Z M15.386 -7.812 Q12.575 -10.623 11.095 -14.174 Q9.616 -17.724 9.616 -21.768 Q9.616 -25.713 11.145 -29.214 Q12.673 -32.715 15.386 -35.526 L22.684 -42.824 Q24.015 -44.057 24.508 -45.635 Q25.001 -47.213 25.001 -49.037 Q25.001 -50.665 24.41 -52.144 Q23.818 -53.624 22.684 -54.758 L17.851 -59.59 Q15.977 -61.316 16.101 -63.461 Q16.224 -65.606 17.95 -67.332 Q19.725 -69.108 21.821 -69.108 Q23.917 -69.108 25.692 -67.332 L30.475 -62.549 Q33.286 -59.837 34.765 -56.41 Q36.245 -52.982 36.245 -49.037 Q36.245 -45.092 34.716 -41.468 Q33.187 -37.844 30.475 -35.131 L23.177 -27.833 Q22.043 -26.6 21.402 -25.022 Q20.761 -23.444 20.761 -21.62 Q20.761 -19.894 21.451 -18.365 Q22.141 -16.836 23.177 -15.702 L28.01 -10.919 Q29.735 -9.193 29.711 -6.925 Q29.686 -4.656 27.96 -3.029 Q26.234 -1.254 24.015 -1.352 Q21.796 -1.451 20.169 -3.078 L15.386 -7.812 Z"/></g><g id="Semibold-S" transform="matrix(1 0 0 1 1998.1 696)"><path d="M62.747 -8.597 Q60.108 -11.236 58.721 -14.584 Q57.333 -17.932 57.333 -21.663 Q57.333 -25.393 58.748 -28.797 Q60.164 -32.201 62.747 -34.84 L70.045 -42.138 Q71.407 -43.5 72.035 -45.271 Q72.663 -47.041 72.663 -48.939 Q72.663 -50.738 71.986 -52.41 Q71.308 -54.082 70.045 -55.444 L65.213 -60.326 Q63.787 -61.752 63.784 -63.511 Q63.78 -65.27 65.206 -66.696 Q66.632 -68.122 68.419 -68.122 Q70.206 -68.122 71.632 -66.696 L76.465 -61.863 Q79.048 -59.28 80.491 -56.002 Q81.934 -52.725 81.934 -48.995 Q81.934 -45.264 80.491 -41.832 Q79.048 -38.401 76.465 -35.817 L69.166 -28.519 Q67.861 -27.115 67.106 -25.39 Q66.351 -23.665 66.351 -21.669 Q66.351 -19.772 67.155 -18.047 Q67.959 -16.322 69.166 -15.016 L73.999 -10.233 Q75.425 -8.807 75.425 -6.995 Q75.425 -5.184 73.999 -3.758 Q72.573 -2.332 70.737 -2.332 Q68.9 -2.332 67.475 -3.758 L62.747 -8.597 Z M40.531 -8.597 Q37.891 -11.335 36.427 -14.661 Q34.962 -17.988 34.962 -21.718 Q34.962 -25.449 36.427 -28.775 Q37.891 -32.102 40.531 -34.84 L47.829 -42.138 Q49.289 -43.5 49.868 -45.271 Q50.447 -47.041 50.447 -48.939 Q50.447 -50.738 49.769 -52.459 Q49.092 -54.181 47.829 -55.444 L42.996 -60.276 Q41.521 -61.702 41.574 -63.461 Q41.626 -65.221 42.947 -66.646 Q44.422 -68.072 46.206 -68.048 Q47.99 -68.023 49.415 -66.597 L54.149 -61.863 Q56.733 -59.28 58.225 -56.002 Q59.718 -52.725 59.718 -48.995 Q59.718 -45.264 58.225 -41.832 Q56.733 -38.401 54.149 -35.817 L46.851 -28.519 Q45.546 -27.115 44.84 -25.341 Q44.135 -23.567 44.135 -21.669 Q44.135 -19.772 44.889 -18.047 Q45.644 -16.322 46.851 -15.016 L51.684 -10.134 Q53.11 -8.708 53.11 -6.897 Q53.11 -5.085 51.684 -3.659 Q50.258 -2.233 48.471 -2.233 Q46.684 -2.233 45.258 -3.659 L40.531 -8.597 Z M18.215 -8.498 Q15.533 -11.18 14.14 -14.559 Q12.746 -17.938 12.746 -21.768 Q12.746 -25.498 14.189 -28.849 Q15.632 -32.201 18.215 -34.84 L25.514 -42.138 Q26.974 -43.5 27.553 -45.271 Q28.131 -47.041 28.131 -49.037 Q28.131 -50.836 27.454 -52.509 Q26.776 -54.181 25.514 -55.444 L20.681 -60.276 Q19.15 -61.702 19.252 -63.461 Q19.354 -65.221 20.78 -66.646 Q22.255 -68.122 23.965 -68.122 Q25.675 -68.122 27.15 -66.646 L31.933 -61.863 Q34.572 -59.28 35.987 -56.002 Q37.402 -52.725 37.402 -48.995 Q37.402 -45.264 35.959 -41.832 Q34.516 -38.401 31.933 -35.817 L24.635 -28.519 Q23.329 -27.115 22.624 -25.365 Q21.918 -23.616 21.918 -21.62 Q21.918 -19.722 22.673 -18.022 Q23.428 -16.322 24.635 -15.016 L29.467 -10.19 Q30.893 -8.764 30.868 -6.925 Q30.844 -5.085 29.418 -3.715 Q27.992 -2.24 26.18 -2.317 Q24.369 -2.394 22.999 -3.764 L18.215 -8.498 Z"/></g><g id="Medium-S" transform="matrix(1 0 0 1 1701.85 696)"><path d="M61.654 -9.112 Q59.143 -11.622 57.788 -14.874 Q56.433 -18.125 56.433 -21.695 Q56.433 -25.265 57.8 -28.54 Q59.166 -31.815 61.654 -34.325 L68.952 -41.623 Q70.41 -43.081 71.102 -44.997 Q71.795 -46.913 71.795 -48.939 Q71.795 -50.866 71.053 -52.683 Q70.311 -54.5 68.952 -55.958 L64.119 -60.84 Q62.919 -62.041 62.931 -63.511 Q62.944 -64.98 64.145 -66.181 Q65.345 -67.382 66.827 -67.382 Q68.309 -67.382 69.509 -66.181 L74.342 -61.348 Q76.829 -58.861 78.208 -55.697 Q79.586 -52.532 79.586 -48.962 Q79.586 -45.393 78.208 -42.106 Q76.829 -38.819 74.342 -36.332 L67.044 -29.034 Q65.609 -27.501 64.806 -25.647 Q64.003 -23.794 64.003 -21.669 Q64.003 -19.643 64.856 -17.789 Q65.708 -15.936 67.044 -14.502 L71.876 -9.718 Q73.077 -8.518 73.077 -7.011 Q73.077 -5.505 71.876 -4.305 Q70.676 -3.104 69.145 -3.104 Q67.614 -3.104 66.413 -4.305 L61.654 -9.112 Z M41.045 -9.112 Q38.534 -11.721 37.118 -14.935 Q35.702 -18.149 35.702 -21.718 Q35.702 -25.288 37.118 -28.502 Q38.534 -31.716 41.045 -34.325 L48.343 -41.623 Q49.9 -43.081 50.543 -44.997 Q51.186 -46.913 51.186 -48.939 Q51.186 -50.866 50.445 -52.733 Q49.703 -54.599 48.343 -55.958 L43.511 -60.791 Q42.261 -61.992 42.297 -63.461 Q42.334 -64.931 43.461 -66.132 Q44.711 -67.332 46.206 -67.308 Q47.7 -67.283 48.901 -66.082 L53.635 -61.348 Q56.122 -58.861 57.55 -55.697 Q58.978 -52.532 58.978 -48.962 Q58.978 -45.393 57.55 -42.106 Q56.122 -38.819 53.635 -36.332 L46.337 -29.034 Q44.902 -27.501 44.149 -25.598 Q43.395 -23.695 43.395 -21.669 Q43.395 -19.643 44.198 -17.789 Q45.001 -15.936 46.337 -14.502 L51.169 -9.62 Q52.37 -8.419 52.37 -6.913 Q52.37 -5.407 51.169 -4.206 Q49.969 -3.005 48.487 -3.005 Q47.006 -3.005 45.805 -4.206 L41.045 -9.112 Z M20.338 -9.013 Q17.753 -11.599 16.423 -14.849 Q15.094 -18.099 15.094 -21.768 Q15.094 -25.338 16.472 -28.576 Q17.851 -31.815 20.338 -34.325 L27.636 -41.623 Q29.193 -43.081 29.836 -44.997 Q30.479 -46.913 30.479 -49.037 Q30.479 -50.965 29.738 -52.782 Q28.996 -54.599 27.636 -55.958 L22.804 -60.791 Q21.53 -61.992 21.616 -63.461 Q21.702 -64.931 22.902 -66.132 Q24.152 -67.382 25.573 -67.382 Q26.993 -67.382 28.243 -66.132 L33.026 -61.348 Q35.537 -58.861 36.904 -55.697 Q38.271 -52.532 38.271 -48.962 Q38.271 -45.393 36.892 -42.106 Q35.514 -38.819 33.026 -36.332 L25.728 -29.034 Q24.294 -27.501 23.54 -25.623 Q22.787 -23.744 22.787 -21.62 Q22.787 -19.594 23.59 -17.765 Q24.393 -15.936 25.728 -14.502 L30.561 -9.643 Q31.761 -8.443 31.737 -6.925 Q31.712 -5.407 30.512 -4.23 Q29.311 -2.98 27.805 -3.041 Q26.299 -3.102 25.121 -4.279 L20.338 -9.013 Z"/></g><g id="Regular-S" transform="matrix(1 0 0 1 1405.73 696)"><path d="M60.852 -9.489 Q58.435 -11.905 57.104 -15.086 Q55.772 -18.266 55.772 -21.718 Q55.772 -25.17 57.104 -28.351 Q58.435 -31.532 60.852 -33.948 L68.15 -41.246 Q69.679 -42.775 70.418 -44.797 Q71.158 -46.818 71.158 -48.939 Q71.158 -50.961 70.369 -52.884 Q69.58 -54.807 68.15 -56.336 L63.317 -61.218 Q62.282 -62.253 62.306 -63.511 Q62.331 -64.768 63.367 -65.804 Q64.402 -66.839 65.66 -66.839 Q66.917 -66.839 67.953 -65.804 L72.785 -60.971 Q75.202 -58.555 76.533 -55.473 Q77.864 -52.391 77.864 -48.939 Q77.864 -45.487 76.533 -42.306 Q75.202 -39.126 72.785 -36.709 L65.487 -29.411 Q63.958 -27.784 63.12 -25.836 Q62.282 -23.888 62.282 -21.669 Q62.282 -19.549 63.169 -17.601 Q64.057 -15.653 65.487 -14.124 L70.32 -9.341 Q71.355 -8.305 71.355 -7.023 Q71.355 -5.741 70.32 -4.706 Q69.284 -3.67 67.977 -3.67 Q66.671 -3.67 65.635 -4.706 L60.852 -9.489 Z M41.422 -9.489 Q39.006 -12.004 37.625 -15.135 Q36.245 -18.266 36.245 -21.718 Q36.245 -25.17 37.625 -28.302 Q39.006 -31.433 41.422 -33.948 L48.721 -41.246 Q50.348 -42.775 51.038 -44.797 Q51.729 -46.818 51.729 -48.939 Q51.729 -50.961 50.94 -52.933 Q50.151 -54.906 48.721 -56.336 L43.888 -61.168 Q42.803 -62.204 42.828 -63.461 Q42.853 -64.719 43.839 -65.754 Q44.924 -66.79 46.206 -66.765 Q47.488 -66.741 48.524 -65.705 L53.258 -60.971 Q55.674 -58.555 57.055 -55.473 Q58.435 -52.391 58.435 -48.939 Q58.435 -45.487 57.055 -42.306 Q55.674 -39.126 53.258 -36.709 L45.959 -29.411 Q44.431 -27.784 43.642 -25.787 Q42.853 -23.789 42.853 -21.669 Q42.853 -19.549 43.691 -17.601 Q44.529 -15.653 45.959 -14.124 L50.792 -9.242 Q51.827 -8.207 51.827 -6.925 Q51.827 -5.642 50.792 -4.607 Q49.756 -3.571 48.499 -3.571 Q47.241 -3.571 46.206 -4.607 L41.422 -9.489 Z M21.895 -9.39 Q19.38 -11.905 18.098 -15.061 Q16.816 -18.217 16.816 -21.768 Q16.816 -25.22 18.147 -28.376 Q19.478 -31.532 21.895 -33.948 L29.193 -41.246 Q30.82 -42.775 31.511 -44.797 Q32.201 -46.818 32.201 -49.037 Q32.201 -51.059 31.412 -52.982 Q30.623 -54.906 29.193 -56.336 L24.36 -61.168 Q23.276 -62.204 23.349 -63.461 Q23.423 -64.719 24.459 -65.754 Q25.544 -66.839 26.752 -66.839 Q27.96 -66.839 29.045 -65.754 L33.828 -60.971 Q36.245 -58.555 37.576 -55.473 Q38.908 -52.391 38.908 -48.939 Q38.908 -45.487 37.576 -42.306 Q36.245 -39.126 33.828 -36.709 L26.53 -29.411 Q25.001 -27.784 24.212 -25.811 Q23.423 -23.839 23.423 -21.62 Q23.423 -19.499 24.262 -17.576 Q25.1 -15.653 26.53 -14.124 L31.363 -9.242 Q32.398 -8.207 32.374 -6.925 Q32.349 -5.642 31.313 -4.607 Q30.278 -3.522 28.996 -3.571 Q27.714 -3.621 26.678 -4.656 L21.895 -9.39 Z"/></g><g id="Light-S" transform="matrix(1 0 0 1 1109.75 696)"><path d="M60.358 -10.134 Q58.091 -12.411 56.856 -15.396 Q55.621 -18.38 55.621 -21.68 Q55.621 -24.981 56.867 -28 Q58.113 -31.019 60.358 -33.303 L67.657 -40.601 Q69.318 -42.252 70.143 -44.442 Q70.968 -46.633 70.968 -48.941 Q70.968 -51.15 70.094 -53.241 Q69.22 -55.331 67.657 -56.981 L62.862 -61.882 Q62.13 -62.614 62.126 -63.482 Q62.122 -64.351 62.892 -65.121 Q63.624 -65.853 64.493 -65.853 Q65.362 -65.853 66.132 -65.121 L71.002 -60.326 Q73.286 -58.034 74.541 -55.122 Q75.797 -52.21 75.797 -48.944 Q75.797 -45.677 74.541 -42.662 Q73.286 -39.648 71.002 -37.354 L63.704 -30.056 Q62.038 -28.302 61.126 -26.19 Q60.214 -24.078 60.214 -21.65 Q60.214 -19.302 61.178 -17.221 Q62.141 -15.141 63.704 -13.479 L68.499 -8.696 Q69.231 -7.945 69.25 -7.033 Q69.269 -6.12 68.499 -5.369 Q67.767 -4.618 66.839 -4.618 Q65.912 -4.618 65.161 -5.369 L60.358 -10.134 Z M42.067 -10.134 Q39.784 -12.518 38.489 -15.468 Q37.193 -18.418 37.193 -21.718 Q37.193 -25.018 38.489 -27.968 Q39.784 -30.918 42.067 -33.303 L49.366 -40.601 Q51.126 -42.252 51.902 -44.442 Q52.677 -46.633 52.677 -48.941 Q52.677 -51.15 51.803 -53.29 Q50.928 -55.43 49.366 -56.981 L44.533 -61.851 Q43.733 -62.621 43.767 -63.48 Q43.801 -64.34 44.509 -65.11 Q45.303 -65.861 46.187 -65.807 Q47.071 -65.754 47.841 -65.022 L52.613 -60.326 Q54.896 -58.034 56.201 -55.122 Q57.506 -52.21 57.506 -48.944 Q57.506 -45.677 56.201 -42.662 Q54.896 -39.648 52.613 -37.354 L45.314 -30.056 Q43.648 -28.313 42.786 -26.165 Q41.923 -24.017 41.923 -21.688 Q41.923 -19.34 42.837 -17.24 Q43.752 -15.141 45.314 -13.479 L50.109 -8.597 Q50.841 -7.846 50.86 -6.934 Q50.879 -6.022 50.109 -5.271 Q49.377 -4.52 48.499 -4.52 Q47.621 -4.52 46.87 -5.271 L42.067 -10.134 Z M23.678 -10.035 Q21.296 -12.418 20.099 -15.394 Q18.902 -18.369 18.902 -21.768 Q18.902 -25.049 20.167 -28.034 Q21.432 -31.019 23.716 -33.303 L30.976 -40.601 Q32.736 -42.252 33.512 -44.442 Q34.287 -46.633 34.287 -49.04 Q34.287 -51.249 33.413 -53.34 Q32.539 -55.43 30.976 -56.981 L26.143 -61.851 Q25.343 -62.621 25.445 -63.49 Q25.548 -64.358 26.287 -65.116 Q27.08 -65.91 27.881 -65.91 Q28.681 -65.91 29.5 -65.11 L34.322 -60.326 Q36.605 -58.06 37.861 -55.147 Q39.116 -52.235 39.116 -48.977 Q39.116 -45.7 37.861 -42.677 Q36.605 -39.655 34.322 -37.354 L27.023 -30.056 Q25.362 -28.296 24.497 -26.191 Q23.632 -24.085 23.632 -21.658 Q23.632 -19.329 24.544 -17.232 Q25.456 -15.135 27.023 -13.479 L31.818 -8.597 Q32.55 -7.846 32.554 -6.934 Q32.558 -6.022 31.807 -5.271 Q31.052 -4.464 30.151 -4.517 Q29.25 -4.569 28.518 -5.301 L23.678 -10.035 Z"/></g><g id="Thin-S" transform="matrix(1 0 0 1 814.015 696)"><path d="M59.865 -10.779 Q57.746 -12.916 56.608 -15.705 Q55.469 -18.494 55.469 -21.643 Q55.469 -24.791 56.63 -27.649 Q57.791 -30.507 59.865 -32.658 L67.164 -39.956 Q68.958 -41.729 69.868 -44.088 Q70.779 -46.447 70.779 -48.943 Q70.779 -51.34 69.819 -53.598 Q68.859 -55.856 67.164 -57.625 L62.407 -62.545 Q61.978 -62.974 61.946 -63.454 Q61.914 -63.934 62.418 -64.438 Q62.847 -64.867 63.327 -64.867 Q63.807 -64.867 64.311 -64.438 L69.22 -59.681 Q71.37 -57.513 72.55 -54.771 Q73.73 -52.03 73.73 -48.948 Q73.73 -45.866 72.55 -43.018 Q71.37 -40.17 69.22 -37.999 L61.921 -30.701 Q60.117 -28.819 59.132 -26.543 Q58.147 -24.267 58.147 -21.631 Q58.147 -19.055 59.186 -16.842 Q60.226 -14.629 61.921 -12.835 L66.678 -8.051 Q67.107 -7.585 67.145 -7.042 Q67.183 -6.5 66.678 -6.033 Q66.249 -5.567 65.701 -5.567 Q65.153 -5.567 64.687 -6.033 L59.865 -10.779 Z M42.712 -10.779 Q40.561 -13.033 39.351 -15.801 Q38.141 -18.57 38.141 -21.718 Q38.141 -24.867 39.351 -27.635 Q40.561 -30.404 42.712 -32.658 L50.01 -39.956 Q51.903 -41.729 52.764 -44.088 Q53.625 -46.447 53.625 -48.943 Q53.625 -51.34 52.666 -53.647 Q51.706 -55.954 50.01 -57.625 L45.178 -62.534 Q44.662 -63.038 44.706 -63.499 Q44.749 -63.96 45.18 -64.465 Q45.682 -64.931 46.168 -64.85 Q46.653 -64.768 47.158 -64.34 L51.968 -59.681 Q54.119 -57.513 55.348 -54.771 Q56.577 -52.03 56.577 -48.948 Q56.577 -45.866 55.348 -43.018 Q54.119 -40.17 51.968 -37.999 L44.67 -30.701 Q42.866 -28.842 41.93 -26.543 Q40.994 -24.245 40.994 -21.707 Q40.994 -19.131 41.984 -16.88 Q42.974 -14.629 44.67 -12.835 L49.426 -7.953 Q49.855 -7.486 49.893 -6.944 Q49.931 -6.401 49.426 -5.935 Q48.998 -5.468 48.499 -5.468 Q48 -5.468 47.533 -5.935 L42.712 -10.779 Z M25.46 -10.68 Q23.211 -12.931 22.1 -15.726 Q20.988 -18.521 20.988 -21.768 Q20.988 -24.878 22.187 -27.693 Q23.385 -30.507 25.536 -32.658 L32.759 -39.956 Q34.651 -41.729 35.513 -44.088 Q36.374 -46.447 36.374 -49.042 Q36.374 -51.439 35.414 -53.696 Q34.454 -55.954 32.759 -57.625 L27.926 -62.534 Q27.41 -63.038 27.541 -63.518 Q27.672 -63.998 28.114 -64.478 Q28.616 -64.981 29.009 -64.981 Q29.402 -64.981 29.955 -64.465 L34.815 -59.681 Q36.965 -57.565 38.145 -54.821 Q39.325 -52.079 39.325 -49.015 Q39.325 -45.913 38.145 -43.048 Q36.965 -40.183 34.815 -37.999 L27.516 -30.701 Q25.722 -28.808 24.781 -26.57 Q23.841 -24.332 23.841 -21.696 Q23.841 -19.158 24.826 -16.888 Q25.811 -14.617 27.516 -12.835 L32.273 -7.953 Q32.702 -7.486 32.734 -6.944 Q32.766 -6.401 32.3 -5.935 Q31.826 -5.406 31.306 -5.462 Q30.786 -5.517 30.357 -5.946 L25.46 -10.68 Z"/></g><g id="Ultralight-S" transform="matrix(1 0 0 1 517.792 696)"><path d="M59.57 -11.165 Q57.54 -13.219 56.459 -15.891 Q55.378 -18.562 55.378 -21.62 Q55.378 -24.677 56.487 -27.439 Q57.597 -30.2 59.57 -32.271 L66.868 -39.569 Q68.742 -41.415 69.703 -43.875 Q70.665 -46.336 70.665 -48.944 Q70.665 -51.454 69.654 -53.812 Q68.643 -56.17 66.868 -58.012 L62.134 -62.944 Q61.887 -63.19 61.838 -63.437 Q61.789 -63.683 62.134 -64.028 Q62.38 -64.275 62.627 -64.275 Q62.873 -64.275 63.219 -64.028 L68.15 -59.294 Q70.221 -57.2 71.355 -54.561 Q72.489 -51.921 72.489 -48.951 Q72.489 -45.98 71.355 -43.232 Q70.221 -40.483 68.15 -38.386 L60.852 -31.088 Q58.965 -29.13 57.936 -26.756 Q56.907 -24.381 56.907 -21.62 Q56.907 -18.908 57.992 -16.615 Q59.076 -14.321 60.852 -12.448 L65.586 -7.664 Q65.832 -7.368 65.882 -7.048 Q65.931 -6.727 65.586 -6.431 Q65.339 -6.136 65.019 -6.136 Q64.698 -6.136 64.402 -6.431 L59.57 -11.165 Z M43.099 -11.165 Q41.028 -13.341 39.869 -16.001 Q38.71 -18.661 38.71 -21.718 Q38.71 -24.776 39.869 -27.436 Q41.028 -30.095 43.099 -32.271 L50.397 -39.569 Q52.37 -41.415 53.282 -43.875 Q54.194 -46.336 54.194 -48.944 Q54.194 -51.454 53.184 -53.861 Q52.173 -56.269 50.397 -58.012 L45.565 -62.944 Q45.22 -63.289 45.269 -63.511 Q45.318 -63.733 45.582 -64.078 Q45.91 -64.374 46.157 -64.275 Q46.403 -64.176 46.748 -63.93 L51.581 -59.294 Q53.652 -57.2 54.836 -54.561 Q56.019 -51.921 56.019 -48.951 Q56.019 -45.98 54.836 -43.232 Q53.652 -40.483 51.581 -38.386 L44.283 -31.088 Q42.396 -29.159 41.416 -26.77 Q40.436 -24.381 40.436 -21.718 Q40.436 -19.006 41.472 -16.664 Q42.507 -14.321 44.283 -12.448 L49.017 -7.566 Q49.263 -7.27 49.312 -6.949 Q49.362 -6.629 49.017 -6.333 Q48.77 -6.037 48.499 -6.037 Q48.228 -6.037 47.932 -6.333 L43.099 -11.165 Z M26.53 -11.067 Q24.36 -13.239 23.3 -15.925 Q22.24 -18.612 22.24 -21.768 Q22.24 -24.776 23.399 -27.488 Q24.558 -30.2 26.629 -32.271 L33.828 -39.569 Q35.801 -41.415 36.713 -43.875 Q37.625 -46.336 37.625 -49.043 Q37.625 -51.552 36.615 -53.911 Q35.604 -56.269 33.828 -58.012 L28.996 -62.944 Q28.651 -63.289 28.799 -63.535 Q28.946 -63.782 29.21 -64.095 Q29.538 -64.423 29.686 -64.423 Q29.834 -64.423 30.229 -64.078 L35.111 -59.294 Q37.182 -57.267 38.316 -54.626 Q39.45 -51.985 39.45 -49.037 Q39.45 -46.04 38.316 -43.271 Q37.182 -40.501 35.111 -38.386 L27.812 -31.088 Q25.938 -29.115 24.952 -26.798 Q23.966 -24.48 23.966 -21.718 Q23.966 -19.055 24.995 -16.681 Q26.024 -14.307 27.812 -12.448 L32.546 -7.566 Q32.793 -7.27 32.842 -6.949 Q32.891 -6.629 32.596 -6.333 Q32.291 -5.971 31.999 -6.029 Q31.708 -6.086 31.461 -6.333 L26.53 -11.067 Z"/></g></g></svg>