<svg xmlns="http://www.w3.org/2000/svg" version="1.1" width="3300" height="2000"><g id="Notes"><style>
    text {
      font-family: monospace;
      text-anchor: middle;
    }
    text.emphasis {
      font-weight:bold;
    }
    text.lanchor {
      text-anchor: start;
    }
  </style><rect height="2200" id="artboard" fill="white" width="3300" x="0" y="0"/><line id="" style="fill:none;stroke:black;stroke-width:0.5;" x1="263" x2="3036" y1="292" y2="292"/><text class="lanchor emphasis" transform="matrix(1 0 0 1 263 322)">Weight/Scale Variations</text><text transform="matrix(1 0 0 1 559.711 322)">Ultralight</text><text transform="matrix(1 0 0 1 856.422 322)">Thin</text><text transform="matrix(1 0 0 1 1153.13 322)">Light</text><text transform="matrix(1 0 0 1 1449.84 322)">Regular</text><text transform="matrix(1 0 0 1 1746.56 322)">Medium</text><text transform="matrix(1 0 0 1 2043.27 322)">Semibold</text><text transform="matrix(1 0 0 1 2339.98 322)">Bold</text><text transform="matrix(1 0 0 1 2636.69 322)">Heavy</text><text transform="matrix(1 0 0 1 2933.4 322)">Black</text><text id="template-version" style="text-anchor: end;" transform="matrix(1 0 0 1 3036 1933)">Template v.1.0</text><text class="lanchor" transform="matrix(1 0 0 1 263 726)">Small</text><text class="lanchor" transform="matrix(1 0 0 1 263 1156)">Medium</text><text class="lanchor" transform="matrix(1 0 0 1 263 1586)">Large</text></g><g id="Guides"><g id="H-reference" style="fill:#27AAE1;stroke:none;" transform="matrix(1 0 0 1 339 696)"><path d="M 54.9316 0 L 57.666 0 L 30.5664 -70.459 L 28.0762 -70.459 L 0.976562 0 L 3.66211 0 L 12.9395 -24.4629 L 45.7031 -24.4629 Z M 29.1992 -67.0898 L 29.4434 -67.0898 L 44.8242 -26.709 L 13.8184 -26.709 Z"/></g><line id="Baseline-S" style="fill:none;stroke:#27AAE1;opacity:1;stroke-width:0.577;" x1="263" x2="3036" y1="696" y2="696"/><line id="Capline-S" style="fill:none;stroke:#27AAE1;opacity:1;stroke-width:0.577;" x1="263" x2="3036" y1="625.541" y2="625.541"/><g id="H-reference" style="fill:#27AAE1;stroke:none;" transform="matrix(1 0 0 1 339 1126)"><path d="M 54.9316 0 L 57.666 0 L 30.5664 -70.459 L 28.0762 -70.459 L 0.976562 0 L 3.66211 0 L 12.9395 -24.4629 L 45.7031 -24.4629 Z M 29.1992 -67.0898 L 29.4434 -67.0898 L 44.8242 -26.709 L 13.8184 -26.709 Z"/></g><line id="Baseline-M" style="fill:none;stroke:#27AAE1;opacity:1;stroke-width:0.577;" x1="263" x2="3036" y1="1126" y2="1126"/><line id="Capline-M" style="fill:none;stroke:#27AAE1;opacity:1;stroke-width:0.577;" x1="263" x2="3036" y1="1055.54" y2="1055.54"/><g id="H-reference" style="fill:#27AAE1;stroke:none;" transform="matrix(1 0 0 1 339 1556)"><path d="M 54.9316 0 L 57.666 0 L 30.5664 -70.459 L 28.0762 -70.459 L 0.976562 0 L 3.66211 0 L 12.9395 -24.4629 L 45.7031 -24.4629 Z M 29.1992 -67.0898 L 29.4434 -67.0898 L 44.8242 -26.709 L 13.8184 -26.709 Z"/></g><line id="Baseline-L" style="fill:none;stroke:#27AAE1;opacity:1;stroke-width:0.577;" x1="263" x2="3036" y1="1556" y2="1556"/><line id="Capline-L" style="fill:none;stroke:#27AAE1;opacity:1;stroke-width:0.577;" x1="263" x2="3036" y1="1485.54" y2="1485.54"/><rect height="119.336" id="left-margin" style="fill:darkred;stroke:none;opacity:0.4;" width="12.4512" x="1394.06" y="1030.79"/><rect height="119.336" id="right-margin" style="fill:darkgreen;stroke:none;opacity:0.4;" width="12.4512" x="1502.5112" y="1030.79"/><rect x="1406.5112" y="1045" width="96" height="96" fill="none" stroke="blue" stroke-dasharray="5"/><rect x="1394.06" y="1030.79" width="120.9024" height="119.336" fill="none" stroke="blue"/></g><g id="Symbols"><g id="Bold-L" transform="matrix(1 0 0 1 2266 1556)"><path d="M106.076 8.948 Q101.507 4.518 99.33 -1.085 Q97.153 -6.689 97.153 -12.655 Q97.153 -18.782 99.411 -24.467 Q101.668 -30.151 106.103 -34.585 L118.196 -46.679 Q120.454 -48.92 121.542 -51.784 Q122.631 -54.647 122.631 -57.797 Q122.631 -60.947 121.542 -63.81 Q120.454 -66.674 118.196 -68.931 L105.296 -81.67 L115.939 -92.393 L128.704 -79.408 Q132.951 -74.978 135.329 -69.375 Q137.708 -63.771 137.708 -57.966 Q137.708 -52 135.329 -46.397 Q132.951 -40.793 128.678 -36.359 L116.584 -24.265 Q114.123 -21.759 113.015 -18.914 Q111.907 -16.07 111.907 -12.977 Q111.907 -9.859 112.996 -6.944 Q114.084 -4.028 116.584 -1.529 L129.403 11.21 L118.841 21.853 L106.076 8.948 Z M66.086 8.948 Q61.678 4.518 59.421 -1.166 Q57.163 -6.85 57.163 -12.816 Q57.163 -18.782 59.421 -24.467 Q61.678 -30.151 66.112 -34.585 L78.206 -46.679 Q80.464 -48.92 81.633 -51.784 Q82.802 -54.647 82.802 -57.797 Q82.802 -60.947 81.633 -63.81 Q80.464 -66.674 78.206 -68.931 L65.468 -81.67 L75.788 -92.393 L88.712 -79.408 Q93.122 -74.978 95.42 -69.375 Q97.718 -63.771 97.718 -57.966 Q97.718 -52 95.42 -46.397 Q93.122 -40.793 88.688 -36.359 L76.594 -24.265 Q74.133 -21.759 73.025 -18.834 Q71.918 -15.908 71.918 -12.816 Q71.918 -9.698 73.006 -6.863 Q74.094 -4.028 76.594 -1.529 L89.574 11.21 L78.851 21.853 L66.086 8.948 Z M26.258 8.787 Q21.849 4.357 19.511 -1.287 Q17.173 -6.931 17.173 -12.897 Q17.173 -18.782 19.511 -24.467 Q21.849 -30.151 26.284 -34.585 L38.377 -46.84 Q40.635 -49.082 41.723 -51.945 Q42.812 -54.808 42.812 -57.958 Q42.812 -61.108 41.723 -63.972 Q40.635 -66.835 38.377 -69.092 L25.477 -81.831 L35.959 -92.232 L48.884 -79.408 Q53.293 -74.978 55.591 -69.455 Q57.889 -63.932 57.889 -58.127 Q57.889 -52.161 55.51 -46.477 Q53.132 -40.793 48.859 -36.359 L36.765 -24.265 Q34.266 -21.778 33.177 -18.833 Q32.089 -15.889 32.089 -12.82 Q32.089 -9.752 33.177 -6.89 Q34.266 -4.028 36.765 -1.529 L49.584 11.21 L39.023 21.53 L26.258 8.787 Z"/></g><g id="Semibold-L" transform="matrix(1 0 0 1 1970.27 1556)"><path d="M104.254 8.107 Q99.895 3.817 97.788 -1.576 Q95.681 -6.969 95.681 -12.725 Q95.681 -18.572 97.833 -24.011 Q99.986 -29.45 104.28 -33.744 L116.373 -45.838 Q118.841 -48.289 120.035 -51.363 Q121.229 -54.437 121.229 -57.797 Q121.229 -61.157 120.035 -64.231 Q118.841 -67.305 116.373 -69.772 L104.385 -81.67 L113.275 -90.64 L125.198 -78.567 Q129.375 -74.277 131.614 -68.884 Q133.852 -63.491 133.852 -57.896 Q133.852 -52.21 131.614 -46.852 Q129.375 -41.494 125.172 -37.2 L113.078 -25.106 Q110.478 -22.46 109.265 -19.405 Q108.052 -16.35 108.052 -12.977 Q108.052 -9.579 109.245 -6.453 Q110.439 -3.327 113.078 -0.688 L125.057 11.21 L116.177 20.1 L104.254 8.107 Z M66.928 8.107 Q62.66 3.817 60.507 -1.622 Q58.355 -7.06 58.355 -12.816 Q58.355 -18.572 60.507 -24.011 Q62.66 -29.45 66.954 -33.744 L79.047 -45.838 Q81.515 -48.289 82.754 -51.363 Q83.994 -54.437 83.994 -57.797 Q83.994 -61.157 82.754 -64.231 Q81.515 -67.305 79.047 -69.772 L67.15 -81.67 L75.788 -90.64 L87.871 -78.567 Q92.14 -74.277 94.333 -68.884 Q96.526 -63.491 96.526 -57.896 Q96.526 -52.21 94.333 -46.852 Q92.14 -41.494 87.846 -37.2 L75.753 -25.106 Q73.152 -22.46 71.939 -19.324 Q70.726 -16.189 70.726 -12.816 Q70.726 -9.417 71.919 -6.372 Q73.113 -3.327 75.753 -0.688 L87.822 11.21 L78.851 20.1 L66.928 8.107 Z M29.693 7.945 Q25.425 3.656 23.227 -1.743 Q21.029 -7.141 21.029 -12.897 Q21.029 -18.572 23.227 -24.011 Q25.425 -29.45 29.719 -33.744 L41.813 -45.999 Q44.28 -48.451 45.474 -51.524 Q46.668 -54.598 46.668 -57.958 Q46.668 -61.318 45.474 -64.392 Q44.28 -67.466 41.813 -69.934 L29.824 -81.831 L38.553 -90.549 L50.636 -78.567 Q54.905 -74.277 57.098 -68.965 Q59.291 -63.652 59.291 -58.057 Q59.291 -52.372 57.053 -46.933 Q54.814 -41.494 50.611 -37.2 L38.518 -25.106 Q35.878 -22.479 34.684 -19.324 Q33.491 -16.169 33.491 -12.82 Q33.491 -9.472 34.684 -6.4 Q35.878 -3.327 38.518 -0.688 L50.496 11.21 L41.616 19.848 L29.693 7.945 Z"/></g><g id="Medium-L" transform="matrix(1 0 0 1 1674.31 1556)"><path d="M102.887 7.475 Q98.685 3.291 96.631 -1.944 Q94.577 -7.179 94.577 -12.778 Q94.577 -18.414 96.65 -23.669 Q98.724 -28.924 102.913 -33.113 L115.006 -45.207 Q117.632 -47.816 118.904 -51.047 Q120.177 -54.279 120.177 -57.797 Q120.177 -61.315 118.904 -64.547 Q117.632 -67.778 115.006 -70.403 L103.701 -81.67 L111.277 -89.326 L122.569 -77.935 Q126.693 -73.751 128.826 -68.516 Q130.96 -63.281 130.96 -57.844 Q130.96 -52.368 128.826 -47.194 Q126.693 -42.02 122.543 -37.831 L110.449 -25.737 Q107.744 -22.986 106.452 -19.773 Q105.16 -16.56 105.16 -12.977 Q105.16 -9.368 106.432 -6.085 Q107.705 -2.801 110.449 -0.057 L121.796 11.21 L114.179 18.785 L102.887 7.475 Z M67.559 7.475 Q63.396 3.291 61.322 -1.963 Q59.249 -7.218 59.249 -12.816 Q59.249 -18.414 61.322 -23.669 Q63.396 -28.924 67.585 -33.113 L79.678 -45.207 Q82.304 -47.816 83.596 -51.047 Q84.888 -54.279 84.888 -57.797 Q84.888 -61.315 83.596 -64.547 Q82.304 -67.778 79.678 -70.403 L68.412 -81.67 L75.788 -89.326 L87.24 -77.935 Q91.404 -73.751 93.518 -68.516 Q95.632 -63.281 95.632 -57.844 Q95.632 -52.368 93.518 -47.194 Q91.404 -42.02 87.215 -37.831 L75.122 -25.737 Q72.416 -22.986 71.124 -19.693 Q69.832 -16.399 69.832 -12.816 Q69.832 -9.207 71.104 -6.004 Q72.377 -2.801 75.122 -0.057 L86.507 11.21 L78.851 18.785 L67.559 7.475 Z M32.27 7.314 Q28.107 3.13 26.014 -2.084 Q23.921 -7.299 23.921 -12.897 Q23.921 -18.414 26.014 -23.669 Q28.107 -28.924 32.295 -33.113 L44.389 -45.368 Q47.015 -47.977 48.287 -51.209 Q49.56 -54.44 49.56 -57.958 Q49.56 -61.476 48.287 -64.708 Q47.015 -67.939 44.389 -70.565 L33.084 -81.831 L40.498 -89.287 L51.951 -77.935 Q56.115 -73.751 58.229 -68.596 Q60.342 -63.442 60.342 -58.005 Q60.342 -52.529 58.209 -47.275 Q56.076 -42.02 51.926 -37.831 L39.832 -25.737 Q37.087 -23.005 35.815 -19.692 Q34.542 -16.379 34.542 -12.82 Q34.542 -9.262 35.815 -6.031 Q37.087 -2.801 39.832 -0.057 L51.179 11.21 L43.562 18.585 L32.27 7.314 Z"/></g><g id="Regular-L" transform="matrix(1 0 0 1 1378.56 1556)"><path d="M101.884 7.013 Q97.798 2.906 95.782 -2.214 Q93.767 -7.334 93.767 -12.816 Q93.767 -18.299 95.782 -23.418 Q97.798 -28.538 101.91 -32.65 L114.004 -44.744 Q116.745 -47.469 118.075 -50.816 Q119.406 -54.163 119.406 -57.797 Q119.406 -61.431 118.075 -64.778 Q116.745 -68.125 114.004 -70.866 L103.2 -81.67 L109.811 -88.362 L120.641 -77.473 Q124.727 -73.366 126.783 -68.246 Q128.839 -63.126 128.839 -57.805 Q128.839 -52.484 126.783 -47.445 Q124.727 -42.406 120.615 -38.294 L108.521 -26.2 Q105.738 -23.372 104.389 -20.043 Q103.039 -16.715 103.039 -12.977 Q103.039 -9.214 104.369 -5.815 Q105.699 -2.416 108.521 0.406 L119.406 11.21 L112.714 17.821 L101.884 7.013 Z M68.021 7.013 Q63.936 2.906 61.92 -2.214 Q59.904 -7.334 59.904 -12.816 Q59.904 -18.299 61.92 -23.418 Q63.936 -28.538 68.047 -32.65 L80.141 -44.744 Q82.883 -47.469 84.213 -50.816 Q85.543 -54.163 85.543 -57.797 Q85.543 -61.431 84.213 -64.778 Q82.883 -68.125 80.141 -70.866 L69.338 -81.67 L75.788 -88.362 L86.777 -77.473 Q90.864 -73.366 92.92 -68.246 Q94.976 -63.126 94.976 -57.805 Q94.976 -52.484 92.92 -47.445 Q90.864 -42.406 86.752 -38.294 L74.659 -26.2 Q71.876 -23.372 70.526 -19.963 Q69.176 -16.553 69.176 -12.816 Q69.176 -9.053 70.507 -5.734 Q71.837 -2.416 74.659 0.406 L85.543 11.21 L78.851 17.821 L68.021 7.013 Z M34.159 6.852 Q30.073 2.744 28.058 -2.335 Q26.042 -7.414 26.042 -12.897 Q26.042 -18.299 28.058 -23.418 Q30.073 -28.538 34.185 -32.65 L46.279 -44.905 Q49.02 -47.63 50.35 -50.977 Q51.681 -54.325 51.681 -57.958 Q51.681 -61.592 50.35 -64.939 Q49.02 -68.286 46.279 -71.027 L35.475 -81.831 L41.925 -88.362 L52.915 -77.473 Q57.002 -73.366 59.058 -68.327 Q61.114 -63.287 61.114 -57.966 Q61.114 -52.645 59.058 -47.525 Q57.002 -42.406 52.89 -38.294 L40.796 -26.2 Q37.974 -23.391 36.644 -19.962 Q35.314 -16.534 35.314 -12.82 Q35.314 -9.107 36.644 -5.762 Q37.974 -2.416 40.796 0.406 L51.681 11.21 L44.989 17.66 L34.159 6.852 Z"/></g><g id="Light-L" transform="matrix(1 0 0 1 1082.77 1556)"><path d="M100.333 6.268 Q96.428 2.327 94.508 -2.596 Q92.588 -7.52 92.588 -12.785 Q92.588 -18.051 94.51 -22.995 Q96.432 -27.94 100.359 -31.906 L112.453 -43.999 Q115.287 -46.8 116.757 -50.362 Q118.227 -53.924 118.227 -57.8 Q118.227 -61.677 116.757 -65.236 Q115.287 -68.796 112.453 -71.611 L102.487 -81.67 L107.516 -86.811 L117.602 -76.728 Q121.533 -72.771 123.496 -67.863 Q125.458 -62.955 125.458 -57.813 Q125.458 -52.67 123.496 -47.836 Q121.533 -43.003 117.576 -39.038 L105.482 -26.944 Q102.538 -23.945 101.098 -20.392 Q99.658 -16.839 99.658 -12.947 Q99.658 -8.997 101.083 -5.425 Q102.507 -1.852 105.482 1.151 L115.56 11.21 L110.419 16.24 L100.333 6.268 Z M68.766 6.268 Q64.835 2.287 62.928 -2.647 Q61.021 -7.582 61.021 -12.816 Q61.021 -18.051 62.928 -22.985 Q64.835 -27.92 68.792 -31.906 L80.886 -43.999 Q83.72 -46.8 85.19 -50.362 Q86.66 -53.924 86.66 -57.8 Q86.66 -61.677 85.19 -65.236 Q83.72 -68.796 80.886 -71.611 L70.919 -81.67 L75.788 -86.811 L86.033 -76.728 Q89.965 -72.771 91.928 -67.863 Q93.891 -62.955 93.891 -57.813 Q93.891 -52.67 91.928 -47.836 Q89.965 -43.003 86.008 -39.038 L73.914 -26.944 Q70.97 -23.982 69.531 -20.391 Q68.091 -16.801 68.091 -12.878 Q68.091 -8.898 69.515 -5.375 Q70.94 -1.852 73.914 1.151 L83.993 11.21 L78.851 16.24 L68.766 6.268 Z M37.198 6.107 Q33.267 2.128 31.36 -2.767 Q29.453 -7.663 29.453 -12.897 Q29.453 -18.02 31.391 -22.972 Q33.329 -27.924 37.286 -31.906 L49.318 -44.161 Q52.152 -46.961 53.622 -50.523 Q55.092 -54.085 55.092 -57.962 Q55.092 -61.838 53.622 -65.398 Q52.152 -68.957 49.318 -71.772 L39.351 -81.831 L44.22 -86.811 L54.466 -76.728 Q58.397 -72.866 60.36 -67.981 Q62.323 -63.097 62.323 -57.966 Q62.323 -52.864 60.36 -47.938 Q58.397 -43.012 54.441 -39.038 L42.347 -26.944 Q39.372 -23.954 37.948 -20.352 Q36.523 -16.751 36.523 -12.883 Q36.523 -9.014 37.944 -5.428 Q39.364 -1.843 42.347 1.151 L52.425 11.21 L47.284 16.078 L37.198 6.107 Z"/></g><g id="Thin-L" transform="matrix(1 0 0 1 787.282 1556)"><path d="M98.783 5.524 Q95.059 1.749 93.235 -2.978 Q91.41 -7.706 91.41 -12.754 Q91.41 -17.803 93.238 -22.573 Q95.066 -27.343 98.809 -31.162 L110.903 -43.255 Q113.83 -46.131 115.44 -49.908 Q117.049 -53.685 117.049 -57.804 Q117.049 -61.923 115.44 -65.695 Q113.83 -69.467 110.903 -72.355 L101.774 -81.67 L105.222 -85.261 L114.563 -75.984 Q118.339 -72.176 120.209 -67.48 Q122.079 -62.784 122.079 -57.82 Q122.079 -52.856 120.209 -48.228 Q118.339 -43.6 114.537 -39.782 L102.443 -27.688 Q99.338 -24.518 97.809 -20.74 Q96.279 -16.963 96.279 -12.915 Q96.279 -8.78 97.797 -5.034 Q99.315 -1.289 102.443 1.895 L111.715 11.21 L108.124 14.658 L98.783 5.524 Z M69.51 5.524 Q65.734 1.669 63.936 -3.08 Q62.137 -7.83 62.137 -12.816 Q62.137 -17.803 63.936 -22.552 Q65.734 -27.302 69.536 -31.162 L81.63 -43.255 Q84.557 -46.131 86.166 -49.908 Q87.776 -53.685 87.776 -57.804 Q87.776 -61.923 86.166 -65.695 Q84.557 -69.467 81.63 -72.355 L72.5 -81.67 L75.788 -85.261 L85.289 -75.984 Q89.066 -72.176 90.936 -67.48 Q92.806 -62.784 92.806 -57.82 Q92.806 -52.856 90.936 -48.228 Q89.066 -43.6 85.264 -39.782 L73.17 -27.688 Q70.065 -24.591 68.535 -20.82 Q67.006 -17.05 67.006 -12.94 Q67.006 -8.743 68.524 -5.016 Q70.042 -1.289 73.17 1.895 L82.442 11.21 L78.851 14.658 L69.51 5.524 Z M40.237 5.363 Q36.461 1.511 34.662 -3.2 Q32.864 -7.911 32.864 -12.897 Q32.864 -17.741 34.725 -22.525 Q36.585 -27.309 40.387 -31.162 L52.357 -43.417 Q55.284 -46.292 56.893 -50.069 Q58.503 -53.846 58.503 -57.965 Q58.503 -62.084 56.893 -65.856 Q55.284 -69.628 52.357 -72.516 L43.227 -81.831 L46.514 -85.261 L56.016 -75.984 Q59.793 -72.367 61.663 -67.636 Q63.532 -62.906 63.532 -57.966 Q63.532 -53.082 61.663 -48.351 Q59.793 -43.619 55.991 -39.782 L43.897 -27.688 Q40.769 -24.517 39.251 -20.742 Q37.733 -16.968 37.733 -12.945 Q37.733 -8.921 39.243 -5.095 Q40.753 -1.269 43.897 1.895 L53.169 11.21 L49.578 14.497 L40.237 5.363 Z"/></g><g id="Ultralight-L" transform="matrix(1 0 0 1 491.205 1556)"><path d="M97.853 5.078 Q94.237 1.402 92.47 -3.208 Q90.703 -7.817 90.703 -12.736 Q90.703 -17.654 92.475 -22.319 Q94.246 -26.984 97.879 -30.715 L109.972 -42.809 Q112.956 -45.729 114.649 -49.635 Q116.342 -53.541 116.342 -57.806 Q116.342 -62.07 114.649 -65.97 Q112.956 -69.87 109.972 -72.801 L101.346 -81.67 L103.845 -84.331 L112.74 -75.538 Q116.422 -71.819 118.237 -67.251 Q120.051 -62.682 120.051 -57.825 Q120.051 -52.967 118.237 -48.463 Q116.422 -43.958 112.714 -40.229 L100.62 -28.135 Q97.418 -24.862 95.835 -20.949 Q94.251 -17.037 94.251 -12.897 Q94.251 -8.65 95.825 -4.801 Q97.4 -0.951 100.62 2.341 L109.408 11.21 L106.748 13.709 L97.853 5.078 Z M69.956 5.078 Q66.274 1.298 64.54 -3.34 Q62.807 -7.979 62.807 -12.816 Q62.807 -17.654 64.54 -22.292 Q66.274 -26.931 69.983 -30.715 L82.076 -42.809 Q85.059 -45.729 86.752 -49.635 Q88.446 -53.541 88.446 -57.806 Q88.446 -62.07 86.752 -65.97 Q85.059 -69.87 82.076 -72.801 L73.449 -81.67 L75.788 -84.331 L84.842 -75.538 Q88.526 -71.819 90.34 -67.251 Q92.154 -62.682 92.154 -57.825 Q92.154 -52.967 90.34 -48.463 Q88.526 -43.958 84.817 -40.229 L72.724 -28.135 Q69.522 -24.957 67.938 -21.078 Q66.354 -17.198 66.354 -12.977 Q66.354 -8.65 67.929 -4.801 Q69.504 -0.951 72.724 2.341 L81.512 11.21 L78.851 13.709 L69.956 5.078 Z M42.06 4.917 Q38.377 1.141 36.644 -3.459 Q34.911 -8.059 34.911 -12.897 Q34.911 -17.573 36.725 -22.257 Q38.539 -26.941 42.248 -30.715 L54.18 -42.97 Q57.163 -45.89 58.856 -49.796 Q60.549 -53.702 60.549 -57.967 Q60.549 -62.231 58.856 -66.131 Q57.163 -70.031 54.18 -72.962 L45.553 -81.831 L47.891 -84.331 L56.946 -75.538 Q60.63 -72.067 62.444 -67.429 Q64.258 -62.791 64.258 -57.966 Q64.258 -53.214 62.444 -48.598 Q60.63 -43.982 56.921 -40.229 L44.828 -28.135 Q41.608 -24.855 40.033 -20.977 Q38.458 -17.098 38.458 -12.982 Q38.458 -8.866 40.023 -4.896 Q41.587 -0.926 44.828 2.341 L53.616 11.21 L50.955 13.548 L42.06 4.917 Z"/></g><g id="Bold-M" transform="matrix(1 0 0 1 2281.8 1126)"><path d="M81.23 0.266 Q77.438 -3.542 75.562 -8.199 Q73.688 -12.855 73.688 -17.855 Q73.688 -22.855 75.562 -27.511 Q77.438 -32.167 81.25 -35.98 L90.625 -45.355 Q92.188 -46.905 92.875 -48.781 Q93.562 -50.657 93.562 -52.724 Q93.562 -54.791 92.875 -56.666 Q92.188 -58.542 90.625 -60.105 L79.312 -71.23 L90.125 -82.042 L101.27 -70.726 Q104.938 -67.042 106.875 -62.449 Q108.812 -57.855 108.812 -52.855 Q108.812 -47.855 106.875 -43.199 Q104.938 -38.542 101.25 -34.855 L91.875 -25.48 Q90.343 -23.912 89.578 -21.957 Q88.812 -20.002 88.812 -17.917 Q88.812 -15.875 89.562 -13.896 Q90.312 -11.917 91.875 -10.355 L103.188 0.77 L92.375 11.583 L81.23 0.266 Z M49.98 0.266 Q46.188 -3.542 44.312 -8.199 Q42.438 -12.855 42.438 -17.855 Q42.438 -22.855 44.312 -27.511 Q46.188 -32.167 50 -35.98 L59.375 -45.355 Q60.938 -46.905 61.625 -48.781 Q62.312 -50.657 62.312 -52.724 Q62.312 -54.791 61.625 -56.666 Q60.938 -58.542 59.375 -60.105 L48.188 -71.23 L58.75 -82.042 L70.019 -70.726 Q73.688 -67.042 75.625 -62.449 Q77.562 -57.855 77.562 -52.855 Q77.562 -47.855 75.625 -43.199 Q73.688 -38.542 70 -34.855 L60.625 -25.48 Q59.093 -23.912 58.328 -21.957 Q57.562 -20.002 57.562 -17.917 Q57.562 -15.875 58.312 -13.896 Q59.062 -11.917 60.625 -10.355 L71.938 0.77 L61.125 11.583 L49.98 0.266 Z M18.73 0.141 Q15.062 -3.542 13.125 -8.23 Q11.188 -12.917 11.188 -17.917 Q11.188 -22.917 13.125 -27.542 Q15.062 -32.167 18.75 -35.98 L28.125 -45.48 Q29.688 -47.03 30.375 -48.906 Q31.062 -50.782 31.062 -52.849 Q31.062 -54.916 30.375 -56.791 Q29.688 -58.667 28.125 -60.23 L16.812 -71.355 L27.5 -81.917 L38.769 -70.726 Q42.562 -67.042 44.438 -62.449 Q46.312 -57.855 46.312 -52.855 Q46.312 -47.855 44.375 -43.199 Q42.438 -38.542 38.75 -34.855 L29.375 -25.48 Q27.812 -23.927 27.062 -21.926 Q26.312 -19.924 26.312 -17.858 Q26.312 -15.792 27.062 -13.855 Q27.812 -11.917 29.375 -10.355 L40.688 0.77 L29.875 11.333 L18.73 0.141 Z"/></g><g id="Semibold-M" transform="matrix(1 0 0 1 1985.97 1126)"><path d="M79.382 -0.603 Q75.807 -4.195 73.987 -8.688 Q72.166 -13.181 72.166 -17.909 Q72.166 -22.638 73.959 -27.076 Q75.753 -31.515 79.402 -35.11 L88.777 -44.485 Q90.503 -46.199 91.299 -48.319 Q92.095 -50.44 92.095 -52.724 Q92.095 -55.008 91.299 -57.128 Q90.503 -59.249 88.777 -60.974 L78.389 -71.23 L87.408 -80.249 L97.683 -69.857 Q101.188 -66.336 103.017 -61.932 Q104.845 -57.529 104.845 -52.801 Q104.845 -48.072 103.017 -43.661 Q101.188 -39.249 97.663 -35.724 L88.288 -26.349 Q86.539 -24.565 85.692 -22.392 Q84.845 -20.219 84.845 -17.917 Q84.845 -15.658 85.677 -13.461 Q86.508 -11.265 88.288 -9.485 L98.677 0.77 L89.658 9.789 L79.382 -0.603 Z M50.849 -0.603 Q47.274 -4.195 45.481 -8.661 Q43.687 -13.127 43.687 -17.855 Q43.687 -22.583 45.481 -27.049 Q47.274 -31.515 50.87 -35.11 L60.245 -44.485 Q61.97 -46.199 62.766 -48.319 Q63.562 -50.44 63.562 -52.724 Q63.562 -55.008 62.766 -57.128 Q61.97 -59.249 60.245 -60.974 L49.926 -71.23 L58.75 -80.249 L69.15 -69.857 Q72.655 -66.336 74.484 -61.932 Q76.313 -57.529 76.313 -52.801 Q76.313 -48.072 74.484 -43.661 Q72.655 -39.249 69.13 -35.724 L59.755 -26.349 Q58.006 -24.565 57.159 -22.392 Q56.313 -20.219 56.313 -17.917 Q56.313 -15.658 57.144 -13.461 Q57.976 -11.265 59.755 -9.485 L70.144 0.77 L61.125 9.789 L50.849 -0.603 Z M22.317 -0.728 Q18.812 -4.249 16.983 -8.719 Q15.155 -13.189 15.155 -17.917 Q15.155 -22.646 16.983 -27.081 Q18.812 -31.515 22.337 -35.11 L31.712 -44.61 Q33.437 -46.324 34.233 -48.444 Q35.03 -50.565 35.03 -52.849 Q35.03 -55.133 34.233 -57.253 Q33.437 -59.374 31.712 -61.099 L21.323 -71.355 L30.217 -80.178 L40.617 -69.857 Q44.193 -66.336 45.986 -61.932 Q47.78 -57.529 47.78 -52.801 Q47.78 -48.072 45.951 -43.661 Q44.122 -39.249 40.598 -35.724 L31.223 -26.349 Q29.443 -24.579 28.611 -22.36 Q27.78 -20.141 27.78 -17.858 Q27.78 -15.575 28.611 -13.42 Q29.443 -11.265 31.223 -9.485 L41.611 0.77 L32.592 9.594 L22.317 -0.728 Z"/></g><g id="Medium-M" transform="matrix(1 0 0 1 1689.91 1126)"><path d="M77.996 -1.255 Q74.584 -4.684 72.804 -9.055 Q71.025 -13.426 71.025 -17.95 Q71.025 -22.475 72.757 -26.75 Q74.489 -31.026 78.016 -34.458 L87.391 -43.833 Q89.239 -45.669 90.117 -47.973 Q90.995 -50.277 90.995 -52.724 Q90.995 -55.171 90.117 -57.475 Q89.239 -59.779 87.391 -61.627 L77.696 -71.23 L85.37 -78.904 L94.993 -69.205 Q98.375 -65.806 100.122 -61.545 Q101.87 -57.284 101.87 -52.76 Q101.87 -48.235 100.122 -44.007 Q98.375 -39.779 94.973 -36.377 L85.598 -27.002 Q83.685 -25.054 82.777 -22.718 Q81.87 -20.382 81.87 -17.917 Q81.87 -15.495 82.762 -13.135 Q83.655 -10.776 85.598 -8.833 L95.293 0.77 L87.62 8.444 L77.996 -1.255 Z M51.502 -1.255 Q48.09 -4.684 46.357 -9.007 Q44.625 -13.33 44.625 -17.855 Q44.625 -22.379 46.357 -26.703 Q48.09 -31.026 51.522 -34.458 L60.897 -43.833 Q62.745 -45.669 63.622 -47.973 Q64.5 -50.277 64.5 -52.724 Q64.5 -55.171 63.622 -57.475 Q62.745 -59.779 60.897 -61.627 L51.231 -71.23 L58.75 -78.904 L68.498 -69.205 Q71.88 -65.806 73.628 -61.545 Q75.375 -57.284 75.375 -52.76 Q75.375 -48.235 73.628 -44.007 Q71.88 -39.779 68.478 -36.377 L59.103 -27.002 Q57.191 -25.054 56.283 -22.718 Q55.375 -20.382 55.375 -17.917 Q55.375 -15.495 56.268 -13.135 Q57.16 -10.776 59.103 -8.833 L68.799 0.77 L61.125 8.444 L51.502 -1.255 Z M25.007 -1.38 Q21.625 -4.779 19.878 -9.086 Q18.13 -13.393 18.13 -17.917 Q18.13 -22.442 19.878 -26.734 Q21.625 -31.026 25.027 -34.458 L34.402 -43.958 Q36.25 -45.794 37.128 -48.098 Q38.005 -50.402 38.005 -52.849 Q38.005 -55.296 37.128 -57.6 Q36.25 -59.904 34.402 -61.752 L24.706 -71.355 L32.255 -78.874 L42.003 -69.205 Q45.416 -65.806 47.148 -61.545 Q48.88 -57.284 48.88 -52.76 Q48.88 -48.235 47.133 -44.007 Q45.386 -39.779 41.984 -36.377 L32.609 -27.002 Q30.666 -25.069 29.773 -22.687 Q28.88 -20.304 28.88 -17.858 Q28.88 -15.412 29.773 -13.094 Q30.666 -10.776 32.609 -8.833 L42.304 0.77 L34.63 8.289 L25.007 -1.38 Z"/></g><g id="Regular-M" transform="matrix(1 0 0 1 1394.06 1126)"><path d="M76.98 -1.734 Q73.688 -5.042 71.938 -9.324 Q70.188 -13.605 70.188 -17.98 Q70.188 -22.355 71.875 -26.511 Q73.562 -30.667 77 -33.98 L86.375 -43.355 Q88.312 -45.28 89.25 -47.718 Q90.188 -50.157 90.188 -52.724 Q90.188 -55.291 89.25 -57.729 Q88.312 -60.167 86.375 -62.105 L77.188 -71.23 L83.875 -77.917 L93.02 -68.726 Q96.312 -65.417 98 -61.261 Q99.688 -57.105 99.688 -52.73 Q99.688 -48.355 98 -44.261 Q96.312 -40.167 93 -36.855 L83.625 -27.48 Q81.593 -25.412 80.64 -22.957 Q79.688 -20.502 79.688 -17.917 Q79.688 -15.375 80.625 -12.896 Q81.562 -10.417 83.625 -8.355 L92.812 0.77 L86.125 7.458 L76.98 -1.734 Z M51.98 -1.734 Q48.688 -5.042 47 -9.261 Q45.312 -13.48 45.312 -17.855 Q45.312 -22.23 47 -26.449 Q48.688 -30.667 52 -33.98 L61.375 -43.355 Q63.312 -45.28 64.25 -47.718 Q65.188 -50.157 65.188 -52.724 Q65.188 -55.291 64.25 -57.729 Q63.312 -60.167 61.375 -62.105 L52.188 -71.23 L58.75 -77.917 L68.019 -68.726 Q71.312 -65.417 73 -61.261 Q74.688 -57.105 74.688 -52.73 Q74.688 -48.355 73 -44.261 Q71.312 -40.167 68 -36.855 L58.625 -27.48 Q56.593 -25.412 55.64 -22.957 Q54.688 -20.502 54.688 -17.917 Q54.688 -15.375 55.625 -12.896 Q56.562 -10.417 58.625 -8.355 L67.812 0.77 L61.125 7.458 L51.98 -1.734 Z M26.98 -1.859 Q23.688 -5.167 22 -9.355 Q20.312 -13.542 20.312 -17.917 Q20.312 -22.292 22 -26.48 Q23.688 -30.667 27 -33.98 L36.375 -43.48 Q38.312 -45.405 39.25 -47.843 Q40.188 -50.282 40.188 -52.849 Q40.188 -55.416 39.25 -57.854 Q38.312 -60.292 36.375 -62.23 L27.188 -71.355 L33.75 -77.917 L43.019 -68.726 Q46.312 -65.417 48 -61.261 Q49.688 -57.105 49.688 -52.73 Q49.688 -48.355 48 -44.261 Q46.312 -40.167 43 -36.855 L33.625 -27.48 Q31.562 -25.427 30.625 -22.926 Q29.688 -20.424 29.688 -17.858 Q29.688 -15.292 30.625 -12.855 Q31.562 -10.417 33.625 -8.355 L42.812 0.77 L36.125 7.333 L26.98 -1.859 Z"/></g><g id="Light-M" transform="matrix(1 0 0 1 1098.18 1126)"><path d="M76.355 -2.551 Q73.251 -5.683 71.623 -9.716 Q69.995 -13.749 69.995 -17.932 Q69.995 -22.115 71.575 -26.066 Q73.154 -30.018 76.375 -33.163 L85.75 -42.538 Q87.856 -44.617 88.901 -47.269 Q89.947 -49.922 89.947 -52.726 Q89.947 -55.531 88.901 -58.181 Q87.856 -60.832 85.75 -62.922 L77.452 -71.23 L82.433 -76.235 L90.76 -67.909 Q93.885 -64.757 95.476 -60.817 Q97.067 -56.876 97.067 -52.736 Q97.067 -48.595 95.476 -44.712 Q93.885 -40.829 90.74 -37.672 L81.365 -28.297 Q79.159 -26.069 78.113 -23.405 Q77.067 -20.742 77.067 -17.893 Q77.067 -15.063 78.101 -12.415 Q79.135 -9.768 81.365 -7.538 L89.687 0.77 L84.683 5.751 L76.355 -2.551 Z M52.797 -2.551 Q49.673 -5.695 48.094 -9.683 Q46.514 -13.672 46.514 -17.855 Q46.514 -22.038 48.094 -26.026 Q49.673 -30.015 52.817 -33.163 L62.192 -42.538 Q64.298 -44.617 65.344 -47.269 Q66.389 -49.922 66.389 -52.726 Q66.389 -55.531 65.344 -58.181 Q64.298 -60.832 62.192 -62.922 L53.894 -71.23 L58.75 -76.235 L67.202 -67.909 Q70.327 -64.757 71.918 -60.817 Q73.51 -56.876 73.51 -52.736 Q73.51 -48.595 71.918 -44.712 Q70.327 -40.829 67.183 -37.672 L57.808 -28.297 Q55.601 -26.083 54.555 -23.437 Q53.51 -20.79 53.51 -17.941 Q53.51 -15.111 54.543 -12.439 Q55.577 -9.768 57.808 -7.538 L66.13 0.77 L61.125 5.751 L52.797 -2.551 Z M29.239 -2.676 Q26.116 -5.818 24.536 -9.776 Q22.957 -13.735 22.957 -17.917 Q22.957 -22.076 24.56 -26.047 Q26.164 -30.018 29.308 -33.163 L38.635 -42.663 Q40.74 -44.742 41.786 -47.394 Q42.832 -50.047 42.832 -52.851 Q42.832 -55.656 41.786 -58.306 Q40.74 -60.957 38.635 -63.047 L30.337 -71.355 L35.192 -76.235 L43.645 -67.909 Q46.769 -64.79 48.361 -60.848 Q49.952 -56.907 49.952 -52.778 Q49.952 -48.625 48.361 -44.731 Q46.769 -40.838 43.625 -37.672 L34.25 -28.297 Q32.019 -26.076 30.986 -23.406 Q29.952 -20.737 29.952 -17.906 Q29.952 -15.076 30.983 -12.419 Q32.013 -9.761 34.25 -7.538 L42.572 0.77 L37.567 5.626 L29.239 -2.676 Z"/></g><g id="Thin-M" transform="matrix(1 0 0 1 802.565 1126)"><path d="M75.73 -3.368 Q72.814 -6.324 71.309 -10.109 Q69.803 -13.893 69.803 -17.884 Q69.803 -21.874 71.274 -25.622 Q72.745 -29.369 75.75 -32.345 L85.125 -41.72 Q87.399 -43.954 88.553 -46.82 Q89.707 -49.687 89.707 -52.729 Q89.707 -55.771 88.553 -58.634 Q87.399 -61.496 85.125 -63.74 L77.716 -71.23 L80.99 -74.552 L88.501 -67.092 Q91.457 -64.097 92.952 -60.372 Q94.447 -56.647 94.447 -52.742 Q94.447 -48.836 92.952 -45.163 Q91.457 -41.491 88.481 -38.49 L79.106 -29.115 Q76.725 -26.725 75.586 -23.854 Q74.447 -20.983 74.447 -17.869 Q74.447 -14.75 75.577 -11.935 Q76.707 -9.119 79.106 -6.72 L86.562 0.77 L83.24 4.044 L75.73 -3.368 Z M53.614 -3.368 Q50.659 -6.347 49.188 -10.106 Q47.716 -13.865 47.716 -17.855 Q47.716 -21.845 49.188 -25.604 Q50.659 -29.363 53.635 -32.345 L63.01 -41.72 Q65.284 -43.954 66.438 -46.82 Q67.591 -49.687 67.591 -52.729 Q67.591 -55.771 66.438 -58.634 Q65.284 -61.496 63.01 -63.74 L55.601 -71.23 L58.75 -74.552 L66.385 -67.092 Q69.341 -64.097 70.837 -60.372 Q72.332 -56.647 72.332 -52.742 Q72.332 -48.836 70.837 -45.163 Q69.341 -41.491 66.365 -38.49 L56.99 -29.115 Q54.609 -26.753 53.471 -23.916 Q52.332 -21.079 52.332 -17.966 Q52.332 -14.846 53.462 -11.983 Q54.591 -9.119 56.99 -6.72 L64.447 0.77 L61.125 4.044 L53.614 -3.368 Z M31.499 -3.493 Q28.543 -6.468 27.072 -10.197 Q25.601 -13.927 25.601 -17.917 Q25.601 -21.86 27.12 -25.615 Q28.639 -29.369 31.615 -32.345 L40.894 -41.845 Q43.168 -44.079 44.322 -46.945 Q45.476 -49.812 45.476 -52.854 Q45.476 -55.896 44.322 -58.759 Q43.168 -61.621 40.894 -63.865 L33.486 -71.355 L36.635 -74.552 L44.269 -67.092 Q47.226 -64.162 48.721 -60.436 Q50.216 -56.709 50.216 -52.826 Q50.216 -48.895 48.721 -45.201 Q47.226 -41.508 44.25 -38.49 L34.875 -29.115 Q32.476 -26.725 31.346 -23.887 Q30.216 -21.049 30.216 -17.954 Q30.216 -14.86 31.34 -11.982 Q32.464 -9.105 34.875 -6.72 L42.332 0.77 L39.01 3.919 L31.499 -3.493 Z"/></g><g id="Ultralight-M" transform="matrix(1 0 0 1 506.415 1126)"><path d="M75.355 -3.859 Q72.552 -6.708 71.12 -10.344 Q69.688 -13.98 69.688 -17.855 Q69.688 -21.73 71.094 -25.355 Q72.5 -28.98 75.375 -31.855 L84.75 -41.23 Q87.125 -43.556 88.344 -46.551 Q89.562 -49.545 89.562 -52.73 Q89.562 -55.916 88.344 -58.905 Q87.125 -61.895 84.75 -64.23 L77.875 -71.23 L80.125 -73.542 L87.145 -66.601 Q90 -63.7 91.438 -60.105 Q92.875 -56.51 92.875 -52.745 Q92.875 -48.98 91.438 -45.434 Q90 -41.888 87.125 -38.98 L77.75 -29.605 Q75.264 -27.118 74.07 -24.123 Q72.875 -21.127 72.875 -17.855 Q72.875 -14.563 74.062 -11.646 Q75.25 -8.73 77.75 -6.23 L84.688 0.77 L82.375 3.02 L75.355 -3.859 Z M54.105 -3.859 Q51.25 -6.738 49.844 -10.359 Q48.438 -13.98 48.438 -17.855 Q48.438 -21.73 49.844 -25.351 Q51.25 -28.972 54.125 -31.855 L63.5 -41.23 Q65.875 -43.556 67.094 -46.551 Q68.312 -49.545 68.312 -52.73 Q68.312 -55.916 67.094 -58.905 Q65.875 -61.895 63.5 -64.23 L56.625 -71.23 L58.75 -73.542 L65.894 -66.601 Q68.75 -63.7 70.188 -60.105 Q71.625 -56.51 71.625 -52.745 Q71.625 -48.98 70.188 -45.434 Q68.75 -41.888 65.875 -38.98 L56.5 -29.605 Q54.014 -27.155 52.819 -24.204 Q51.625 -21.252 51.625 -17.98 Q51.625 -14.688 52.812 -11.709 Q54 -8.73 56.5 -6.23 L63.438 0.77 L61.125 3.02 L54.105 -3.859 Z M32.855 -3.984 Q30 -6.858 28.594 -10.45 Q27.188 -14.042 27.188 -17.917 Q27.188 -21.73 28.656 -25.355 Q30.125 -28.98 33 -31.855 L42.25 -41.355 Q44.625 -43.681 45.844 -46.676 Q47.062 -49.67 47.062 -52.855 Q47.062 -56.041 45.844 -59.03 Q44.625 -62.02 42.25 -64.355 L35.375 -71.355 L37.5 -73.542 L44.644 -66.601 Q47.5 -63.786 48.938 -60.188 Q50.375 -56.591 50.375 -52.855 Q50.375 -49.056 48.938 -45.483 Q47.5 -41.91 44.625 -38.98 L35.25 -29.605 Q32.75 -27.115 31.562 -24.176 Q30.375 -21.237 30.375 -17.983 Q30.375 -14.73 31.554 -11.721 Q32.734 -8.711 35.25 -6.23 L42.188 0.77 L39.875 2.895 L32.855 -3.984 Z"/></g><g id="Bold-S" transform="matrix(1 0 0 1 2294.23 696)"><path d="M64.189 -7.914 Q61.394 -10.722 59.964 -14.198 Q58.534 -17.675 58.534 -21.62 Q58.534 -25.565 60.013 -29.14 Q61.493 -32.715 64.205 -35.526 L71.503 -42.824 Q72.736 -44.047 73.278 -45.626 Q73.821 -47.205 73.821 -48.934 Q73.821 -50.565 73.229 -52.045 Q72.637 -53.525 71.503 -54.758 L62.676 -63.535 L70.615 -71.376 L79.31 -62.546 Q82.007 -59.837 83.535 -56.41 Q85.064 -52.982 85.064 -49.037 Q85.064 -45.092 83.535 -41.468 Q82.007 -37.844 79.294 -35.131 L71.996 -27.833 Q70.886 -26.596 70.184 -25.054 Q69.481 -23.511 69.481 -21.669 Q69.481 -19.959 70.221 -18.398 Q70.961 -16.836 71.996 -15.702 L80.823 -7.023 L72.884 0.916 L64.189 -7.914 Z M39.829 -7.914 Q37.034 -10.82 35.505 -14.297 Q33.976 -17.773 33.976 -21.718 Q33.976 -25.663 35.505 -29.14 Q37.034 -32.616 39.845 -35.526 L47.143 -42.824 Q48.474 -44.047 48.967 -45.626 Q49.46 -47.205 49.46 -48.934 Q49.46 -50.565 48.869 -52.094 Q48.277 -53.624 47.143 -54.758 L38.414 -63.437 L46.157 -71.376 L54.851 -62.546 Q57.548 -59.837 59.126 -56.41 Q60.704 -52.982 60.704 -49.037 Q60.704 -45.092 59.126 -41.468 Q57.548 -37.844 54.836 -35.131 L47.537 -27.833 Q46.427 -26.596 45.774 -25.004 Q45.121 -23.412 45.121 -21.669 Q45.121 -19.959 45.811 -18.398 Q46.502 -16.836 47.537 -15.702 L56.364 -6.925 L48.524 0.916 L39.829 -7.914 Z M15.37 -7.815 Q12.575 -10.623 11.095 -14.174 Q9.616 -17.724 9.616 -21.768 Q9.616 -25.713 11.145 -29.214 Q12.673 -32.715 15.386 -35.526 L22.684 -42.824 Q24.015 -44.047 24.508 -45.626 Q25.001 -47.205 25.001 -49.033 Q25.001 -50.663 24.41 -52.143 Q23.818 -53.624 22.684 -54.758 L13.857 -63.437 L21.796 -71.179 L30.49 -62.546 Q33.286 -59.837 34.765 -56.41 Q36.245 -52.982 36.245 -49.037 Q36.245 -45.092 34.716 -41.468 Q33.187 -37.844 30.475 -35.131 L23.177 -27.833 Q22.043 -26.608 21.402 -25.029 Q20.761 -23.45 20.761 -21.622 Q20.761 -19.894 21.451 -18.365 Q22.141 -16.836 23.177 -15.702 L32.004 -6.925 L24.065 0.817 L15.37 -7.815 Z"/></g><g id="Semibold-S" transform="matrix(1 0 0 1 1998.1 696)"><path d="M62.731 -8.6 Q60.108 -11.236 58.721 -14.584 Q57.333 -17.932 57.333 -21.663 Q57.333 -25.393 58.748 -28.797 Q60.164 -32.201 62.747 -34.84 L70.045 -42.138 Q71.407 -43.49 72.035 -45.261 Q72.663 -47.033 72.663 -48.934 Q72.663 -50.736 71.986 -52.409 Q71.308 -54.082 70.045 -55.444 L61.947 -63.535 L68.472 -69.961 L76.481 -61.86 Q79.048 -59.28 80.491 -56.002 Q81.934 -52.725 81.934 -48.995 Q81.934 -45.264 80.491 -41.832 Q79.048 -38.401 76.465 -35.817 L69.166 -28.519 Q67.884 -27.111 67.118 -25.397 Q66.351 -23.682 66.351 -21.669 Q66.351 -19.787 67.155 -18.055 Q67.959 -16.322 69.166 -15.016 L77.264 -7.023 L70.74 -0.499 L62.731 -8.6 Z M40.515 -8.6 Q37.891 -11.335 36.427 -14.661 Q34.962 -17.988 34.962 -21.718 Q34.962 -25.449 36.427 -28.775 Q37.891 -32.102 40.531 -34.84 L47.829 -42.138 Q49.289 -43.49 49.868 -45.261 Q50.447 -47.033 50.447 -48.934 Q50.447 -50.736 49.769 -52.459 Q49.092 -54.181 47.829 -55.444 L39.787 -63.437 L46.157 -69.961 L54.165 -61.86 Q56.733 -59.28 58.225 -56.002 Q59.718 -52.725 59.718 -48.995 Q59.718 -45.264 58.225 -41.832 Q56.733 -38.401 54.149 -35.817 L46.851 -28.519 Q45.569 -27.111 44.852 -25.347 Q44.135 -23.584 44.135 -21.669 Q44.135 -19.787 44.889 -18.055 Q45.644 -16.322 46.851 -15.016 L54.949 -6.925 L48.524 -0.499 L40.515 -8.6 Z M18.199 -8.501 Q15.533 -11.18 14.14 -14.559 Q12.746 -17.938 12.746 -21.768 Q12.746 -25.498 14.189 -28.849 Q15.632 -32.201 18.215 -34.84 L25.514 -42.138 Q26.974 -43.49 27.553 -45.261 Q28.131 -47.033 28.131 -49.033 Q28.131 -50.835 27.454 -52.508 Q26.776 -54.181 25.514 -55.444 L17.416 -63.437 L23.94 -69.807 L31.948 -61.86 Q34.572 -59.28 35.987 -56.002 Q37.402 -52.725 37.402 -48.995 Q37.402 -45.264 35.959 -41.832 Q34.516 -38.401 31.933 -35.817 L24.635 -28.519 Q23.329 -27.123 22.624 -25.372 Q21.918 -23.621 21.918 -21.622 Q21.918 -19.722 22.673 -18.022 Q23.428 -16.322 24.635 -15.016 L32.733 -6.925 L26.208 -0.555 L18.199 -8.501 Z"/></g><g id="Medium-S" transform="matrix(1 0 0 1 1701.85 696)"><path d="M61.638 -9.114 Q59.143 -11.622 57.788 -14.874 Q56.433 -18.125 56.433 -21.695 Q56.433 -25.265 57.8 -28.54 Q59.166 -31.815 61.654 -34.325 L68.952 -41.623 Q70.41 -43.072 71.102 -44.988 Q71.795 -46.905 71.795 -48.934 Q71.795 -50.865 71.053 -52.683 Q70.311 -54.5 68.952 -55.958 L61.4 -63.535 L66.864 -68.9 L74.358 -61.346 Q76.829 -58.861 78.208 -55.697 Q79.586 -52.532 79.586 -48.962 Q79.586 -45.393 78.208 -42.106 Q76.829 -38.819 74.342 -36.332 L67.044 -29.034 Q65.633 -27.497 64.818 -25.654 Q64.003 -23.811 64.003 -21.669 Q64.003 -19.659 64.856 -17.797 Q65.708 -15.936 67.044 -14.502 L74.595 -7.023 L69.132 -1.56 L61.638 -9.114 Z M41.029 -9.114 Q38.534 -11.721 37.118 -14.935 Q35.702 -18.149 35.702 -21.718 Q35.702 -25.288 37.118 -28.502 Q38.534 -31.716 41.045 -34.325 L48.343 -41.623 Q49.9 -43.072 50.543 -44.988 Q51.186 -46.905 51.186 -48.934 Q51.186 -50.865 50.445 -52.732 Q49.703 -54.599 48.343 -55.958 L40.816 -63.437 L46.157 -68.9 L53.65 -61.346 Q56.122 -58.861 57.55 -55.697 Q58.978 -52.532 58.978 -48.962 Q58.978 -45.393 57.55 -42.106 Q56.122 -38.819 53.635 -36.332 L46.337 -29.034 Q44.926 -27.497 44.161 -25.605 Q43.395 -23.712 43.395 -21.669 Q43.395 -19.659 44.198 -17.797 Q45.001 -15.936 46.337 -14.502 L53.888 -6.925 L48.524 -1.56 L41.029 -9.114 Z M20.322 -9.016 Q17.753 -11.599 16.423 -14.849 Q15.094 -18.099 15.094 -21.768 Q15.094 -25.338 16.472 -28.576 Q17.851 -31.815 20.338 -34.325 L27.636 -41.623 Q29.193 -43.072 29.836 -44.988 Q30.479 -46.905 30.479 -49.033 Q30.479 -50.963 29.738 -52.781 Q28.996 -54.599 27.636 -55.958 L20.085 -63.437 L25.548 -68.777 L33.042 -61.346 Q35.537 -58.861 36.904 -55.697 Q38.271 -52.532 38.271 -48.962 Q38.271 -45.393 36.892 -42.106 Q35.514 -38.819 33.026 -36.332 L25.728 -29.034 Q24.294 -27.509 23.54 -25.629 Q22.787 -23.75 22.787 -21.622 Q22.787 -19.594 23.59 -17.765 Q24.393 -15.936 25.728 -14.502 L33.28 -6.925 L27.816 -1.584 L20.322 -9.016 Z"/></g><g id="Regular-S" transform="matrix(1 0 0 1 1405.73 696)"><path d="M60.836 -9.492 Q58.435 -11.905 57.104 -15.086 Q55.772 -18.266 55.772 -21.718 Q55.772 -25.17 57.104 -28.351 Q58.435 -31.532 60.852 -33.948 L68.15 -41.246 Q69.679 -42.765 70.418 -44.788 Q71.158 -46.81 71.158 -48.934 Q71.158 -50.959 70.369 -52.883 Q69.58 -54.807 68.15 -56.336 L61 -63.535 L65.684 -68.121 L72.801 -60.968 Q75.202 -58.555 76.533 -55.473 Q77.864 -52.391 77.864 -48.939 Q77.864 -45.487 76.533 -42.306 Q75.202 -39.126 72.785 -36.709 L65.487 -29.411 Q63.982 -27.78 63.132 -25.843 Q62.282 -23.905 62.282 -21.669 Q62.282 -19.565 63.169 -17.609 Q64.057 -15.653 65.487 -14.124 L72.637 -7.023 L67.953 -2.339 L60.836 -9.492 Z M41.407 -9.492 Q39.006 -12.004 37.625 -15.135 Q36.245 -18.266 36.245 -21.718 Q36.245 -25.17 37.625 -28.302 Q39.006 -31.433 41.422 -33.948 L48.721 -41.246 Q50.348 -42.765 51.038 -44.788 Q51.729 -46.81 51.729 -48.934 Q51.729 -50.959 50.94 -52.932 Q50.151 -54.906 48.721 -56.336 L41.57 -63.437 L46.157 -68.121 L53.273 -60.968 Q55.674 -58.555 57.055 -55.473 Q58.435 -52.391 58.435 -48.939 Q58.435 -45.487 57.055 -42.306 Q55.674 -39.126 53.258 -36.709 L45.959 -29.411 Q44.454 -27.78 43.653 -25.793 Q42.853 -23.807 42.853 -21.669 Q42.853 -19.565 43.691 -17.609 Q44.529 -15.653 45.959 -14.124 L53.11 -6.925 L48.524 -2.339 L41.407 -9.492 Z M21.879 -9.393 Q19.38 -11.905 18.098 -15.061 Q16.816 -18.217 16.816 -21.768 Q16.816 -25.22 18.147 -28.376 Q19.478 -31.532 21.895 -33.948 L29.193 -41.246 Q30.82 -42.765 31.511 -44.788 Q32.201 -46.81 32.201 -49.033 Q32.201 -51.058 31.412 -52.982 Q30.623 -54.906 29.193 -56.336 L22.043 -63.437 L26.727 -68.023 L33.844 -60.968 Q36.245 -58.555 37.576 -55.473 Q38.908 -52.391 38.908 -48.939 Q38.908 -45.487 37.576 -42.306 Q36.245 -39.126 33.828 -36.709 L26.53 -29.411 Q25.001 -27.792 24.212 -25.818 Q23.423 -23.844 23.423 -21.622 Q23.423 -19.499 24.262 -17.576 Q25.1 -15.653 26.53 -14.124 L33.68 -6.925 L28.996 -2.339 L21.879 -9.393 Z"/></g><g id="Light-S" transform="matrix(1 0 0 1 1109.75 696)"><path d="M60.343 -10.137 Q58.091 -12.411 56.856 -15.396 Q55.621 -18.38 55.621 -21.68 Q55.621 -24.981 56.867 -28 Q58.113 -31.019 60.358 -33.303 L67.657 -40.601 Q69.318 -42.242 70.143 -44.433 Q70.968 -46.625 70.968 -48.936 Q70.968 -51.149 70.094 -53.24 Q69.22 -55.331 67.657 -56.981 L61.208 -63.535 L64.546 -66.794 L71.018 -60.323 Q73.286 -58.034 74.541 -55.122 Q75.797 -52.21 75.797 -48.944 Q75.797 -45.677 74.541 -42.662 Q73.286 -39.648 71.002 -37.354 L63.704 -30.056 Q62.062 -28.298 61.138 -26.196 Q60.214 -24.095 60.214 -21.65 Q60.214 -19.318 61.178 -17.229 Q62.141 -15.141 63.704 -13.479 L70.171 -7.023 L66.815 -3.685 L60.343 -10.137 Z M42.051 -10.137 Q39.784 -12.518 38.489 -15.468 Q37.193 -18.418 37.193 -21.718 Q37.193 -25.018 38.489 -27.968 Q39.784 -30.918 42.067 -33.303 L49.366 -40.601 Q51.126 -42.242 51.902 -44.433 Q52.677 -46.625 52.677 -48.936 Q52.677 -51.149 51.803 -53.289 Q50.928 -55.43 49.366 -56.981 L42.917 -63.437 L46.157 -66.794 L52.628 -60.323 Q54.896 -58.034 56.201 -55.122 Q57.506 -52.21 57.506 -48.944 Q57.506 -45.677 56.201 -42.662 Q54.896 -39.648 52.613 -37.354 L45.314 -30.056 Q43.672 -28.309 42.798 -26.172 Q41.923 -24.034 41.923 -21.688 Q41.923 -19.356 42.837 -17.248 Q43.752 -15.141 45.314 -13.479 L51.782 -6.925 L48.524 -3.685 L42.051 -10.137 Z M23.662 -10.038 Q21.296 -12.418 20.099 -15.394 Q18.902 -18.369 18.902 -21.768 Q18.902 -25.049 20.167 -28.034 Q21.432 -31.019 23.716 -33.303 L30.976 -40.601 Q32.736 -42.242 33.512 -44.433 Q34.287 -46.625 34.287 -49.035 Q34.287 -51.247 33.413 -53.339 Q32.539 -55.43 30.976 -56.981 L24.527 -63.437 L27.865 -66.695 L34.337 -60.323 Q36.605 -58.06 37.861 -55.147 Q39.116 -52.235 39.116 -48.977 Q39.116 -45.7 37.861 -42.677 Q36.605 -39.655 34.322 -37.354 L27.023 -30.056 Q25.362 -28.304 24.497 -26.197 Q23.632 -24.091 23.632 -21.66 Q23.632 -19.329 24.544 -17.232 Q25.456 -15.135 27.023 -13.479 L33.491 -6.925 L30.134 -3.685 L23.662 -10.038 Z"/></g><g id="Thin-S" transform="matrix(1 0 0 1 814.015 696)"><path d="M59.849 -10.781 Q57.746 -12.916 56.608 -15.705 Q55.469 -18.494 55.469 -21.643 Q55.469 -24.791 56.63 -27.649 Q57.791 -30.507 59.865 -32.658 L67.164 -39.956 Q68.958 -41.719 69.868 -44.079 Q70.779 -46.439 70.779 -48.938 Q70.779 -51.339 69.819 -53.597 Q68.859 -55.856 67.164 -57.625 L61.417 -63.535 L63.408 -65.466 L69.236 -59.679 Q71.37 -57.513 72.55 -54.771 Q73.73 -52.03 73.73 -48.948 Q73.73 -45.866 72.55 -43.018 Q71.37 -40.17 69.22 -37.999 L61.921 -30.701 Q60.141 -28.815 59.144 -26.55 Q58.147 -24.285 58.147 -21.631 Q58.147 -19.071 59.186 -16.85 Q60.226 -14.629 61.921 -12.835 L67.706 -7.023 L65.677 -5.032 L59.849 -10.781 Z M42.696 -10.781 Q40.561 -13.033 39.351 -15.801 Q38.141 -18.57 38.141 -21.718 Q38.141 -24.867 39.351 -27.635 Q40.561 -30.404 42.712 -32.658 L50.01 -39.956 Q51.903 -41.719 52.764 -44.079 Q53.625 -46.439 53.625 -48.938 Q53.625 -51.339 52.666 -53.646 Q51.706 -55.954 50.01 -57.625 L44.264 -63.437 L46.157 -65.466 L51.983 -59.679 Q54.119 -57.513 55.348 -54.771 Q56.577 -52.03 56.577 -48.948 Q56.577 -45.866 55.348 -43.018 Q54.119 -40.17 51.968 -37.999 L44.67 -30.701 Q42.889 -28.838 41.942 -26.55 Q40.994 -24.262 40.994 -21.707 Q40.994 -19.147 41.984 -16.888 Q42.974 -14.629 44.67 -12.835 L50.454 -6.925 L48.524 -5.032 L42.696 -10.781 Z M25.444 -10.683 Q23.211 -12.931 22.1 -15.726 Q20.988 -18.521 20.988 -21.768 Q20.988 -24.878 22.187 -27.693 Q23.385 -30.507 25.536 -32.658 L32.759 -39.956 Q34.651 -41.719 35.513 -44.079 Q36.374 -46.439 36.374 -49.037 Q36.374 -51.437 35.414 -53.696 Q34.454 -55.954 32.759 -57.625 L27.012 -63.437 L29.003 -65.368 L34.83 -59.679 Q36.965 -57.565 38.145 -54.821 Q39.325 -52.079 39.325 -49.015 Q39.325 -45.913 38.145 -43.048 Q36.965 -40.183 34.815 -37.999 L27.516 -30.701 Q25.722 -28.816 24.781 -26.576 Q23.841 -24.337 23.841 -21.698 Q23.841 -19.158 24.826 -16.888 Q25.811 -14.617 27.516 -12.835 L33.301 -6.925 L31.272 -5.032 L25.444 -10.683 Z"/></g><g id="Ultralight-S" transform="matrix(1 0 0 1 517.792 696)"><path d="M59.554 -11.168 Q57.54 -13.219 56.459 -15.891 Q55.378 -18.562 55.378 -21.62 Q55.378 -24.677 56.487 -27.439 Q57.597 -30.2 59.57 -32.271 L66.868 -39.569 Q68.742 -41.405 69.703 -43.866 Q70.665 -46.328 70.665 -48.939 Q70.665 -51.452 69.654 -53.811 Q68.643 -56.17 66.868 -58.012 L61.542 -63.535 L62.726 -64.67 L68.166 -59.292 Q70.221 -57.2 71.355 -54.561 Q72.489 -51.921 72.489 -48.951 Q72.489 -45.98 71.355 -43.232 Q70.221 -40.483 68.15 -38.386 L60.852 -31.088 Q58.989 -29.126 57.948 -26.762 Q56.907 -24.399 56.907 -21.62 Q56.907 -18.923 57.992 -16.623 Q59.076 -14.321 60.852 -12.448 L66.227 -7.023 L64.994 -5.84 L59.554 -11.168 Z M43.083 -11.168 Q41.028 -13.341 39.869 -16.001 Q38.71 -18.661 38.71 -21.718 Q38.71 -24.776 39.869 -27.436 Q41.028 -30.095 43.099 -32.271 L50.397 -39.569 Q52.37 -41.405 53.282 -43.866 Q54.194 -46.328 54.194 -48.939 Q54.194 -51.452 53.184 -53.861 Q52.173 -56.269 50.397 -58.012 L45.072 -63.437 L46.157 -64.67 L51.596 -59.292 Q53.652 -57.2 54.836 -54.561 Q56.019 -51.921 56.019 -48.951 Q56.019 -45.98 54.836 -43.232 Q53.652 -40.483 51.581 -38.386 L44.283 -31.088 Q42.42 -29.155 41.428 -26.777 Q40.436 -24.399 40.436 -21.718 Q40.436 -19.022 41.472 -16.672 Q42.507 -14.321 44.283 -12.448 L49.658 -6.925 L48.524 -5.84 L43.083 -11.168 Z M26.514 -11.07 Q24.36 -13.239 23.3 -15.925 Q22.24 -18.612 22.24 -21.768 Q22.24 -24.776 23.399 -27.488 Q24.558 -30.2 26.629 -32.271 L33.828 -39.569 Q35.801 -41.405 36.713 -43.866 Q37.625 -46.328 37.625 -49.038 Q37.625 -51.551 36.615 -53.91 Q35.604 -56.269 33.828 -58.012 L28.503 -63.437 L29.686 -64.571 L35.126 -59.292 Q37.182 -57.267 38.316 -54.626 Q39.45 -51.985 39.45 -49.037 Q39.45 -46.04 38.316 -43.271 Q37.182 -40.501 35.111 -38.386 L27.812 -31.088 Q25.938 -29.123 24.952 -26.804 Q23.966 -24.485 23.966 -21.721 Q23.966 -19.055 24.995 -16.681 Q26.024 -14.307 27.812 -12.448 L33.187 -6.925 L31.955 -5.84 L26.514 -11.07 Z"/></g></g></svg>