<svg xmlns="http://www.w3.org/2000/svg" version="1.1" width="3300" height="2000"><g id="Notes"><style>
    text {
      font-family: monospace;
      text-anchor: middle;
    }
    text.emphasis {
      font-weight:bold;
    }
    text.lanchor {
      text-anchor: start;
    }
  </style><rect height="2200" id="artboard" fill="white" width="3300" x="0" y="0"/><line id="" style="fill:none;stroke:black;stroke-width:0.5;" x1="263" x2="3036" y1="292" y2="292"/><text class="lanchor emphasis" transform="matrix(1 0 0 1 263 322)">Weight/Scale Variations</text><text transform="matrix(1 0 0 1 559.711 322)">Ultralight</text><text transform="matrix(1 0 0 1 856.422 322)">Thin</text><text transform="matrix(1 0 0 1 1153.13 322)">Light</text><text transform="matrix(1 0 0 1 1449.84 322)">Regular</text><text transform="matrix(1 0 0 1 1746.56 322)">Medium</text><text transform="matrix(1 0 0 1 2043.27 322)">Semibold</text><text transform="matrix(1 0 0 1 2339.98 322)">Bold</text><text transform="matrix(1 0 0 1 2636.69 322)">Heavy</text><text transform="matrix(1 0 0 1 2933.4 322)">Black</text><text id="template-version" style="text-anchor: end;" transform="matrix(1 0 0 1 3036 1933)">Template v.1.0</text><text class="lanchor" transform="matrix(1 0 0 1 263 726)">Small</text><text class="lanchor" transform="matrix(1 0 0 1 263 1156)">Medium</text><text class="lanchor" transform="matrix(1 0 0 1 263 1586)">Large</text></g><g id="Guides"><g id="H-reference" style="fill:#27AAE1;stroke:none;" transform="matrix(1 0 0 1 339 696)"><path d="M 54.9316 0 L 57.666 0 L 30.5664 -70.459 L 28.0762 -70.459 L 0.976562 0 L 3.66211 0 L 12.9395 -24.4629 L 45.7031 -24.4629 Z M 29.1992 -67.0898 L 29.4434 -67.0898 L 44.8242 -26.709 L 13.8184 -26.709 Z"/></g><line id="Baseline-S" style="fill:none;stroke:#27AAE1;opacity:1;stroke-width:0.577;" x1="263" x2="3036" y1="696" y2="696"/><line id="Capline-S" style="fill:none;stroke:#27AAE1;opacity:1;stroke-width:0.577;" x1="263" x2="3036" y1="625.541" y2="625.541"/><g id="H-reference" style="fill:#27AAE1;stroke:none;" transform="matrix(1 0 0 1 339 1126)"><path d="M 54.9316 0 L 57.666 0 L 30.5664 -70.459 L 28.0762 -70.459 L 0.976562 0 L 3.66211 0 L 12.9395 -24.4629 L 45.7031 -24.4629 Z M 29.1992 -67.0898 L 29.4434 -67.0898 L 44.8242 -26.709 L 13.8184 -26.709 Z"/></g><line id="Baseline-M" style="fill:none;stroke:#27AAE1;opacity:1;stroke-width:0.577;" x1="263" x2="3036" y1="1126" y2="1126"/><line id="Capline-M" style="fill:none;stroke:#27AAE1;opacity:1;stroke-width:0.577;" x1="263" x2="3036" y1="1055.54" y2="1055.54"/><g id="H-reference" style="fill:#27AAE1;stroke:none;" transform="matrix(1 0 0 1 339 1556)"><path d="M 54.9316 0 L 57.666 0 L 30.5664 -70.459 L 28.0762 -70.459 L 0.976562 0 L 3.66211 0 L 12.9395 -24.4629 L 45.7031 -24.4629 Z M 29.1992 -67.0898 L 29.4434 -67.0898 L 44.8242 -26.709 L 13.8184 -26.709 Z"/></g><line id="Baseline-L" style="fill:none;stroke:#27AAE1;opacity:1;stroke-width:0.577;" x1="263" x2="3036" y1="1556" y2="1556"/><line id="Capline-L" style="fill:none;stroke:#27AAE1;opacity:1;stroke-width:0.577;" x1="263" x2="3036" y1="1485.54" y2="1485.54"/><rect height="119.336" id="left-margin" style="fill:darkred;stroke:none;opacity:0.4;" width="12.4512" x="1394.06" y="1030.79"/><rect height="119.336" id="right-margin" style="fill:darkgreen;stroke:none;opacity:0.4;" width="12.4512" x="1502.5112" y="1030.79"/><rect x="1406.5112" y="1045" width="96" height="96" fill="none" stroke="blue" stroke-dasharray="5"/><rect x="1394.06" y="1030.79" width="120.9024" height="119.336" fill="none" stroke="blue"/></g><g id="Symbols"><g id="Bold-L" transform="matrix(1 0 0 1 2266 1556)"><path d="M106.264 8.791 Q101.593 4.652 99.414 -1.099 Q97.234 -6.85 97.234 -12.655 Q97.234 -18.621 99.411 -24.426 Q101.588 -30.231 106.264 -34.585 L118.358 -46.679 Q120.293 -48.775 121.502 -51.649 Q122.711 -54.522 122.711 -57.776 Q122.711 -61.03 121.502 -63.932 Q120.293 -66.835 118.358 -69.092 L110.779 -76.671 Q108.36 -78.563 108.441 -81.729 Q108.521 -84.895 110.745 -86.991 Q112.646 -89.087 115.824 -89.087 Q119.002 -89.087 121.26 -86.991 L128.678 -79.412 Q132.87 -75.059 135.289 -69.334 Q137.708 -63.61 137.708 -58.003 Q137.708 -52.234 135.289 -46.485 Q132.87 -40.735 128.678 -36.52 L116.584 -24.426 Q114.014 -21.676 112.961 -18.824 Q111.907 -15.972 111.907 -12.977 Q111.907 -9.978 112.961 -7.05 Q114.014 -4.122 116.584 -1.529 L124.163 6.05 Q126.259 8.117 126.259 11.276 Q126.259 14.435 124.197 16.37 Q121.973 18.628 118.795 18.628 Q115.616 18.628 113.681 16.37 L106.264 8.791 Z M66.274 8.791 Q61.759 4.649 59.501 -1.181 Q57.244 -7.011 57.244 -12.816 Q57.244 -18.621 59.501 -24.451 Q61.759 -30.282 66.274 -34.585 L78.368 -46.679 Q80.303 -48.775 81.593 -51.649 Q82.883 -54.522 82.883 -57.776 Q82.883 -61.03 81.593 -63.932 Q80.303 -66.835 78.368 -69.092 L70.789 -76.671 Q68.531 -78.606 68.531 -81.704 Q68.531 -84.802 70.789 -86.864 Q72.724 -88.926 75.868 -89.007 Q79.013 -89.087 81.109 -86.991 L88.688 -79.412 Q93.041 -75.106 95.379 -69.358 Q97.718 -63.61 97.718 -57.966 Q97.718 -52.161 95.379 -46.415 Q93.041 -40.668 88.688 -36.52 L76.594 -24.426 Q74.024 -21.637 72.971 -18.738 Q71.918 -15.839 71.918 -12.957 Q71.918 -9.914 72.971 -6.985 Q74.024 -4.056 76.594 -1.529 L84.172 6.05 Q86.269 8.117 86.269 11.276 Q86.269 14.435 84.207 16.37 Q82.144 18.628 78.885 18.628 Q75.626 18.628 73.691 16.37 L66.274 8.791 Z M26.445 8.63 Q21.769 4.324 19.511 -1.344 Q17.254 -7.011 17.254 -12.816 Q17.254 -18.621 19.511 -24.451 Q21.769 -30.282 26.445 -34.585 L38.539 -46.84 Q40.474 -48.936 41.683 -51.81 Q42.892 -54.683 42.892 -57.937 Q42.892 -61.191 41.683 -64.094 Q40.474 -66.996 38.539 -69.254 L30.96 -76.832 Q28.541 -78.767 28.541 -81.853 Q28.541 -84.938 30.96 -86.991 Q32.895 -89.087 35.878 -89.087 Q38.861 -89.087 41.119 -86.991 L48.859 -79.412 Q53.212 -75.106 55.551 -69.439 Q57.889 -63.771 57.889 -58.127 Q57.889 -52.322 55.47 -46.495 Q53.051 -40.668 48.859 -36.52 L36.765 -24.426 Q34.195 -21.672 33.142 -18.744 Q32.089 -15.815 32.089 -12.816 Q32.089 -9.822 33.142 -6.97 Q34.195 -4.117 36.765 -1.529 L44.344 5.889 Q46.44 7.956 46.359 11.115 Q46.279 14.274 44.183 16.237 Q41.925 18.466 38.942 18.547 Q35.959 18.628 34.024 16.209 L26.445 8.63 Z"/></g><g id="Semibold-L" transform="matrix(1 0 0 1 1970.27 1556)"><path d="M104.02 8.371 Q99.49 4.231 97.345 -1.379 Q95.201 -6.99 95.201 -12.725 Q95.201 -18.551 97.343 -24.181 Q99.484 -29.811 104.02 -34.164 L116.114 -46.258 Q118.259 -48.495 119.504 -51.473 Q120.748 -54.452 120.748 -57.776 Q120.748 -61.1 119.504 -64.108 Q118.259 -67.115 116.114 -69.513 L108.535 -77.092 Q106.397 -78.844 106.478 -81.729 Q106.558 -84.615 108.572 -86.571 Q110.332 -88.457 113.23 -88.457 Q116.128 -88.457 118.175 -86.571 L125.593 -78.992 Q129.785 -74.638 132.099 -69.089 Q134.413 -63.54 134.413 -58.003 Q134.413 -52.304 132.099 -46.73 Q129.785 -41.156 125.593 -36.941 L113.499 -24.847 Q110.86 -22.097 109.736 -19.139 Q108.613 -16.182 108.613 -12.977 Q108.613 -9.768 109.736 -6.735 Q110.86 -3.701 113.499 -1.108 L121.078 6.471 Q122.964 8.397 122.964 11.241 Q122.964 14.084 121.112 15.879 Q119.099 17.926 116.201 17.926 Q113.303 17.926 111.508 15.879 L104.02 8.371 Z M66.694 8.371 Q62.249 4.229 60.062 -1.426 Q57.875 -7.081 57.875 -12.816 Q57.875 -18.551 60.062 -24.206 Q62.249 -29.861 66.694 -34.164 L78.788 -46.258 Q80.933 -48.495 82.223 -51.473 Q83.513 -54.452 83.513 -57.776 Q83.513 -61.1 82.223 -64.108 Q80.933 -67.115 78.788 -69.513 L71.209 -77.092 Q69.162 -78.887 69.162 -81.704 Q69.162 -84.521 71.209 -86.443 Q73.004 -88.295 75.868 -88.376 Q78.732 -88.457 80.688 -86.571 L88.267 -78.992 Q92.551 -74.686 94.819 -69.078 Q97.087 -63.47 97.087 -57.896 Q97.087 -52.231 94.819 -46.66 Q92.551 -41.089 88.267 -36.941 L76.173 -24.847 Q73.533 -22.058 72.41 -19.018 Q71.287 -15.979 71.287 -12.887 Q71.287 -9.633 72.41 -6.634 Q73.533 -3.635 76.173 -1.108 L83.752 6.471 Q85.638 8.397 85.638 11.241 Q85.638 14.084 83.786 15.879 Q81.864 17.926 78.92 17.926 Q75.977 17.926 74.182 15.879 L66.694 8.371 Z M29.459 8.209 Q24.923 3.973 22.736 -1.554 Q20.549 -7.081 20.549 -12.816 Q20.549 -18.551 22.736 -24.206 Q24.923 -29.861 29.459 -34.164 L41.553 -46.419 Q43.699 -48.656 44.943 -51.635 Q46.187 -54.613 46.187 -57.937 Q46.187 -61.261 44.943 -64.269 Q43.699 -67.277 41.553 -69.674 L33.974 -77.253 Q31.836 -79.048 31.836 -81.853 Q31.836 -84.658 33.974 -86.571 Q35.769 -88.457 38.507 -88.457 Q41.245 -88.457 43.292 -86.571 L51.032 -78.992 Q55.316 -74.686 57.584 -69.158 Q59.852 -63.631 59.852 -58.057 Q59.852 -52.393 57.538 -46.741 Q55.224 -41.089 51.032 -36.941 L38.938 -24.847 Q36.299 -22.093 35.175 -19.059 Q34.052 -16.026 34.052 -12.816 Q34.052 -9.612 35.175 -6.654 Q36.299 -3.697 38.938 -1.108 L46.517 6.379 Q48.403 8.306 48.322 11.15 Q48.242 13.993 46.356 15.816 Q44.309 17.835 41.571 17.881 Q38.833 17.926 37.038 15.788 L29.459 8.209 Z"/></g><g id="Medium-L" transform="matrix(1 0 0 1 1674.31 1556)"><path d="M102.338 8.055 Q97.913 3.916 95.794 -1.59 Q93.676 -7.095 93.676 -12.778 Q93.676 -18.499 95.791 -23.997 Q97.907 -29.495 102.338 -33.849 L114.431 -45.943 Q116.735 -48.284 118.005 -51.342 Q119.276 -54.399 119.276 -57.776 Q119.276 -61.153 118.005 -64.239 Q116.735 -67.326 114.431 -69.829 L106.853 -77.407 Q104.925 -79.054 105.005 -81.729 Q105.086 -84.404 106.941 -86.255 Q108.597 -87.983 111.285 -87.983 Q113.972 -87.983 115.862 -86.255 L123.279 -78.676 Q127.472 -74.323 129.706 -68.905 Q131.941 -63.487 131.941 -58.003 Q131.941 -52.357 129.706 -46.914 Q127.472 -41.471 123.279 -37.256 L111.185 -25.162 Q108.493 -22.412 107.317 -19.376 Q106.141 -16.34 106.141 -12.977 Q106.141 -9.61 107.317 -6.498 Q108.493 -3.386 111.185 -0.793 L118.764 6.786 Q120.492 8.608 120.492 11.215 Q120.492 13.822 118.798 15.511 Q116.943 17.401 114.255 17.401 Q111.567 17.401 109.878 15.511 L102.338 8.055 Z M67.01 8.055 Q62.618 3.913 60.483 -1.611 Q58.348 -7.134 58.348 -12.816 Q58.348 -18.499 60.483 -24.022 Q62.618 -29.545 67.01 -33.849 L79.104 -45.943 Q81.407 -48.284 82.697 -51.342 Q83.987 -54.399 83.987 -57.776 Q83.987 -61.153 82.697 -64.239 Q81.407 -67.326 79.104 -69.829 L71.525 -77.407 Q69.635 -79.097 69.635 -81.704 Q69.635 -84.311 71.525 -86.128 Q73.214 -87.822 75.868 -87.903 Q78.522 -87.983 80.373 -86.255 L87.951 -78.676 Q92.182 -74.37 94.398 -68.867 Q96.613 -63.365 96.613 -57.844 Q96.613 -52.284 94.398 -46.844 Q92.182 -41.404 87.951 -37.256 L75.858 -25.162 Q73.165 -22.373 71.989 -19.229 Q70.813 -16.084 70.813 -12.834 Q70.813 -9.423 71.989 -6.371 Q73.165 -3.32 75.858 -0.793 L83.436 6.786 Q85.165 8.608 85.165 11.215 Q85.165 13.822 83.47 15.511 Q81.653 17.401 78.947 17.401 Q76.24 17.401 74.55 15.511 L67.01 8.055 Z M31.721 7.894 Q27.29 3.71 25.155 -1.712 Q23.02 -7.134 23.02 -12.816 Q23.02 -18.499 25.155 -24.022 Q27.29 -29.545 31.721 -33.849 L43.814 -46.104 Q46.117 -48.446 47.388 -51.503 Q48.659 -54.561 48.659 -57.937 Q48.659 -61.314 47.388 -64.4 Q46.117 -67.487 43.814 -69.99 L36.236 -77.569 Q34.308 -79.258 34.308 -81.853 Q34.308 -84.447 36.236 -86.255 Q37.925 -87.983 40.479 -87.983 Q43.033 -87.983 44.922 -86.255 L52.662 -78.676 Q56.893 -74.37 59.109 -68.948 Q61.324 -63.526 61.324 -58.005 Q61.324 -52.445 59.089 -46.925 Q56.855 -41.404 52.662 -37.256 L40.568 -25.162 Q37.876 -22.408 36.7 -19.296 Q35.524 -16.184 35.524 -12.816 Q35.524 -9.454 36.7 -6.418 Q37.876 -3.381 40.568 -0.793 L48.147 6.748 Q49.875 8.569 49.795 11.176 Q49.714 13.783 47.986 15.501 Q46.096 17.362 43.543 17.381 Q40.989 17.401 39.299 15.473 L31.721 7.894 Z"/></g><g id="Regular-L" transform="matrix(1 0 0 1 1378.56 1556)"><path d="M101.104 7.824 Q96.756 3.684 94.657 -1.744 Q92.558 -7.172 92.558 -12.816 Q92.558 -18.46 94.654 -23.862 Q96.75 -29.264 101.104 -33.617 L113.198 -45.711 Q115.616 -48.13 116.906 -51.246 Q118.196 -54.361 118.196 -57.776 Q118.196 -61.191 116.906 -64.336 Q115.616 -67.48 113.198 -70.06 L105.619 -77.639 Q103.845 -79.208 103.926 -81.729 Q104.006 -84.25 105.746 -86.024 Q107.325 -87.636 109.858 -87.636 Q112.391 -87.636 114.165 -86.024 L121.583 -78.445 Q125.775 -74.091 127.952 -68.77 Q130.129 -63.449 130.129 -58.003 Q130.129 -52.395 127.952 -47.049 Q125.775 -41.703 121.583 -37.487 L109.489 -25.394 Q106.758 -22.644 105.543 -19.55 Q104.329 -16.455 104.329 -12.977 Q104.329 -9.494 105.543 -6.324 Q106.758 -3.154 109.489 -0.561 L117.068 7.018 Q118.68 8.762 118.68 11.195 Q118.68 13.629 117.102 15.241 Q115.362 17.015 112.828 17.015 Q110.295 17.015 108.683 15.241 L101.104 7.824 Z M67.241 7.824 Q62.888 3.682 60.791 -1.745 Q58.695 -7.172 58.695 -12.816 Q58.695 -18.46 60.791 -23.887 Q62.888 -29.314 67.241 -33.617 L79.335 -45.711 Q81.754 -48.13 83.044 -51.246 Q84.334 -54.361 84.334 -57.776 Q84.334 -61.191 83.044 -64.336 Q81.754 -67.48 79.335 -70.06 L71.756 -77.639 Q69.983 -79.251 69.983 -81.704 Q69.983 -84.157 71.756 -85.897 Q73.369 -87.475 75.868 -87.556 Q78.368 -87.636 80.141 -86.024 L87.72 -78.445 Q91.913 -74.139 94.089 -68.713 Q96.266 -63.287 96.266 -57.805 Q96.266 -52.322 94.089 -46.979 Q91.913 -41.635 87.72 -37.487 L75.626 -25.394 Q72.895 -22.604 71.681 -19.383 Q70.466 -16.161 70.466 -12.796 Q70.466 -9.269 71.681 -6.179 Q72.895 -3.089 75.626 -0.561 L83.205 7.018 Q84.817 8.762 84.817 11.195 Q84.817 13.629 83.239 15.241 Q81.499 17.015 78.966 17.015 Q76.433 17.015 74.82 15.241 L67.241 7.824 Z M33.379 7.663 Q29.025 3.518 26.929 -1.828 Q24.832 -7.172 24.832 -12.816 Q24.832 -18.46 26.929 -23.887 Q29.025 -29.314 33.379 -33.617 L45.473 -45.872 Q47.891 -48.291 49.181 -51.407 Q50.471 -54.522 50.471 -57.937 Q50.471 -61.352 49.181 -64.497 Q47.891 -67.641 45.473 -70.221 L37.894 -77.8 Q36.12 -79.412 36.12 -81.853 Q36.12 -84.293 37.894 -86.024 Q39.506 -87.636 41.925 -87.636 Q44.344 -87.636 46.117 -86.024 L53.858 -78.445 Q58.05 -74.139 60.227 -68.794 Q62.404 -63.449 62.404 -57.966 Q62.404 -52.484 60.227 -47.06 Q58.05 -41.635 53.858 -37.487 L41.764 -25.394 Q39.033 -22.64 37.818 -19.469 Q36.604 -16.299 36.604 -12.816 Q36.604 -9.338 37.818 -6.244 Q39.033 -3.15 41.764 -0.561 L49.343 7.018 Q50.955 8.762 50.874 11.195 Q50.794 13.629 49.181 15.269 Q47.407 17.015 44.989 17.015 Q42.57 17.015 40.958 15.241 L33.379 7.663 Z"/></g><g id="Light-L" transform="matrix(1 0 0 1 1082.77 1556)"><path d="M99.615 7.018 Q95.479 3.075 93.46 -2.142 Q91.441 -7.359 91.441 -12.785 Q91.441 -18.212 93.459 -23.423 Q95.477 -28.635 99.615 -32.811 L111.709 -44.905 Q114.252 -47.43 115.666 -50.776 Q117.08 -54.122 117.08 -57.779 Q117.08 -61.437 115.666 -64.81 Q114.252 -68.182 111.709 -70.866 L104.192 -78.445 Q102.791 -79.651 102.809 -81.671 Q102.828 -83.692 104.264 -85.155 Q105.477 -86.396 107.508 -86.396 Q109.538 -86.396 111.002 -85.155 L118.481 -77.639 Q122.488 -73.465 124.572 -68.372 Q126.655 -63.278 126.655 -58.01 Q126.655 -52.581 124.572 -47.456 Q122.488 -42.331 118.481 -38.294 L106.388 -26.2 Q103.465 -23.248 102.16 -19.914 Q100.855 -16.579 100.855 -12.915 Q100.855 -9.246 102.164 -5.903 Q103.473 -2.56 106.388 0.245 L113.904 7.824 Q115.145 9.207 115.176 11.17 Q115.207 13.133 113.932 14.435 Q112.557 15.837 110.527 15.837 Q108.496 15.837 107.194 14.435 L99.615 7.018 Z M68.047 7.018 Q63.88 3.032 61.877 -2.194 Q59.873 -7.421 59.873 -12.816 Q59.873 -18.212 61.877 -23.438 Q63.88 -28.665 68.047 -32.811 L80.141 -44.905 Q82.684 -47.43 84.098 -50.776 Q85.512 -54.122 85.512 -57.779 Q85.512 -61.437 84.098 -64.81 Q82.684 -68.182 80.141 -70.866 L72.562 -78.507 Q71.161 -79.747 71.161 -81.704 Q71.161 -83.66 72.546 -85.09 Q73.803 -86.359 75.795 -86.377 Q77.788 -86.396 79.273 -85.155 L86.914 -77.639 Q90.92 -73.513 93.004 -68.315 Q95.088 -63.116 95.088 -57.813 Q95.088 -52.509 93.004 -47.386 Q90.92 -42.264 86.914 -38.294 L74.82 -26.2 Q71.897 -23.245 70.592 -19.827 Q69.288 -16.409 69.288 -12.827 Q69.288 -9.083 70.596 -5.788 Q71.905 -2.494 74.82 0.245 L82.337 7.824 Q83.577 9.207 83.608 11.17 Q83.639 13.133 82.364 14.435 Q80.99 15.837 78.959 15.837 Q76.929 15.837 75.626 14.435 L68.047 7.018 Z M36.48 6.856 Q32.312 2.87 30.309 -2.275 Q28.306 -7.421 28.306 -12.816 Q28.306 -18.212 30.34 -23.44 Q32.374 -28.669 36.542 -32.811 L48.574 -45.066 Q51.116 -47.591 52.531 -50.937 Q53.945 -54.283 53.945 -57.941 Q53.945 -61.598 52.531 -64.971 Q51.116 -68.343 48.574 -71.027 L40.995 -78.668 Q39.593 -79.909 39.624 -81.884 Q39.655 -83.859 41.068 -85.228 Q42.297 -86.458 44.22 -86.489 Q46.142 -86.52 47.544 -85.217 L55.346 -77.639 Q59.353 -73.577 61.436 -68.418 Q63.52 -63.258 63.52 -57.966 Q63.52 -52.703 61.436 -47.488 Q59.353 -42.273 55.346 -38.294 L43.252 -26.2 Q40.337 -23.234 39.029 -19.891 Q37.72 -16.547 37.72 -12.878 Q37.72 -9.214 39.025 -5.88 Q40.329 -2.546 43.252 0.245 L50.769 7.824 Q52.009 9.207 51.991 11.17 Q51.972 13.133 50.67 14.436 Q49.263 15.816 47.312 15.826 Q45.361 15.837 44.121 14.435 L36.48 6.856 Z"/></g><g id="Thin-L" transform="matrix(1 0 0 1 787.282 1556)"><path d="M98.127 6.211 Q94.203 2.466 92.264 -2.539 Q90.325 -7.545 90.325 -12.754 Q90.325 -17.964 92.264 -22.985 Q94.204 -28.006 98.127 -32.005 L110.221 -44.099 Q112.887 -46.73 114.425 -50.306 Q115.964 -53.882 115.964 -57.783 Q115.964 -61.683 114.425 -65.284 Q112.887 -68.884 110.221 -71.672 L102.766 -79.251 Q101.736 -80.093 101.693 -81.613 Q101.65 -83.134 102.782 -84.287 Q103.63 -85.155 105.158 -85.155 Q106.686 -85.155 107.839 -84.287 L115.381 -76.832 Q119.201 -72.84 121.192 -67.973 Q123.183 -63.107 123.183 -58.018 Q123.183 -52.767 121.192 -47.863 Q119.201 -42.959 115.381 -39.1 L103.287 -27.006 Q100.172 -23.852 98.777 -20.278 Q97.383 -16.703 97.383 -12.853 Q97.383 -8.998 98.785 -5.482 Q100.188 -1.966 103.287 1.051 L110.742 8.63 Q111.61 9.653 111.672 11.145 Q111.734 12.636 110.762 13.629 Q109.754 14.658 108.226 14.658 Q106.698 14.658 105.706 13.629 L98.127 6.211 Z M68.854 6.211 Q64.872 2.383 62.962 -2.643 Q61.052 -7.669 61.052 -12.816 Q61.052 -17.964 62.962 -22.99 Q64.872 -28.016 68.854 -32.005 L80.948 -44.099 Q83.614 -46.73 85.152 -50.306 Q86.69 -53.882 86.69 -57.783 Q86.69 -61.683 85.152 -65.284 Q83.614 -68.884 80.948 -71.672 L73.369 -79.375 Q72.339 -80.244 72.339 -81.704 Q72.339 -83.164 73.336 -84.284 Q74.237 -85.242 75.723 -85.199 Q77.208 -85.155 78.405 -84.287 L86.108 -76.832 Q89.928 -72.887 91.919 -67.916 Q93.91 -62.945 93.91 -57.82 Q93.91 -52.695 91.919 -47.793 Q89.928 -42.892 86.108 -39.1 L74.014 -27.006 Q70.899 -23.886 69.504 -20.272 Q68.11 -16.658 68.11 -12.858 Q68.11 -8.897 69.512 -5.398 Q70.915 -1.9 74.014 1.051 L81.468 8.63 Q82.337 9.653 82.399 11.145 Q82.461 12.636 81.489 13.629 Q80.481 14.658 78.953 14.658 Q77.425 14.658 76.433 13.629 L68.854 6.211 Z M39.581 6.05 Q35.599 2.222 33.689 -2.723 Q31.779 -7.669 31.779 -12.816 Q31.779 -17.964 33.751 -22.994 Q35.723 -28.023 39.705 -32.005 L51.674 -44.26 Q54.341 -46.891 55.879 -50.467 Q57.417 -54.044 57.417 -57.944 Q57.417 -61.844 55.879 -65.445 Q54.341 -69.045 51.674 -71.834 L44.096 -79.537 Q43.066 -80.405 43.128 -81.915 Q43.19 -83.425 44.241 -84.433 Q45.088 -85.28 46.514 -85.342 Q47.941 -85.404 48.97 -84.411 L56.834 -76.832 Q60.655 -73.016 62.646 -68.041 Q64.636 -63.067 64.636 -57.966 Q64.636 -52.921 62.646 -47.916 Q60.655 -42.91 56.834 -39.1 L44.741 -27.006 Q41.642 -23.828 40.239 -20.312 Q38.836 -16.795 38.836 -12.94 Q38.836 -9.09 40.231 -5.516 Q41.626 -1.942 44.741 1.051 L52.195 8.63 Q53.064 9.653 53.107 11.145 Q53.15 12.636 52.158 13.603 Q51.117 14.617 49.635 14.638 Q48.152 14.658 47.283 13.629 L39.581 6.05 Z"/></g><g id="Ultralight-L" transform="matrix(1 0 0 1 491.205 1556)"><path d="M97.234 5.728 Q93.437 2.1 91.546 -2.778 Q89.655 -7.656 89.655 -12.736 Q89.655 -17.815 91.547 -22.722 Q93.44 -27.629 97.234 -31.521 L109.328 -43.615 Q112.069 -46.309 113.681 -50.024 Q115.294 -53.739 115.294 -57.785 Q115.294 -61.831 113.681 -65.568 Q112.069 -69.306 109.328 -72.156 L101.91 -79.735 Q101.104 -80.359 101.023 -81.579 Q100.943 -82.799 101.893 -83.766 Q102.521 -84.411 103.747 -84.411 Q104.974 -84.411 105.941 -83.766 L113.52 -76.349 Q117.229 -72.464 119.164 -67.734 Q121.099 -63.004 121.099 -58.022 Q121.099 -52.879 119.164 -48.107 Q117.229 -43.336 113.52 -39.584 L101.426 -27.49 Q98.196 -24.215 96.747 -20.496 Q95.299 -16.778 95.299 -12.816 Q95.299 -8.849 96.758 -5.229 Q98.217 -1.609 101.426 1.535 L108.844 9.114 Q109.489 9.92 109.569 11.129 Q109.65 12.339 108.861 13.145 Q108.072 13.951 106.845 13.951 Q105.619 13.951 104.812 13.145 L97.234 5.728 Z M69.338 5.728 Q65.468 1.994 63.613 -2.912 Q61.759 -7.817 61.759 -12.816 Q61.759 -17.815 63.613 -22.721 Q65.468 -27.626 69.338 -31.521 L81.431 -43.615 Q84.172 -46.309 85.785 -50.024 Q87.398 -53.739 87.398 -57.785 Q87.398 -61.831 85.785 -65.568 Q84.172 -69.306 81.431 -72.156 L73.853 -79.896 Q73.046 -80.541 73.046 -81.704 Q73.046 -82.867 73.81 -83.8 Q74.498 -84.572 75.679 -84.492 Q76.86 -84.411 77.884 -83.766 L85.624 -76.349 Q89.332 -72.512 91.267 -67.677 Q93.203 -62.843 93.203 -57.825 Q93.203 -52.806 91.267 -48.037 Q89.332 -43.268 85.624 -39.584 L73.53 -27.49 Q70.3 -24.271 68.851 -20.539 Q67.403 -16.806 67.403 -12.876 Q67.403 -8.785 68.861 -5.164 Q70.321 -1.543 73.53 1.535 L80.948 9.114 Q81.593 9.92 81.673 11.129 Q81.754 12.339 80.964 13.145 Q80.175 13.951 78.949 13.951 Q77.722 13.951 76.916 13.145 L69.338 5.728 Z M41.441 5.566 Q37.571 1.834 35.717 -2.992 Q33.863 -7.817 33.863 -12.816 Q33.863 -17.815 35.797 -22.726 Q37.733 -27.636 41.602 -31.521 L53.535 -43.776 Q56.276 -46.471 57.889 -50.185 Q59.501 -53.9 59.501 -57.946 Q59.501 -61.992 57.889 -65.729 Q56.276 -69.467 53.535 -72.317 L45.956 -80.057 Q45.15 -80.702 45.231 -81.933 Q45.311 -83.164 46.146 -83.956 Q46.763 -84.572 47.891 -84.653 Q49.02 -84.734 49.826 -83.927 L57.727 -76.349 Q61.436 -72.679 63.371 -67.816 Q65.306 -62.953 65.306 -57.966 Q65.306 -53.052 63.371 -48.173 Q61.436 -43.293 57.727 -39.584 L45.634 -27.49 Q42.424 -24.185 40.965 -20.564 Q39.506 -16.944 39.506 -12.977 Q39.506 -9.016 40.955 -5.298 Q42.404 -1.579 45.634 1.535 L53.051 9.114 Q53.696 9.92 53.777 11.129 Q53.858 12.339 53.051 13.103 Q52.23 13.898 51.028 13.924 Q49.826 13.951 49.181 13.145 L41.441 5.566 Z"/></g><g id="Bold-M" transform="matrix(1 0 0 1 2281.8 1126)"><path d="M80.625 0.895 Q76.629 -2.939 74.69 -7.834 Q72.75 -12.73 72.75 -17.855 Q72.75 -22.98 74.688 -27.855 Q76.625 -32.73 80.625 -36.605 L90 -45.98 Q91.375 -47.48 92 -49.145 Q92.625 -50.81 92.625 -52.707 Q92.625 -54.605 92 -56.292 Q91.375 -57.98 90 -59.48 L84.125 -65.355 Q81.5 -67.822 81.5 -71.276 Q81.5 -74.73 84.099 -77.23 Q86.572 -79.855 90.099 -79.855 Q93.625 -79.855 96.125 -77.23 L101.875 -71.355 Q105.75 -67.605 107.75 -62.792 Q109.75 -57.98 109.75 -52.883 Q109.75 -47.911 107.75 -42.954 Q105.75 -37.997 101.875 -34.23 L92.5 -24.855 Q91.133 -23.348 90.442 -21.575 Q89.75 -19.801 89.75 -17.98 Q89.75 -16.155 90.442 -14.322 Q91.133 -12.49 92.5 -10.98 L98.375 -5.105 Q101 -2.628 101 0.821 Q101 4.27 98.401 6.77 Q95.928 9.395 92.401 9.395 Q88.875 9.395 86.375 6.77 L80.625 0.895 Z M49.375 0.895 Q45.375 -2.941 43.438 -7.835 Q41.5 -12.73 41.5 -17.855 Q41.5 -22.98 43.438 -27.874 Q45.375 -32.769 49.375 -36.605 L58.75 -45.98 Q60.125 -47.48 60.75 -49.145 Q61.375 -50.81 61.375 -52.707 Q61.375 -54.605 60.75 -56.292 Q60.125 -57.98 58.75 -59.48 L52.875 -65.355 Q50.375 -67.73 50.375 -71.194 Q50.375 -74.658 52.875 -77.131 Q55.25 -79.73 58.75 -79.73 Q62.25 -79.73 64.75 -77.23 L70.625 -71.355 Q74.5 -67.642 76.5 -62.811 Q78.5 -57.98 78.5 -52.855 Q78.5 -47.73 76.5 -42.838 Q74.5 -37.945 70.625 -34.23 L61.25 -24.855 Q59.883 -23.318 59.191 -21.57 Q58.5 -19.823 58.5 -17.964 Q58.5 -16.105 59.191 -14.272 Q59.883 -12.439 61.25 -10.98 L67.125 -5.105 Q69.75 -2.628 69.75 0.821 Q69.75 4.27 67.151 6.77 Q64.678 9.395 61.151 9.395 Q57.625 9.395 55.125 6.77 L49.375 0.895 Z M18.125 0.77 Q14.125 -3.068 12.188 -7.899 Q10.25 -12.73 10.25 -17.855 Q10.25 -22.98 12.188 -27.874 Q14.125 -32.769 18.125 -36.605 L27.5 -46.105 Q28.875 -47.605 29.5 -49.27 Q30.125 -50.935 30.125 -52.832 Q30.125 -54.73 29.5 -56.417 Q28.875 -58.105 27.5 -59.605 L21.625 -65.48 Q19 -67.855 19 -71.309 Q19 -74.763 21.625 -77.23 Q24 -79.73 27.5 -79.73 Q31 -79.73 33.375 -77.23 L39.375 -71.355 Q43.375 -67.642 45.312 -62.811 Q47.25 -57.98 47.25 -52.855 Q47.25 -47.73 45.25 -42.838 Q43.25 -37.945 39.375 -34.23 L30 -24.855 Q28.633 -23.345 27.942 -21.512 Q27.25 -19.68 27.25 -17.855 Q27.25 -16.034 27.942 -14.26 Q28.633 -12.487 30 -10.98 L35.875 -5.23 Q38.5 -2.753 38.438 0.759 Q38.375 4.27 35.75 6.667 Q33.25 9.145 29.812 9.145 Q26.375 9.145 24 6.645 L18.125 0.77 Z"/></g><g id="Semibold-M" transform="matrix(1 0 0 1 1985.97 1126)"><path d="M78.451 0.352 Q74.619 -3.373 72.706 -8.16 Q70.794 -12.947 70.794 -17.909 Q70.794 -22.871 72.704 -27.583 Q74.614 -32.295 78.451 -36.061 L87.826 -45.436 Q89.364 -47.045 90.044 -48.873 Q90.723 -50.701 90.723 -52.707 Q90.723 -54.714 90.044 -56.564 Q89.364 -58.415 87.826 -60.023 L81.951 -65.898 Q79.598 -68.148 79.625 -71.276 Q79.652 -74.404 81.979 -76.686 Q84.236 -79.04 87.409 -79.04 Q90.582 -79.04 92.864 -76.686 L98.614 -70.811 Q102.381 -67.116 104.299 -62.466 Q106.218 -57.817 106.218 -52.883 Q106.218 -48.02 104.299 -43.253 Q102.381 -38.487 98.614 -34.773 L89.239 -25.398 Q87.709 -23.783 86.963 -21.873 Q86.218 -19.964 86.218 -17.98 Q86.218 -15.992 86.963 -14.024 Q87.709 -12.055 89.239 -10.436 L95.114 -4.561 Q97.468 -2.302 97.468 0.794 Q97.468 3.89 95.141 6.172 Q92.884 8.526 89.711 8.526 Q86.538 8.526 84.256 6.172 L78.451 0.352 Z M49.919 0.352 Q46.081 -3.376 44.198 -8.134 Q42.315 -12.893 42.315 -17.855 Q42.315 -22.817 44.198 -27.576 Q46.081 -32.334 49.919 -36.061 L59.294 -45.436 Q60.831 -47.045 61.511 -48.873 Q62.19 -50.701 62.19 -52.707 Q62.19 -54.714 61.511 -56.564 Q60.831 -58.415 59.294 -60.023 L53.419 -65.898 Q51.19 -68.056 51.163 -71.194 Q51.136 -74.332 53.419 -76.588 Q55.576 -78.915 58.75 -78.915 Q61.924 -78.915 64.207 -76.686 L70.082 -70.811 Q73.848 -67.153 75.766 -62.458 Q77.685 -57.763 77.685 -52.801 Q77.685 -47.839 75.766 -43.137 Q73.848 -38.434 70.082 -34.773 L60.706 -25.398 Q59.177 -23.752 58.431 -21.842 Q57.685 -19.932 57.685 -17.91 Q57.685 -15.888 58.431 -13.946 Q59.177 -12.004 60.706 -10.436 L66.582 -4.561 Q68.935 -2.302 68.935 0.794 Q68.935 3.89 66.608 6.172 Q64.352 8.526 61.178 8.526 Q58.005 8.526 55.723 6.172 L49.919 0.352 Z M21.386 0.227 Q17.549 -3.503 15.665 -8.198 Q13.782 -12.893 13.782 -17.855 Q13.782 -22.817 15.665 -27.576 Q17.549 -32.334 21.386 -36.061 L30.761 -45.561 Q32.299 -47.17 32.978 -48.998 Q33.657 -50.826 33.657 -52.832 Q33.657 -54.839 32.978 -56.689 Q32.299 -58.54 30.761 -60.148 L24.886 -66.023 Q22.587 -68.181 22.559 -71.309 Q22.532 -74.437 24.886 -76.686 Q27.043 -78.915 30.217 -78.915 Q33.391 -78.915 35.549 -76.686 L41.549 -70.811 Q45.386 -67.153 47.269 -62.458 Q49.152 -57.763 49.152 -52.801 Q49.152 -47.839 47.233 -43.137 Q45.315 -38.434 41.549 -34.773 L32.174 -25.398 Q30.644 -23.78 29.898 -21.811 Q29.152 -19.843 29.152 -17.855 Q29.152 -15.871 29.898 -13.961 Q30.644 -12.052 32.174 -10.436 L38.049 -4.632 Q40.402 -2.372 40.34 0.759 Q40.277 3.89 37.924 6.123 Q35.641 8.33 32.53 8.33 Q29.418 8.33 27.261 6.102 L21.386 0.227 Z"/></g><g id="Medium-M" transform="matrix(1 0 0 1 1689.91 1126)"><path d="M76.821 -0.056 Q73.111 -3.7 71.218 -8.405 Q69.326 -13.11 69.326 -17.95 Q69.326 -22.79 71.216 -27.379 Q73.106 -31.969 76.821 -35.654 L86.196 -45.029 Q87.856 -46.719 88.576 -48.669 Q89.296 -50.62 89.296 -52.707 Q89.296 -54.795 88.576 -56.768 Q87.856 -58.741 86.196 -60.431 L80.321 -66.306 Q78.171 -68.392 78.219 -71.276 Q78.266 -74.159 80.389 -76.279 Q82.483 -78.428 85.391 -78.428 Q88.299 -78.428 90.418 -76.279 L96.168 -70.404 Q99.853 -66.749 101.711 -62.222 Q103.568 -57.695 103.568 -52.883 Q103.568 -48.102 101.711 -43.477 Q99.853 -38.853 96.168 -35.181 L86.793 -25.806 Q85.141 -24.109 84.355 -22.098 Q83.568 -20.086 83.568 -17.98 Q83.568 -15.87 84.355 -13.799 Q85.141 -11.729 86.793 -10.029 L92.668 -4.154 Q94.818 -2.057 94.818 0.774 Q94.818 3.604 92.695 5.724 Q90.602 7.873 87.694 7.873 Q84.785 7.873 82.666 5.724 L76.821 -0.056 Z M50.326 -0.056 Q46.611 -3.702 44.769 -8.359 Q42.927 -13.015 42.927 -17.855 Q42.927 -22.695 44.769 -27.351 Q46.611 -32.008 50.326 -35.654 L59.701 -45.029 Q61.361 -46.719 62.081 -48.669 Q62.802 -50.62 62.802 -52.707 Q62.802 -54.795 62.081 -56.768 Q61.361 -58.741 59.701 -60.431 L53.826 -66.306 Q51.802 -68.301 51.754 -71.194 Q51.706 -74.087 53.826 -76.18 Q55.821 -78.303 58.75 -78.303 Q61.679 -78.303 63.799 -76.279 L69.674 -70.404 Q73.359 -66.786 75.216 -62.193 Q77.073 -57.6 77.073 -52.76 Q77.073 -47.92 75.216 -43.361 Q73.359 -38.801 69.674 -35.181 L60.299 -25.806 Q58.647 -24.079 57.86 -22.046 Q57.073 -20.013 57.073 -17.869 Q57.073 -15.725 57.86 -13.701 Q58.647 -11.678 60.299 -10.029 L66.174 -4.154 Q68.323 -2.057 68.323 0.774 Q68.323 3.604 66.2 5.724 Q64.107 7.873 61.199 7.873 Q58.291 7.873 56.171 5.724 L50.326 -0.056 Z M23.831 -0.181 Q20.117 -3.829 18.274 -8.422 Q16.432 -13.015 16.432 -17.855 Q16.432 -22.695 18.274 -27.351 Q20.117 -32.008 23.831 -35.654 L33.206 -45.154 Q34.867 -46.844 35.587 -48.794 Q36.307 -50.745 36.307 -52.832 Q36.307 -54.92 35.587 -56.893 Q34.867 -58.866 33.206 -60.556 L27.331 -66.431 Q25.277 -68.426 25.23 -71.309 Q25.182 -74.193 27.331 -76.279 Q29.326 -78.303 32.255 -78.303 Q35.185 -78.303 37.179 -76.279 L43.179 -70.404 Q46.894 -66.786 48.736 -62.193 Q50.579 -57.6 50.579 -52.76 Q50.579 -47.92 48.721 -43.361 Q46.864 -38.801 43.179 -35.181 L33.804 -25.806 Q32.152 -24.106 31.365 -22.036 Q30.579 -19.965 30.579 -17.855 Q30.579 -15.749 31.365 -13.737 Q32.152 -11.726 33.804 -10.029 L39.679 -4.184 Q41.829 -2.087 41.766 0.759 Q41.704 3.604 39.554 5.716 Q37.435 7.718 34.568 7.718 Q31.701 7.718 29.706 5.694 L23.831 -0.181 Z"/></g><g id="Regular-M" transform="matrix(1 0 0 1 1394.06 1126)"><path d="M75.625 -0.355 Q72.004 -3.939 70.127 -8.584 Q68.25 -13.23 68.25 -17.98 Q68.25 -22.73 70.125 -27.23 Q72 -31.73 75.625 -35.355 L85 -44.73 Q86.75 -46.48 87.5 -48.52 Q88.25 -50.56 88.25 -52.707 Q88.25 -54.855 87.5 -56.917 Q86.75 -58.98 85 -60.73 L79.125 -66.605 Q77.125 -68.572 77.188 -71.276 Q77.25 -73.98 79.224 -75.98 Q81.197 -77.98 83.911 -77.98 Q86.625 -77.98 88.625 -75.98 L94.375 -70.105 Q98 -66.48 99.812 -62.042 Q101.625 -57.605 101.625 -52.883 Q101.625 -48.161 99.812 -43.642 Q98 -39.122 94.375 -35.48 L85 -26.105 Q83.258 -24.348 82.442 -22.262 Q81.625 -20.176 81.625 -17.98 Q81.625 -15.78 82.442 -13.635 Q83.258 -11.49 85 -9.73 L90.875 -3.855 Q92.875 -1.878 92.875 0.759 Q92.875 3.395 90.901 5.395 Q88.928 7.395 86.214 7.395 Q83.5 7.395 81.5 5.395 L75.625 -0.355 Z M50.625 -0.355 Q47 -3.941 45.188 -8.523 Q43.375 -13.105 43.375 -17.855 Q43.375 -22.605 45.188 -27.187 Q47 -31.769 50.625 -35.355 L60 -44.73 Q61.75 -46.48 62.5 -48.52 Q63.25 -50.56 63.25 -52.707 Q63.25 -54.855 62.5 -56.917 Q61.75 -58.98 60 -60.73 L54.125 -66.605 Q52.25 -68.48 52.188 -71.194 Q52.125 -73.908 54.125 -75.881 Q56 -77.855 58.75 -77.855 Q61.5 -77.855 63.5 -75.98 L69.375 -70.105 Q73 -66.517 74.812 -61.998 Q76.625 -57.48 76.625 -52.73 Q76.625 -47.98 74.812 -43.525 Q73 -39.07 69.375 -35.48 L60 -26.105 Q58.258 -24.318 57.441 -22.195 Q56.625 -20.073 56.625 -17.839 Q56.625 -15.605 57.441 -13.522 Q58.258 -11.439 60 -9.73 L65.875 -3.855 Q67.875 -1.878 67.875 0.759 Q67.875 3.395 65.901 5.395 Q63.928 7.395 61.214 7.395 Q58.5 7.395 56.5 5.395 L50.625 -0.355 Z M25.625 -0.48 Q22 -4.068 20.188 -8.587 Q18.375 -13.105 18.375 -17.855 Q18.375 -22.605 20.188 -27.187 Q22 -31.769 25.625 -35.355 L35 -44.855 Q36.75 -46.605 37.5 -48.645 Q38.25 -50.685 38.25 -52.832 Q38.25 -54.98 37.5 -57.042 Q36.75 -59.105 35 -60.855 L29.125 -66.73 Q27.25 -68.605 27.188 -71.309 Q27.125 -74.013 29.125 -75.98 Q31 -77.855 33.75 -77.855 Q36.5 -77.855 38.375 -75.98 L44.375 -70.105 Q48 -66.517 49.812 -61.998 Q51.625 -57.48 51.625 -52.73 Q51.625 -47.98 49.812 -43.525 Q48 -39.07 44.375 -35.48 L35 -26.105 Q33.258 -24.345 32.441 -22.2 Q31.625 -20.055 31.625 -17.855 Q31.625 -15.659 32.441 -13.573 Q33.258 -11.487 35 -9.73 L40.875 -3.855 Q42.875 -1.878 42.812 0.759 Q42.75 3.395 40.75 5.417 Q38.75 7.27 36.062 7.27 Q33.375 7.27 31.5 5.395 L25.625 -0.48 Z"/></g><g id="Light-M" transform="matrix(1 0 0 1 1098.18 1126)"><path d="M75.048 -1.22 Q71.64 -4.603 69.873 -8.989 Q68.106 -13.374 68.106 -17.932 Q68.106 -22.49 69.885 -26.773 Q71.663 -31.057 75.048 -34.489 L84.423 -43.864 Q86.365 -45.793 87.212 -48.059 Q88.058 -50.325 88.058 -52.71 Q88.058 -55.095 87.212 -57.382 Q86.365 -59.668 84.423 -61.595 L78.596 -67.47 Q76.981 -69.052 76.995 -71.228 Q77.01 -73.403 78.647 -75.066 Q80.236 -76.682 82.421 -76.682 Q84.606 -76.682 86.269 -75.066 L92.067 -69.239 Q95.5 -65.795 97.216 -61.586 Q98.933 -57.376 98.933 -52.889 Q98.933 -48.402 97.216 -44.105 Q95.5 -39.808 92.067 -36.345 L82.692 -26.97 Q80.752 -25.028 79.842 -22.722 Q78.933 -20.416 78.933 -17.932 Q78.933 -15.443 79.845 -13.13 Q80.758 -10.817 82.692 -8.864 L88.519 -2.989 Q90.134 -1.397 90.159 0.735 Q90.183 2.866 88.545 4.53 Q86.956 6.145 84.771 6.145 Q82.587 6.145 80.923 4.53 L75.048 -1.22 Z M51.49 -1.22 Q48.058 -4.617 46.341 -8.957 Q44.625 -13.297 44.625 -17.855 Q44.625 -22.413 46.341 -26.753 Q48.058 -31.093 51.49 -34.489 L60.865 -43.864 Q62.808 -45.793 63.654 -48.059 Q64.5 -50.325 64.5 -52.71 Q64.5 -55.095 63.654 -57.382 Q62.808 -59.668 60.865 -61.595 L54.99 -67.518 Q53.452 -69.057 53.413 -71.218 Q53.375 -73.379 54.999 -75.016 Q56.529 -76.653 58.726 -76.605 Q60.923 -76.557 62.587 -75.066 L68.51 -69.239 Q71.942 -65.832 73.659 -61.542 Q75.375 -57.251 75.375 -52.736 Q75.375 -48.22 73.659 -43.988 Q71.942 -39.756 68.51 -36.345 L59.135 -26.97 Q57.194 -25.012 56.285 -22.687 Q55.375 -20.362 55.375 -17.839 Q55.375 -15.316 56.288 -13.041 Q57.2 -10.766 59.135 -8.864 L64.962 -2.989 Q66.577 -1.397 66.601 0.735 Q66.625 2.866 64.988 4.53 Q63.399 6.145 61.214 6.145 Q59.029 6.145 57.365 4.53 L51.49 -1.22 Z M27.933 -1.345 Q24.5 -4.742 22.784 -9.02 Q21.067 -13.297 21.067 -17.855 Q21.067 -22.413 22.808 -26.754 Q24.548 -31.096 27.981 -34.489 L37.308 -43.989 Q39.25 -45.918 40.096 -48.184 Q40.943 -50.45 40.943 -52.835 Q40.943 -55.22 40.096 -57.507 Q39.25 -59.793 37.308 -61.72 L31.433 -67.643 Q29.894 -69.182 29.88 -71.357 Q29.866 -73.532 31.489 -75.123 Q33.019 -76.653 35.192 -76.653 Q37.365 -76.653 38.904 -75.114 L44.952 -69.239 Q48.385 -65.841 50.101 -61.562 Q51.817 -57.282 51.817 -52.778 Q51.817 -48.25 50.101 -44.007 Q48.385 -39.765 44.952 -36.345 L35.577 -26.97 Q33.643 -25.018 32.73 -22.705 Q31.817 -20.392 31.817 -17.903 Q31.817 -15.419 32.727 -13.113 Q33.636 -10.806 35.577 -8.864 L41.404 -2.989 Q43.019 -1.397 43.005 0.735 Q42.99 2.866 41.327 4.551 Q39.707 6.052 37.527 6.036 Q35.346 6.02 33.856 4.53 L27.933 -1.345 Z"/></g><g id="Thin-M" transform="matrix(1 0 0 1 802.565 1126)"><path d="M74.471 -2.086 Q71.275 -5.268 69.618 -9.393 Q67.962 -13.518 67.962 -17.884 Q67.962 -22.249 69.644 -26.316 Q71.327 -30.384 74.471 -33.624 L83.846 -42.999 Q85.981 -45.106 86.923 -47.598 Q87.865 -50.09 87.865 -52.713 Q87.865 -55.336 86.923 -57.846 Q85.981 -60.357 83.846 -62.461 L78.067 -68.336 Q76.837 -69.533 76.803 -71.18 Q76.769 -72.826 78.07 -74.153 Q79.274 -75.384 80.93 -75.384 Q82.587 -75.384 83.913 -74.153 L89.76 -68.374 Q93 -65.111 94.62 -61.129 Q96.24 -57.147 96.24 -52.895 Q96.24 -48.642 94.62 -44.568 Q93 -40.494 89.76 -37.211 L80.385 -27.836 Q78.246 -25.709 77.243 -23.183 Q76.24 -20.657 76.24 -17.884 Q76.24 -15.107 77.249 -12.625 Q78.258 -10.144 80.385 -7.999 L86.163 -2.124 Q87.394 -0.916 87.442 0.711 Q87.49 2.337 86.19 3.664 Q84.985 4.895 83.329 4.895 Q81.673 4.895 80.346 3.664 L74.471 -2.086 Z M52.356 -2.086 Q49.115 -5.293 47.495 -9.391 Q45.875 -13.49 45.875 -17.855 Q45.875 -22.22 47.495 -26.319 Q49.115 -30.417 52.356 -33.624 L61.731 -42.999 Q63.865 -45.106 64.808 -47.598 Q65.75 -50.09 65.75 -52.713 Q65.75 -55.336 64.808 -57.846 Q63.865 -60.357 61.731 -62.461 L55.856 -68.432 Q54.654 -69.634 54.639 -71.242 Q54.625 -72.85 55.873 -74.15 Q57.058 -75.451 58.702 -75.355 Q60.346 -75.259 61.673 -74.153 L67.644 -68.374 Q70.885 -65.148 72.505 -61.085 Q74.125 -57.022 74.125 -52.742 Q74.125 -48.461 72.505 -44.451 Q70.885 -40.442 67.644 -37.211 L58.269 -27.836 Q56.13 -25.707 55.128 -23.178 Q54.125 -20.65 54.125 -17.839 Q54.125 -15.028 55.134 -12.56 Q56.143 -10.093 58.269 -7.999 L64.048 -2.124 Q65.279 -0.916 65.327 0.711 Q65.375 2.337 64.074 3.664 Q62.87 4.895 61.214 4.895 Q59.558 4.895 58.231 3.664 L52.356 -2.086 Z M30.24 -2.211 Q27 -5.416 25.38 -9.453 Q23.76 -13.49 23.76 -17.855 Q23.76 -22.22 25.428 -26.322 Q27.096 -30.423 30.337 -33.624 L39.615 -43.124 Q41.75 -45.231 42.692 -47.723 Q43.635 -50.215 43.635 -52.838 Q43.635 -55.461 42.692 -57.971 Q41.75 -60.482 39.615 -62.586 L33.74 -68.557 Q32.538 -69.759 32.572 -71.405 Q32.606 -73.052 33.853 -74.266 Q35.038 -75.451 36.635 -75.451 Q38.231 -75.451 39.433 -74.249 L45.529 -68.374 Q48.769 -65.165 50.389 -61.125 Q52.01 -57.084 52.01 -52.826 Q52.01 -48.52 50.389 -44.489 Q48.769 -40.459 45.529 -37.211 L36.154 -27.836 Q34.027 -25.691 33.019 -23.21 Q32.01 -20.728 32.01 -17.951 Q32.01 -15.178 33.012 -12.652 Q34.015 -10.126 36.154 -7.999 L41.933 -2.124 Q43.163 -0.916 43.197 0.711 Q43.231 2.337 41.904 3.686 Q40.664 4.834 38.991 4.802 Q37.317 4.77 36.212 3.664 L30.24 -2.211 Z"/></g><g id="Ultralight-M" transform="matrix(1 0 0 1 506.415 1126)"><path d="M74.125 -2.605 Q71.057 -5.667 69.466 -9.636 Q67.875 -13.605 67.875 -17.855 Q67.875 -22.105 69.5 -26.042 Q71.125 -29.98 74.125 -33.105 L83.5 -42.48 Q85.75 -44.694 86.75 -47.321 Q87.75 -49.949 87.75 -52.714 Q87.75 -55.48 86.75 -58.125 Q85.75 -60.77 83.5 -62.98 L77.75 -68.855 Q76.75 -69.822 76.688 -71.151 Q76.625 -72.48 77.724 -73.605 Q78.697 -74.605 80.036 -74.605 Q81.375 -74.605 82.5 -73.605 L88.375 -67.855 Q91.5 -64.7 93.062 -60.855 Q94.625 -57.01 94.625 -52.898 Q94.625 -48.786 93.062 -44.846 Q91.5 -40.906 88.375 -37.73 L79 -28.355 Q76.742 -26.117 75.683 -23.459 Q74.625 -20.801 74.625 -17.855 Q74.625 -14.905 75.692 -12.322 Q76.758 -9.74 79 -7.48 L84.75 -1.605 Q85.75 -0.628 85.812 0.696 Q85.875 2.02 84.776 3.145 Q83.803 4.145 82.464 4.145 Q81.125 4.145 80 3.145 L74.125 -2.605 Z M52.875 -2.605 Q49.75 -5.699 48.188 -9.652 Q46.625 -13.605 46.625 -17.855 Q46.625 -22.105 48.188 -26.058 Q49.75 -30.011 52.875 -33.105 L62.25 -42.48 Q64.5 -44.694 65.5 -47.321 Q66.5 -49.949 66.5 -52.714 Q66.5 -55.48 65.5 -58.125 Q64.5 -60.77 62.25 -62.98 L56.375 -68.98 Q55.375 -69.98 55.375 -71.256 Q55.375 -72.533 56.397 -73.631 Q57.375 -74.73 58.688 -74.605 Q60 -74.48 61.125 -73.605 L67.125 -67.855 Q70.25 -64.737 71.812 -60.811 Q73.375 -56.885 73.375 -52.745 Q73.375 -48.605 71.812 -44.729 Q70.25 -40.854 67.125 -37.73 L57.75 -28.355 Q55.492 -26.123 54.434 -23.473 Q53.375 -20.823 53.375 -17.839 Q53.375 -14.855 54.441 -12.272 Q55.508 -9.689 57.75 -7.48 L63.5 -1.605 Q64.5 -0.628 64.562 0.696 Q64.625 2.02 63.526 3.145 Q62.553 4.145 61.214 4.145 Q59.875 4.145 58.75 3.145 L52.875 -2.605 Z M31.625 -2.73 Q28.5 -5.821 26.938 -9.713 Q25.375 -13.605 25.375 -17.855 Q25.375 -22.105 27 -26.062 Q28.625 -30.019 31.75 -33.105 L41 -42.605 Q43.25 -44.819 44.25 -47.446 Q45.25 -50.074 45.25 -52.839 Q45.25 -55.605 44.25 -58.25 Q43.25 -60.895 41 -63.105 L35.125 -69.105 Q34.125 -70.105 34.188 -71.434 Q34.25 -72.763 35.272 -73.752 Q36.25 -74.73 37.5 -74.73 Q38.75 -74.73 39.75 -73.73 L45.875 -67.855 Q49 -64.76 50.562 -60.863 Q52.125 -56.966 52.125 -52.855 Q52.125 -48.681 50.562 -44.779 Q49 -40.876 45.875 -37.73 L36.5 -28.355 Q34.258 -26.095 33.191 -23.512 Q32.125 -20.93 32.125 -17.98 Q32.125 -15.034 33.184 -12.376 Q34.242 -9.718 36.5 -7.48 L42.25 -1.605 Q43.25 -0.628 43.312 0.696 Q43.375 2.02 42.25 3.167 Q41.239 4.103 39.869 4.062 Q38.5 4.02 37.625 3.145 L31.625 -2.73 Z"/></g><g id="Bold-S" transform="matrix(1 0 0 1 2294.23 696)"><path d="M63.712 -7.418 Q60.757 -10.245 59.275 -13.911 Q57.794 -17.576 57.794 -21.62 Q57.794 -25.663 59.323 -29.411 Q60.852 -33.159 63.712 -36.019 L71.01 -43.317 Q72.095 -44.501 72.588 -45.913 Q73.081 -47.325 73.081 -48.921 Q73.081 -50.418 72.539 -51.75 Q71.996 -53.081 71.01 -54.265 L66.177 -59.196 Q64.205 -61.043 64.205 -63.522 Q64.205 -66.001 66.157 -67.875 Q68.01 -69.847 70.545 -69.847 Q73.081 -69.847 74.955 -67.875 L79.788 -63.042 Q82.648 -60.281 84.226 -56.681 Q85.804 -53.081 85.804 -49.06 Q85.804 -45.137 84.226 -41.275 Q82.648 -37.414 79.788 -34.638 L72.489 -27.34 Q71.51 -26.151 70.865 -24.752 Q70.221 -23.352 70.221 -21.718 Q70.221 -20.18 70.915 -18.734 Q71.608 -17.288 72.489 -16.195 L77.322 -11.363 Q79.294 -9.507 79.294 -6.983 Q79.294 -4.459 77.343 -2.585 Q75.49 -0.613 72.905 -0.613 Q70.32 -0.613 68.446 -2.585 L63.712 -7.418 Z M39.351 -7.418 Q36.393 -10.346 34.815 -14.01 Q33.237 -17.675 33.237 -21.718 Q33.237 -25.762 34.815 -29.427 Q36.393 -33.091 39.351 -36.019 L46.65 -43.317 Q47.833 -44.501 48.277 -45.913 Q48.721 -47.325 48.721 -48.921 Q48.721 -50.418 48.178 -51.799 Q47.636 -53.18 46.65 -54.265 L41.817 -59.097 Q39.845 -60.971 39.894 -63.458 Q39.943 -65.944 41.817 -67.797 Q43.691 -69.749 46.206 -69.699 Q48.721 -69.65 50.595 -67.776 L55.329 -63.042 Q58.189 -60.31 59.816 -56.695 Q61.443 -53.081 61.443 -49.037 Q61.443 -44.994 59.816 -41.183 Q58.189 -37.372 55.329 -34.638 L48.03 -27.34 Q47.051 -26.127 46.456 -24.699 Q45.861 -23.271 45.861 -21.706 Q45.861 -20.14 46.505 -18.694 Q47.149 -17.248 48.03 -16.195 L52.863 -11.264 Q54.836 -9.408 54.836 -6.884 Q54.836 -4.36 52.884 -2.486 Q51.031 -0.514 48.495 -0.514 Q45.959 -0.514 44.085 -2.486 L39.351 -7.418 Z M14.892 -7.319 Q11.835 -10.249 10.356 -13.913 Q8.876 -17.576 8.876 -21.718 Q8.876 -25.762 10.405 -29.476 Q11.934 -33.19 14.892 -36.019 L22.191 -43.317 Q23.374 -44.501 23.818 -45.913 Q24.262 -47.325 24.262 -49.02 Q24.262 -50.517 23.719 -51.848 Q23.177 -53.18 22.191 -54.265 L17.358 -59.097 Q15.287 -60.971 15.386 -63.45 Q15.484 -65.929 17.457 -67.776 Q19.331 -69.749 21.796 -69.749 Q24.262 -69.749 26.136 -67.776 L30.968 -63.042 Q33.927 -60.31 35.456 -56.695 Q36.984 -53.081 36.984 -49.037 Q36.984 -44.994 35.406 -41.183 Q33.828 -37.372 30.968 -34.638 L23.67 -27.34 Q22.69 -26.149 22.095 -24.703 Q21.5 -23.257 21.5 -21.62 Q21.5 -20.084 22.144 -18.685 Q22.789 -17.286 23.67 -16.195 L28.503 -11.363 Q30.475 -9.507 30.426 -6.934 Q30.377 -4.36 28.404 -2.568 Q26.53 -0.613 24.015 -0.662 Q21.5 -0.711 19.725 -2.585 L14.892 -7.319 Z"/></g><g id="Semibold-S" transform="matrix(1 0 0 1 1998.1 696)"><path d="M61.997 -7.847 Q59.17 -10.588 57.71 -14.168 Q56.251 -17.748 56.251 -21.663 Q56.251 -25.578 57.758 -29.197 Q59.265 -32.816 61.997 -35.59 L69.295 -42.888 Q70.508 -44.158 71.044 -45.699 Q71.58 -47.24 71.58 -48.921 Q71.58 -50.504 70.995 -51.964 Q70.41 -53.424 69.295 -54.693 L64.462 -59.625 Q62.704 -61.301 62.726 -63.522 Q62.747 -65.744 64.484 -67.446 Q66.166 -69.204 68.423 -69.204 Q70.68 -69.204 72.382 -67.446 L77.215 -62.613 Q79.989 -59.895 81.503 -56.424 Q83.017 -52.953 83.017 -49.06 Q83.017 -45.223 81.503 -41.511 Q79.989 -37.799 77.215 -35.067 L69.917 -27.769 Q68.808 -26.494 68.121 -24.988 Q67.434 -23.481 67.434 -21.718 Q67.434 -20.051 68.17 -18.498 Q68.907 -16.945 69.917 -15.767 L74.749 -10.934 Q76.507 -9.25 76.507 -7.004 Q76.507 -4.759 74.77 -3.057 Q73.089 -1.299 70.782 -1.299 Q68.476 -1.299 66.774 -3.057 L61.997 -7.847 Z M39.78 -7.847 Q36.95 -10.689 35.415 -14.246 Q33.88 -17.803 33.88 -21.718 Q33.88 -25.633 35.415 -29.191 Q36.95 -32.748 39.78 -35.59 L47.078 -42.888 Q48.391 -44.158 48.877 -45.699 Q49.364 -47.24 49.364 -48.921 Q49.364 -50.504 48.779 -52.013 Q48.193 -53.523 47.078 -54.693 L42.246 -59.526 Q40.488 -61.228 40.516 -63.458 Q40.543 -65.687 42.246 -67.368 Q43.948 -69.106 46.206 -69.056 Q48.463 -69.007 50.166 -67.347 L54.9 -62.613 Q57.674 -59.924 59.237 -56.417 Q60.8 -52.91 60.8 -48.995 Q60.8 -45.08 59.237 -41.419 Q57.674 -37.758 54.9 -35.067 L47.602 -27.769 Q46.493 -26.47 45.855 -24.914 Q45.217 -23.357 45.217 -21.663 Q45.217 -19.969 45.905 -18.437 Q46.592 -16.905 47.602 -15.767 L52.434 -10.835 Q54.192 -9.151 54.192 -6.906 Q54.192 -4.66 52.455 -2.958 Q50.773 -1.2 48.516 -1.2 Q46.259 -1.2 44.557 -2.958 L39.78 -7.847 Z M17.465 -7.748 Q14.536 -10.592 13.1 -14.148 Q11.663 -17.705 11.663 -21.718 Q11.663 -25.633 13.149 -29.24 Q14.635 -32.847 17.465 -35.59 L24.763 -42.888 Q26.075 -44.158 26.562 -45.699 Q27.049 -47.24 27.049 -49.02 Q27.049 -50.603 26.463 -52.063 Q25.878 -53.523 24.763 -54.693 L19.931 -59.526 Q18.117 -61.228 18.194 -63.45 Q18.271 -65.671 20.029 -67.347 Q21.732 -69.106 23.94 -69.106 Q26.148 -69.106 27.851 -67.347 L32.683 -62.613 Q35.513 -59.924 36.999 -56.417 Q38.485 -52.91 38.485 -48.995 Q38.485 -45.08 36.971 -41.419 Q35.458 -37.758 32.683 -35.067 L25.385 -27.769 Q24.277 -26.492 23.639 -24.939 Q23.001 -23.386 23.001 -21.62 Q23.001 -19.956 23.688 -18.449 Q24.375 -16.943 25.385 -15.767 L30.218 -10.891 Q31.976 -9.207 31.926 -6.934 Q31.877 -4.66 30.119 -2.997 Q28.417 -1.256 26.159 -1.305 Q23.901 -1.354 22.298 -3.014 L17.465 -7.748 Z"/></g><g id="Medium-S" transform="matrix(1 0 0 1 1701.85 696)"><path d="M60.71 -8.168 Q57.98 -10.846 56.536 -14.361 Q55.093 -17.876 55.093 -21.695 Q55.093 -25.513 56.584 -29.036 Q58.075 -32.559 60.71 -35.269 L68.008 -42.567 Q69.318 -43.9 69.887 -45.538 Q70.455 -47.175 70.455 -48.921 Q70.455 -50.568 69.837 -52.125 Q69.22 -53.681 68.008 -55.015 L63.176 -59.946 Q61.578 -61.494 61.616 -63.522 Q61.654 -65.551 63.23 -67.124 Q64.783 -68.722 66.831 -68.722 Q68.879 -68.722 70.453 -67.124 L75.285 -62.292 Q77.995 -59.605 79.461 -56.231 Q80.926 -52.856 80.926 -49.06 Q80.926 -45.287 79.461 -41.688 Q77.995 -38.089 75.285 -35.389 L67.987 -28.09 Q66.782 -26.752 66.063 -25.165 Q65.343 -23.577 65.343 -21.718 Q65.343 -19.955 66.112 -18.321 Q66.881 -16.688 67.987 -15.445 L72.82 -10.612 Q74.417 -9.057 74.417 -7.02 Q74.417 -4.984 72.84 -3.411 Q71.287 -1.813 69.19 -1.813 Q67.093 -1.813 65.519 -3.411 L60.71 -8.168 Z M40.102 -8.168 Q37.368 -10.946 35.865 -14.423 Q34.362 -17.9 34.362 -21.718 Q34.362 -25.537 35.865 -29.014 Q37.368 -32.491 40.102 -35.269 L47.4 -42.567 Q48.809 -43.9 49.327 -45.538 Q49.846 -47.175 49.846 -48.921 Q49.846 -50.568 49.229 -52.174 Q48.611 -53.78 47.4 -55.015 L42.567 -59.848 Q40.97 -61.421 40.982 -63.458 Q40.994 -65.494 42.567 -67.047 Q44.141 -68.623 46.206 -68.574 Q48.271 -68.525 49.844 -67.026 L54.578 -62.292 Q57.288 -59.634 58.803 -56.208 Q60.318 -52.781 60.318 -48.962 Q60.318 -45.144 58.803 -41.596 Q57.288 -38.048 54.578 -35.389 L47.28 -28.09 Q46.075 -26.727 45.405 -25.074 Q44.735 -23.421 44.735 -21.631 Q44.735 -19.84 45.454 -18.244 Q46.174 -16.648 47.28 -15.445 L52.113 -10.514 Q53.71 -8.958 53.71 -6.922 Q53.71 -4.886 52.133 -3.312 Q50.58 -1.715 48.532 -1.715 Q46.485 -1.715 44.911 -3.312 L40.102 -8.168 Z M19.395 -8.07 Q16.562 -10.849 15.158 -14.325 Q13.754 -17.801 13.754 -21.718 Q13.754 -25.537 15.207 -29.063 Q16.661 -32.589 19.395 -35.269 L26.693 -42.567 Q28.102 -43.9 28.62 -45.538 Q29.139 -47.175 29.139 -49.02 Q29.139 -50.667 28.522 -52.223 Q27.904 -53.78 26.693 -55.015 L21.86 -59.848 Q20.24 -61.421 20.301 -63.45 Q20.362 -65.478 21.959 -67.026 Q23.533 -68.623 25.548 -68.623 Q27.564 -68.623 29.137 -67.026 L33.97 -62.292 Q36.703 -59.634 38.157 -56.208 Q39.611 -52.781 39.611 -48.962 Q39.611 -45.144 38.145 -41.596 Q36.68 -38.048 33.97 -35.389 L26.672 -28.09 Q25.467 -26.749 24.797 -25.116 Q24.127 -23.482 24.127 -21.62 Q24.127 -19.859 24.846 -18.272 Q25.565 -16.685 26.672 -15.445 L31.504 -10.537 Q33.102 -8.982 33.052 -6.934 Q33.003 -4.886 31.406 -3.318 Q29.832 -1.738 27.767 -1.788 Q25.702 -1.837 24.227 -3.336 L19.395 -8.07 Z"/></g><g id="Regular-S" transform="matrix(1 0 0 1 1405.73 696)"><path d="M59.767 -8.404 Q57.107 -11.034 55.676 -14.502 Q54.244 -17.971 54.244 -21.718 Q54.244 -25.466 55.723 -28.918 Q57.203 -32.37 59.767 -35.033 L67.065 -42.331 Q68.446 -43.712 69.038 -45.42 Q69.629 -47.128 69.629 -48.921 Q69.629 -50.615 68.988 -52.243 Q68.347 -53.87 67.065 -55.251 L62.232 -60.182 Q60.753 -61.635 60.802 -63.522 Q60.852 -65.409 62.31 -66.889 Q63.769 -68.368 65.663 -68.368 Q67.558 -68.368 69.038 -66.889 L73.87 -62.056 Q76.533 -59.393 77.963 -56.089 Q79.393 -52.785 79.393 -49.06 Q79.393 -45.334 77.963 -41.818 Q76.533 -38.301 73.87 -35.624 L66.572 -28.326 Q65.296 -26.94 64.553 -25.294 Q63.81 -23.648 63.81 -21.718 Q63.81 -19.884 64.603 -18.192 Q65.395 -16.499 66.572 -15.209 L71.404 -10.376 Q72.884 -8.915 72.884 -7.032 Q72.884 -5.149 71.425 -3.67 Q69.967 -2.191 68.023 -2.191 Q66.079 -2.191 64.599 -3.67 L59.767 -8.404 Z M40.338 -8.404 Q37.675 -11.135 36.195 -14.553 Q34.716 -17.971 34.716 -21.718 Q34.716 -25.466 36.195 -28.884 Q37.675 -32.302 40.338 -35.033 L47.636 -42.331 Q49.115 -43.712 49.658 -45.42 Q50.2 -47.128 50.2 -48.921 Q50.2 -50.615 49.559 -52.292 Q48.918 -53.969 47.636 -55.251 L42.803 -60.083 Q41.324 -61.563 41.324 -63.458 Q41.324 -65.352 42.803 -66.811 Q44.283 -68.269 46.206 -68.22 Q48.129 -68.171 49.608 -66.79 L54.342 -62.056 Q57.005 -59.422 58.485 -56.054 Q59.964 -52.687 59.964 -48.939 Q59.964 -45.191 58.485 -41.726 Q57.005 -38.26 54.342 -35.624 L47.044 -28.326 Q45.768 -26.916 45.075 -25.192 Q44.381 -23.468 44.381 -21.607 Q44.381 -19.746 45.124 -18.102 Q45.867 -16.459 47.044 -15.209 L51.877 -10.278 Q53.356 -8.816 53.356 -6.934 Q53.356 -5.051 51.898 -3.571 Q50.439 -2.092 48.544 -2.092 Q46.65 -2.092 45.17 -3.571 L40.338 -8.404 Z M20.81 -8.305 Q18.048 -11.038 16.668 -14.455 Q15.287 -17.872 15.287 -21.718 Q15.287 -25.466 16.717 -28.933 Q18.147 -32.401 20.81 -35.033 L28.108 -42.331 Q29.588 -43.712 30.13 -45.42 Q30.672 -47.128 30.672 -49.02 Q30.672 -50.714 30.031 -52.341 Q29.39 -53.969 28.108 -55.251 L23.276 -60.083 Q21.796 -61.563 21.845 -63.45 Q21.895 -65.337 23.374 -66.79 Q24.854 -68.269 26.727 -68.269 Q28.601 -68.269 30.081 -66.79 L34.913 -62.056 Q37.576 -59.422 39.006 -56.054 Q40.436 -52.687 40.436 -48.939 Q40.436 -45.191 39.006 -41.726 Q37.576 -38.26 34.913 -35.624 L27.615 -28.326 Q26.339 -26.938 25.646 -25.245 Q24.952 -23.553 24.952 -21.62 Q24.952 -19.788 25.695 -18.143 Q26.438 -16.497 27.615 -15.209 L32.448 -10.278 Q33.927 -8.816 33.878 -6.934 Q33.828 -5.051 32.349 -3.554 Q30.87 -2.092 28.946 -2.141 Q27.023 -2.191 25.643 -3.571 L20.81 -8.305 Z"/></g><g id="Light-S" transform="matrix(1 0 0 1 1109.75 696)"><path d="M59.311 -9.087 Q56.82 -11.559 55.475 -14.822 Q54.13 -18.084 54.13 -21.68 Q54.13 -25.276 55.533 -28.558 Q56.937 -31.839 59.311 -34.35 L66.61 -41.648 Q68.142 -43.17 68.81 -45.056 Q69.477 -46.943 69.477 -48.923 Q69.477 -50.805 68.761 -52.609 Q68.044 -54.413 66.61 -55.934 L61.815 -60.865 Q60.639 -62.015 60.651 -63.484 Q60.662 -64.954 61.855 -66.168 Q63.01 -67.344 64.487 -67.344 Q65.965 -67.344 67.179 -66.168 L72.049 -61.373 Q74.56 -58.853 75.915 -55.729 Q77.269 -52.605 77.269 -49.064 Q77.269 -45.524 75.915 -42.183 Q74.56 -38.842 72.049 -36.307 L64.751 -29.009 Q63.319 -27.477 62.502 -25.657 Q61.686 -23.838 61.686 -21.68 Q61.686 -19.618 62.554 -17.793 Q63.422 -15.968 64.751 -14.526 L69.546 -9.694 Q70.722 -8.536 70.741 -7.051 Q70.759 -5.567 69.566 -4.353 Q68.411 -3.177 66.885 -3.177 Q65.358 -3.177 64.144 -4.353 L59.311 -9.087 Z M41.021 -9.087 Q38.509 -11.668 37.106 -14.895 Q35.702 -18.122 35.702 -21.718 Q35.702 -25.314 37.106 -28.541 Q38.509 -31.769 41.021 -34.35 L48.319 -41.648 Q49.95 -43.17 50.568 -45.056 Q51.186 -46.943 51.186 -48.923 Q51.186 -50.805 50.469 -52.659 Q49.753 -54.512 48.319 -55.934 L43.486 -60.804 Q42.272 -62.018 42.291 -63.476 Q42.31 -64.935 43.493 -66.128 Q44.7 -67.321 46.187 -67.234 Q47.674 -67.147 48.888 -66.069 L53.659 -61.373 Q56.171 -58.882 57.574 -55.694 Q58.978 -52.506 58.978 -48.944 Q58.978 -45.381 57.574 -42.091 Q56.171 -38.801 53.659 -36.307 L46.361 -29.009 Q44.929 -27.464 44.162 -25.58 Q43.395 -23.696 43.395 -21.607 Q43.395 -19.518 44.214 -17.723 Q45.032 -15.928 46.361 -14.526 L51.156 -9.595 Q52.332 -8.437 52.351 -6.953 Q52.37 -5.468 51.177 -4.254 Q50.022 -3.078 48.544 -3.078 Q47.067 -3.078 45.853 -4.254 L41.021 -9.087 Z M22.631 -8.988 Q20.021 -11.57 18.716 -14.797 Q17.411 -18.024 17.411 -21.718 Q17.411 -25.314 18.784 -28.592 Q20.158 -31.87 22.669 -34.35 L29.929 -41.648 Q31.56 -43.17 32.178 -45.056 Q32.797 -46.943 32.797 -49.022 Q32.797 -50.904 32.08 -52.708 Q31.363 -54.512 29.929 -55.934 L25.096 -60.804 Q23.883 -62.018 23.97 -63.488 Q24.057 -64.958 25.24 -66.114 Q26.447 -67.321 27.865 -67.321 Q29.284 -67.321 30.498 -66.107 L35.369 -61.373 Q37.88 -58.889 39.234 -55.71 Q40.588 -52.531 40.588 -48.977 Q40.588 -45.404 39.234 -42.106 Q37.88 -38.808 35.369 -36.307 L28.07 -29.009 Q26.643 -27.469 25.873 -25.644 Q25.104 -23.818 25.104 -21.658 Q25.104 -19.599 25.92 -17.779 Q26.736 -15.96 28.07 -14.526 L32.865 -9.595 Q34.041 -8.437 34.029 -6.953 Q34.018 -5.468 32.804 -4.237 Q31.625 -3.053 30.102 -3.115 Q28.579 -3.177 27.501 -4.254 L22.631 -8.988 Z"/></g><g id="Thin-S" transform="matrix(1 0 0 1 814.015 696)"><path d="M58.856 -9.77 Q56.532 -12.083 55.274 -15.141 Q54.016 -18.198 54.016 -21.643 Q54.016 -25.087 55.344 -28.197 Q56.671 -31.308 58.856 -33.667 L66.155 -40.965 Q67.839 -42.628 68.582 -44.692 Q69.326 -46.757 69.326 -48.925 Q69.326 -50.995 68.533 -52.976 Q67.74 -54.957 66.155 -56.616 L61.398 -61.548 Q60.525 -62.394 60.499 -63.446 Q60.472 -64.499 61.4 -65.447 Q62.252 -66.32 63.312 -66.32 Q64.372 -66.32 65.32 -65.447 L70.229 -60.69 Q72.588 -58.313 73.866 -55.369 Q75.145 -52.424 75.145 -49.069 Q75.145 -45.714 73.866 -42.549 Q72.588 -39.383 70.229 -36.99 L62.93 -29.692 Q61.341 -28.014 60.452 -26.02 Q59.562 -24.028 59.562 -21.643 Q59.562 -19.353 60.506 -17.395 Q61.45 -15.437 62.93 -13.844 L67.687 -9.011 Q68.56 -8.156 68.598 -7.07 Q68.635 -5.984 67.708 -5.036 Q66.856 -4.163 65.747 -4.163 Q64.637 -4.163 63.689 -5.036 L58.856 -9.77 Z M41.703 -9.77 Q39.344 -12.202 38.016 -15.238 Q36.689 -18.274 36.689 -21.718 Q36.689 -25.163 38.016 -28.199 Q39.344 -31.235 41.703 -33.667 L49.001 -40.965 Q50.784 -42.628 51.478 -44.692 Q52.173 -46.757 52.173 -48.925 Q52.173 -50.995 51.38 -53.025 Q50.587 -55.055 49.001 -56.616 L44.169 -61.525 Q43.221 -62.473 43.258 -63.495 Q43.296 -64.518 44.182 -65.445 Q45.117 -66.373 46.168 -66.248 Q47.219 -66.122 48.167 -65.349 L52.977 -60.69 Q55.336 -58.342 56.664 -55.334 Q57.992 -52.326 57.992 -48.948 Q57.992 -45.57 56.664 -42.456 Q55.336 -39.342 52.977 -36.99 L45.679 -29.692 Q44.09 -28.012 43.249 -25.968 Q42.409 -23.924 42.409 -21.607 Q42.409 -19.291 43.303 -17.344 Q44.198 -15.397 45.679 -13.844 L50.435 -8.912 Q51.308 -8.058 51.346 -6.972 Q51.384 -5.885 50.456 -4.937 Q49.604 -4.064 48.544 -4.064 Q47.484 -4.064 46.536 -4.937 L41.703 -9.77 Z M24.451 -9.671 Q21.993 -12.102 20.764 -15.139 Q19.535 -18.175 19.535 -21.718 Q19.535 -25.163 20.852 -28.251 Q22.168 -31.339 24.527 -33.667 L31.75 -40.965 Q33.532 -42.628 34.227 -44.692 Q34.921 -46.757 34.921 -49.024 Q34.921 -51.093 34.128 -53.074 Q33.335 -55.055 31.75 -56.616 L26.917 -61.525 Q25.969 -62.473 26.094 -63.526 Q26.219 -64.578 27.105 -65.438 Q28.04 -66.373 29.003 -66.373 Q29.967 -66.373 30.915 -65.424 L35.824 -60.69 Q38.183 -58.356 39.461 -55.365 Q40.74 -52.374 40.74 -49.015 Q40.74 -45.617 39.461 -42.486 Q38.183 -39.356 35.824 -36.99 L28.525 -29.692 Q26.946 -28 26.101 -26.042 Q25.256 -24.084 25.256 -21.696 Q25.256 -19.409 26.145 -17.416 Q27.035 -15.423 28.525 -13.844 L33.282 -8.912 Q34.155 -8.058 34.181 -6.972 Q34.208 -5.885 33.259 -4.92 Q32.38 -4.014 31.257 -4.088 Q30.134 -4.163 29.36 -4.937 L24.451 -9.671 Z"/></g><g id="Ultralight-S" transform="matrix(1 0 0 1 517.792 696)"><path d="M58.583 -10.179 Q56.36 -12.398 55.154 -15.332 Q53.948 -18.266 53.948 -21.62 Q53.948 -24.973 55.23 -27.981 Q56.512 -30.989 58.583 -33.257 L65.882 -40.556 Q67.657 -42.302 68.446 -44.474 Q69.235 -46.646 69.235 -48.926 Q69.235 -51.109 68.396 -53.196 Q67.558 -55.283 65.882 -57.026 L61.148 -61.957 Q60.457 -62.621 60.408 -63.424 Q60.358 -64.226 61.127 -65.015 Q61.796 -65.705 62.606 -65.705 Q63.416 -65.705 64.205 -65.015 L69.136 -60.281 Q71.404 -57.989 72.637 -55.153 Q73.87 -52.316 73.87 -49.072 Q73.87 -45.827 72.637 -42.768 Q71.404 -39.708 69.136 -37.4 L61.838 -30.101 Q60.155 -28.336 59.221 -26.238 Q58.287 -24.141 58.287 -21.62 Q58.287 -19.194 59.277 -17.156 Q60.266 -15.118 61.838 -13.434 L66.572 -8.601 Q67.262 -7.929 67.312 -7.082 Q67.361 -6.234 66.593 -5.445 Q65.923 -4.755 65.064 -4.755 Q64.205 -4.755 63.416 -5.445 L58.583 -10.179 Z M42.113 -10.179 Q39.845 -12.522 38.562 -15.443 Q37.28 -18.365 37.28 -21.718 Q37.28 -25.072 38.562 -27.993 Q39.845 -30.915 42.113 -33.257 L49.411 -40.556 Q51.285 -42.302 52.025 -44.474 Q52.764 -46.646 52.764 -48.926 Q52.764 -51.109 51.926 -53.245 Q51.088 -55.381 49.411 -57.026 L44.579 -61.957 Q43.79 -62.746 43.839 -63.507 Q43.888 -64.267 44.596 -65.036 Q45.367 -65.804 46.157 -65.656 Q46.946 -65.508 47.735 -64.916 L52.567 -60.281 Q54.836 -58.018 56.118 -55.118 Q57.4 -52.217 57.4 -48.951 Q57.4 -45.684 56.118 -42.676 Q54.836 -39.667 52.567 -37.4 L45.269 -30.101 Q43.586 -28.341 42.701 -26.2 Q41.817 -24.06 41.817 -21.607 Q41.817 -19.154 42.757 -17.116 Q43.697 -15.078 45.269 -13.434 L50.003 -8.503 Q50.693 -7.83 50.743 -6.983 Q50.792 -6.136 50.024 -5.347 Q49.354 -4.656 48.544 -4.656 Q47.735 -4.656 46.946 -5.347 L42.113 -10.179 Z M25.544 -10.081 Q23.177 -12.421 21.993 -15.344 Q20.81 -18.266 20.81 -21.718 Q20.81 -25.072 22.092 -28.046 Q23.374 -31.02 25.643 -33.257 L32.842 -40.556 Q34.716 -42.302 35.456 -44.474 Q36.195 -46.646 36.195 -49.025 Q36.195 -51.207 35.357 -53.294 Q34.519 -55.381 32.842 -57.026 L28.01 -61.957 Q27.221 -62.746 27.368 -63.548 Q27.516 -64.351 28.224 -65.032 Q28.996 -65.804 29.686 -65.804 Q30.377 -65.804 31.166 -65.015 L36.097 -60.281 Q38.365 -58.036 39.598 -55.158 Q40.831 -52.281 40.831 -49.037 Q40.831 -45.745 39.598 -42.715 Q38.365 -39.684 36.097 -37.4 L28.799 -30.101 Q27.128 -28.318 26.237 -26.281 Q25.347 -24.243 25.347 -21.718 Q25.347 -19.295 26.28 -17.198 Q27.214 -15.101 28.799 -13.434 L33.532 -8.503 Q34.223 -7.83 34.272 -6.983 Q34.322 -6.136 33.532 -5.329 Q32.833 -4.59 31.95 -4.673 Q31.067 -4.755 30.475 -5.347 L25.544 -10.081 Z"/></g></g></svg>