<svg xmlns="http://www.w3.org/2000/svg" version="1.1" width="3300" height="2000"><g id="Notes"><style>
    text {
      font-family: monospace;
      text-anchor: middle;
    }
    text.emphasis {
      font-weight:bold;
    }
    text.lanchor {
      text-anchor: start;
    }
  </style><rect height="2200" id="artboard" fill="white" width="3300" x="0" y="0"/><line id="" style="fill:none;stroke:black;stroke-width:0.5;" x1="263" x2="3036" y1="292" y2="292"/><text class="lanchor emphasis" transform="matrix(1 0 0 1 263 322)">Weight/Scale Variations</text><text transform="matrix(1 0 0 1 559.711 322)">Ultralight</text><text transform="matrix(1 0 0 1 856.422 322)">Thin</text><text transform="matrix(1 0 0 1 1153.13 322)">Light</text><text transform="matrix(1 0 0 1 1449.84 322)">Regular</text><text transform="matrix(1 0 0 1 1746.56 322)">Medium</text><text transform="matrix(1 0 0 1 2043.27 322)">Semibold</text><text transform="matrix(1 0 0 1 2339.98 322)">Bold</text><text transform="matrix(1 0 0 1 2636.69 322)">Heavy</text><text transform="matrix(1 0 0 1 2933.4 322)">Black</text><text id="template-version" style="text-anchor: end;" transform="matrix(1 0 0 1 3036 1933)">Template v.1.0</text><text class="lanchor" transform="matrix(1 0 0 1 263 726)">Small</text><text class="lanchor" transform="matrix(1 0 0 1 263 1156)">Medium</text><text class="lanchor" transform="matrix(1 0 0 1 263 1586)">Large</text></g><g id="Guides"><g id="H-reference" style="fill:#27AAE1;stroke:none;" transform="matrix(1 0 0 1 339 696)"><path d="M 54.9316 0 L 57.666 0 L 30.5664 -70.459 L 28.0762 -70.459 L 0.976562 0 L 3.66211 0 L 12.9395 -24.4629 L 45.7031 -24.4629 Z M 29.1992 -67.0898 L 29.4434 -67.0898 L 44.8242 -26.709 L 13.8184 -26.709 Z"/></g><line id="Baseline-S" style="fill:none;stroke:#27AAE1;opacity:1;stroke-width:0.577;" x1="263" x2="3036" y1="696" y2="696"/><line id="Capline-S" style="fill:none;stroke:#27AAE1;opacity:1;stroke-width:0.577;" x1="263" x2="3036" y1="625.541" y2="625.541"/><g id="H-reference" style="fill:#27AAE1;stroke:none;" transform="matrix(1 0 0 1 339 1126)"><path d="M 54.9316 0 L 57.666 0 L 30.5664 -70.459 L 28.0762 -70.459 L 0.976562 0 L 3.66211 0 L 12.9395 -24.4629 L 45.7031 -24.4629 Z M 29.1992 -67.0898 L 29.4434 -67.0898 L 44.8242 -26.709 L 13.8184 -26.709 Z"/></g><line id="Baseline-M" style="fill:none;stroke:#27AAE1;opacity:1;stroke-width:0.577;" x1="263" x2="3036" y1="1126" y2="1126"/><line id="Capline-M" style="fill:none;stroke:#27AAE1;opacity:1;stroke-width:0.577;" x1="263" x2="3036" y1="1055.54" y2="1055.54"/><g id="H-reference" style="fill:#27AAE1;stroke:none;" transform="matrix(1 0 0 1 339 1556)"><path d="M 54.9316 0 L 57.666 0 L 30.5664 -70.459 L 28.0762 -70.459 L 0.976562 0 L 3.66211 0 L 12.9395 -24.4629 L 45.7031 -24.4629 Z M 29.1992 -67.0898 L 29.4434 -67.0898 L 44.8242 -26.709 L 13.8184 -26.709 Z"/></g><line id="Baseline-L" style="fill:none;stroke:#27AAE1;opacity:1;stroke-width:0.577;" x1="263" x2="3036" y1="1556" y2="1556"/><line id="Capline-L" style="fill:none;stroke:#27AAE1;opacity:1;stroke-width:0.577;" x1="263" x2="3036" y1="1485.54" y2="1485.54"/><rect height="119.336" id="left-margin" style="fill:darkred;stroke:none;opacity:0.4;" width="12.4512" x="1394.06" y="1030.79"/><rect height="119.336" id="right-margin" style="fill:darkgreen;stroke:none;opacity:0.4;" width="12.4512" x="1502.5112" y="1030.79"/><rect x="1406.5112" y="1045" width="96" height="96" fill="none" stroke="blue" stroke-dasharray="5"/><rect x="1394.06" y="1030.79" width="120.9024" height="119.336" fill="none" stroke="blue"/></g><g id="Symbols"><g id="Bold-L" transform="matrix(1 0 0 1 2266 1556)"><path d="M105.941 9.114 Q101.265 4.599 99.088 -1.045 Q96.911 -6.689 96.911 -12.655 Q96.911 -18.782 99.169 -24.507 Q101.426 -30.231 105.941 -34.746 L118.035 -46.84 Q120.293 -49.097 121.341 -51.919 Q122.389 -54.741 122.389 -57.805 Q122.389 -60.869 121.341 -63.691 Q120.293 -66.512 118.035 -68.77 L110.456 -76.349 Q108.038 -78.606 108.118 -81.751 Q108.199 -84.895 110.456 -87.152 Q112.714 -89.41 115.858 -89.41 Q119.002 -89.41 121.421 -87.152 L128.839 -79.574 Q133.192 -75.059 135.531 -69.415 Q137.869 -63.771 137.869 -57.966 Q137.869 -52 135.531 -46.356 Q133.192 -40.712 128.839 -36.197 L116.745 -24.104 Q114.326 -21.685 113.198 -18.863 Q112.069 -16.041 112.069 -12.977 Q112.069 -9.914 113.198 -7.011 Q114.326 -4.109 116.745 -1.69 L124.324 5.889 Q126.581 8.146 126.581 11.291 Q126.581 14.435 124.324 16.693 Q121.905 18.95 118.761 18.95 Q115.616 18.95 113.359 16.693 L105.941 9.114 Z M65.951 9.114 Q61.436 4.599 59.179 -1.126 Q56.921 -6.85 56.921 -12.816 Q56.921 -18.782 59.179 -24.507 Q61.436 -30.231 65.951 -34.746 L78.045 -46.84 Q80.303 -49.097 81.431 -51.919 Q82.56 -54.741 82.56 -57.805 Q82.56 -60.869 81.431 -63.691 Q80.303 -66.512 78.045 -68.77 L70.466 -76.349 Q68.209 -78.606 68.209 -81.67 Q68.209 -84.734 70.466 -86.991 Q72.724 -89.249 75.868 -89.329 Q79.013 -89.41 81.27 -87.152 L88.849 -79.574 Q93.364 -75.059 95.621 -69.415 Q97.879 -63.771 97.879 -57.966 Q97.879 -52 95.621 -46.356 Q93.364 -40.712 88.849 -36.197 L76.755 -24.104 Q74.336 -21.685 73.207 -18.782 Q72.079 -15.88 72.079 -12.816 Q72.079 -9.752 73.207 -6.931 Q74.336 -4.109 76.755 -1.69 L84.334 5.889 Q86.591 8.146 86.591 11.291 Q86.591 14.435 84.334 16.693 Q82.076 18.95 78.851 18.95 Q75.626 18.95 73.369 16.693 L65.951 9.114 Z M26.123 8.953 Q21.608 4.438 19.269 -1.206 Q16.931 -6.85 16.931 -12.816 Q16.931 -18.782 19.269 -24.507 Q21.608 -30.231 26.123 -34.746 L38.216 -47.001 Q40.474 -49.259 41.522 -52.081 Q42.57 -54.902 42.57 -57.966 Q42.57 -61.03 41.522 -63.852 Q40.474 -66.674 38.216 -68.931 L30.637 -76.51 Q28.219 -78.767 28.219 -81.831 Q28.219 -84.895 30.637 -87.152 Q32.895 -89.41 35.878 -89.329 Q38.861 -89.249 41.28 -87.152 L49.02 -79.574 Q53.535 -75.059 55.793 -69.496 Q58.05 -63.932 58.05 -58.127 Q58.05 -52.161 55.712 -46.437 Q53.374 -40.712 49.02 -36.197 L36.926 -24.104 Q34.508 -21.685 33.379 -18.782 Q32.25 -15.88 32.25 -12.816 Q32.25 -9.752 33.379 -6.931 Q34.508 -4.109 36.926 -1.69 L44.505 5.728 Q46.763 7.985 46.682 11.129 Q46.601 14.274 44.344 16.531 Q41.925 18.789 38.861 18.789 Q35.797 18.789 33.701 16.531 L26.123 8.953 Z"/></g><g id="Semibold-L" transform="matrix(1 0 0 1 1970.27 1556)"><path d="M104.118 8.273 Q99.653 3.898 97.546 -1.536 Q95.439 -6.969 95.439 -12.725 Q95.439 -18.572 97.591 -24.051 Q99.744 -29.53 104.118 -33.905 L116.212 -45.999 Q118.68 -48.467 119.833 -51.499 Q120.987 -54.531 120.987 -57.805 Q120.987 -61.079 119.833 -64.111 Q118.68 -67.143 116.212 -69.611 L108.633 -77.19 Q106.635 -79.097 106.716 -81.751 Q106.797 -84.404 108.704 -86.311 Q110.611 -88.218 113.264 -88.218 Q115.918 -88.218 117.916 -86.311 L125.333 -78.733 Q129.617 -74.358 131.815 -68.924 Q134.013 -63.491 134.013 -57.896 Q134.013 -52.21 131.815 -46.812 Q129.617 -41.414 125.333 -37.039 L113.24 -24.945 Q110.681 -22.386 109.447 -19.354 Q108.213 -16.322 108.213 -12.977 Q108.213 -9.633 109.447 -6.521 Q110.681 -3.408 113.24 -0.849 L120.818 6.73 Q122.726 8.637 122.726 11.256 Q122.726 13.874 120.818 15.781 Q118.82 17.688 116.167 17.688 Q113.513 17.688 111.606 15.781 L104.118 8.273 Z M66.792 8.273 Q62.418 3.898 60.265 -1.581 Q58.113 -7.06 58.113 -12.816 Q58.113 -18.572 60.265 -24.051 Q62.418 -29.53 66.792 -33.905 L78.886 -45.999 Q81.354 -48.467 82.553 -51.499 Q83.752 -54.531 83.752 -57.805 Q83.752 -61.079 82.553 -64.111 Q81.354 -67.143 78.886 -69.611 L71.307 -77.19 Q69.401 -79.097 69.401 -81.67 Q69.401 -84.243 71.307 -86.15 Q73.214 -88.057 75.868 -88.138 Q78.522 -88.218 80.429 -86.311 L88.008 -78.733 Q92.382 -74.358 94.535 -68.924 Q96.687 -63.491 96.687 -57.896 Q96.687 -52.21 94.535 -46.812 Q92.382 -41.414 88.008 -37.039 L75.914 -24.945 Q73.355 -22.386 72.121 -19.273 Q70.887 -16.16 70.887 -12.816 Q70.887 -9.472 72.121 -6.44 Q73.355 -3.408 75.914 -0.849 L83.493 6.73 Q85.399 8.637 85.399 11.256 Q85.399 13.874 83.493 15.781 Q81.586 17.688 78.886 17.688 Q76.187 17.688 74.28 15.781 L66.792 8.273 Z M29.558 8.111 Q25.183 3.736 22.985 -1.662 Q20.787 -7.06 20.787 -12.816 Q20.787 -18.572 22.985 -24.051 Q25.183 -29.53 29.558 -33.905 L41.651 -46.16 Q44.119 -48.628 45.272 -51.66 Q46.426 -54.692 46.426 -57.966 Q46.426 -61.24 45.272 -64.273 Q44.119 -67.305 41.651 -69.772 L34.073 -77.351 Q32.074 -79.258 32.074 -81.831 Q32.074 -84.404 34.073 -86.311 Q35.98 -88.218 38.507 -88.138 Q41.034 -88.057 43.033 -86.311 L50.773 -78.733 Q55.147 -74.358 57.3 -69.005 Q59.452 -63.652 59.452 -58.057 Q59.452 -52.372 57.254 -46.893 Q55.056 -41.414 50.773 -37.039 L38.679 -24.945 Q36.12 -22.386 34.886 -19.273 Q33.652 -16.16 33.652 -12.816 Q33.652 -9.472 34.886 -6.44 Q36.12 -3.408 38.679 -0.849 L46.258 6.639 Q48.165 8.546 48.084 11.164 Q48.003 13.783 46.096 15.69 Q44.098 17.597 41.525 17.597 Q38.952 17.597 37.136 15.69 L29.558 8.111 Z"/></g><g id="Medium-L" transform="matrix(1 0 0 1 1674.31 1556)"><path d="M102.751 7.642 Q98.443 3.372 96.389 -1.904 Q94.335 -7.179 94.335 -12.778 Q94.335 -18.414 96.408 -23.709 Q98.482 -29.004 102.751 -33.274 L114.845 -45.368 Q117.471 -47.993 118.703 -51.183 Q119.935 -54.373 119.935 -57.805 Q119.935 -61.237 118.703 -64.427 Q117.471 -67.617 114.845 -70.242 L107.266 -77.821 Q105.584 -79.465 105.664 -81.751 Q105.745 -84.036 107.389 -85.68 Q109.033 -87.324 111.319 -87.324 Q113.604 -87.324 115.287 -85.68 L122.704 -78.102 Q126.935 -73.832 129.028 -68.556 Q131.121 -63.281 131.121 -57.844 Q131.121 -52.368 129.028 -47.154 Q126.935 -41.939 122.704 -37.67 L110.611 -25.576 Q107.946 -22.912 106.634 -19.722 Q105.321 -16.532 105.321 -12.977 Q105.321 -9.423 106.634 -6.152 Q107.946 -2.882 110.611 -0.218 L118.189 7.361 Q119.833 9.005 119.833 11.229 Q119.833 13.453 118.189 15.098 Q116.507 16.742 114.221 16.742 Q111.936 16.742 110.291 15.098 L102.751 7.642 Z M67.423 7.642 Q63.154 3.372 61.08 -1.923 Q59.007 -7.218 59.007 -12.816 Q59.007 -18.414 61.08 -23.709 Q63.154 -29.004 67.423 -33.274 L79.517 -45.368 Q82.143 -47.993 83.394 -51.183 Q84.646 -54.373 84.646 -57.805 Q84.646 -61.237 83.394 -64.427 Q82.143 -67.617 79.517 -70.242 L71.938 -77.821 Q70.295 -79.465 70.295 -81.67 Q70.295 -83.875 71.938 -85.519 Q73.583 -87.163 75.868 -87.244 Q78.154 -87.324 79.798 -85.68 L87.377 -78.102 Q91.646 -73.832 93.72 -68.556 Q95.793 -63.281 95.793 -57.844 Q95.793 -52.368 93.72 -47.154 Q91.646 -41.939 87.377 -37.67 L75.283 -25.576 Q72.619 -22.912 71.306 -19.641 Q69.993 -16.371 69.993 -12.816 Q69.993 -9.262 71.306 -6.072 Q72.619 -2.882 75.283 -0.218 L82.862 7.361 Q84.505 9.005 84.505 11.229 Q84.505 13.453 82.862 15.098 Q81.217 16.742 78.913 16.742 Q76.608 16.742 74.964 15.098 L67.423 7.642 Z M32.134 7.48 Q27.865 3.211 25.772 -2.004 Q23.679 -7.218 23.679 -12.816 Q23.679 -18.414 25.772 -23.709 Q27.865 -29.004 32.134 -33.274 L44.228 -45.529 Q46.854 -48.155 48.086 -51.345 Q49.318 -54.534 49.318 -57.966 Q49.318 -61.398 48.086 -64.588 Q46.854 -67.778 44.228 -70.403 L36.649 -77.982 Q34.967 -79.626 34.967 -81.831 Q34.967 -84.036 36.649 -85.68 Q38.293 -87.324 40.479 -87.244 Q42.665 -87.163 44.347 -85.68 L52.087 -78.102 Q56.357 -73.832 58.43 -68.637 Q60.504 -63.442 60.504 -58.005 Q60.504 -52.529 58.411 -47.234 Q56.318 -41.939 52.087 -37.67 L39.994 -25.576 Q37.329 -22.912 36.017 -19.641 Q34.704 -16.371 34.704 -12.816 Q34.704 -9.262 36.017 -6.072 Q37.329 -2.882 39.994 -0.218 L47.572 7.322 Q49.216 8.967 49.136 11.191 Q49.055 13.415 47.411 15.059 Q45.728 16.703 43.523 16.703 Q41.319 16.703 39.713 15.059 L32.134 7.48 Z"/></g><g id="Regular-L" transform="matrix(1 0 0 1 1378.56 1556)"><path d="M101.749 7.179 Q97.556 2.986 95.541 -2.174 Q93.525 -7.334 93.525 -12.816 Q93.525 -18.299 95.541 -23.459 Q97.556 -28.619 101.749 -32.811 L113.843 -44.905 Q116.584 -47.646 117.874 -50.952 Q119.164 -54.257 119.164 -57.805 Q119.164 -61.352 117.874 -64.658 Q116.584 -67.964 113.843 -70.705 L106.264 -78.284 Q104.812 -79.735 104.893 -81.751 Q104.974 -83.766 106.425 -85.217 Q107.876 -86.669 109.892 -86.669 Q111.907 -86.669 113.359 -85.217 L120.776 -77.639 Q124.969 -73.446 126.984 -68.286 Q129 -63.126 129 -57.805 Q129 -52.484 126.984 -47.404 Q124.969 -42.325 120.776 -38.132 L108.683 -26.039 Q105.941 -23.297 104.571 -19.992 Q103.2 -16.686 103.2 -12.977 Q103.2 -9.269 104.571 -5.882 Q105.941 -2.496 108.683 0.245 L116.261 7.824 Q117.713 9.275 117.713 11.21 Q117.713 13.145 116.261 14.596 Q114.81 16.048 112.794 16.048 Q110.779 16.048 109.328 14.596 L101.749 7.179 Z M67.886 7.179 Q63.694 2.986 61.678 -2.174 Q59.663 -7.334 59.663 -12.816 Q59.663 -18.299 61.678 -23.459 Q63.694 -28.619 67.886 -32.811 L79.98 -44.905 Q82.721 -47.646 84.011 -50.952 Q85.301 -54.257 85.301 -57.805 Q85.301 -61.352 84.011 -64.658 Q82.721 -67.964 79.98 -70.705 L72.401 -78.284 Q70.95 -79.735 70.95 -81.67 Q70.95 -83.605 72.401 -85.056 Q73.853 -86.507 75.868 -86.588 Q77.884 -86.669 79.335 -85.217 L86.914 -77.639 Q91.106 -73.446 93.122 -68.286 Q95.138 -63.126 95.138 -57.805 Q95.138 -52.484 93.122 -47.404 Q91.106 -42.325 86.914 -38.132 L74.82 -26.039 Q72.079 -23.297 70.708 -19.911 Q69.338 -16.525 69.338 -12.816 Q69.338 -9.107 70.708 -5.802 Q72.079 -2.496 74.82 0.245 L82.399 7.824 Q83.85 9.275 83.85 11.21 Q83.85 13.145 82.399 14.596 Q80.948 16.048 78.932 16.048 Q76.916 16.048 75.465 14.596 L67.886 7.179 Z M34.024 7.018 Q29.831 2.825 27.816 -2.254 Q25.8 -7.334 25.8 -12.816 Q25.8 -18.299 27.816 -23.459 Q29.831 -28.619 34.024 -32.811 L46.117 -45.066 Q48.859 -47.807 50.149 -51.113 Q51.439 -54.419 51.439 -57.966 Q51.439 -61.514 50.149 -64.819 Q48.859 -68.125 46.117 -70.866 L38.539 -78.445 Q37.087 -79.896 37.087 -81.831 Q37.087 -83.766 38.539 -85.217 Q39.99 -86.669 41.925 -86.588 Q43.86 -86.507 45.311 -85.217 L53.051 -77.639 Q57.244 -73.446 59.259 -68.367 Q61.275 -63.287 61.275 -57.966 Q61.275 -52.645 59.259 -47.485 Q57.244 -42.325 53.051 -38.132 L40.958 -26.039 Q38.216 -23.297 36.846 -19.911 Q35.475 -16.525 35.475 -12.816 Q35.475 -9.107 36.846 -5.802 Q38.216 -2.496 40.958 0.245 L48.536 7.824 Q49.988 9.275 49.907 11.21 Q49.826 13.145 48.375 14.596 Q46.924 16.048 44.989 16.048 Q43.054 16.048 41.602 14.596 L34.024 7.018 Z"/></g><g id="Light-L" transform="matrix(1 0 0 1 1082.77 1556)"><path d="M100.26 6.373 Q96.28 2.377 94.344 -2.571 Q92.409 -7.52 92.409 -12.785 Q92.409 -18.051 94.346 -23.02 Q96.283 -27.99 100.26 -32.005 L112.354 -44.099 Q115.219 -46.946 116.633 -50.482 Q118.047 -54.018 118.047 -57.808 Q118.047 -61.598 116.633 -65.132 Q115.219 -68.666 112.354 -71.511 L104.837 -79.09 Q103.758 -80.177 103.777 -81.693 Q103.795 -83.208 104.943 -84.349 Q106.029 -85.428 107.541 -85.428 Q109.054 -85.428 110.196 -84.349 L117.675 -76.832 Q121.682 -72.82 123.604 -67.888 Q125.527 -62.955 125.527 -57.813 Q125.527 -52.67 123.604 -47.812 Q121.682 -42.953 117.675 -38.939 L105.581 -26.845 Q102.648 -23.902 101.187 -20.356 Q99.727 -16.81 99.727 -12.915 Q99.727 -9.021 101.191 -5.461 Q102.656 -1.902 105.581 1.051 L113.098 8.63 Q114.177 9.72 114.208 11.185 Q114.239 12.649 113.092 13.79 Q112.006 14.869 110.493 14.869 Q108.98 14.869 107.839 13.79 L100.26 6.373 Z M68.692 6.373 Q64.686 2.337 62.763 -2.623 Q60.841 -7.582 60.841 -12.816 Q60.841 -18.051 62.763 -23.01 Q64.686 -27.969 68.692 -32.005 L80.786 -44.099 Q83.652 -46.946 85.066 -50.482 Q86.48 -54.018 86.48 -57.808 Q86.48 -61.598 85.066 -65.132 Q83.652 -68.666 80.786 -71.511 L73.207 -79.152 Q72.128 -80.231 72.128 -81.67 Q72.128 -83.109 73.191 -84.25 Q74.287 -85.391 75.795 -85.41 Q77.304 -85.428 78.467 -84.349 L86.108 -76.832 Q90.114 -72.82 92.037 -67.888 Q93.959 -62.955 93.959 -57.813 Q93.959 -52.67 92.037 -47.812 Q90.114 -42.953 86.108 -38.939 L74.014 -26.845 Q71.08 -23.938 69.62 -20.356 Q68.159 -16.773 68.159 -12.847 Q68.159 -8.921 69.624 -5.412 Q71.088 -1.902 74.014 1.051 L81.53 8.63 Q82.61 9.72 82.64 11.185 Q82.672 12.649 81.524 13.79 Q80.438 14.869 78.925 14.869 Q77.412 14.869 76.271 13.79 L68.692 6.373 Z M37.125 6.211 Q33.118 2.177 31.196 -2.702 Q29.273 -7.582 29.273 -12.816 Q29.273 -18.051 31.227 -23.012 Q33.181 -27.973 37.187 -32.005 L49.219 -44.26 Q52.084 -47.107 53.498 -50.643 Q54.912 -54.179 54.912 -57.97 Q54.912 -61.76 53.498 -65.293 Q52.084 -68.827 49.219 -71.672 L41.64 -79.313 Q40.561 -80.392 40.592 -81.862 Q40.623 -83.332 41.713 -84.422 Q42.781 -85.49 44.22 -85.441 Q45.659 -85.391 46.738 -84.411 L54.54 -76.832 Q58.546 -72.885 60.469 -67.991 Q62.391 -63.097 62.391 -57.966 Q62.391 -52.864 60.469 -47.913 Q58.546 -42.963 54.54 -38.939 L42.446 -26.845 Q39.521 -23.892 38.056 -20.332 Q36.591 -16.773 36.591 -12.878 Q36.591 -8.983 38.052 -5.438 Q39.513 -1.892 42.446 1.051 L49.963 8.63 Q51.042 9.72 51.023 11.185 Q51.005 12.649 49.863 13.763 Q48.779 14.848 47.312 14.859 Q45.845 14.869 44.766 13.79 L37.125 6.211 Z"/></g><g id="Thin-L" transform="matrix(1 0 0 1 787.282 1556)"><path d="M98.772 5.566 Q95.003 1.768 93.148 -2.969 Q91.292 -7.706 91.292 -12.754 Q91.292 -17.803 93.151 -22.582 Q95.01 -27.361 98.772 -31.199 L110.866 -43.292 Q113.855 -46.246 115.393 -50.012 Q116.931 -53.779 116.931 -57.812 Q116.931 -61.844 115.393 -65.606 Q113.855 -69.368 110.866 -72.317 L103.411 -79.896 Q102.704 -80.62 102.66 -81.635 Q102.617 -82.65 103.461 -83.481 Q104.181 -84.188 105.191 -84.188 Q106.202 -84.188 107.033 -83.481 L114.574 -76.026 Q118.395 -72.195 120.224 -67.49 Q122.054 -62.784 122.054 -57.82 Q122.054 -52.856 120.224 -48.219 Q118.395 -43.581 114.574 -39.745 L102.481 -27.651 Q99.355 -24.506 97.805 -20.72 Q96.254 -16.934 96.254 -12.853 Q96.254 -8.773 97.813 -5.04 Q99.371 -1.308 102.481 1.858 L109.935 9.436 Q110.642 10.166 110.704 11.159 Q110.766 12.153 109.922 12.984 Q109.202 13.691 108.192 13.691 Q107.182 13.691 106.351 12.984 L98.772 5.566 Z M69.499 5.566 Q65.678 1.688 63.849 -3.071 Q62.019 -7.83 62.019 -12.816 Q62.019 -17.803 63.849 -22.561 Q65.678 -27.32 69.499 -31.199 L81.593 -43.292 Q84.582 -46.246 86.12 -50.012 Q87.658 -53.779 87.658 -57.812 Q87.658 -61.844 86.12 -65.606 Q84.582 -69.368 81.593 -72.317 L74.014 -80.02 Q73.307 -80.727 73.307 -81.67 Q73.307 -82.613 73.981 -83.444 Q74.721 -84.275 75.723 -84.231 Q76.724 -84.188 77.598 -83.481 L85.301 -76.026 Q89.122 -72.195 90.951 -67.49 Q92.781 -62.784 92.781 -57.82 Q92.781 -52.856 90.951 -48.219 Q89.122 -43.581 85.301 -39.745 L73.207 -27.651 Q70.082 -24.579 68.531 -20.8 Q66.981 -17.021 66.981 -12.878 Q66.981 -8.735 68.539 -5.022 Q70.098 -1.308 73.207 1.858 L80.662 9.436 Q81.369 10.166 81.431 11.159 Q81.493 12.153 80.649 12.984 Q79.929 13.691 78.919 13.691 Q77.909 13.691 77.078 12.984 L69.499 5.566 Z M40.226 5.405 Q36.405 1.53 34.576 -3.15 Q32.746 -7.83 32.746 -12.816 Q32.746 -17.803 34.638 -22.565 Q36.529 -27.328 40.35 -31.199 L52.319 -43.454 Q55.309 -46.407 56.847 -50.174 Q58.385 -53.94 58.385 -57.973 Q58.385 -62.006 56.847 -65.767 Q55.309 -69.529 52.319 -72.479 L44.741 -80.182 Q44.034 -80.889 44.096 -81.893 Q44.158 -82.898 44.886 -83.627 Q45.572 -84.312 46.514 -84.293 Q47.457 -84.275 48.164 -83.605 L56.028 -76.026 Q59.849 -72.323 61.678 -67.614 Q63.508 -62.906 63.508 -57.966 Q63.508 -53.082 61.678 -48.341 Q59.849 -43.6 56.028 -39.745 L43.934 -27.651 Q40.825 -24.486 39.266 -20.754 Q37.708 -17.021 37.708 -12.94 Q37.708 -8.859 39.258 -5.074 Q40.809 -1.288 43.934 1.858 L51.389 9.436 Q52.096 10.166 52.14 11.159 Q52.183 12.153 51.352 12.93 Q50.634 13.649 49.635 13.67 Q48.635 13.691 47.928 12.984 L40.226 5.405 Z"/></g><g id="Ultralight-L" transform="matrix(1 0 0 1 491.205 1556)"><path d="M97.879 5.083 Q94.237 1.402 92.43 -3.208 Q90.623 -7.817 90.623 -12.736 Q90.623 -17.654 92.434 -22.319 Q94.246 -26.984 97.879 -30.715 L109.972 -42.809 Q113.036 -45.826 114.649 -49.731 Q116.261 -53.635 116.261 -57.814 Q116.261 -61.992 114.649 -65.891 Q113.036 -69.789 109.972 -72.801 L102.555 -80.38 Q102.071 -80.885 101.991 -81.6 Q101.91 -82.315 102.572 -82.96 Q103.073 -83.444 103.781 -83.444 Q104.49 -83.444 105.135 -82.96 L112.714 -75.542 Q116.422 -71.819 118.196 -67.251 Q119.97 -62.682 119.97 -57.825 Q119.97 -52.967 118.196 -48.463 Q116.422 -43.958 112.714 -40.229 L100.62 -28.135 Q97.379 -24.868 95.775 -20.938 Q94.17 -17.009 94.17 -12.816 Q94.17 -8.624 95.785 -4.787 Q97.4 -0.951 100.62 2.341 L108.038 9.92 Q108.521 10.433 108.602 11.144 Q108.683 11.855 108.021 12.5 Q107.52 12.984 106.811 12.984 Q106.103 12.984 105.457 12.5 L97.879 5.083 Z M69.983 5.083 Q66.274 1.298 64.5 -3.34 Q62.726 -7.979 62.726 -12.816 Q62.726 -17.654 64.5 -22.292 Q66.274 -26.931 69.983 -30.715 L82.076 -42.809 Q85.14 -45.826 86.752 -49.731 Q88.365 -53.635 88.365 -57.814 Q88.365 -61.992 86.752 -65.891 Q85.14 -69.789 82.076 -72.801 L74.498 -80.541 Q74.014 -81.025 74.014 -81.67 Q74.014 -82.315 74.455 -82.96 Q74.981 -83.605 75.679 -83.524 Q76.376 -83.444 77.078 -82.96 L84.817 -75.542 Q88.526 -71.819 90.3 -67.251 Q92.074 -62.682 92.074 -57.825 Q92.074 -52.967 90.3 -48.463 Q88.526 -43.958 84.817 -40.229 L72.724 -28.135 Q69.483 -24.964 67.879 -21.067 Q66.274 -17.17 66.274 -12.897 Q66.274 -8.624 67.889 -4.787 Q69.504 -0.951 72.724 2.341 L80.141 9.92 Q80.625 10.433 80.706 11.144 Q80.786 11.855 80.124 12.5 Q79.623 12.984 78.915 12.984 Q78.206 12.984 77.561 12.5 L69.983 5.083 Z M42.086 4.921 Q38.377 1.141 36.604 -3.419 Q34.83 -7.979 34.83 -12.816 Q34.83 -17.654 36.684 -22.297 Q38.539 -26.941 42.248 -30.715 L54.18 -42.97 Q57.244 -45.987 58.856 -49.892 Q60.469 -53.797 60.469 -57.975 Q60.469 -62.153 58.856 -66.052 Q57.244 -69.951 54.18 -72.962 L46.601 -80.702 Q46.117 -81.186 46.198 -81.912 Q46.279 -82.637 46.791 -83.149 Q47.246 -83.605 47.891 -83.605 Q48.536 -83.605 49.02 -83.121 L56.921 -75.542 Q60.63 -71.986 62.404 -67.389 Q64.177 -62.791 64.177 -57.966 Q64.177 -53.214 62.404 -48.598 Q60.63 -43.982 56.921 -40.229 L44.828 -28.135 Q41.608 -24.843 39.993 -21.006 Q38.377 -17.17 38.377 -12.977 Q38.377 -8.785 39.982 -4.855 Q41.587 -0.926 44.828 2.341 L52.245 9.92 Q52.729 10.433 52.809 11.144 Q52.89 11.855 52.245 12.43 Q51.747 12.93 51.028 12.957 Q50.31 12.984 49.826 12.5 L42.086 4.921 Z"/></g><g id="Bold-M" transform="matrix(1 0 0 1 2281.8 1126)"><path d="M81 0.52 Q77.125 -3.355 75.25 -8.105 Q73.375 -12.855 73.375 -17.855 Q73.375 -22.855 75.25 -27.605 Q77.125 -32.355 81 -36.23 L90.375 -45.605 Q91.875 -47.105 92.562 -48.917 Q93.25 -50.73 93.25 -52.73 Q93.25 -54.73 92.562 -56.542 Q91.875 -58.355 90.375 -59.855 L84.5 -65.73 Q82.125 -68.105 82.125 -71.292 Q82.125 -74.48 84.5 -76.855 Q86.875 -79.23 90.125 -79.23 Q93.375 -79.23 95.75 -76.855 L101.5 -70.98 Q105.25 -67.23 107.188 -62.542 Q109.125 -57.855 109.125 -52.855 Q109.125 -47.855 107.188 -43.105 Q105.25 -38.355 101.5 -34.605 L92.125 -25.23 Q90.625 -23.73 89.875 -21.855 Q89.125 -19.98 89.125 -17.98 Q89.125 -15.98 89.875 -14.042 Q90.625 -12.105 92.125 -10.605 L98 -4.73 Q100.375 -2.355 100.375 0.833 Q100.375 4.02 98 6.395 Q95.625 8.77 92.375 8.77 Q89.125 8.77 86.75 6.395 L81 0.52 Z M49.75 0.52 Q45.875 -3.355 44 -8.105 Q42.125 -12.855 42.125 -17.855 Q42.125 -22.855 44 -27.605 Q45.875 -32.355 49.75 -36.23 L59.125 -45.605 Q60.625 -47.105 61.312 -48.917 Q62 -50.73 62 -52.73 Q62 -54.73 61.312 -56.542 Q60.625 -58.355 59.125 -59.855 L53.25 -65.73 Q51 -67.98 51 -71.167 Q51 -74.355 53.25 -76.73 Q55.5 -79.105 58.75 -79.167 Q62 -79.23 64.375 -76.855 L70.25 -70.98 Q74 -67.23 75.938 -62.542 Q77.875 -57.855 77.875 -52.855 Q77.875 -47.855 75.938 -43.105 Q74 -38.355 70.25 -34.605 L60.875 -25.23 Q59.375 -23.73 58.625 -21.855 Q57.875 -19.98 57.875 -17.98 Q57.875 -15.98 58.625 -14.042 Q59.375 -12.105 60.875 -10.605 L66.75 -4.73 Q69.125 -2.355 69.125 0.833 Q69.125 4.02 66.75 6.395 Q64.375 8.77 61.125 8.77 Q57.875 8.77 55.5 6.395 L49.75 0.52 Z M18.5 0.395 Q14.75 -3.355 12.812 -8.105 Q10.875 -12.855 10.875 -17.855 Q10.875 -22.855 12.812 -27.605 Q14.75 -32.355 18.5 -36.23 L27.875 -45.73 Q29.375 -47.23 30.062 -49.042 Q30.75 -50.855 30.75 -52.855 Q30.75 -54.855 30.062 -56.667 Q29.375 -58.48 27.875 -59.98 L22 -65.855 Q19.625 -68.105 19.625 -71.292 Q19.625 -74.48 22 -76.855 Q24.25 -79.105 27.5 -79.105 Q30.75 -79.105 33 -76.855 L39 -70.98 Q42.875 -67.23 44.75 -62.542 Q46.625 -57.855 46.625 -52.855 Q46.625 -47.855 44.688 -43.105 Q42.75 -38.355 39 -34.605 L29.625 -25.23 Q28.125 -23.73 27.375 -21.792 Q26.625 -19.855 26.625 -17.855 Q26.625 -15.855 27.375 -13.98 Q28.125 -12.105 29.625 -10.605 L35.5 -4.855 Q37.875 -2.48 37.812 0.77 Q37.75 4.02 35.375 6.27 Q33 8.52 29.812 8.52 Q26.625 8.52 24.375 6.27 L18.5 0.395 Z"/></g><g id="Semibold-M" transform="matrix(1 0 0 1 1985.97 1126)"><path d="M79.152 -0.349 Q75.495 -4.007 73.674 -8.594 Q71.853 -13.181 71.853 -17.909 Q71.853 -22.638 73.647 -27.17 Q75.44 -31.703 79.152 -35.36 L88.527 -44.735 Q90.19 -46.398 90.987 -48.456 Q91.783 -50.513 91.783 -52.73 Q91.783 -54.947 90.987 -57.004 Q90.19 -59.061 88.527 -60.724 L82.652 -66.599 Q80.658 -68.594 80.685 -71.292 Q80.712 -73.991 82.707 -75.985 Q84.701 -77.98 87.435 -77.98 Q90.169 -77.98 92.163 -75.985 L97.913 -70.11 Q101.5 -66.523 103.329 -62.026 Q105.158 -57.529 105.158 -52.801 Q105.158 -48.072 103.329 -43.567 Q101.5 -39.061 97.913 -35.474 L88.538 -26.099 Q86.821 -24.382 85.989 -22.29 Q85.158 -20.197 85.158 -17.98 Q85.158 -15.763 85.989 -13.608 Q86.821 -11.453 88.538 -9.735 L94.413 -3.86 Q96.408 -1.866 96.408 0.805 Q96.408 3.477 94.413 5.471 Q92.419 7.466 89.685 7.466 Q86.951 7.466 84.957 5.471 L79.152 -0.349 Z M50.62 -0.349 Q46.962 -4.007 45.168 -8.567 Q43.375 -13.127 43.375 -17.855 Q43.375 -22.583 45.168 -27.143 Q46.962 -31.703 50.62 -35.36 L59.995 -44.735 Q61.657 -46.398 62.454 -48.456 Q63.25 -50.513 63.25 -52.73 Q63.25 -54.947 62.454 -57.004 Q61.657 -59.061 59.995 -60.724 L54.12 -66.599 Q52.25 -68.469 52.223 -71.167 Q52.196 -73.866 54.12 -75.86 Q55.989 -77.855 58.75 -77.918 Q61.511 -77.98 63.505 -75.985 L69.38 -70.11 Q72.968 -66.523 74.796 -62.026 Q76.625 -57.529 76.625 -52.801 Q76.625 -48.072 74.796 -43.567 Q72.968 -39.061 69.38 -35.474 L60.005 -26.099 Q58.288 -24.382 57.457 -22.29 Q56.625 -20.197 56.625 -17.98 Q56.625 -15.763 57.457 -13.608 Q58.288 -11.453 60.005 -9.735 L65.88 -3.86 Q67.875 -1.866 67.875 0.805 Q67.875 3.477 65.88 5.471 Q63.886 7.466 61.152 7.466 Q58.419 7.466 56.424 5.471 L50.62 -0.349 Z M22.087 -0.474 Q18.5 -4.061 16.671 -8.594 Q14.842 -13.127 14.842 -17.855 Q14.842 -22.583 16.671 -27.143 Q18.5 -31.703 22.087 -35.36 L31.462 -44.86 Q33.125 -46.523 33.921 -48.581 Q34.717 -50.638 34.717 -52.855 Q34.717 -55.072 33.921 -57.129 Q33.125 -59.186 31.462 -60.849 L25.587 -66.724 Q23.646 -68.594 23.619 -71.292 Q23.592 -73.991 25.587 -75.985 Q27.456 -77.855 30.217 -77.855 Q32.978 -77.855 34.848 -75.985 L40.848 -70.11 Q44.505 -66.523 46.299 -62.026 Q48.092 -57.529 48.092 -52.801 Q48.092 -48.072 46.264 -43.567 Q44.435 -39.061 40.848 -35.474 L31.473 -26.099 Q29.755 -24.382 28.924 -22.227 Q28.092 -20.072 28.092 -17.855 Q28.092 -15.638 28.924 -13.545 Q29.755 -11.453 31.473 -9.735 L37.348 -3.931 Q39.342 -1.936 39.28 0.77 Q39.217 3.477 37.223 5.401 Q35.228 7.27 32.557 7.297 Q29.886 7.324 27.962 5.401 L22.087 -0.474 Z"/></g><g id="Medium-M" transform="matrix(1 0 0 1 1689.91 1126)"><path d="M77.766 -1.002 Q74.272 -4.496 72.492 -8.961 Q70.712 -13.426 70.712 -17.95 Q70.712 -22.475 72.444 -26.844 Q74.177 -31.214 77.766 -34.708 L87.141 -44.083 Q88.927 -45.869 89.804 -48.109 Q90.682 -50.35 90.682 -52.73 Q90.682 -55.11 89.804 -57.351 Q88.927 -59.591 87.141 -61.377 L81.266 -67.252 Q79.557 -68.961 79.605 -71.292 Q79.652 -73.624 81.361 -75.333 Q83.071 -77.042 85.417 -77.042 Q87.764 -77.042 89.473 -75.333 L95.223 -69.458 Q98.688 -65.994 100.435 -61.639 Q102.182 -57.284 102.182 -52.76 Q102.182 -48.235 100.435 -43.913 Q98.688 -39.591 95.223 -36.127 L85.848 -26.752 Q83.968 -24.871 83.075 -22.616 Q82.182 -20.36 82.182 -17.98 Q82.182 -15.6 83.075 -13.282 Q83.968 -10.964 85.848 -9.083 L91.723 -3.208 Q93.432 -1.499 93.432 0.785 Q93.432 3.069 91.723 4.778 Q90.014 6.487 87.667 6.487 Q85.321 6.487 83.611 4.778 L77.766 -1.002 Z M51.272 -1.002 Q47.777 -4.496 46.045 -8.913 Q44.312 -13.33 44.312 -17.855 Q44.312 -22.379 46.045 -26.797 Q47.777 -31.214 51.272 -34.708 L60.647 -44.083 Q62.432 -45.869 63.31 -48.109 Q64.188 -50.35 64.188 -52.73 Q64.188 -55.11 63.31 -57.351 Q62.432 -59.591 60.647 -61.377 L54.772 -67.252 Q53.188 -68.836 53.14 -71.167 Q53.092 -73.499 54.772 -75.208 Q56.356 -76.917 58.75 -76.98 Q61.144 -77.042 62.853 -75.333 L68.728 -69.458 Q72.193 -65.994 73.94 -61.639 Q75.688 -57.284 75.688 -52.76 Q75.688 -48.235 73.94 -43.913 Q72.193 -39.591 68.728 -36.127 L59.353 -26.752 Q57.473 -24.871 56.58 -22.616 Q55.688 -20.36 55.688 -17.98 Q55.688 -15.6 56.58 -13.282 Q57.473 -10.964 59.353 -9.083 L65.228 -3.208 Q66.938 -1.499 66.938 0.785 Q66.938 3.069 65.228 4.778 Q63.519 6.487 61.172 6.487 Q58.826 6.487 57.117 4.778 L51.272 -1.002 Z M24.777 -1.127 Q21.312 -4.591 19.565 -8.961 Q17.818 -13.33 17.818 -17.855 Q17.818 -22.379 19.565 -26.797 Q21.312 -31.214 24.777 -34.708 L34.152 -44.208 Q35.938 -45.994 36.815 -48.234 Q37.693 -50.475 37.693 -52.855 Q37.693 -55.235 36.815 -57.476 Q35.938 -59.716 34.152 -61.502 L28.277 -67.377 Q26.663 -68.961 26.616 -71.292 Q26.568 -73.624 28.277 -75.333 Q29.861 -76.917 32.255 -76.917 Q34.649 -76.917 36.234 -75.333 L42.234 -69.458 Q45.728 -65.994 47.461 -61.639 Q49.193 -57.284 49.193 -52.76 Q49.193 -48.235 47.446 -43.913 Q45.698 -39.591 42.234 -36.127 L32.859 -26.752 Q30.978 -24.871 30.086 -22.553 Q29.193 -20.235 29.193 -17.855 Q29.193 -15.475 30.086 -13.219 Q30.978 -10.964 32.859 -9.083 L38.734 -3.238 Q40.443 -1.529 40.38 0.77 Q40.318 3.069 38.609 4.748 Q36.899 6.333 34.615 6.38 Q32.331 6.428 30.652 4.748 L24.777 -1.127 Z"/></g><g id="Regular-M" transform="matrix(1 0 0 1 1394.06 1126)"><path d="M76.75 -1.48 Q73.375 -4.855 71.625 -9.23 Q69.875 -13.605 69.875 -17.98 Q69.875 -22.355 71.562 -26.605 Q73.25 -30.855 76.75 -34.23 L86.125 -43.605 Q88 -45.48 88.938 -47.855 Q89.875 -50.23 89.875 -52.73 Q89.875 -55.23 88.938 -57.605 Q88 -59.98 86.125 -61.855 L80.25 -67.73 Q78.75 -69.23 78.812 -71.292 Q78.875 -73.355 80.375 -74.855 Q81.875 -76.355 83.938 -76.355 Q86 -76.355 87.5 -74.855 L93.25 -68.98 Q96.625 -65.605 98.312 -61.355 Q100 -57.105 100 -52.73 Q100 -48.355 98.312 -44.167 Q96.625 -39.98 93.25 -36.605 L83.875 -27.23 Q81.875 -25.23 80.938 -22.855 Q80 -20.48 80 -17.98 Q80 -15.48 80.938 -13.042 Q81.875 -10.605 83.875 -8.605 L89.75 -2.73 Q91.25 -1.23 91.25 0.77 Q91.25 2.77 89.75 4.27 Q88.25 5.77 86.188 5.77 Q84.125 5.77 82.625 4.27 L76.75 -1.48 Z M51.75 -1.48 Q48.375 -4.855 46.688 -9.167 Q45 -13.48 45 -17.855 Q45 -22.23 46.688 -26.542 Q48.375 -30.855 51.75 -34.23 L61.125 -43.605 Q63 -45.48 63.938 -47.855 Q64.875 -50.23 64.875 -52.73 Q64.875 -55.23 63.938 -57.605 Q63 -59.98 61.125 -61.855 L55.25 -67.73 Q53.875 -69.105 53.812 -71.167 Q53.75 -73.23 55.25 -74.73 Q56.625 -76.23 58.75 -76.292 Q60.875 -76.355 62.375 -74.855 L68.25 -68.98 Q71.625 -65.605 73.312 -61.355 Q75 -57.105 75 -52.73 Q75 -48.355 73.312 -44.167 Q71.625 -39.98 68.25 -36.605 L58.875 -27.23 Q56.875 -25.23 55.938 -22.855 Q55 -20.48 55 -17.98 Q55 -15.48 55.938 -13.042 Q56.875 -10.605 58.875 -8.605 L64.75 -2.73 Q66.25 -1.23 66.25 0.77 Q66.25 2.77 64.75 4.27 Q63.25 5.77 61.188 5.77 Q59.125 5.77 57.625 4.27 L51.75 -1.48 Z M26.75 -1.605 Q23.375 -4.98 21.688 -9.23 Q20 -13.48 20 -17.855 Q20 -22.23 21.688 -26.542 Q23.375 -30.855 26.75 -34.23 L36.125 -43.73 Q38 -45.605 38.938 -47.98 Q39.875 -50.355 39.875 -52.855 Q39.875 -55.355 38.938 -57.73 Q38 -60.105 36.125 -61.98 L30.25 -67.855 Q28.875 -69.23 28.812 -71.292 Q28.75 -73.355 30.25 -74.855 Q31.625 -76.23 33.75 -76.23 Q35.875 -76.23 37.25 -74.855 L43.25 -68.98 Q46.625 -65.605 48.312 -61.355 Q50 -57.105 50 -52.73 Q50 -48.355 48.312 -44.167 Q46.625 -39.98 43.25 -36.605 L33.875 -27.23 Q31.875 -25.23 30.938 -22.792 Q30 -20.355 30 -17.855 Q30 -15.355 30.938 -12.98 Q31.875 -10.605 33.875 -8.605 L39.75 -2.73 Q41.25 -1.23 41.188 0.77 Q41.125 2.77 39.625 4.27 Q38.125 5.645 36.125 5.708 Q34.125 5.77 32.625 4.27 L26.75 -1.605 Z"/></g><g id="Light-M" transform="matrix(1 0 0 1 1098.18 1126)"><path d="M76.173 -2.345 Q73.01 -5.52 71.371 -9.634 Q69.731 -13.749 69.731 -17.932 Q69.731 -22.115 71.322 -26.148 Q72.913 -30.182 76.173 -33.364 L85.548 -42.739 Q87.615 -44.793 88.649 -47.394 Q89.683 -49.995 89.683 -52.733 Q89.683 -55.47 88.649 -58.069 Q87.615 -60.668 85.548 -62.72 L79.721 -68.595 Q78.606 -69.711 78.62 -71.244 Q78.635 -72.778 79.798 -73.941 Q80.913 -75.057 82.447 -75.057 Q83.981 -75.057 85.144 -73.941 L90.942 -68.114 Q94.125 -64.92 95.716 -60.898 Q97.308 -56.876 97.308 -52.736 Q97.308 -48.595 95.716 -44.631 Q94.125 -40.666 90.942 -37.47 L81.567 -28.095 Q79.369 -25.91 78.338 -23.315 Q77.308 -20.72 77.308 -17.932 Q77.308 -15.143 78.341 -12.538 Q79.375 -9.932 81.567 -7.739 L87.394 -1.864 Q88.509 -0.749 88.534 0.746 Q88.558 2.241 87.394 3.405 Q86.279 4.52 84.745 4.52 Q83.212 4.52 82.048 3.405 L76.173 -2.345 Z M52.615 -2.345 Q49.433 -5.531 47.841 -9.602 Q46.25 -13.672 46.25 -17.855 Q46.25 -22.038 47.841 -26.108 Q49.433 -30.179 52.615 -33.364 L61.99 -42.739 Q64.058 -44.793 65.091 -47.394 Q66.125 -49.995 66.125 -52.733 Q66.125 -55.47 65.091 -58.069 Q64.058 -60.668 61.99 -62.72 L56.115 -68.643 Q55.077 -69.682 55.038 -71.191 Q55 -72.701 56.124 -73.864 Q57.154 -75.028 58.726 -75.042 Q60.298 -75.057 61.462 -73.941 L67.385 -68.114 Q70.567 -64.92 72.159 -60.898 Q73.75 -56.876 73.75 -52.736 Q73.75 -48.595 72.159 -44.631 Q70.567 -40.666 67.385 -37.47 L58.01 -28.095 Q55.811 -25.924 54.781 -23.346 Q53.75 -20.768 53.75 -17.98 Q53.75 -15.191 54.784 -12.562 Q55.817 -9.932 58.01 -7.739 L63.837 -1.864 Q64.952 -0.749 64.976 0.746 Q65 2.241 63.837 3.405 Q62.721 4.52 61.188 4.52 Q59.654 4.52 58.49 3.405 L52.615 -2.345 Z M29.058 -2.47 Q25.875 -5.654 24.284 -9.663 Q22.692 -13.672 22.692 -17.855 Q22.692 -22.038 24.308 -26.11 Q25.923 -30.182 29.106 -33.364 L38.433 -42.864 Q40.5 -44.918 41.534 -47.519 Q42.568 -50.12 42.568 -52.858 Q42.568 -55.595 41.534 -58.194 Q40.5 -60.793 38.433 -62.845 L32.558 -68.768 Q31.519 -69.807 31.505 -71.341 Q31.491 -72.874 32.614 -73.998 Q33.644 -75.028 35.192 -75.028 Q36.74 -75.028 37.779 -73.989 L43.827 -68.114 Q47.01 -64.929 48.601 -60.918 Q50.192 -56.907 50.192 -52.778 Q50.192 -48.625 48.601 -44.65 Q47.01 -40.674 43.827 -37.47 L34.452 -28.095 Q32.26 -25.903 31.226 -23.297 Q30.192 -20.692 30.192 -17.903 Q30.192 -15.115 31.223 -12.52 Q32.254 -9.925 34.452 -7.739 L40.279 -1.864 Q41.394 -0.749 41.38 0.746 Q41.365 2.241 40.202 3.405 Q39.082 4.427 37.589 4.473 Q36.096 4.52 34.981 3.405 L29.058 -2.47 Z"/></g><g id="Thin-M" transform="matrix(1 0 0 1 802.565 1126)"><path d="M75.596 -3.211 Q72.646 -6.184 71.116 -10.039 Q69.587 -13.893 69.587 -17.884 Q69.587 -21.874 71.082 -25.691 Q72.577 -29.509 75.596 -32.499 L84.971 -41.874 Q87.231 -44.106 88.361 -46.933 Q89.49 -49.76 89.49 -52.735 Q89.49 -55.711 88.361 -58.534 Q87.231 -61.357 84.971 -63.586 L79.192 -69.461 Q78.462 -70.191 78.428 -71.196 Q78.394 -72.201 79.221 -73.028 Q79.952 -73.759 80.957 -73.759 Q81.962 -73.759 82.788 -73.028 L88.635 -67.249 Q91.625 -64.236 93.12 -60.442 Q94.615 -56.647 94.615 -52.742 Q94.615 -48.836 93.12 -45.094 Q91.625 -41.352 88.635 -38.336 L79.26 -28.961 Q76.863 -26.59 75.739 -23.776 Q74.615 -20.961 74.615 -17.884 Q74.615 -14.807 75.745 -12.033 Q76.875 -9.259 79.26 -6.874 L85.038 -0.999 Q85.769 -0.268 85.817 0.722 Q85.865 1.712 85.038 2.539 Q84.308 3.27 83.303 3.27 Q82.298 3.27 81.471 2.539 L75.596 -3.211 Z M53.481 -3.211 Q50.49 -6.207 48.995 -10.036 Q47.5 -13.865 47.5 -17.855 Q47.5 -21.845 48.995 -25.674 Q50.49 -29.503 53.481 -32.499 L62.856 -41.874 Q65.115 -44.106 66.245 -46.933 Q67.375 -49.76 67.375 -52.735 Q67.375 -55.711 66.245 -58.534 Q65.115 -61.357 62.856 -63.586 L56.981 -69.557 Q56.279 -70.259 56.264 -71.216 Q56.25 -72.172 56.998 -72.999 Q57.683 -73.826 58.702 -73.792 Q59.721 -73.759 60.548 -73.028 L66.519 -67.249 Q69.51 -64.236 71.005 -60.442 Q72.5 -56.647 72.5 -52.742 Q72.5 -48.836 71.005 -45.094 Q69.51 -41.352 66.519 -38.336 L57.144 -28.961 Q54.747 -26.619 53.624 -23.838 Q52.5 -21.057 52.5 -17.98 Q52.5 -14.903 53.63 -12.081 Q54.76 -9.259 57.144 -6.874 L62.923 -0.999 Q63.654 -0.268 63.702 0.722 Q63.75 1.712 62.923 2.539 Q62.192 3.27 61.188 3.27 Q60.183 3.27 59.356 2.539 L53.481 -3.211 Z M31.365 -3.336 Q28.375 -6.328 26.88 -10.096 Q25.385 -13.865 25.385 -17.855 Q25.385 -21.845 26.928 -25.677 Q28.471 -29.509 31.462 -32.499 L40.74 -41.999 Q43 -44.231 44.13 -47.058 Q45.26 -49.885 45.26 -52.86 Q45.26 -55.836 44.13 -58.659 Q43 -61.482 40.74 -63.711 L34.865 -69.682 Q34.163 -70.384 34.197 -71.389 Q34.231 -72.393 34.978 -73.141 Q35.663 -73.826 36.635 -73.826 Q37.606 -73.826 38.308 -73.124 L44.404 -67.249 Q47.394 -64.254 48.889 -60.481 Q50.385 -56.709 50.385 -52.826 Q50.385 -48.895 48.889 -45.132 Q47.394 -41.369 44.404 -38.336 L35.029 -28.961 Q32.644 -26.576 31.514 -23.802 Q30.385 -21.028 30.385 -17.951 Q30.385 -14.874 31.508 -12.059 Q32.632 -9.245 35.029 -6.874 L40.808 -0.999 Q41.538 -0.268 41.572 0.722 Q41.606 1.712 40.779 2.539 Q40.039 3.209 39.053 3.24 Q38.067 3.27 37.337 2.539 L31.365 -3.336 Z"/></g><g id="Ultralight-M" transform="matrix(1 0 0 1 506.415 1126)"><path d="M75.25 -3.73 Q72.427 -6.583 70.964 -10.281 Q69.5 -13.98 69.5 -17.855 Q69.5 -21.73 70.938 -25.417 Q72.375 -29.105 75.25 -31.98 L84.625 -41.355 Q87 -43.694 88.188 -46.656 Q89.375 -49.618 89.375 -52.737 Q89.375 -55.855 88.188 -58.812 Q87 -61.77 84.625 -64.105 L78.875 -69.98 Q78.375 -70.48 78.312 -71.167 Q78.25 -71.855 78.875 -72.48 Q79.375 -72.98 80.062 -72.98 Q80.75 -72.98 81.375 -72.48 L87.25 -66.73 Q90.125 -63.825 91.562 -60.168 Q93 -56.51 93 -52.745 Q93 -48.98 91.562 -45.372 Q90.125 -41.763 87.25 -38.855 L77.875 -29.48 Q75.359 -26.998 74.179 -24.052 Q73 -21.105 73 -17.855 Q73 -14.605 74.188 -11.73 Q75.375 -8.855 77.875 -6.355 L83.625 -0.48 Q84.125 0.02 84.188 0.708 Q84.25 1.395 83.625 2.02 Q83.125 2.52 82.438 2.52 Q81.75 2.52 81.125 2.02 L75.25 -3.73 Z M54 -3.73 Q51.125 -6.613 49.688 -10.296 Q48.25 -13.98 48.25 -17.855 Q48.25 -21.73 49.688 -25.414 Q51.125 -29.097 54 -31.98 L63.375 -41.355 Q65.75 -43.694 66.938 -46.656 Q68.125 -49.618 68.125 -52.737 Q68.125 -55.855 66.938 -58.812 Q65.75 -61.77 63.375 -64.105 L57.5 -70.105 Q57 -70.605 57 -71.23 Q57 -71.855 57.522 -72.48 Q58 -73.105 58.688 -73.042 Q59.375 -72.98 60 -72.48 L66 -66.73 Q68.875 -63.825 70.312 -60.168 Q71.75 -56.51 71.75 -52.745 Q71.75 -48.98 70.312 -45.372 Q68.875 -41.763 66 -38.855 L56.625 -29.48 Q54.109 -27.035 52.929 -24.133 Q51.75 -21.23 51.75 -17.98 Q51.75 -14.73 52.938 -11.792 Q54.125 -8.855 56.625 -6.355 L62.375 -0.48 Q62.875 0.02 62.938 0.708 Q63 1.395 62.375 2.02 Q61.875 2.52 61.188 2.52 Q60.5 2.52 59.875 2.02 L54 -3.73 Z M32.75 -3.855 Q29.875 -6.733 28.438 -10.356 Q27 -13.98 27 -17.855 Q27 -21.73 28.5 -25.417 Q30 -29.105 32.875 -31.98 L42.125 -41.48 Q44.5 -43.819 45.688 -46.781 Q46.875 -49.743 46.875 -52.862 Q46.875 -55.98 45.688 -58.937 Q44.5 -61.895 42.125 -64.23 L36.25 -70.23 Q35.75 -70.73 35.812 -71.417 Q35.875 -72.105 36.397 -72.627 Q36.875 -73.105 37.5 -73.105 Q38.125 -73.105 38.625 -72.605 L44.75 -66.73 Q47.625 -63.848 49.062 -60.219 Q50.5 -56.591 50.5 -52.855 Q50.5 -49.056 49.062 -45.421 Q47.625 -41.785 44.75 -38.855 L35.375 -29.48 Q32.875 -26.98 31.688 -24.105 Q30.5 -21.23 30.5 -17.98 Q30.5 -14.73 31.679 -11.783 Q32.859 -8.836 35.375 -6.355 L41.125 -0.48 Q41.625 0.02 41.688 0.708 Q41.75 1.395 41.125 2.02 Q40.614 2.478 39.932 2.499 Q39.25 2.52 38.75 2.02 L32.75 -3.855 Z"/></g><g id="Bold-S" transform="matrix(1 0 0 1 2294.23 696)"><path d="M64.008 -7.714 Q61.148 -10.574 59.717 -14.124 Q58.287 -17.675 58.287 -21.62 Q58.287 -25.565 59.767 -29.214 Q61.246 -32.863 64.008 -35.723 L71.306 -43.021 Q72.489 -44.205 73.032 -45.734 Q73.574 -47.262 73.574 -48.939 Q73.574 -50.517 72.983 -51.947 Q72.391 -53.377 71.306 -54.56 L66.473 -59.492 Q64.698 -61.267 64.698 -63.535 Q64.698 -65.804 66.473 -67.579 Q68.249 -69.354 70.566 -69.354 Q72.884 -69.354 74.659 -67.579 L79.492 -62.746 Q82.253 -59.985 83.782 -56.484 Q85.311 -52.982 85.311 -49.037 Q85.311 -45.092 83.782 -41.394 Q82.253 -37.696 79.492 -34.934 L72.194 -27.636 Q71.109 -26.452 70.418 -24.973 Q69.728 -23.494 69.728 -21.718 Q69.728 -20.042 70.468 -18.513 Q71.207 -16.984 72.194 -15.899 L77.026 -11.067 Q78.801 -9.292 78.801 -6.974 Q78.801 -4.656 77.026 -2.881 Q75.251 -1.106 72.884 -1.106 Q70.517 -1.106 68.742 -2.881 L64.008 -7.714 Z M39.647 -7.714 Q36.787 -10.672 35.258 -14.223 Q33.73 -17.773 33.73 -21.718 Q33.73 -25.663 35.258 -29.214 Q36.787 -32.764 39.647 -35.723 L46.946 -43.021 Q48.228 -44.205 48.721 -45.734 Q49.214 -47.262 49.214 -48.939 Q49.214 -50.517 48.622 -51.996 Q48.03 -53.476 46.946 -54.56 L42.113 -59.393 Q40.338 -61.168 40.387 -63.437 Q40.436 -65.705 42.113 -67.48 Q43.888 -69.256 46.206 -69.256 Q48.524 -69.256 50.299 -67.48 L55.033 -62.746 Q57.794 -59.985 59.372 -56.484 Q60.95 -52.982 60.95 -49.037 Q60.95 -45.092 59.372 -41.394 Q57.794 -37.696 55.033 -34.934 L47.735 -27.636 Q46.65 -26.452 46.009 -24.924 Q45.367 -23.395 45.367 -21.718 Q45.367 -20.042 46.058 -18.513 Q46.748 -16.984 47.735 -15.899 L52.567 -10.968 Q54.342 -9.193 54.342 -6.875 Q54.342 -4.558 52.567 -2.782 Q50.792 -1.007 48.474 -1.007 Q46.157 -1.007 44.381 -2.782 L39.647 -7.714 Z M15.188 -7.615 Q12.328 -10.475 10.849 -14.075 Q9.369 -17.675 9.369 -21.718 Q9.369 -25.663 10.898 -29.263 Q12.427 -32.863 15.188 -35.723 L22.486 -43.021 Q23.769 -44.205 24.262 -45.734 Q24.755 -47.262 24.755 -49.037 Q24.755 -50.615 24.163 -52.046 Q23.571 -53.476 22.486 -54.56 L17.654 -59.393 Q15.78 -61.168 15.879 -63.437 Q15.977 -65.705 17.753 -67.48 Q19.528 -69.256 21.796 -69.256 Q24.065 -69.256 25.84 -67.48 L30.672 -62.746 Q33.532 -59.985 35.012 -56.484 Q36.491 -52.982 36.491 -49.037 Q36.491 -45.092 34.963 -41.394 Q33.434 -37.696 30.672 -34.934 L23.374 -27.636 Q22.289 -26.452 21.648 -24.924 Q21.007 -23.395 21.007 -21.62 Q21.007 -19.943 21.698 -18.464 Q22.388 -16.984 23.374 -15.899 L28.207 -11.067 Q29.982 -9.292 29.933 -6.925 Q29.883 -4.558 28.108 -2.881 Q26.333 -1.106 24.015 -1.155 Q21.698 -1.204 20.021 -2.881 L15.188 -7.615 Z"/></g><g id="Semibold-S" transform="matrix(1 0 0 1 1998.1 696)"><path d="M62.55 -8.4 Q59.861 -11.088 58.474 -14.51 Q57.087 -17.932 57.087 -21.663 Q57.087 -25.393 58.502 -28.871 Q59.917 -32.348 62.55 -35.037 L69.848 -42.335 Q71.16 -43.647 71.788 -45.369 Q72.417 -47.091 72.417 -48.939 Q72.417 -50.688 71.739 -52.311 Q71.062 -53.934 69.848 -55.247 L65.015 -60.178 Q63.54 -61.653 63.562 -63.535 Q63.583 -65.418 65.058 -66.893 Q66.533 -68.368 68.444 -68.368 Q70.354 -68.368 71.829 -66.893 L76.662 -62.06 Q79.295 -59.427 80.738 -56.076 Q82.181 -52.725 82.181 -48.995 Q82.181 -45.264 80.738 -41.758 Q79.295 -38.253 76.662 -35.62 L69.364 -28.322 Q68.107 -26.967 67.352 -25.316 Q66.598 -23.665 66.598 -21.718 Q66.598 -19.87 67.402 -18.17 Q68.206 -16.47 69.364 -15.213 L74.196 -10.381 Q75.671 -8.906 75.671 -6.995 Q75.671 -5.085 74.196 -3.61 Q72.721 -2.135 70.761 -2.135 Q68.802 -2.135 67.327 -3.61 L62.55 -8.4 Z M40.333 -8.4 Q37.645 -11.187 36.18 -14.587 Q34.716 -17.988 34.716 -21.718 Q34.716 -25.449 36.18 -28.849 Q37.645 -32.25 40.333 -35.037 L47.632 -42.335 Q49.042 -43.647 49.621 -45.369 Q50.2 -47.091 50.2 -48.939 Q50.2 -50.688 49.523 -52.361 Q48.845 -54.033 47.632 -55.247 L42.799 -60.079 Q41.324 -61.554 41.352 -63.437 Q41.38 -65.319 42.799 -66.794 Q44.274 -68.269 46.206 -68.269 Q48.138 -68.269 49.613 -66.794 L54.347 -62.06 Q56.98 -59.427 58.472 -56.076 Q59.964 -52.725 59.964 -48.995 Q59.964 -45.264 58.472 -41.758 Q56.98 -38.253 54.347 -35.62 L47.048 -28.322 Q45.792 -26.967 45.087 -25.267 Q44.381 -23.567 44.381 -21.718 Q44.381 -19.87 45.136 -18.17 Q45.891 -16.47 47.048 -15.213 L51.881 -10.282 Q53.356 -8.807 53.356 -6.897 Q53.356 -4.986 51.881 -3.511 Q50.406 -2.036 48.496 -2.036 Q46.585 -2.036 45.11 -3.511 L40.333 -8.4 Z M18.018 -8.301 Q15.287 -11.033 13.893 -14.461 Q12.499 -17.889 12.499 -21.718 Q12.499 -25.449 13.942 -28.899 Q15.385 -32.348 18.018 -35.037 L25.316 -42.335 Q26.727 -43.647 27.306 -45.369 Q27.885 -47.091 27.885 -49.037 Q27.885 -50.787 27.207 -52.41 Q26.53 -54.033 25.316 -55.247 L20.484 -60.079 Q18.953 -61.554 19.03 -63.437 Q19.107 -65.319 20.582 -66.794 Q22.057 -68.269 23.94 -68.269 Q25.822 -68.269 27.298 -66.794 L32.13 -62.06 Q34.819 -59.427 36.234 -56.076 Q37.649 -52.725 37.649 -48.995 Q37.649 -45.264 36.206 -41.758 Q34.763 -38.253 32.13 -35.62 L24.832 -28.322 Q23.576 -26.967 22.87 -25.267 Q22.165 -23.567 22.165 -21.62 Q22.165 -19.772 22.919 -18.121 Q23.674 -16.47 24.832 -15.213 L29.665 -10.338 Q31.14 -8.863 31.09 -6.925 Q31.041 -4.986 29.566 -3.567 Q28.091 -2.092 26.18 -2.12 Q24.27 -2.148 22.851 -3.567 L18.018 -8.301 Z"/></g><g id="Medium-S" transform="matrix(1 0 0 1 1701.85 696)"><path d="M61.456 -8.914 Q58.896 -11.474 57.541 -14.8 Q56.186 -18.125 56.186 -21.695 Q56.186 -25.265 57.553 -28.614 Q58.92 -31.963 61.456 -34.522 L68.755 -41.821 Q70.163 -43.229 70.856 -45.096 Q71.548 -46.962 71.548 -48.939 Q71.548 -50.817 70.806 -52.585 Q70.064 -54.352 68.755 -55.761 L63.922 -60.692 Q62.672 -61.942 62.709 -63.535 Q62.747 -65.128 63.997 -66.378 Q65.247 -67.628 66.852 -67.628 Q68.457 -67.628 69.706 -66.378 L74.539 -61.546 Q77.075 -59.009 78.454 -55.771 Q79.833 -52.532 79.833 -48.962 Q79.833 -45.393 78.454 -42.032 Q77.075 -38.671 74.539 -36.135 L67.241 -28.837 Q65.856 -27.353 65.053 -25.573 Q64.25 -23.794 64.25 -21.718 Q64.25 -19.742 65.102 -17.913 Q65.954 -16.084 67.241 -14.699 L72.073 -9.866 Q73.323 -8.616 73.323 -7.011 Q73.323 -5.407 72.073 -4.157 Q70.824 -2.907 69.169 -2.907 Q67.515 -2.907 66.265 -4.157 L61.456 -8.914 Z M40.848 -8.914 Q38.288 -11.573 36.872 -14.861 Q35.456 -18.149 35.456 -21.718 Q35.456 -25.288 36.872 -28.576 Q38.288 -31.864 40.848 -34.522 L48.146 -41.821 Q49.653 -43.229 50.297 -45.096 Q50.94 -46.962 50.94 -48.939 Q50.94 -50.817 50.198 -52.634 Q49.456 -54.451 48.146 -55.761 L43.314 -60.594 Q42.064 -61.844 42.075 -63.437 Q42.087 -65.03 43.314 -66.28 Q44.564 -67.53 46.206 -67.53 Q47.848 -67.53 49.098 -66.28 L53.832 -61.546 Q56.369 -59.009 57.796 -55.771 Q59.224 -52.532 59.224 -48.962 Q59.224 -45.393 57.796 -42.032 Q56.369 -38.671 53.832 -36.135 L46.534 -28.837 Q45.149 -27.353 44.395 -25.524 Q43.642 -23.695 43.642 -21.718 Q43.642 -19.742 44.444 -17.913 Q45.247 -16.084 46.534 -14.699 L51.366 -9.768 Q52.616 -8.518 52.616 -6.913 Q52.616 -5.308 51.366 -4.058 Q50.116 -2.808 48.512 -2.808 Q46.907 -2.808 45.657 -4.058 L40.848 -8.914 Z M20.141 -8.816 Q17.506 -11.451 16.177 -14.75 Q14.847 -18.05 14.847 -21.718 Q14.847 -25.288 16.226 -28.625 Q17.605 -31.963 20.141 -34.522 L27.439 -41.821 Q28.946 -43.229 29.59 -45.096 Q30.233 -46.962 30.233 -49.037 Q30.233 -50.916 29.491 -52.683 Q28.749 -54.451 27.439 -55.761 L22.607 -60.594 Q21.333 -61.844 21.394 -63.437 Q21.455 -65.03 22.705 -66.28 Q23.955 -67.53 25.548 -67.53 Q27.141 -67.53 28.391 -66.28 L33.224 -61.546 Q35.784 -59.009 37.151 -55.771 Q38.517 -52.532 38.517 -48.962 Q38.517 -45.393 37.139 -42.032 Q35.76 -38.671 33.224 -36.135 L25.925 -28.837 Q24.54 -27.353 23.787 -25.524 Q23.033 -23.695 23.033 -21.62 Q23.033 -19.643 23.836 -17.863 Q24.639 -16.084 25.925 -14.699 L30.758 -9.791 Q32.008 -8.541 31.959 -6.925 Q31.909 -5.308 30.659 -4.082 Q29.409 -2.832 27.805 -2.843 Q26.2 -2.855 24.974 -4.082 L20.141 -8.816 Z"/></g><g id="Regular-S" transform="matrix(1 0 0 1 1405.73 696)"><path d="M60.654 -9.292 Q58.189 -11.757 56.857 -15.012 Q55.526 -18.266 55.526 -21.718 Q55.526 -25.17 56.857 -28.425 Q58.189 -31.679 60.654 -34.145 L67.953 -41.443 Q69.432 -42.923 70.172 -44.895 Q70.911 -46.868 70.911 -48.939 Q70.911 -50.911 70.122 -52.785 Q69.333 -54.659 67.953 -56.138 L63.12 -61.07 Q62.035 -62.155 62.084 -63.535 Q62.134 -64.916 63.219 -66.001 Q64.303 -67.086 65.684 -67.086 Q67.065 -67.086 68.15 -66.001 L72.983 -61.168 Q75.448 -58.703 76.78 -55.547 Q78.111 -52.391 78.111 -48.939 Q78.111 -45.487 76.78 -42.232 Q75.448 -38.978 72.983 -36.512 L65.684 -29.214 Q64.205 -27.636 63.367 -25.762 Q62.528 -23.888 62.528 -21.718 Q62.528 -19.647 63.416 -17.724 Q64.303 -15.801 65.684 -14.321 L70.517 -9.489 Q71.602 -8.404 71.602 -7.023 Q71.602 -5.642 70.517 -4.558 Q69.432 -3.473 68.002 -3.473 Q66.572 -3.473 65.487 -4.558 L60.654 -9.292 Z M41.225 -9.292 Q38.76 -11.856 37.379 -15.061 Q35.998 -18.266 35.998 -21.718 Q35.998 -25.17 37.379 -28.376 Q38.76 -31.581 41.225 -34.145 L48.524 -41.443 Q50.102 -42.923 50.792 -44.895 Q51.482 -46.868 51.482 -48.939 Q51.482 -50.911 50.693 -52.835 Q49.904 -54.758 48.524 -56.138 L43.691 -60.971 Q42.606 -62.056 42.606 -63.437 Q42.606 -64.817 43.691 -65.902 Q44.776 -66.987 46.206 -66.987 Q47.636 -66.987 48.721 -65.902 L53.455 -61.168 Q55.92 -58.703 57.301 -55.547 Q58.682 -52.391 58.682 -48.939 Q58.682 -45.487 57.301 -42.232 Q55.92 -38.978 53.455 -36.512 L46.157 -29.214 Q44.677 -27.636 43.888 -25.713 Q43.099 -23.789 43.099 -21.718 Q43.099 -19.647 43.937 -17.724 Q44.776 -15.801 46.157 -14.321 L50.989 -9.39 Q52.074 -8.305 52.074 -6.925 Q52.074 -5.544 50.989 -4.459 Q49.904 -3.374 48.524 -3.374 Q47.143 -3.374 46.058 -4.459 L41.225 -9.292 Z M21.698 -9.193 Q19.133 -11.757 17.851 -14.963 Q16.569 -18.168 16.569 -21.718 Q16.569 -25.17 17.9 -28.425 Q19.232 -31.679 21.698 -34.145 L28.996 -41.443 Q30.574 -42.923 31.264 -44.895 Q31.955 -46.868 31.955 -49.037 Q31.955 -51.01 31.166 -52.884 Q30.377 -54.758 28.996 -56.138 L24.163 -60.971 Q23.078 -62.056 23.128 -63.437 Q23.177 -64.817 24.262 -65.902 Q25.347 -66.987 26.727 -66.987 Q28.108 -66.987 29.193 -65.902 L34.026 -61.168 Q36.491 -58.703 37.823 -55.547 Q39.154 -52.391 39.154 -48.939 Q39.154 -45.487 37.823 -42.232 Q36.491 -38.978 34.026 -36.512 L26.727 -29.214 Q25.248 -27.636 24.459 -25.713 Q23.67 -23.789 23.67 -21.62 Q23.67 -19.549 24.508 -17.675 Q25.347 -15.801 26.727 -14.321 L31.56 -9.39 Q32.645 -8.305 32.596 -6.925 Q32.546 -5.544 31.461 -4.459 Q30.377 -3.374 28.996 -3.374 Q27.615 -3.374 26.53 -4.459 L21.698 -9.193 Z"/></g><g id="Light-S" transform="matrix(1 0 0 1 1109.75 696)"><path d="M60.199 -9.975 Q57.901 -12.282 56.657 -15.331 Q55.412 -18.38 55.412 -21.68 Q55.412 -24.981 56.668 -28.064 Q57.923 -31.148 60.199 -33.462 L67.497 -40.76 Q69.129 -42.381 69.944 -44.531 Q70.76 -46.682 70.76 -48.941 Q70.76 -51.101 69.895 -53.152 Q69.03 -55.202 67.497 -56.821 L62.703 -61.753 Q61.921 -62.534 61.933 -63.497 Q61.944 -64.461 62.763 -65.28 Q63.545 -66.062 64.508 -66.062 Q65.472 -66.062 66.291 -65.28 L71.162 -60.485 Q73.476 -58.163 74.731 -55.186 Q75.987 -52.21 75.987 -48.944 Q75.987 -45.677 74.731 -42.598 Q73.476 -39.519 71.162 -37.195 L63.863 -29.897 Q62.227 -28.173 61.316 -26.125 Q60.404 -24.078 60.404 -21.68 Q60.404 -19.382 61.367 -17.326 Q62.331 -15.27 63.863 -13.639 L68.658 -8.806 Q69.439 -8.025 69.458 -7.042 Q69.477 -6.06 68.658 -5.241 Q67.877 -4.459 66.864 -4.459 Q65.851 -4.459 65.032 -5.241 L60.199 -9.975 Z M41.908 -9.975 Q39.594 -12.389 38.289 -15.404 Q36.984 -18.418 36.984 -21.718 Q36.984 -25.018 38.289 -28.033 Q39.594 -31.047 41.908 -33.462 L49.206 -40.76 Q50.936 -42.381 51.702 -44.531 Q52.469 -46.682 52.469 -48.941 Q52.469 -51.101 51.604 -53.201 Q50.739 -55.301 49.206 -56.821 L44.374 -61.692 Q43.554 -62.511 43.573 -63.456 Q43.592 -64.4 44.38 -65.219 Q45.193 -66.039 46.187 -66.001 Q47.181 -65.963 48 -65.182 L52.772 -60.485 Q55.086 -58.163 56.391 -55.186 Q57.696 -52.21 57.696 -48.944 Q57.696 -45.677 56.391 -42.598 Q55.086 -39.519 52.772 -37.195 L45.474 -29.897 Q43.838 -28.184 42.975 -26.1 Q42.113 -24.017 42.113 -21.718 Q42.113 -19.42 43.027 -17.345 Q43.941 -15.27 45.474 -13.639 L50.268 -8.707 Q51.05 -7.926 51.069 -6.944 Q51.088 -5.961 50.268 -5.142 Q49.487 -4.36 48.524 -4.36 Q47.56 -4.36 46.741 -5.142 L41.908 -9.975 Z M23.518 -9.876 Q21.106 -12.289 19.9 -15.304 Q18.693 -18.32 18.693 -21.718 Q18.693 -25.018 19.968 -28.083 Q21.242 -31.148 23.556 -33.462 L30.817 -40.76 Q32.546 -42.381 33.313 -44.531 Q34.079 -46.682 34.079 -49.04 Q34.079 -51.2 33.214 -53.25 Q32.349 -55.301 30.817 -56.821 L25.984 -61.692 Q25.165 -62.511 25.252 -63.475 Q25.339 -64.438 26.127 -65.226 Q26.94 -66.039 27.865 -66.039 Q28.791 -66.039 29.61 -65.219 L34.481 -60.485 Q36.795 -58.17 38.05 -55.202 Q39.306 -52.235 39.306 -48.977 Q39.306 -45.7 38.05 -42.613 Q36.795 -39.526 34.481 -37.195 L27.183 -29.897 Q25.551 -28.167 24.687 -26.111 Q23.822 -24.055 23.822 -21.658 Q23.822 -19.359 24.733 -17.312 Q25.645 -15.264 27.183 -13.639 L31.977 -8.707 Q32.759 -7.926 32.747 -6.944 Q32.736 -5.961 31.917 -5.142 Q31.132 -4.335 30.151 -4.348 Q29.17 -4.36 28.389 -5.142 L23.518 -9.876 Z"/></g><g id="Thin-S" transform="matrix(1 0 0 1 814.015 696)"><path d="M59.744 -10.657 Q57.614 -12.806 56.456 -15.65 Q55.298 -18.494 55.298 -21.643 Q55.298 -24.791 56.478 -27.704 Q57.658 -30.617 59.744 -32.78 L67.042 -40.078 Q68.825 -41.839 69.717 -44.168 Q70.608 -46.497 70.608 -48.943 Q70.608 -51.291 69.667 -53.518 Q68.726 -55.746 67.042 -57.504 L62.286 -62.435 Q61.807 -62.913 61.781 -63.46 Q61.754 -64.006 62.308 -64.56 Q62.786 -65.038 63.332 -65.038 Q63.879 -65.038 64.433 -64.56 L69.341 -59.803 Q71.503 -57.623 72.683 -54.826 Q73.863 -52.03 73.863 -48.948 Q73.863 -45.866 72.683 -42.963 Q71.503 -40.06 69.341 -37.878 L62.043 -30.579 Q60.25 -28.709 59.265 -26.488 Q58.28 -24.267 58.28 -21.643 Q58.28 -19.116 59.319 -16.927 Q60.358 -14.739 62.043 -12.956 L66.8 -8.123 Q67.277 -7.645 67.315 -7.061 Q67.353 -6.477 66.8 -5.923 Q66.322 -5.445 65.726 -5.445 Q65.13 -5.445 64.577 -5.923 L59.744 -10.657 Z M42.591 -10.657 Q40.429 -12.923 39.2 -15.746 Q37.971 -18.57 37.971 -21.718 Q37.971 -24.867 39.2 -27.69 Q40.429 -30.514 42.591 -32.78 L49.889 -40.078 Q51.771 -41.839 52.613 -44.168 Q53.455 -46.497 53.455 -48.943 Q53.455 -51.291 52.514 -53.567 Q51.573 -55.844 49.889 -57.504 L45.056 -62.413 Q44.503 -62.966 44.541 -63.475 Q44.579 -63.983 45.07 -64.537 Q45.61 -65.091 46.168 -65.015 Q46.725 -64.939 47.279 -64.461 L52.089 -59.803 Q54.251 -57.623 55.48 -54.826 Q56.709 -52.03 56.709 -48.948 Q56.709 -45.866 55.48 -42.963 Q54.251 -40.06 52.089 -37.878 L44.791 -30.579 Q42.998 -28.732 42.062 -26.488 Q41.127 -24.245 41.127 -21.718 Q41.127 -19.192 42.117 -16.965 Q43.107 -14.739 44.791 -12.956 L49.548 -8.025 Q50.026 -7.547 50.064 -6.963 Q50.102 -6.378 49.548 -5.825 Q49.07 -5.347 48.524 -5.347 Q47.977 -5.347 47.423 -5.825 L42.591 -10.657 Z M25.339 -10.559 Q23.078 -12.821 21.948 -15.646 Q20.817 -18.471 20.817 -21.718 Q20.817 -24.867 22.035 -27.742 Q23.253 -30.617 25.415 -32.78 L32.637 -40.078 Q34.519 -41.839 35.361 -44.168 Q36.203 -46.497 36.203 -49.042 Q36.203 -51.389 35.262 -53.617 Q34.322 -55.844 32.637 -57.504 L27.805 -62.413 Q27.251 -62.966 27.376 -63.513 Q27.501 -64.059 27.992 -64.55 Q28.533 -65.091 29.003 -65.091 Q29.474 -65.091 30.027 -64.537 L34.936 -59.803 Q37.098 -57.637 38.278 -54.858 Q39.458 -52.079 39.458 -49.015 Q39.458 -45.913 38.278 -42.993 Q37.098 -40.073 34.936 -37.878 L27.638 -30.579 Q25.855 -28.698 24.914 -26.509 Q23.973 -24.321 23.973 -21.696 Q23.973 -19.169 24.959 -16.948 Q25.944 -14.728 27.638 -12.956 L32.394 -8.025 Q32.873 -7.547 32.899 -6.963 Q32.926 -6.378 32.372 -5.825 Q31.887 -5.296 31.306 -5.321 Q30.725 -5.347 30.247 -5.825 L25.339 -10.559 Z"/></g><g id="Ultralight-S" transform="matrix(1 0 0 1 517.792 696)"><path d="M59.471 -11.067 Q57.441 -13.121 56.335 -15.842 Q55.23 -18.562 55.23 -21.62 Q55.23 -24.677 56.364 -27.488 Q57.498 -30.299 59.471 -32.37 L66.769 -39.668 Q68.643 -41.513 69.58 -43.949 Q70.517 -46.385 70.517 -48.944 Q70.517 -51.404 69.531 -53.738 Q68.544 -56.072 66.769 -57.914 L62.035 -62.845 Q61.739 -63.141 61.69 -63.437 Q61.641 -63.733 62.035 -64.127 Q62.331 -64.423 62.627 -64.423 Q62.923 -64.423 63.317 -64.127 L68.249 -59.393 Q70.32 -57.299 71.454 -54.61 Q72.588 -51.921 72.588 -48.951 Q72.588 -45.98 71.454 -43.182 Q70.32 -40.385 68.249 -38.287 L60.95 -30.989 Q59.064 -29.031 58.034 -26.706 Q57.005 -24.381 57.005 -21.62 Q57.005 -18.957 58.09 -16.688 Q59.175 -14.42 60.95 -12.546 L65.684 -7.714 Q65.98 -7.418 66.029 -7.073 Q66.079 -6.727 65.684 -6.333 Q65.388 -6.037 65.043 -6.037 Q64.698 -6.037 64.303 -6.333 L59.471 -11.067 Z M43.001 -11.067 Q40.929 -13.243 39.746 -15.952 Q38.562 -18.661 38.562 -21.718 Q38.562 -24.776 39.746 -27.485 Q40.929 -30.194 43.001 -32.37 L50.299 -39.668 Q52.271 -41.513 53.159 -43.949 Q54.047 -46.385 54.047 -48.944 Q54.047 -51.404 53.06 -53.787 Q52.074 -56.17 50.299 -57.914 L45.466 -62.845 Q45.072 -63.239 45.121 -63.486 Q45.17 -63.733 45.483 -64.127 Q45.861 -64.522 46.157 -64.423 Q46.452 -64.324 46.847 -64.028 L51.68 -59.393 Q53.751 -57.299 54.934 -54.61 Q56.118 -51.921 56.118 -48.951 Q56.118 -45.98 54.934 -43.182 Q53.751 -40.385 51.68 -38.287 L44.381 -30.989 Q42.495 -29.06 41.515 -26.721 Q40.535 -24.381 40.535 -21.718 Q40.535 -19.055 41.57 -16.738 Q42.606 -14.42 44.381 -12.546 L49.115 -7.615 Q49.411 -7.319 49.46 -6.974 Q49.51 -6.629 49.115 -6.234 Q48.819 -5.938 48.524 -5.938 Q48.228 -5.938 47.833 -6.234 L43.001 -11.067 Z M26.431 -10.968 Q24.262 -13.14 23.177 -15.851 Q22.092 -18.562 22.092 -21.718 Q22.092 -24.776 23.276 -27.537 Q24.459 -30.299 26.53 -32.37 L33.73 -39.668 Q35.702 -41.513 36.59 -43.949 Q37.477 -46.385 37.477 -49.043 Q37.477 -51.503 36.491 -53.837 Q35.505 -56.17 33.73 -57.914 L28.897 -62.845 Q28.503 -63.239 28.651 -63.535 Q28.799 -63.831 29.112 -64.144 Q29.489 -64.522 29.686 -64.522 Q29.883 -64.522 30.278 -64.127 L35.209 -59.393 Q37.28 -57.317 38.414 -54.651 Q39.549 -51.985 39.549 -49.037 Q39.549 -46.04 38.414 -43.221 Q37.28 -40.402 35.209 -38.287 L27.911 -30.989 Q26.037 -29.017 25.051 -26.748 Q24.065 -24.48 24.065 -21.718 Q24.065 -19.055 25.094 -16.731 Q26.123 -14.406 27.911 -12.546 L32.645 -7.615 Q32.941 -7.319 32.99 -6.974 Q33.039 -6.629 32.645 -6.234 Q32.34 -5.873 31.999 -5.906 Q31.659 -5.938 31.363 -6.234 L26.431 -10.968 Z"/></g></g></svg>